<?xml version="1.0" encoding="UTF-8" standalone="no"?>
<svg
   xmlns:dc="http://purl.org/dc/elements/1.1/"
   xmlns:cc="http://creativecommons.org/ns#"
   xmlns:rdf="http://www.w3.org/1999/02/22-rdf-syntax-ns#"
   xmlns:svg="http://www.w3.org/2000/svg"
   xmlns="http://www.w3.org/2000/svg"
   xmlns:sodipodi="http://sodipodi.sourceforge.net/DTD/sodipodi-0.dtd"
   xmlns:inkscape="http://www.inkscape.org/namespaces/inkscape"
   version="1.1"
   id="266148745_Layer_1_grid"
   x="0px"
   y="0px"
   width="32px"
   height="32px"
   viewBox="0 0 32 32"
   style="enable-background:new 0 0 32 32;"
   xml:space="preserve"
   sodipodi:docname="icon_light_bulb.svg"
   inkscape:version="1.0.1 (3bc2e813f5, 2020-09-07)"><metadata
   id="metadata855"><rdf:RDF><cc:Work
       rdf:about=""><dc:format>image/svg+xml</dc:format><dc:type
         rdf:resource="http://purl.org/dc/dcmitype/StillImage" /><dc:title></dc:title></cc:Work></rdf:RDF></metadata><defs
   id="defs853" /><sodipodi:namedview
   pagecolor="#ffffff"
   bordercolor="#666666"
   borderopacity="1"
   objecttolerance="10"
   gridtolerance="10"
   guidetolerance="10"
   inkscape:pageopacity="0"
   inkscape:pageshadow="2"
   inkscape:window-width="1749"
   inkscape:window-height="991"
   id="namedview851"
   showgrid="false"
   inkscape:zoom="12.968459"
   inkscape:cx="16"
   inkscape:cy="17.402363"
   inkscape:window-x="0"
   inkscape:window-y="0"
   inkscape:window-maximized="0"
   inkscape:current-layer="266148745_Layer_1_grid"
   showguides="true"
   inkscape:guide-bbox="true"><sodipodi:guide
     position="20.973965,20.819026"
     orientation="0,-1"
     id="guide1456" /><sodipodi:guide
     position="18.89199,23.749212"
     orientation="0,-1"
     id="guide1521" /><sodipodi:guide
     position="22.323393,17.850285"
     orientation="0,-1"
     id="guide1523" /><sodipodi:guide
     position="6.4001437,16.153861"
     orientation="1,0"
     id="guide1525" /><sodipodi:guide
     position="24.790918,14.688768"
     orientation="1,0"
     id="guide1527" /></sodipodi:namedview>




<path
   style="fill:#4D5152;"
   d="M15.5,2.938c-4.694,0-8.5,3.806-8.5,8.501c0,1.546,0.413,2.995,1.134,4.244  c0.833,1.442,2.541,4.019,3.866,5.983v5.281C12,28.5,14.292,30,15.5,30s3.5-1.5,3.5-3.052v-5.28  c1.325-1.965,3.034-4.543,3.867-5.986C23.588,14.434,24,12.984,24,11.439C24,6.745,20.194,2.938,15.5,2.938 M18,26.948  C18,28,16.333,29,15.5,29c-0.834,0-2.5-1-2.5-2.052V22h5V26.948z M16,21h-1 M12.809,21c-1.2-1.729-2.987-4.348-3.808-5.771  C8.364,14.127,8,12.849,8,11.486c0-4.143,3.358-7.501,7.5-7.501c4.143,0,7.5,3.358,7.5,7.501c0,1.363-0.363,2.641-0.999,3.743  c-0.821,1.424-2.61,4.043-3.81,5.771h-4.274H12.809z"
   id="path848" />
<path
   style="fill:none;stroke:#4d5152;stroke-width:1px;stroke-linecap:butt;stroke-linejoin:miter;stroke-opacity:1"
   d="m 18.465285,24.277586 c -6.046271,-0.07198 -6.046271,-0.07198 -6.046271,-0.07198"
   id="path1418" /><path
   style="fill:none;stroke:#4d5152;stroke-width:1px;stroke-linecap:butt;stroke-linejoin:miter;stroke-opacity:1"
   d="m 18.50648,26.696667 c -6.046271,-0.07198 -6.046271,-0.07198 -6.046271,-0.07198"
   id="path1418-5" /><path
   style="fill:none;stroke:#4d5152;stroke-width:1px;stroke-linecap:butt;stroke-linejoin:miter;stroke-opacity:1"
   d="m 30.837189,11.252954 c -6.046271,-0.07198 -6.046271,-0.07198 -6.046271,-0.07198"
   id="path1418-5-7" /><path
   style="fill:none;stroke:#4d5152;stroke-width:1px;stroke-linecap:butt;stroke-linejoin:miter;stroke-opacity:1"
   d="M 6.4545377,11.180974 C 0.40826668,11.108994 0.40826668,11.108994 0.40826668,11.108994"
   id="path1418-5-3" /><path
   style="fill:none;stroke:#4d5152;stroke-width:1px;stroke-linecap:butt;stroke-linejoin:miter;stroke-opacity:1"
   d="M 6.4001437,8.250788 C 0.743126,6.115202 0.743126,6.115202 0.743126,6.115202"
   id="path1418-5-3-5-5" /><path
   style="fill:none;stroke:#4d5152;stroke-width:1px;stroke-linecap:butt;stroke-linejoin:miter;stroke-opacity:1"
   d="M 30.447936,16.285301 C 24.790918,14.149715 24.790918,14.149715 24.790918,14.149715"
   id="path1418-5-3-5-7" /><path
   style="fill:none;stroke:#4d5152;stroke-width:1px;stroke-linecap:butt;stroke-linejoin:miter;stroke-opacity:1"
   d="M 6.4001437,14.149715 C 0.69388858,16.150023 0.69388858,16.150023 0.69388858,16.150023"
   id="path1418-5-3-5-3" /><path
   style="fill:none;stroke:#4d5152;stroke-width:1px;stroke-linecap:butt;stroke-linejoin:miter;stroke-opacity:1"
   d="M 30.497173,6.25048 C 24.790918,8.250788 24.790918,8.250788 24.790918,8.250788"
   id="path1418-5-3-5-3-6" /></svg>
