<?xml version="1.0" encoding="utf-8"?>
<!-- Generator: Adobe Illustrator 16.0.0, SVG Export Plug-In . SVG Version: 6.00 Build 0)  -->
<svg xmlns="http://www.w3.org/2000/svg" xmlns:xlink="http://www.w3.org/1999/xlink" version="1.1" id="266185635_Capa_1_grid" x="0px" y="0px" width="32px" height="32px" viewBox="0 0 32 32" style="enable-background:new 0 0 32 32;" xml:space="preserve">

<path id="266185635_shock_x5F_color_grid" class="stshockcolor" d="M26.11,23.3l-1.57,0.391L22.63,17H15v-1h6.5v-3H15v-2.04c0.16,0.03,0.33,0.04,0.5,0.04  c1.93,0,3.5-1.57,3.5-3.5S17.43,4,15.5,4C13.57,4,12,5.57,12,7.5v5.6l-1.43,0.68C7.79,15.09,6,17.93,6,21c0,4.41,3.59,8,8,8  c3.4,0,6.32-2.14,7.47-5.15l0.99,3.46l4.37-1.1L26.11,23.3z M15.5,7C15.78,7,16,7.22,16,7.5S15.78,8,15.5,8S15,7.78,15,7.5  S15.22,7,15.5,7z M19,21c0,2.76-2.24,5-5,5s-5-2.24-5-5c0-1.78,0.96-3.44,2.5-4.32l0.5-0.29V20h7V21z" style="fill:#67DDE0;;"/>
<path class="st0" d="M20,21h1c0,3.86-3.14,7-7,7c-3.86,0-7-3.14-7-7c0-2.79,1.64-5.2,4-6.32v1.13C9.21,16.84,8,18.78,8,21  c0,3.31,2.69,6,6,6C17.31,27,20,24.31,20,21z M25.621,25.485l-2.469,0.617L21.123,19L13,19.003V7.5C13,6.122,14.121,5,15.5,5  C16.878,5,18,6.122,18,7.5S16.878,10,15.5,10c-0.565,0-1.081-0.195-1.5-0.513V14h6.5v1H14v3.003L21.877,18l1.971,6.897l1.531-0.383  L25.621,25.485z M14,7.5C14,8.327,14.672,9,15.5,9S17,8.327,17,7.5S16.327,6,15.5,6S14,6.673,14,7.5z" style="fill:#4D5152;;"/>
</svg>
