<?xml version="1.0"?>
<svg xmlns="http://www.w3.org/2000/svg" xmlns:xlink="http://www.w3.org/1999/xlink" version="1.1" id="266148668_Outlined_2__grid" x="0px" y="0px" width="32px" height="32px" viewBox="0 0 32 32" style="enable-background:new 0 0 32 32;" xml:space="preserve">
<path id="266148668_shock_x5F_color_grid" class="stshockcolor" style="fill:#FF61E1;" d="M25.46,8v21c0,0.28-0.22,0.5-0.5,0.5h-16c-1.38,0-2.46-1.12-2.46-2.5  c0,0,0-20.95,0-22c0-1.38,1.12-2.5,2.5-2.5h15c0.28,0,0.5,0.22,0.5,0.5v4.5h0.46C25.24,7.5,25.46,7.72,25.46,8z"/>
<path style="opacity:0.2;fill:#FFFFFF;" d="M7,11h18v14H7V11z M24,7.5c0.276,0,0.5-0.224,0.5-0.5V3c0-0.276-0.224-0.5-0.5-0.5H9  C7.622,2.5,6.5,3.622,6.5,5S7.622,7.5,9,7.5H24z"/>
<path style="fill:#FFFFFF;" d="M9,2.5C7.622,2.5,6.5,3.622,6.5,5S7.622,7.5,9,7.5h15.5v-5H9z"/>
<path style="fill:#4D5152;" d="M26,3V2C26,2,9.84,2,9,2C7.34,2,6,3.34,6,5c0,0,0,19.66,0,22c0,1.66,1.34,3,3,3c2.39,0,17,0,17,0V7  h-1V3H26z M9,3c1.44,0,15,0,15,0v4c0,0-13.9,0-15,0S7,6.1,7,5S7.9,3,9,3z M25,29c0,0-14.9,0-16,0s-2-0.9-2-2V7.22  C7.53,7.7,8.23,8,9,8h16V29z M18,15v0.77C17.47,15.3,16.77,15,16,15c-1.65,0-3,1.35-3,3s1.35,3,3,3c0.95,0,1.79-0.45,2.33-1.15  c0.37,0.811,1,1.15,1.689,1.15c1.23,0,1.98-1.29,1.98-3c0-3.54-2.69-6-6-6c-3.31,0-6,2.69-6,6c0,3.31,2.69,6,6,6  c1.6,0,3.11-0.62,4.24-1.76l-0.7-0.7C18.59,22.48,17.34,23,16,23c-2.76,0-5-2.24-5-5s2.24-5,5-5s5,2.01,5,5c0,1.25-0.3,2-0.97,2  C19.15,20,19,19.14,19,18v-3H18z M16,20c-1.1,0-2-0.9-2-2s0.9-2,2-2c1.1,0,2,0.9,2,2S17.1,20,16,20z"/>
</svg>
