<?xml version="1.0"?>
<svg xmlns="http://www.w3.org/2000/svg" xmlns:xlink="http://www.w3.org/1999/xlink" version="1.1" id="266148669_Outlined_2__grid" x="0px" y="0px" width="32px" height="32px" viewBox="0 0 32 32" style="enable-background:new 0 0 32 32;" xml:space="preserve">
<path style="fill:#FFFFFF;" d="M6.05,27C6.05,27,7,17,16,17s9.95,10,9.95,10H6.05z"/>
<path id="266148669_shock_x5F_color_grid" class="stshockcolor" style="fill:#AAAAAA;" d="M5.497,27.5l0.055-0.55c0.414-4.12,3.232-7.623,7.181-8.925l0.45-0.148  L16,25.078l2.817-7.201l0.449,0.148c3.949,1.302,6.768,4.805,7.181,8.925l0.056,0.55H5.497z"/>
<circle style="fill:#FFE4A9;" cx="16" cy="10" r="5.5"/>
<path style="fill:#BF9171;" d="M11.219,10c3.425,0,6.471-1.603,8.446-4.093C18.691,5.035,17.41,4.5,16,4.5  c-3.025,0-5.479,2.443-5.498,5.464C10.74,9.979,10.977,10,11.219,10z"/>
<path style="fill:#4D5152;" d="M16,4c-3.31,0-6,2.69-6,6s2.69,6,6,6c3.31,0,6-2.69,6-6S19.31,4,16,4z M16,15c-2.76,0-5-2.24-5-5  s2.24-5,5-5s5,2.24,5,5S18.76,15,16,15z M18.58,17.32L16.5,22.7V18.85C16.79,18.67,17,18.37,17,18c0-0.55-0.45-1-1-1s-1,0.45-1,1  c0,0.37,0.21,0.67,0.5,0.85V22.7l-2.08-5.38C8.59,18.48,5,22.81,5,28h22C27,22.81,23.41,18.48,18.58,17.32z M12.89,18.5L16,26.45  l3.11-7.95c3.699,1.22,6.439,4.51,6.84,8.5H6.05C6.45,23.01,9.19,19.72,12.89,18.5z"/>
</svg>
