<?xml version="1.0" encoding="utf-8"?>
<!-- Generator: Adobe Illustrator 16.0.0, SVG Export Plug-In . SVG Version: 6.00 Build 0)  -->
<svg xmlns="http://www.w3.org/2000/svg" xmlns:xlink="http://www.w3.org/1999/xlink" version="1.1" id="266185636_Capa_1_grid" x="0px" y="0px" width="32px" height="32px" viewBox="0 0 32 32" style="enable-background:new 0 0 32 32;" xml:space="preserve">

<path id="266185636_shock_x5F_color_grid" class="stshockcolor" d="M16,6.5c-0.83,0-1.5-0.67-1.5-1.5s0.67-1.5,1.5-1.5s1.5,0.67,1.5,1.5S16.83,6.5,16,6.5z   M26.35,24.65C23.62,21.91,22.57,15.8,22.07,12.86l-0.08-0.45C21.47,9.49,20.36,6.5,16,6.5c-4.36,0-5.47,2.99-5.99,5.91l-0.08,0.46  c-0.5,2.93-1.55,9.04-4.28,11.78C5.5,24.79,5.46,25,5.54,25.19C5.62,25.38,5.8,25.5,6,25.5h8.28c-0.18,0-0.34,0.09-0.43,0.25  c-0.09,0.15-0.09,0.34-0.01,0.5c0.44,0.77,1.27,1.25,2.16,1.25s1.72-0.48,2.15-1.25c0.09-0.16,0.09-0.35,0-0.5  c-0.091-0.16-0.25-0.25-0.431-0.25H26c0.2,0,0.38-0.12,0.46-0.31C26.54,25,26.5,24.79,26.35,24.65z" style="fill:#FFD878;;"/>
<path class="st0" d="M16,27.5c-0.891,0-1.716-0.48-2.155-1.253c-0.087-0.155-0.086-0.345,0.003-0.499  c0.089-0.153,0.254-0.248,0.432-0.248h3.44c0.178,0,0.343,0.095,0.432,0.248c0.09,0.154,0.091,0.344,0.003,0.498  C17.717,27.02,16.891,27.5,16,27.5z M17.5,5c0-0.827-0.673-1.5-1.5-1.5S14.5,4.173,14.5,5s0.673,1.5,1.5,1.5S17.5,5.827,17.5,5z" style="opacity:0.2;fill:#4D5152;;"/>
<path class="st1" d="M26.71,24.29c-2.61-2.6-3.65-8.59-4.14-11.47l-0.09-0.5c-0.45-2.57-1.431-5.48-4.851-6.17  C17.86,5.83,18,5.43,18,5c0-1.1-0.9-2-2-2c-1.1,0-2,0.9-2,2c0,0.43,0.14,0.83,0.37,1.15c-3.42,0.69-4.4,3.6-4.85,6.17l-0.09,0.5  C8.94,15.7,7.9,21.69,5.29,24.29c-0.28,0.29-0.37,0.72-0.21,1.09C5.23,25.76,5.6,26,6,26h7.18c0.42,1.16,1.52,2,2.82,2  s2.4-0.84,2.82-2H26c0.4,0,0.77-0.24,0.92-0.62C27.08,25.01,26.99,24.58,26.71,24.29z M16,4c0.55,0,1,0.45,1,1s-0.45,1-1,1  s-1-0.45-1-1S15.45,4,16,4z M16,27c-0.74,0-1.38-0.4-1.72-1h3.44C17.38,26.6,16.74,27,16,27z M6,25c3-3,4.03-9.8,4.5-12.5  C11.03,9.51,12.13,7,16,7s4.97,2.51,5.5,5.5C21.97,15.2,23,22,26,25H6z" style="fill:#4D5152;;"/>
</svg>
