<?xml version="1.0" encoding="utf-8"?>
<!-- Generator: Adobe Illustrator 16.0.0, SVG Export Plug-In . SVG Version: 6.00 Build 0)  -->
<svg xmlns="http://www.w3.org/2000/svg" xmlns:xlink="http://www.w3.org/1999/xlink" version="1.1" id="266185637_Capa_1_grid" x="0px" y="0px" width="32px" height="32px" viewBox="0 0 32 32" style="enable-background:new 0 0 32 32;" xml:space="preserve">

<path id="266185637_shock_x5F_color_grid" class="stshockcolor" d="M25.01,29.51c-1.93,0-3.5-1.57-3.5-3.5s1.57-3.5,3.5-3.5s3.5,1.57,3.5,3.5  S26.939,29.51,25.01,29.51z M10.5,26.01c0-1.93-1.57-3.5-3.5-3.5s-3.5,1.57-3.5,3.5s1.57,3.5,3.5,3.5S10.5,27.939,10.5,26.01z   M19.51,26.01c0-1.93-1.574-3.5-3.51-3.5c-1.93,0-3.5,1.57-3.5,3.5s1.57,3.5,3.5,3.5C17.936,29.51,19.51,27.939,19.51,26.01z   M10.5,17c0-1.93-1.57-3.5-3.5-3.5S3.5,15.07,3.5,17c0,1.936,1.57,3.51,3.5,3.51S10.5,18.936,10.5,17z M19.51,17  c0-1.93-1.574-3.5-3.51-3.5c-1.93,0-3.5,1.57-3.5,3.5c0,1.936,1.57,3.51,3.5,3.51C17.936,20.51,19.51,18.936,19.51,17z M28.51,17  c0-1.93-1.57-3.5-3.5-3.5s-3.5,1.57-3.5,3.5c0,1.936,1.57,3.51,3.5,3.51S28.51,18.936,28.51,17z M28.51,8c0-1.93-1.57-3.5-3.5-3.5  s-3.5,1.57-3.5,3.5s1.57,3.5,3.5,3.5S28.51,9.93,28.51,8z M19.51,8c0-1.93-1.574-3.5-3.51-3.5c-1.93,0-3.5,1.57-3.5,3.5  s1.57,3.5,3.5,3.5C17.936,11.5,19.51,9.93,19.51,8z M10.5,8c0-1.93-1.57-3.5-3.5-3.5S3.5,6.07,3.5,8s1.57,3.5,3.5,3.5  S10.5,9.93,10.5,8z" style="fill:#FF61E1;;"/>
<path class="st0" d="M25.01,29.51c-1.93,0-3.5-1.57-3.5-3.5s1.57-3.5,3.5-3.5s3.5,1.57,3.5,3.5S26.939,29.51,25.01,29.51z   M10.5,26.01c0-1.93-1.57-3.5-3.5-3.5s-3.5,1.57-3.5,3.5s1.57,3.5,3.5,3.5S10.5,27.939,10.5,26.01z M19.51,26.01  c0-1.93-1.574-3.5-3.51-3.5c-1.93,0-3.5,1.57-3.5,3.5s1.57,3.5,3.5,3.5C17.936,29.51,19.51,27.939,19.51,26.01z M28.51,8  c0-1.93-1.57-3.5-3.5-3.5s-3.5,1.57-3.5,3.5s1.57,3.5,3.5,3.5S28.51,9.93,28.51,8z" style="opacity:0.3;fill:#FFFFFF;;"/>
<path class="st1" d="M25.01,22.01c-2.2,0-4,1.8-4,4c0,2.21,1.8,4,4,4c2.21,0,4-1.79,4-4C29.01,23.81,27.22,22.01,25.01,22.01z   M25.01,29.01c-1.649,0-3-1.34-3-3c0-1.649,1.351-3,3-3c1.66,0,3,1.351,3,3C28.01,27.67,26.67,29.01,25.01,29.01z M16,22.01  c-2.2,0-4,1.8-4,4c0,2.21,1.8,4,4,4c2.21,0,4.01-1.79,4.01-4C20.01,23.81,18.21,22.01,16,22.01z M16,29.01c-1.65,0-3-1.34-3-3  c0-1.649,1.35-3,3-3c1.66,0,3.01,1.351,3.01,3C19.01,27.67,17.66,29.01,16,29.01z M7,22.01c-2.21,0-4,1.8-4,4c0,2.21,1.79,4,4,4  s4-1.79,4-4C11,23.81,9.21,22.01,7,22.01z M7,29.01c-1.65,0-3-1.34-3-3c0-1.649,1.35-3,3-3s3,1.351,3,3C10,27.67,8.65,29.01,7,29.01  z M25.01,13c-2.2,0-4,1.8-4,4c0,2.21,1.8,4.01,4,4.01c2.21,0,4-1.8,4-4.01C29.01,14.8,27.22,13,25.01,13z M25.01,20.01  c-1.649,0-3-1.35-3-3.01c0-1.65,1.351-3,3-3c1.66,0,3,1.35,3,3C28.01,18.66,26.67,20.01,25.01,20.01z M16,13c-2.2,0-4,1.8-4,4  c0,2.21,1.8,4.01,4,4.01c2.21,0,4.01-1.8,4.01-4.01C20.01,14.8,18.21,13,16,13z M16,20.01c-1.65,0-3-1.35-3-3.01c0-1.65,1.35-3,3-3  c1.66,0,3.01,1.35,3.01,3C19.01,18.66,17.66,20.01,16,20.01z M7,13c-2.21,0-4,1.8-4,4c0,2.21,1.79,4.01,4,4.01s4-1.8,4-4.01  C11,14.8,9.21,13,7,13z M7,20.01c-1.65,0-3-1.35-3-3.01c0-1.65,1.35-3,3-3s3,1.35,3,3C10,18.66,8.65,20.01,7,20.01z M25.01,4  c-2.2,0-4,1.79-4,4s1.8,4,4,4c2.21,0,4-1.79,4-4S27.22,4,25.01,4z M25.01,11c-1.649,0-3-1.35-3-3s1.351-3,3-3c1.66,0,3,1.35,3,3  S26.67,11,25.01,11z M16,4c-2.2,0-4,1.79-4,4s1.8,4,4,4c2.21,0,4.01-1.79,4.01-4S18.21,4,16,4z M16,11c-1.65,0-3-1.35-3-3  s1.35-3,3-3c1.66,0,3.01,1.35,3.01,3S17.66,11,16,11z M7,4C4.79,4,3,5.79,3,8s1.79,4,4,4s4-1.79,4-4S9.21,4,7,4z M7,11  c-1.65,0-3-1.35-3-3s1.35-3,3-3s3,1.35,3,3S8.65,11,7,11z" style="fill:#4D5152;;"/>
</svg>
