<?xml version="1.0"?>
<svg xmlns="http://www.w3.org/2000/svg" xmlns:xlink="http://www.w3.org/1999/xlink" version="1.1" id="266148676_Outlined_2__grid" x="0px" y="0px" width="32px" height="32px" viewBox="0 0 32 32" style="enable-background:new 0 0 32 32;" xml:space="preserve">
<path id="266148676_shock_x5F_color_grid" class="stshockcolor" style="fill:#67DDE0;" d="M15.5,27.5c-6.617,0-12-5.383-12-12c0-6.617,5.383-12,12-12  c6.617,0,12,5.383,12,12C27.5,22.117,22.117,27.5,15.5,27.5z"/>
<path style="fill:#4D5152;" d="M15.5,3C8.6,3,3,8.6,3,15.5C3,22.4,8.6,28,15.5,28S28,22.4,28,15.5C28,8.6,22.4,3,15.5,3z M15.5,27  C9.15,27,4,21.85,4,15.5C4,9.15,9.15,4,15.5,4S27,9.15,27,15.5C27,21.85,21.85,27,15.5,27z M24,15.48l-7.91,8.03l-0.82-0.7l6.8-6.81  H7v-1h15.108L15.31,8.22l0.709-0.71L24,15.48z"/>
</svg>
