<?xml version="1.0"?>
<svg xmlns="http://www.w3.org/2000/svg" xmlns:xlink="http://www.w3.org/1999/xlink" version="1.1" id="266247323_icon_grid" x="0px" y="0px" width="32px" height="32px" viewBox="0 0 32 32" style="enable-background:new 0 0 32 32;" xml:space="preserve">
<polygon id="266247323_shock_x5F_color_grid" class="stshockcolor" style="fill:#BFBFBF;" points="5.75,4.75 5.75,25.25 9.25,25.25 9.25,22.75 8.25,22.75 8.25,22.25   23.75,22.25 23.75,22.75 22.75,22.75 22.75,25.25 26.25,25.25 26.25,4.75 "/>
<rect x="8.5" y="7.5" style="fill:#FFD878;" width="15" height="12"/>
<rect x="9.75" y="22.75" style="fill:#75EA9C;" width="12.5" height="6.5"/>
<path style="opacity:0.4;fill:#FFFFFF;" d="M14.25,25c0-1.22,0.801-2.25,1.75-2.25c0.948,0,1.75,1.03,1.75,2.25  s-0.802,2.25-1.75,2.25C15.051,27.25,14.25,26.22,14.25,25z M23.5,7.5l-12,12h12V7.5z"/>
<path style="fill:#4D5152;" d="M26,4H6C5.45,4,5,4.45,5,5v20c0,0.549,0.45,1,1,1h3v3.5C9,29.779,9.22,30,9.5,30h13  c0.28,0,0.5-0.221,0.5-0.5V26h3c0.55,0,1-0.451,1-1V5C27,4.45,26.55,4,26,4z M22,29H10v-6h4.148c-0.399,0.531-0.648,1.228-0.648,2  c0,1.656,1.119,3,2.5,3s2.5-1.344,2.5-3c0-0.772-0.25-1.469-0.648-2H22v2v1V29z M17.5,25c0,1.084-0.687,2-1.5,2s-1.5-0.916-1.5-2  s0.687-2,1.5-2S17.5,23.916,17.5,25z M26,25h-3v-2h1v-1h-1.5h-13H9H8v1h1v2H6V5h20V25z M9,20h14c0.553,0,1-0.447,1-1V8  c0-0.553-0.447-1-1-1H9C8.447,7,8,7.447,8,8v11C8,19.553,8.447,20,9,20z M9,8h14v11H9V8z M16.5,13.167V14H18v1h-1.5v1H18v1h-1.5v1  h-1v-1H14v-1h1.5v-1H14v-1h1.5v-0.833L12.6,9.3l0.8-0.6l2.6,3.467L18.6,8.7L19.4,9.3L16.5,13.167z"/>
</svg>
