<?xml version="1.0" encoding="utf-8"?>
<!-- Generator: Adobe Illustrator 16.0.0, SVG Export Plug-In . SVG Version: 6.00 Build 0)  -->
<svg xmlns="http://www.w3.org/2000/svg" xmlns:xlink="http://www.w3.org/1999/xlink" version="1.1" id="266789649_Outlined_2__grid" x="0px" y="0px" width="32px" height="32px" viewBox="0 0 32 32" style="enable-background:new 0 0 32 32;" xml:space="preserve">

<path class="st0" d="M7.5,12.5V5h2v7.5H7.5z M9.5,26.999V15.5h-2v11.499H9.5z M17.5,18.504V5h-2v13.503H17.5z M17.5,26.999v-5.493  h-2v5.493H17.5z M25.508,9.499V5h-2v4.498H25.508z M25.508,26.999v-14.5h-2v14.5H25.508z" style="fill-rule:evenodd;clip-rule:evenodd;fill:#AAAAAA;;"/>
<path id="266789649_shock_x5F_color_grid" class="stshockcolor" d="M21.5,12.5v-3h6v3H21.5z M11.5,15.5v-3h-6v3H11.5z M19.5,21.5v-3h-6v3H19.5z" style="fill-rule:evenodd;clip-rule:evenodd;fill:#67DDE0;;"/>
<path class="st1" d="M18,18V5h-1v13h-1V5h-1v13h-2v4h2v5h1v-5h1v5h1v-5h2v-4H18z M19,21h-5v-2h5V21z M26,9V5h-1v4h-1V5h-1v4h-2v4h2  v14h1V13h1v14h1V13h2V9H26z M27,12h-5v-2h5V12z M10,12V5H9v7H8V5H7v7H5v4h2v11h1V16h1v11h1V16h2v-4H10z M11,15H6v-2h5V15z" style="fill-rule:evenodd;clip-rule:evenodd;fill:#4D5152;;"/>
</svg>
