<?xml version="1.0"?>
<svg xmlns="http://www.w3.org/2000/svg" xmlns:xlink="http://www.w3.org/1999/xlink" version="1.1" id="266148683_Outlined_2__grid" x="0px" y="0px" width="32px" height="32px" viewBox="0 0 32 32" style="enable-background:new 0 0 32 32;" xml:space="preserve">
<polygon id="266148683_shock_x5F_color_grid" class="stshockcolor" style="fill:#BFBFBF;" points="7.5,11.207 7.5,11.5 4.003,11.5 3.559,11.597 3.5,12.028 3.5,20.417   3.915,20.489 7.5,20.5 7.5,20.793 13.5,26.793 13.5,5.207 "/>
<path style="opacity:0.4;fill:#FFFFFF;" d="M13.5,5.207v3l-6,6V14.5H4.003l-0.444,0.097l-0.06,0.43v-2.999l0.06-0.432L4.003,11.5  H7.5v-0.293L13.5,5.207z"/>
<path style="fill:#AAAAAA;" d="M14,12.5h-0.5v7.016l0.515-0.016C14.27,19.492,16.5,19.328,16.5,16C16.5,12.54,14.102,12.5,14,12.5z"/>
<path style="fill:#4D5152;" d="M14,12V4l-7,7H4c-1,0-1,1-1,1v8c0,1,1,1,1,1h3l7,7v-8c0,0,3,0,3-4S14,12,14,12z M4.028,20.001  L4,19.996l0-7.968L4.003,12H7v8L4.028,20.001z M13,25.586l-5-5v-9.172l5-5V12v8V25.586z M14,19v-6c0.082,0,2,0.034,2,3  C16,18.8,14.322,18.99,14,19z M23.949,15.5l3.536,3.536l-0.707,0.707l-3.536-3.535l-3.535,3.535L19,19.035l3.535-3.536L19,11.964  l0.707-0.707l3.535,3.536l3.536-3.536l0.707,0.707L23.949,15.5z"/>
</svg>
