<?xml version="1.0"?>
<svg xmlns="http://www.w3.org/2000/svg" xmlns:xlink="http://www.w3.org/1999/xlink" version="1.1" id="266148680_Outlined_2__grid" x="0px" y="0px" width="32px" height="32px" viewBox="0 0 32 32" style="enable-background:new 0 0 32 32;" xml:space="preserve">
<polygon id="266148680_shock_x5F_color_grid" class="stshockcolor" style="fill:#BFBFBF;" points="7.5,11.207 7.5,11.5 4.003,11.5 3.559,11.597 3.5,12.028 3.5,20.417   3.915,20.489 7.5,20.5 7.5,20.793 13.5,26.793 13.5,5.207 "/>
<path style="opacity:0.4;fill:#FFFFFF;" d="M13.5,5.207v3l-6,6V14.5H4.003l-0.444,0.097l-0.06,0.43v-2.999l0.06-0.432L4.003,11.5  H7.5v-0.293L13.5,5.207z"/>
<path style="fill:#AAAAAA;" d="M14,12.5h-0.5v7.016l0.515-0.016C14.27,19.492,16.5,19.328,16.5,16C16.5,12.54,14.102,12.5,14,12.5z"/>
<path style="fill:#4D5152;" d="M29,16c0,8.141-3.05,10.776-3.18,10.884l-0.641-0.768C25.206,26.094,28,23.612,28,16  c0-8.561-3.729-11.053-3.768-11.078l0.532-0.846C24.938,4.184,29,6.828,29,16z M17,16c0,4-3,4-3,4v8l-7-7H4c0,0-1,0-1-1v-8  c0,0,0-1,1-1h3l7-7v8C14,12,17,12,17,16z M7,12H4v7.996l0.028,0.005L7,20V12z M13,6.414l-5,5v9.172l5,5V20v-8V6.414z M16,16  c0-2.966-1.918-3-2-3v6C14.322,18.99,16,18.8,16,16z M21.82,7.116l-0.642,0.767C21.207,7.907,24,10.336,24,16  c0,5.594-1.788,7.09-1.8,7.1l0.6,0.801c0.09-0.067,2.2-1.722,2.2-7.9C25,9.837,21.95,7.224,21.82,7.116z M18.8,10.1l-0.603,0.798  C18.271,10.955,20,12.333,20,16s-1.729,5.045-1.8,5.1l0.6,0.801c0.09-0.067,2.2-1.698,2.2-5.9C21,11.798,18.89,10.167,18.8,10.1z"/>
</svg>
