<?xml version="1.0" encoding="utf-8"?>
<!-- Generator: Adobe Illustrator 16.0.0, SVG Export Plug-In . SVG Version: 6.00 Build 0)  -->
<svg xmlns="http://www.w3.org/2000/svg" xmlns:xlink="http://www.w3.org/1999/xlink" version="1.1" id="266789653_Outlined_2__grid" x="0px" y="0px" width="32px" height="32px" viewBox="0 0 32 32" style="enable-background:new 0 0 32 32;" xml:space="preserve">

<path id="266789653_shock_x5F_color_grid" class="stshockcolor" d="M15.5,28.5c-6.617,0-12-5.383-12-12c0-6.617,5.383-12,12-12c6.617,0,12,5.383,12,12  C27.5,23.117,22.117,28.5,15.5,28.5z" style="fill:#AAAAAA;;"/>
<path class="st2" d="M15.5,24.5c-4.41,0-8-3.587-8-8c0-4.411,3.59-8,8-8c4.415,0,8,3.589,8,8C23.5,20.913,19.915,24.5,15.5,24.5z" style="opacity:0.4;fill:#4D5152;;"/>
<path class="st1" d="M15.5,4C8.597,4,3,9.597,3,16.5S8.597,29,15.5,29S28,23.403,28,16.5S22.403,4,15.5,4z M15.5,28  C9.159,28,4,22.841,4,16.5C4,10.159,9.159,5,15.5,5C21.841,5,27,10.159,27,16.5C27,22.841,21.841,28,15.5,28z M21.847,10.86  l1.007-1.006l-0.707-0.707l-1.007,1.006C19.639,8.818,17.667,8,15.5,8C10.806,8,7,11.806,7,16.5s3.806,8.5,8.5,8.5  s8.5-3.806,8.5-8.5C24,14.333,23.182,12.361,21.847,10.86z M15.5,24C11.364,24,8,20.636,8,16.5S11.364,9,15.5,9  c1.889,0,3.61,0.707,4.931,1.862l-2.284,2.284l0.707,0.707l2.284-2.284C22.293,12.889,23,14.612,23,16.5  C23,20.636,19.636,24,15.5,24z" style="fill:#4D5152;;"/>
</svg>
