<?xml version="1.0"?>
<svg xmlns="http://www.w3.org/2000/svg" xmlns:xlink="http://www.w3.org/1999/xlink" version="1.1" id="266148682_Outlined_2__grid" x="0px" y="0px" width="32px" height="32px" viewBox="0 0 32 32" style="enable-background:new 0 0 32 32;" xml:space="preserve">
<polygon id="266148682_shock_x5F_color_grid" class="stshockcolor" style="fill:#BFBFBF;" points="7.5,11.207 7.5,11.5 4.003,11.5 3.559,11.597 3.5,12.028 3.5,20.417   3.915,20.489 7.5,20.5 7.5,20.793 13.5,26.793 13.5,5.207 "/>
<path style="opacity:0.4;fill:#FFFFFF;" d="M13.5,5.207v3l-6,6V14.5H4.003l-0.444,0.097l-0.06,0.43v-2.999l0.06-0.432L4.003,11.5  H7.5v-0.293L13.5,5.207z"/>
<path style="fill:#AAAAAA;" d="M14,12.5h-0.5v7.016l0.515-0.016C14.27,19.492,16.5,19.328,16.5,16C16.5,12.54,14.102,12.5,14,12.5z"/>
<path style="fill:#4D5152;" d="M14,12V4l-7,7H4c-1,0-1,1-1,1v8c0,1,1,1,1,1h3l7,7v-8c0,0,3,0,3-4S14,12,14,12z M7,20l-2.972,0.001  L4,19.996V12h0.003H7V20z M13,12v8v5.586l-5-5v-9.172l5-5V12z M14,19v-6c0.082,0,2,0.034,2,3C16,18.8,14.322,18.99,14,19z M25,16  c0,6.179-2.11,7.833-2.2,7.9L22.2,23.1c0.012-0.01,1.8-1.506,1.8-7.1c0-5.664-2.793-8.093-2.821-8.117l0.642-0.767  C21.95,7.224,25,9.837,25,16z M21,16c0,4.202-2.11,5.833-2.2,5.9L18.2,21.1c0.07-0.055,1.8-1.433,1.8-5.1s-1.729-5.045-1.803-5.102  L18.8,10.1C18.89,10.167,21,11.798,21,16z"/>
</svg>
