<?xml version="1.0" encoding="utf-8"?>
<!-- Generator: Adobe Illustrator 16.0.0, SVG Export Plug-In . SVG Version: 6.00 Build 0)  -->
<svg xmlns="http://www.w3.org/2000/svg" xmlns:xlink="http://www.w3.org/1999/xlink" version="1.1" id="266789643_Outlined_2__grid" x="0px" y="0px" width="32px" height="32px" viewBox="0 0 32 32" style="enable-background:new 0 0 32 32;" xml:space="preserve">

<path id="266789643_shock_x5F_color_grid" class="stshockcolor" d="M28.5,8v15.99c-0.02,0.95-0.58,1.51-1.5,1.51H5c-0.94-0.02-1.5-0.58-1.5-1.5V8.01  C3.52,7.06,4.08,6.5,5,6.5h21.99C27.93,6.52,28.5,7.09,28.5,8z" style="fill:#AAAAAA;;"/>
<path class="st2" d="M20,18v7.5H5V18c0,0,0-1,1-1h13C19,17,20,17,20,18z" style="opacity:0.2;fill:#FFFFFF;;"/>
<circle class="st3" cx="23.5" cy="20.5" r="2" style="opacity:0.6;fill:#4D5152;;"/>
<path class="st1" d="M14,20v1h-3v-1H14z M11,22v1h3v-1H11z M9,10V8H8v2H7v1h1v5h1v-5h1v-1H9z M6,20v1h3v-1H6z M24,10V8h-1v2h-1v1h1  v5h1v-5h1v-1H24z M6,18v1h3v-1H6z M11,18v1h3v-1H11z M6,22v1h3v-1H6z M26,20.5c0,1.38-1.12,2.5-2.5,2.5S21,21.88,21,20.5  s1.12-2.5,2.5-2.5S26,19.12,26,20.5z M25,20.5c0-0.83-0.67-1.5-1.5-1.5S22,19.67,22,20.5s0.67,1.5,1.5,1.5S25,21.33,25,20.5z M14,12  V8h-1v4h-1v1h1v3h1v-3h1v-1H14z M19,12V8h-1v4h-1v1h1v3h1v-3h1v-1H19z M29,8v16c0,0,0,2-2,2H5c0,0-2,0-2-2V8c0,0,0-2,2-2h22  C27,6,29,6,29,8z M28,8c0-0.8-0.55-0.99-1.01-1H5C4.19,7,4.01,7.55,4,8.01V24c0,0.81,0.55,0.99,1.01,1H27c0.81,0,0.99-0.55,1-1.01V8  z M16,22v1h3v-1H16z M16,18v1h3v-1H16z M16,20v1h3v-1H16z" style="fill:#4D5152;;"/>
</svg>
