<?xml version="1.0"?>
<svg xmlns="http://www.w3.org/2000/svg" xmlns:xlink="http://www.w3.org/1999/xlink" version="1.1" id="2663285692_Layer_1_grid" x="0px" y="0px" viewBox="0 0 32 32" style="enable-background:new 0 0 32 32;" xml:space="preserve">
<path style="fill:#67DDE0;" d="M6,19.5c-0.9,0-1.5-0.6-1.5-1.5V8c0-0.9,0.6-1.5,1.5-1.5h14c0.9,0,1.5,0.6,1.5,1.5v1.5H9  c-1.4,0-1.5,1.3-1.5,1.5v8.5H6z"/>
<g>
	<path style="fill:#67DDE0;" d="M9,22.5c-0.9,0-1.5-0.6-1.5-1.5V11c0-0.9,0.6-1.5,1.5-1.5h14c0.9,0,1.5,0.6,1.5,1.5v1.5H12   c-1.4,0-1.5,1.3-1.5,1.5v8.5H9z"/>
	<path style="opacity:0.2;fill:#FFFFFF;enable-background:new    ;" d="M9,22.5c-0.9,0-1.5-0.6-1.5-1.5V11c0-0.9,0.6-1.5,1.5-1.5h14   c0.9,0,1.5,0.6,1.5,1.5v1.5H12c-1.4,0-1.5,1.3-1.5,1.5v8.5H9z"/>
</g>
<path style="fill:#ACF0F2;" d="M27.5,14v7.5l-4-4l-4,5l-4-3l-5,5V14c0-0.9,0.6-1.5,1.5-1.5h14C26.9,12.5,27.5,13.1,27.5,14z"/>
<circle style="fill:#FFD878;" cx="14" cy="16" r="1.5"/>
<path class="stshockcolor" style="fill:#75EA9C;" d="M12,25.5c-0.8,0-1.1-0.4-1.3-0.7l-0.2-0.3l5-5l4,3l4-5l4,4V24  c0,0.9-0.6,1.5-1.5,1.5C26,25.5,12,25.5,12,25.5z"/>
<path style="fill:#4D5152;" d="M26,12h-1v-1c0-2-2-2-2-2h-1V8c0-2-2-2-2-2H6C4,6,4,8,4,8v10c0,2,2,2,2,2h1v1c0,2,2,2,2,2h1v1  c0,2,2,2,2,2h14c2,0,2-2,2-2V14C28,12,26,12,26,12z M7,11v8H6c-0.5,0-1-0.2-1-1V8c0-0.5,0.2-1,1-1h14c0.5,0,1,0.2,1,1v1H9  C7,9,7,11,7,11z M10,14v8H9c-0.5,0-1-0.2-1-1V11c0-0.5,0.2-1,1-1h14c0.5,0,1,0.2,1,1v1H12C10,12,10,14,10,14z M27,24  c0,0.5-0.2,1-1,1H12c-0.3,0-0.7-0.1-0.9-0.4l4.4-4.4l4,3l4-4.9l3.5,3.5V24z M27,20.3l-3.5-3.5l-4,5.1l-4-3L11,23.3V14  c0-0.5,0.2-1,1-1h14c0.5,0,1,0.2,1,1V20.3z M14,14c-1.1,0-2,0.9-2,2s0.9,2,2,2s2-0.9,2-2S15.1,14,14,14z M14,17c-0.6,0-1-0.5-1-1  s0.4-1,1-1s1,0.4,1,1C15,16.5,14.6,17,14,17z"/>
</svg>
