<?xml version="1.0"?>
<svg xmlns="http://www.w3.org/2000/svg" xmlns:xlink="http://www.w3.org/1999/xlink" version="1.1" id="266247324_Outlined_2__grid" x="0px" y="0px" width="32px" height="32px" viewBox="0 0 32 32" style="enable-background:new 0 0 32 32;" xml:space="preserve">
<path id="266247324__x3C_Trazado_x3E__grid" style="fill:#FF61E1;" d="M25,18.5c-1.29,0-2.507-0.377-3.519-1.092  c-0.179-0.125-0.255-0.352-0.188-0.56c0.065-0.208,0.259-0.349,0.477-0.349h6.461c0.218,0,0.411,0.141,0.477,0.349  c0.066,0.208-0.01,0.435-0.188,0.56C27.507,18.123,26.29,18.5,25,18.5z"/>
<path style="fill:#67DDE0;" d="M7,18.5c-1.291,0-2.507-0.378-3.519-1.092c-0.178-0.126-0.254-0.352-0.188-0.56S3.552,16.5,3.77,16.5  h6.46c0.218,0,0.411,0.141,0.477,0.349s-0.01,0.434-0.188,0.56C9.507,18.122,8.291,18.5,7,18.5z"/>
<path id="266247324_shock_x5F_color_grid" class="stshockcolor" style="fill:#AAAAAA;" d="M18.5,26.94c0.01,0.149-0.03,0.29-0.13,0.39c-0.09,0.11-0.23,0.17-0.37,0.17h-4  c-0.14,0-0.28-0.06-0.37-0.17c-0.1-0.1-0.14-0.24-0.13-0.39L13.72,25l0.22-2L15.5,8.94C15.53,8.69,15.75,8.5,16,8.5  s0.47,0.19,0.5,0.44L18.06,23l0.221,2L18.5,26.94z M17.5,6c0-0.827-0.673-1.5-1.5-1.5S14.5,5.173,14.5,6s0.673,1.5,1.5,1.5  S17.5,6.827,17.5,6z"/>
<path style="opacity:0.2;fill:#FFFFFF;" d="M18.28,25h-4.56l0.22-2L15.5,8.94C15.53,8.69,15.75,8.5,16,8.5s0.47,0.19,0.5,0.44  L18.06,23L18.28,25z"/>
<path style="fill:#4D5152;" d="M29.95,16.28C29.86,16.11,29.69,16,29.5,16h-0.64L25.8,7.69c0.94,0.4,1.4,0.71,1.41,0.72  C27.3,8.47,27.4,8.5,27.5,8.5c0.16,0,0.31-0.07,0.41-0.21c0.16-0.22,0.1-0.54-0.12-0.7c-0.14-0.09-3.21-2.22-10.04-2.55  C17.41,4.43,16.76,4,16,4s-1.41,0.43-1.75,1.04C7.42,5.37,4.35,7.5,4.21,7.59c-0.23,0.16-0.28,0.47-0.12,0.7  c0.16,0.22,0.47,0.28,0.7,0.12C4.8,8.4,5.28,8.08,6.25,7.67L3.18,16H2.5c-0.19,0-0.36,0.11-0.45,0.28  c-0.08,0.17-0.06,0.37,0.05,0.52C2.17,16.89,3.79,19,7,19s4.83-2.11,4.9-2.2c0.11-0.149,0.13-0.35,0.05-0.52  C11.86,16.11,11.69,16,11.5,16h-0.64L7.61,7.17c1.5-0.48,3.61-0.95,6.4-1.11C14.04,7.14,14.92,8,16,8s1.96-0.86,1.99-1.94  C20.8,6.22,22.93,6.7,24.43,7.18L21.18,16H20.5c-0.19,0-0.36,0.11-0.45,0.28c-0.08,0.17-0.06,0.37,0.05,0.52  c0.07,0.09,1.69,2.2,4.9,2.2s4.83-2.11,4.9-2.2C30.01,16.65,30.03,16.45,29.95,16.28z M7,18c-1.48,0-2.55-0.52-3.23-1h6.46  C9.55,17.48,8.48,18,7,18z M9.8,16H4.25l2.77-7.53L9.8,16z M16,7c-0.55,0-1-0.45-1-1s0.45-1,1-1s1,0.45,1,1S16.55,7,16,7z   M25.02,8.47L27.8,16h-5.55L25.02,8.47z M25,18c-1.48,0-2.55-0.52-3.23-1h6.461C27.55,17.48,26.48,18,25,18z M21.5,27h-2.52  l0.01-0.13l-2-18C16.92,8.37,16.5,8,16,8s-0.92,0.37-0.99,0.87l-2,18L13.02,27H10.5c-0.28,0-0.5,0.22-0.5,0.5s0.22,0.5,0.5,0.5h11  c0.28,0,0.5-0.22,0.5-0.5S21.78,27,21.5,27z M14,27l2-18l2,18H14z"/>
</svg>
