<?xml version="1.0"?>
<svg xmlns="http://www.w3.org/2000/svg" xmlns:xlink="http://www.w3.org/1999/xlink" version="1.1" id="266247325_Outlined_2__grid" x="0px" y="0px" width="32px" height="32px" viewBox="0 0 32 32" style="enable-background:new 0 0 32 32;" xml:space="preserve">
<path id="266247325_shock_x5F_color_grid" class="stshockcolor" style="fill:#AAAAAA;" d="M29.5,25.5v-2h-1v-2h-1v-9H29c0.28,0,0.5-0.22,0.5-0.5v-1  c0-0.28-0.22-0.5-0.5-0.5h-1.5c0.24,0,0.45-0.17,0.49-0.41c0.05-0.23-0.08-0.47-0.3-0.55l-11.5-4.61C16.13,4.9,16.06,4.89,16,4.89  c-0.06,0-0.13,0.01-0.19,0.04L4.31,9.54c-0.22,0.08-0.35,0.32-0.3,0.55c0.04,0.24,0.25,0.41,0.49,0.41H3c-0.28,0-0.5,0.22-0.5,0.5v1  c0,0.28,0.22,0.5,0.5,0.5h1.5v9h-1v2h-1v2h-1v2h29v-2H29.5z M25.5,12.5v9h-5v-9H25.5z M18.5,12.5v9h-5v-9H18.5z M11.5,12.5v9h-5v-9  H11.5z"/>
<path style="opacity:0.4;fill:#FFFFFF;" d="M29.5,11v1c0,0.28-0.22,0.5-0.5,0.5h-1.5V22h-2v-9.5h-5V22h-2v-9.5h-5V22h-2v-9.5h-5V22  h-2v-9.5H3c-0.28,0-0.5-0.22-0.5-0.5v-1c0-0.28,0.22-0.5,0.5-0.5h26C29.28,10.5,29.5,10.72,29.5,11z"/>
<path style="fill:#4D5152;" d="M30,25v-2h-1v-2h-1v-8h2V9.82L16,4.21L2,9.82V13h2v8H3v2H2v2H1v3h30v-3H30z M16,5.39L27.5,10h-23  L16,5.39z M3,12v-1h26v1h-2v9h-1v-9h-6v9h-1v-9h-6v9h-1v-9H6v9H5v-9H3z M25,13v8h-4v-8H25z M18,13v8h-4v-8H18z M11,13v8H7v-8H11z   M4,22h24v1H4V22z M3,24h26v1H3V24z M30,27H2v-1h28V27z"/>
</svg>
