<?xml version="1.0"?>
<svg xmlns="http://www.w3.org/2000/svg" xmlns:xlink="http://www.w3.org/1999/xlink" version="1.1" id="266247326_icon_grid" x="0px" y="0px" width="32px" height="32px" viewBox="0 0 32 32" style="enable-background:new 0 0 32 32;" xml:space="preserve">
<path id="266247326_shock_x5F_color_grid" class="stshockcolor" style="opacity:0.6;fill:#4D5152;" d="M3.5,8.5h3v15h-3V8.5z M10.5,23.5h3v-15h-3V23.5z M17.5,23.5h4v-15  h-4V23.5z M25.5,8.5v15h3v-15H25.5z"/>
<path style="fill:#4D5152;" d="M3,24h4V8H3V24z M4,9h2v14H4V9z M8,8h1v16H8V8z M10,24h4V8h-4V24z M11,9h2v14h-2V9z M15,8h1v16h-1V8z   M17,24h5V8h-5V24z M18,9h3v14h-3V9z M23,8h1v16h-1V8z M25,8v16h4V8H25z M28,23h-2V9h2V23z"/>
</svg>
