<?xml version="1.0"?>
<svg xmlns="http://www.w3.org/2000/svg" xmlns:xlink="http://www.w3.org/1999/xlink" version="1.1" id="266247327_Outlined_2__grid" x="0px" y="0px" width="32px" height="32px" viewBox="0 0 32 32" style="enable-background:new 0 0 32 32;" xml:space="preserve">
<path id="266247327_shock_x5F_color_grid" class="stshockcolor" style="fill:#75EA9C;" d="M30,9v14c0,0.55-0.45,1-1,1H3c-0.55,0-1-0.45-1-1V9c0-0.55,0.45-1,1-1h26  C29.55,8,30,8.45,30,9z"/>
<path style="opacity:0.4;fill:#FFFFFF;" d="M29,11.5c-1.379,0-2.5-1.122-2.5-2.5V8.5H29c0.275,0,0.5,0.224,0.5,0.5v2.5H29z M29,23.5  c0.275,0,0.5-0.225,0.5-0.5v-2.5H29c-1.379,0-2.5,1.121-2.5,2.5v0.5H29z M5.5,23.5V23c0-1.379-1.122-2.5-2.5-2.5H2.5V23  c0,0.275,0.224,0.5,0.5,0.5H5.5z M3,11.5c1.378,0,2.5-1.122,2.5-2.5V8.5H3C2.724,8.5,2.5,8.724,2.5,9v2.5H3z M20.5,16  c0-3.033-2.019-5.5-4.5-5.5s-4.5,2.467-4.5,5.5c0,3.032,2.019,5.5,4.5,5.5S20.5,19.032,20.5,16z"/>
<path style="fill:#4D5152;" d="M16,10c-2.76,0-5,2.69-5,6c0,3.31,2.24,6,5,6s5-2.69,5-6C21,12.69,18.76,10,16,10z M16,21  c-2.21,0-4-2.24-4-5s1.79-5,4-5s4,2.24,4,5S18.21,21,16,21z M29,8H3C2.45,8,2,8.45,2,9v14c0,0.55,0.45,1,1,1h26c0.55,0,1-0.45,1-1V9  C30,8.45,29.55,8,29,8z M3,9h2c0,1.1-0.9,2-2,2V9z M3,23v-2c1.1,0,2,0.9,2,2H3z M29,23h-2c0-1.1,0.9-2,2-2V23z M29,20  c-1.66,0-3,1.34-3,3H6c0-1.66-1.34-3-3-3v-8c1.66,0,3-1.34,3-3h20c0,1.66,1.34,3,3,3V20z M29,11c-1.1,0-2-0.9-2-2h2V11z"/>
</svg>
