<?xml version="1.0"?>
<svg xmlns="http://www.w3.org/2000/svg" xmlns:xlink="http://www.w3.org/1999/xlink" version="1.1" id="266148686_Outlined_2__grid" x="0px" y="0px" width="32px" height="32px" viewBox="0 0 32 32" style="enable-background:new 0 0 32 32;" xml:space="preserve">
<path id="266148686_shock_x5F_color_grid" class="stshockcolor" style="fill:#AAAAAA;" d="M22.135,11.832l-0.268-0.747l0.036-0.072l-0.075-0.038l-0.031-0.085  l-0.083,0.028L20.878,10.5h-9.756l-0.836,0.418c-0.023-0.008-0.049-0.016-0.078-0.026l-0.028,0.079l-0.083,0.042l0.04,0.079  l-0.265,0.742C12.042,12.621,13.5,14.696,13.5,17c0,0.286-0.027,0.587-0.083,0.92l-0.098,0.58h5.528l-0.257-0.545V17.5h-0.063  C18.509,17.327,18.5,17.161,18.5,17C18.5,14.694,19.961,12.617,22.135,11.832z"/>
<rect x="13.5" y="15" style="opacity:0.4;fill:#4D5152;" width="5" height="3.5"/>
<path style="fill:#67DDE0;" d="M27.89,13.11c-1-0.99-2.37-1.61-3.89-1.61c-3.03,0-5.5,2.47-5.5,5.5c0,1.52,0.62,2.89,1.61,3.89  c1,0.99,2.37,1.61,3.89,1.61c3.03,0,5.5-2.47,5.5-5.5C29.5,15.48,28.88,14.11,27.89,13.11z M11.89,13.11  c-1-0.99-2.37-1.61-3.89-1.61c-3.03,0-5.5,2.47-5.5,5.5c0,1.52,0.62,2.89,1.61,3.89c1,0.99,2.37,1.61,3.89,1.61  c3.03,0,5.5-2.47,5.5-5.5C13.5,15.48,12.88,14.11,11.89,13.11z"/>
<path style="opacity:0.4;fill:#FFFFFF;" d="M11.89,13.11l-7.78,7.78c-0.99-1-1.61-2.37-1.61-3.89c0-3.03,2.47-5.5,5.5-5.5  C9.52,11.5,10.89,12.12,11.89,13.11z M24,11.5c-3.03,0-5.5,2.47-5.5,5.5c0,1.52,0.62,2.89,1.61,3.89l7.779-7.78  C26.89,12.12,25.52,11.5,24,11.5z"/>
<path style="fill:#4D5152;" d="M14,8v1h4V8H14z"/>
<path style="fill:#4D5152;" d="M24,11c-0.28,0-0.56,0.03-0.83,0.07L21,10H11l-2.12,1.08C8.6,11.03,8.3,11,8,11c-3.31,0-6,2.69-6,6  c0,3.31,2.69,6,6,6c2.61,0,4.83-1.67,5.65-4h4.7c0.82,2.33,3.04,4,5.65,4c3.31,0,6-2.69,6-6C30,13.69,27.31,11,24,11z M8,22  c-2.76,0-5-2.24-5-5s2.24-5,5-5c2.76,0,5,2.24,5,5S10.76,22,8,22z M18.09,18h-4.18c0.05-0.32,0.09-0.66,0.09-1  c0-2.499-1.517-4.624-3.687-5.535L11.24,11h9.52l0.932,0.463C19.52,12.374,18,14.499,18,17C18,17.34,18.04,17.68,18.09,18z M24,22  c-2.76,0-5-2.24-5-5s2.24-5,5-5s5,2.24,5,5S26.76,22,24,22z"/>
</svg>
