<?xml version="1.0"?>
<svg xmlns="http://www.w3.org/2000/svg" xmlns:xlink="http://www.w3.org/1999/xlink" version="1.1" id="266148685_Outlined_2__grid" x="0px" y="0px" width="32px" height="32px" viewBox="0 0 32 32" style="enable-background:new 0 0 32 32;" xml:space="preserve">
<path style="fill:#67DDE0;" d="M22.5,25.5c-1.489,0-2.836-0.442-3.513-1.155L18.185,23.5h8.631l-0.803,0.845  C25.336,25.058,23.989,25.5,22.5,25.5z M11.966,24.345l0.801-0.845H4.139l0.801,0.845C5.618,25.058,6.963,25.5,8.453,25.5  S11.289,25.058,11.966,24.345z"/>
<path id="266148685_shock_x5F_color_grid" class="stshockcolor" style="fill:#BFBFBF;" d="M27.5,19.7v3.8h-10v-7h-4v7h-10v-3.8c0-7.59,3.07-12.25,3.77-13.2h6.23v3h4v-3  h6.23C24.43,7.45,27.5,12.11,27.5,19.7z"/>
<path style="opacity:0.2;fill:#4D5152;" d="M5.856,8.5l0.417-0.745c0.3-0.536,0.564-0.913,0.783-1.119L7.201,6.5H13.5v2H5.856z   M25.144,8.5l-0.417-0.745c-0.301-0.536-0.564-0.912-0.784-1.119L23.798,6.5H17.5v2H25.144z M3.5,19.5v4h10v-4H3.5z M17.5,19.5v4h10  v-4H17.5z M17.5,9.5h-4v7h4V9.5z"/>
<path style="fill:#4D5152;" d="M16,14.5c0,0.276-0.224,0.5-0.5,0.5l0,0c-0.276,0-0.5-0.224-0.5-0.5v-3c0-0.276,0.224-0.5,0.5-0.5  l0,0c0.276,0,0.5,0.224,0.5,0.5V14.5z M28,19.7c0,2.3,0,4.3,0,4.3h-1.19c-0.529,1.15-2.25,2-4.31,2s-3.78-0.85-4.31-2H17v-7h-3v7  h-1.19c-0.53,1.15-2.25,2-4.31,2s-3.78-0.85-4.31-2H3c0,0,0-2,0-4.3C3,10.88,7.02,6,7.02,6H14v3h3V6h6.98C23.98,6,28,10.88,28,19.7z   M11.65,24h-6.3c0.56,0.59,1.76,1,3.15,1S11.09,24.59,11.65,24z M13,20H4v3h9V20z M13,9H6.21c-0.97,2.1-2.09,5.63-2.2,10H13V9z   M13,7H7.4C7.23,7.16,6.99,7.5,6.71,8H13V7z M17,10h-3v6h3V10z M18,8h6.29c-0.28-0.5-0.521-0.84-0.69-1H18V8z M18,19h8.99  c-0.11-4.37-1.23-7.9-2.2-10H18V19z M25.65,24H19.35c0.561,0.59,1.761,1,3.15,1S25.09,24.59,25.65,24z M27,20h-9v3h9V20z"/>
</svg>
