<?xml version="1.0"?>
<svg xmlns="http://www.w3.org/2000/svg" xmlns:xlink="http://www.w3.org/1999/xlink" version="1.1" id="266247328_icon_grid" x="0px" y="0px" width="32px" height="32px" viewBox="0 0 32 32" style="enable-background:new 0 0 32 32;" xml:space="preserve">
<path id="266247328_shock_x5F_color_grid" class="stshockcolor" style="fill:#FFD878;" d="M30.459,13.6l-2.99,13.01c-0.13,0.51-0.61,0.89-1.11,0.89H3.519  c-0.56,0-1-0.44-1-1v-20c0-0.55,0.45-1,1-1h5.81l0.44,0.23l1.62,2.43c0.14,0.21,0.37,0.34,0.62,0.34h12.51c0.56,0,1,0.44,1,1v3h4.06  c0.28,0,0.54,0.12,0.71,0.33C30.459,13.04,30.519,13.32,30.459,13.6z"/>
<path style="opacity:0.2;fill:#FFFFFF;" d="M5.358,27.5c-0.285,0-0.544-0.123-0.711-0.336c-0.168-0.216-0.225-0.502-0.154-0.785  l2.988-12.991C7.587,12.894,8.069,12.5,8.579,12.5h21c0.282,0,0.54,0.119,0.707,0.325c0.17,0.21,0.233,0.494,0.173,0.779  l-2.992,13.008c-0.128,0.51-0.604,0.888-1.107,0.888H5.358z"/>
<path style="fill:#4D5152;" d="M22.036,16.672L19.207,19.5l2.828,2.828l-0.707,0.707L18.5,20.207l-2.828,2.828l-0.707-0.707  l2.828-2.828l-2.828-2.828l0.707-0.707l2.828,2.828l2.829-2.828L22.036,16.672z M30.971,13.53l-2.99,13.09  C27.82,27.36,27.13,28,26.391,28H3.5C2.67,28,2,27.33,2,26.5v-20C2,5.67,2.67,5,3.5,5h5.69C9.61,5,10,5.21,10.23,5.56l1.56,2.33  L11.99,8H24.5C25.33,8,26,8.67,26,9.5V12h3.609c0.431,0,0.83,0.06,1.101,0.39C30.971,12.72,31.07,13.1,30.971,13.53z M4.1,27  c-0.11-0.28-0.14-0.61-0.07-0.91L7.02,13.19C7.19,12.46,7.87,12,8.61,12H25V9.5C25,9.22,24.779,9,24.5,9H11.99  c-0.41,0-0.8-0.21-1.04-0.56L9.4,6.11L9.19,6H3.5C3.22,6,3,6.22,3,6.5v20C3,26.78,3.22,27,3.5,27H4.1z M29.561,13h-21  c-0.27,0-0.55,0.22-0.61,0.5l-2.99,13C4.89,26.78,5.07,27,5.34,27h21c0.28,0,0.551-0.22,0.62-0.5l2.99-13  C30.01,13.22,29.84,13,29.561,13z"/>
</svg>
