<?xml version="1.0"?>
<svg xmlns="http://www.w3.org/2000/svg" xmlns:xlink="http://www.w3.org/1999/xlink" version="1.1" id="266148687_Outlined_2__grid" x="0px" y="0px" width="32px" height="32px" viewBox="0 0 32 32" style="enable-background:new 0 0 32 32;" xml:space="preserve">
<path id="266148687_shock_x5F_color_grid" class="stshockcolor" style="fill:#E57C5C;" d="M25.5,7.5v22H9c-1.38,0-2.5-1.12-2.5-2.5V6.09l0.84,0.76  C7.8,7.27,8.39,7.5,9,7.5H25.5z"/>
<path style="fill:#FFE4A9;" d="M25.5,15v7h-19v-7H25.5z M24.5,7.5v-5H9C7.622,2.5,6.5,3.622,6.5,5S7.622,7.5,9,7.5H24.5z"/>
<path style="fill:#4D5152;" d="M26,3V2C26,2,9.84,2,9,2C7.34,2,6,3.34,6,5c0,0,0,19.66,0,22c0,1.66,1.34,3,3,3c2.39,0,17,0,17,0V7  h-1V3H26z M9,3c1.44,0,15,0,15,0v4c0,0-13.9,0-15,0S7,6.1,7,5S7.9,3,9,3z M25,29c0,0-14.9,0-16,0s-2-0.9-2-2V7.22  C7.53,7.7,8.23,8,9,8h16V29z"/>
</svg>
