<?xml version="1.0"?>
<svg xmlns="http://www.w3.org/2000/svg" xmlns:xlink="http://www.w3.org/1999/xlink" version="1.1" id="266148688_Outlined_2__grid" x="0px" y="0px" width="32px" height="32px" viewBox="0 0 32 32" style="enable-background:new 0 0 32 32;" xml:space="preserve">
<path id="266148688_shock_x5F_color_grid" class="stshockcolor" style="fill:#EF6565;" d="M21.996,4.5H7.207L10.5,7.793V27l7.5-5.625L25.5,27V8  C25.5,5.447,23.615,4.519,21.996,4.5z"/>
<path style="opacity:0.2;fill:#FFFFFF;" d="M25.48,7.793H10.5L7.207,4.5h14.789C23.567,4.518,25.375,5.407,25.48,7.793z"/>
<path style="fill:#4D5152;" d="M22,4H6l4,4v20l8-6l8,6V8C26,4,22,4,22,4z M25,26l-6.4-4.8L18,20.75l-0.6,0.45L11,26V8V7.586  l-0.293-0.293L8.414,5h13.582C22.502,5.006,25,5.18,25,8V26z"/>
</svg>
