<?xml version="1.0"?>
<svg xmlns="http://www.w3.org/2000/svg" xmlns:xlink="http://www.w3.org/1999/xlink" version="1.1" id="266148689_Outlined_2__grid" x="0px" y="0px" width="32px" height="32px" viewBox="0 0 32 32" style="enable-background:new 0 0 32 32;" xml:space="preserve">
<path id="266148689_shock_x5F_color_grid" class="stshockcolor" style="fill:#BF9171;" d="M26.99,9.5H5c-0.919,0-1.48,0.561-1.5,1.51V25c0,0.919,0.561,1.479,1.51,1.5H27  c0.919,0,1.479-0.561,1.5-1.499V11C28.5,10.094,27.926,9.52,26.99,9.5z"/>
<path style="fill:#4D5152;" d="M27,9h-5V7c0-2-2-2-2-2h-8c-2,0-2,2-2,2v2H5c-2,0-2,2-2,2v12c0,0,0,0,0,2s2,2,2,2h22c2,0,2-2,2-2V11  C29,9,27,9,27,9z M11,7.01C11.01,6.55,11.19,6,12,6h7.99C20.45,6.01,21,6.2,21,7v2H11V7.01z M28,24.99C27.99,25.45,27.81,26,27,26  H5.01C4.55,25.99,4,25.81,4,25V11.01C4.01,10.55,4.19,10,5,10h21.99c0.46,0.01,1.01,0.2,1.01,1V24.99z"/>
</svg>
