<?xml version="1.0"?>
<svg xmlns="http://www.w3.org/2000/svg" xmlns:xlink="http://www.w3.org/1999/xlink" version="1.1" id="266247329_icon_grid" x="0px" y="0px" width="32px" height="32px" viewBox="0 0 32 32" style="enable-background:new 0 0 32 32;" xml:space="preserve">
<path id="266247329_shock_x5F_color_grid" class="stshockcolor" style="fill:#EF6565;" d="M28.5,14.5V19c0,1.8-1.29,2.47-2.49,2.5H24.5V21c0-0.82-0.39-1.54-1-2  c-0.41-0.31-0.94-0.5-1.5-0.5s-1.08,0.18-1.49,0.5c-0.609,0.45-1.01,1.18-1.01,2v0.5h-7V21c0-0.82-0.39-1.54-1-2  c-0.41-0.31-0.94-0.5-1.5-0.5S8.92,18.68,8.51,19C7.9,19.45,7.5,20.18,7.5,21v0.5H6c-1.8,0-2.47-1.29-2.5-2.49V17  c0-0.28,0.09-0.81,0.83-2.23l0.14-0.27H28.5z"/>
<path style="fill:#ACF0F2;" d="M28.5,10.99v3.51H4.46l3.8-6H26C27.8,8.5,28.47,9.79,28.5,10.99z"/>
<path style="opacity:0.2;fill:#FFFFFF;" d="M3.5,19h5.01C7.9,19.45,7.5,20.18,7.5,21v0.5H6c-1.8,0-2.47-1.29-2.5-2.49V19z M12.5,21  v0.5h7V21c0-0.82,0.4-1.55,1.01-2H11.5C12.11,19.46,12.5,20.18,12.5,21z M23.5,19c0.61,0.46,1,1.18,1,2v0.5h1.51  c1.2-0.03,2.49-0.7,2.49-2.5H23.5z"/>
<path style="fill:#AAAAAA;" d="M22,23.5c-1.379,0-2.5-1.121-2.5-2.5s1.121-2.5,2.5-2.5s2.5,1.121,2.5,2.5S23.379,23.5,22,23.5z   M12.5,21c0-1.379-1.122-2.5-2.5-2.5S7.5,19.621,7.5,21s1.122,2.5,2.5,2.5S12.5,22.379,12.5,21z"/>
<path style="fill:#4D5152;" d="M26,8H8c0,0-5,7-5,9s0,2,0,2s0,3,3,3h1.18c0.4,1.17,1.51,2,2.82,2s2.42-0.83,2.82-2h6.36  c0.4,1.17,1.511,2,2.82,2s2.42-0.83,2.82-2H26c0,0,3,0,3-3v-8C29,11,29,8,26,8z M18,9h5v5h-5V9z M12,9h5v5h-5V9z M8.52,9H11v5H5.32  C6.18,12.48,7.36,10.65,8.52,9z M10,23c-1.1,0-2-0.9-2-2s0.9-2,2-2s2,0.9,2,2S11.1,23,10,23z M22,23c-1.1,0-2-0.9-2-2s0.9-2,2-2  s2,0.9,2,2S23.1,23,22,23z M28,19c0,1.83-1.54,1.99-2,2h-1c0-1.66-1.34-3-3-3s-3,1.34-3,3h-6c0-1.66-1.34-3-3-3s-3,1.34-3,3H6  c-1.83,0-1.99-1.54-2-2v-2c0-0.36,0.29-1.08,0.77-2H28V19z M28,14h-4V9h2c1.83,0,1.99,1.54,2,2V14z"/>
</svg>
