<?xml version="1.0"?>
<svg xmlns="http://www.w3.org/2000/svg" xmlns:xlink="http://www.w3.org/1999/xlink" version="1.1" id="266247330_icon_grid" x="0px" y="0px" width="32px" height="32px" viewBox="0 0 32 32" style="enable-background:new 0 0 32 32;" xml:space="preserve">
<path id="266247330_shock_x5F_color_grid" class="stshockcolor" style="fill:#BF9171;" d="M24.014,5.5H15.5H7c-0.916,0-1.476,0.561-1.5,1.499V25  c0,0.915,0.561,1.476,1.512,1.5H15.5h8.508c0.91,0,1.468-0.561,1.492-1.512V7C25.5,6.086,24.944,5.526,24.014,5.5z"/>
<path style="opacity:0.3;fill:#FFFFFF;" d="M14,25H7V7h7V25z M24,7h-7v18h7V7z"/>
<path style="fill:#4D5152;" d="M24.008,5c0,0-3.912,0-8.008,0c-0.333,0-0.667,0-1,0c-3.598,0-7.104,0-8,0C5,5,5,7,5,7s0,16,0,18  s2,2,2,2h8h1h8.008c2,0,1.992-2,1.992-2V7C26,5,24.008,5,24.008,5z M7.012,26C6.55,25.988,6,25.806,6,25V7.012  C6.012,6.551,6.195,6,7,6h8v20H7.012z M25.008,24.988c-0.012,0.462-0.194,1.012-1,1.012H16V6h8c0.461,0.013,1.008,0.197,1.008,1  V24.988z M14,13v6h-2v-1h1v-4h-1v-1H14z M17,13h2v1h-1v4h1v1h-2V13z"/>
</svg>
