<?xml version="1.0"?>
<svg xmlns="http://www.w3.org/2000/svg" xmlns:xlink="http://www.w3.org/1999/xlink" version="1.1" id="266148690_Outlined_2__grid" x="0px" y="0px" width="32px" height="32px" viewBox="0 0 32 32" style="enable-background:new 0 0 32 32;" xml:space="preserve">
<path style="fill:#E57C5C;" d="M5,27.5c-0.276,0-0.5-0.224-0.5-0.5v-9c0-0.276,0.224-0.5,0.5-0.5h9c0.276,0,0.5,0.224,0.5,0.5v9  c0,0.276-0.224,0.5-0.5,0.5H5z"/>
<path id="266148690_shock_x5F_color_grid" class="stshockcolor" style="fill:#FF61E1;" d="M5,14.5c-0.276,0-0.5-0.224-0.5-0.5V5c0-0.276,0.224-0.5,0.5-0.5h9  c0.276,0,0.5,0.224,0.5,0.5v9c0,0.276-0.224,0.5-0.5,0.5H5z"/>
<path style="fill:#75EA9C;" d="M18,14.5c-0.276,0-0.5-0.224-0.5-0.5V5c0-0.276,0.224-0.5,0.5-0.5h9c0.276,0,0.5,0.224,0.5,0.5v9  c0,0.276-0.224,0.5-0.5,0.5H18z"/>
<path style="fill:#67DDE0;" d="M18,27.5c-0.276,0-0.5-0.224-0.5-0.5v-9c0-0.276,0.224-0.5,0.5-0.5h9c0.276,0,0.5,0.224,0.5,0.5v9  c0,0.276-0.224,0.5-0.5,0.5H18z"/>
<path style="fill:#4D5152;" d="M14,4H5C4.448,4,4,4.447,4,5v9c0,0.553,0.448,1,1,1h9c0.552,0,1-0.447,1-1V5C15,4.447,14.552,4,14,4z   M14,14H5V5h9V14z M9,12h1v-2h2V9h-2V7H9v2H7v1h2V12z M22,25h1v-1h-1V25z M14,17H5c-0.552,0-1,0.447-1,1v9c0,0.553,0.448,1,1,1h9  c0.552,0,1-0.447,1-1v-9C15,17.447,14.552,17,14,17z M14,27H5v-9h9V27z M25,9h-5v1h5V9z M27,4h-9c-0.553,0-1,0.447-1,1v9  c0,0.553,0.447,1,1,1h9c0.553,0,1-0.447,1-1V5C28,4.447,27.553,4,27,4z M27,14h-9V5h9V14z M25,22h-5v1h5V22z M27,17h-9  c-0.553,0-1,0.447-1,1v9c0,0.553,0.447,1,1,1h9c0.553,0,1-0.447,1-1v-9C28,17.447,27.553,17,27,17z M27,27h-9v-9h9V27z M23,20h-1v1  h1V20z M7.711,24.996L9.5,23.207l1.789,1.789l0.707-0.707L10.207,22.5l1.789-1.789l-0.707-0.707L9.5,21.793l-1.789-1.789  l-0.707,0.707L8.793,22.5l-1.789,1.789L7.711,24.996z"/>
</svg>
