<?xml version="1.0"?>
<svg xmlns="http://www.w3.org/2000/svg" xmlns:xlink="http://www.w3.org/1999/xlink" version="1.1" id="266247332_icon_grid" x="0px" y="0px" width="32px" height="32px" viewBox="0 0 32 32" style="enable-background:new 0 0 32 32;" xml:space="preserve">
<path style="fill:#FFFFFF;" d="M5,26.5c-0.827,0-1.5-0.673-1.5-1.5V12.5h25V25c0,0.827-0.673,1.5-1.5,1.5H5z"/>
<path id="266247332_shock_x5F_color_grid" class="stshockcolor" style="fill:#EF6565;" d="M3.5,10.197V12.5h25v-2.303C28.5,8.984,27.517,8,26.303,8H5.697  C4.484,8,3.5,8.984,3.5,10.197z"/>
<path style="opacity:0.2;fill:#4D5152;" d="M26.303,8H25L6.5,26.5H27c0.827,0,1.5-0.673,1.5-1.5V12.5v-2.303  C28.5,8.984,27.517,8,26.303,8z"/>
<path style="fill:#4D5152;" d="M16.16,15.1l-2.5,2.5l0.71,0.71L16,16.68V23h1v-7.56L16.16,15.1z M27,8h-3v1h3c0.55,0,1,0.45,1,1v2H4  v-2c0-0.55,0.45-1,1-1h3V8H5c-1.1,0-2,0.9-2,2v15c0,1.1,0.9,2,2,2h22c1.1,0,2-0.9,2-2V10C29,8.9,28.1,8,27,8z M28,25  c0,0.55-0.45,1-1,1H5c-0.55,0-1-0.45-1-1V13h24V25z M16,16.68V23h1v-7.56l-0.84-0.34l-2.5,2.5l0.71,0.71L16,16.68z M16.16,15.1  l-2.5,2.5l0.71,0.71L16,16.68V23h1v-7.56L16.16,15.1z M21,5v4h1V5H21z M13,8v1h6V8H13z M10,5v4h1V5H10z"/>
</svg>
