<?xml version="1.0"?>
<svg xmlns="http://www.w3.org/2000/svg" xmlns:xlink="http://www.w3.org/1999/xlink" version="1.1" id="266247333_icon_grid" x="0px" y="0px" width="32px" height="32px" viewBox="0 0 32 32" style="enable-background:new 0 0 32 32;" xml:space="preserve">
<path style="fill-rule:evenodd;clip-rule:evenodd;fill:#FFFFFF;" d="M5,26.5c-0.827,0-1.5-0.673-1.5-1.5V12.5h25V25  c0,0.827-0.673,1.5-1.5,1.5H5z"/>
<path id="266247333_shock_x5F_color_grid" class="stshockcolor" style="fill:#EF6565;" d="M3.5,10.197V12.5h25v-2.303C28.5,8.984,27.517,8,26.303,8H5.697  C4.484,8,3.5,8.984,3.5,10.197z"/>
<path style="opacity:0.2;fill:#4D5152;" d="M26.303,8H25L6.5,26.5H27c0.827,0,1.5-0.673,1.5-1.5V12.5v-2.303  C28.5,8.984,27.517,8,26.303,8z"/>
<path style="fill-rule:evenodd;clip-rule:evenodd;fill:#4D5152;" d="M13.99,15v0.01l-1.99,2l0.71,0.7L14,16.43V23h1v-8H13.99z   M17.83,21.09C19.34,18.86,20,17.97,20,17c0-1.1-0.9-2-2-2s-2,0.9-2,2h1c0-0.55,0.45-1,1-1s1,0.45,1,1c0,0.68-0.68,1.59-2,3.53  c-0.3,0.439-0.63,0.93-1,1.47v1h4v-1h-2.79C17.43,21.68,17.63,21.37,17.83,21.09z M10,5v4h1V5H10z M17.83,21.09  C19.34,18.86,20,17.97,20,17c0-1.1-0.9-2-2-2s-2,0.9-2,2h1c0-0.55,0.45-1,1-1s1,0.45,1,1c0,0.68-0.68,1.59-2,3.53  c-0.3,0.439-0.63,0.93-1,1.47v1h4v-1h-2.79C17.43,21.68,17.63,21.37,17.83,21.09z M13.99,15.01l-1.99,2l0.71,0.7L14,16.43V23h1v-8  h-1.01V15.01z M27,8h-3v1h3c0.55,0,1,0.45,1,1v2H4v-2c0-0.55,0.45-1,1-1h3V8H5c-1.1,0-2,0.9-2,2v15c0,1.1,0.9,2,2,2h22  c1.1,0,2-0.9,2-2V10C29,8.9,28.1,8,27,8z M28,25c0,0.55-0.45,1-1,1H5c-0.55,0-1-0.45-1-1V13h24V25z M20,22h-2.79  c0.22-0.32,0.42-0.63,0.62-0.91C19.34,18.86,20,17.97,20,17c0-1.1-0.9-2-2-2s-2,0.9-2,2h1c0-0.55,0.45-1,1-1s1,0.45,1,1  c0,0.68-0.68,1.59-2,3.53c-0.3,0.439-0.63,0.93-1,1.47v1h4V22z M14,16.43V23h1v-8h-1.01v0.01l-1.99,2l0.71,0.7L14,16.43z M21,5v4h1  V5H21z M13,8v1h6V8H13z"/>
</svg>
