<?xml version="1.0" encoding="utf-8"?>
<!-- Generator: Adobe Illustrator 16.0.0, SVG Export Plug-In . SVG Version: 6.00 Build 0)  -->
<svg xmlns="http://www.w3.org/2000/svg" xmlns:xlink="http://www.w3.org/1999/xlink" version="1.1" id="266185643_Capa_1_grid" x="0px" y="0px" width="32px" height="32px" viewBox="0 0 32 32" style="enable-background:new 0 0 32 32;" xml:space="preserve">

<path class="st3" d="M5,26.5c-0.827,0-1.5-0.673-1.5-1.5V12.5h25V25c0,0.827-0.673,1.5-1.5,1.5H5z" style="fill:#FFFFFF;;"/>
<path id="266185643_shock_x5F_color_1__grid" class="stshockcolor" d="M21.5,18.5v-3h3v3H21.5z M19.5,23.5v-3h-3v3H19.5z M19.5,18.5v-3h-3v3H19.5z   M14.5,18.5v-3h-3v3H14.5z M14.5,23.5v-3h-3v3H14.5z M9.5,23.5v-3h-3v3H9.5z M9.5,18.5v-3h-3v3H9.5z M3.5,10.197V12.5h25v-2.303  C28.5,8.984,27.517,8,26.303,8H5.697C4.484,8,3.5,8.984,3.5,10.197z" style="fill:#EF6565;;"/>
<path class="st0" d="M26.303,8H25L6.5,26.5H27c0.827,0,1.5-0.673,1.5-1.5V12.5v-2.303C28.5,8.984,27.517,8,26.303,8z" style="opacity:0.2;fill:#4D5152;;"/>
<path class="st1" d="M11,9h-1V5h1V9z M19,8h-6v1h6V8z M22,5h-1v4h1V5z M29,10v15c0,1.104-0.896,2-2,2H5c-1.104,0-2-0.896-2-2V10  c0-1.104,0.896-2,2-2h3v1H5c-0.552,0-1,0.447-1,1v2h24v-2c0-0.553-0.447-1-1-1h-3V8h3C28.104,8,29,8.896,29,10z M28,13H4v12  c0,0.553,0.448,1,1,1h22c0.553,0,1-0.447,1-1V13z" style="fill:#4D5152;;"/>
<path class="st1" d="M16,20v4h4v-4H16z M19,23h-2v-2h2V23z M11,20v4h4v-4H11z M14,23h-2v-2h2V23z M6,20v4h4v-4H6z M9,23H7v-2h2V23z   M21,15v4h4v-4H21z M24,18h-2v-2h2V18z M16,15v4h4v-4H16z M19,18h-2v-2h2V18z M11,15v4h4v-4H11z M14,18h-2v-2h2V18z M6,15v4h4v-4H6z   M9,18H7v-2h2V18z" style="fill:#4D5152;;"/>
</svg>
