<?xml version="1.0"?>
<svg xmlns="http://www.w3.org/2000/svg" xmlns:xlink="http://www.w3.org/1999/xlink" version="1.1" id="266148691_Outlined_2__grid" x="0px" y="0px" width="32px" height="32px" viewBox="0 0 32 32" style="enable-background:new 0 0 32 32;" xml:space="preserve">
<path style="fill:#FFFFFF;" d="M5,25.5c-0.827,0-1.5-0.673-1.5-1.5V11.5h25V24c0,0.827-0.673,1.5-1.5,1.5H5z"/>
<path id="266148691_shock_x5F_color_grid" class="stshockcolor" style="fill:#EF6565;" d="M28.5,9v2.5h-25V9c0-0.83,0.67-1.5,1.5-1.5h22C27.83,7.5,28.5,8.17,28.5,9z"/>
<path style="opacity:0.2;fill:#FFFFFF;" d="M12,7.5V10H9V7.5H12z M20,7.5V10h3V7.5H20z"/>
<path style="fill:#4D5152;" d="M21,7H11v1h10V7z M11,5h-1v4h1V5z M22,5h-1v4h1V5z M27,7h-5v1h5c0.553,0,1,0.447,1,1v2H4V9  c0-0.553,0.448-1,1-1h5V7H5C3.896,7,3,7.896,3,9v15c0,1.104,0.896,2,2,2h22c1.104,0,2-0.896,2-2V9C29,7.896,28.104,7,27,7z M28,24  c0,0.553-0.447,1-1,1H5c-0.552,0-1-0.447-1-1V12h24V24z M16,15.676V22h1v-7.563L16.162,14.1l-2.5,2.5l0.707,0.707L16,15.676z"/>
</svg>
