<?xml version="1.0" encoding="utf-8"?>
<!-- Generator: Adobe Illustrator 16.0.0, SVG Export Plug-In . SVG Version: 6.00 Build 0)  -->
<svg xmlns="http://www.w3.org/2000/svg" xmlns:xlink="http://www.w3.org/1999/xlink" version="1.1" id="2662894055_Capa_1_grid" x="0px" y="0px" width="32px" height="32px" viewBox="0 0 32 32" style="enable-background:new 0 0 32 32;" xml:space="preserve">

<path id="2662894055_shock_x5F_color_grid" class="stshockcolor" d="M7.5,27.5v-2H7c-0.248-0.003-1.5-0.089-1.5-1.5V11c0.001-0.265,0.111-6.5,7.5-6.5  c7.415,0,7.5,6.234,7.5,6.5v0.5H25c0.248,0.003,1.5,0.088,1.5,1.5v9.5h-6V24c0,1.411-1.252,1.497-1.503,1.5l-0.494,0.006L18.5,27.5  H7.5z" style="fill:#AAAAAA;;"/>
<path class="st2" d="M7.5,27.5v-2h11v2H7.5z M26.5,22.5V13c0-0.906-0.574-1.48-1.51-1.5H20.5v11H26.5z" style="opacity:0.4;fill:#4D5152;enable-background:new    ;;"/>
<circle class="st0" cx="13" cy="12" r="5.5" style="opacity:0.8;fill:#FFFFFF;enable-background:new    ;;"/>
<path class="st3" d="M25,11h-4c0,0,0-7-8-7s-8,7-8,7v13c0,2,2,2,2,2v2h12v-2c0,0,2,0,2-2v-1h6V13C27,11,25,11,25,11z M17.5,20  c-0.83,0-1.5,0.67-1.5,1.5s0.67,1.5,1.5,1.5s1.5-0.67,1.5-1.5S18.33,20,17.5,20z M18,27H8v-1h10V27z M20,24c0,0.811-0.55,0.99-1,1H7  c-0.46-0.01-1-0.2-1-1V11c0-0.25,0.08-6,7-6c6.76,0,7,5.39,7,6V24z M26,22h-5V12h3.99c0.46,0.01,1.01,0.2,1.01,1V22z M14,8.5  C14,8.78,13.78,9,13.5,9c-1.93,0-3.5,1.57-3.5,3.5c0,0.28-0.22,0.5-0.5,0.5S9,12.78,9,12.5C9,10.02,11.02,8,13.5,8  C13.78,8,14,8.22,14,8.5z M19,12c0,3.31-2.69,6-6,6s-6-2.69-6-6s2.69-6,6-6S19,8.69,19,12z M18,12c0-2.76-2.24-5-5-5s-5,2.24-5,5  s2.24,5,5,5S18,14.76,18,12z" style="fill:#4D5152;;"/>
</svg>
