<?xml version="1.0"?>
<svg xmlns="http://www.w3.org/2000/svg" xmlns:xlink="http://www.w3.org/1999/xlink" version="1.1" id="266148692_Outlined_2__grid" x="0px" y="0px" width="32px" height="32px" viewBox="0 0 32 32" style="enable-background:new 0 0 32 32;" xml:space="preserve">
<path style="fill:#AAAAAA;" d="M28.5,10v13c0,0.83-0.67,1.5-1.5,1.5H5c-0.83,0-1.5-0.67-1.5-1.5V10c0-0.83,0.67-1.5,1.5-1.5h1.5v-2  h4v2H27C27.83,8.5,28.5,9.17,28.5,10z"/>
<path style="opacity:0.2;fill:#FFFFFF;" d="M28.5,10v8h-25v-8c0-0.83,0.67-1.5,1.5-1.5h22C27.83,8.5,28.5,9.17,28.5,10z"/>
<path id="266148692_shock_x5F_color_grid" class="stshockcolor" style="fill:#67DDE0;" d="M18.5,22.5c-3.309,0-6-2.691-6-6s2.691-6,6-6s6,2.691,6,6  S21.809,22.5,18.5,22.5z"/>
<path style="opacity:0.4;fill:#FFFFFF;" d="M18.5,19.51c-1.659,0-3.01-1.351-3.01-3.01c0-1.66,1.351-3.01,3.01-3.01  s3.01,1.35,3.01,3.01C21.51,18.159,20.159,19.51,18.5,19.51z"/>
<path style="fill:#FF61E1;" d="M27.01,10.98c0,0.56-0.45,1.01-1.01,1.01s-1.01-0.45-1.01-1.01c0-0.55,0.45-1,1.01-1  S27.01,10.43,27.01,10.98z"/>
<path style="fill:#4D5152;" d="M27,8H11V6H6v2H5c-1.104,0-2,0.896-2,2v13c0,1.104,0.896,2,2,2h22c1.104,0,2-0.896,2-2V10  C29,8.896,28.104,8,27,8z M7,7h3v1H7V7z M28,23c0,0.553-0.447,1-1,1H5c-0.552,0-1-0.447-1-1V10c0-0.553,0.448-1,1-1h22  c0.553,0,1,0.447,1,1V23z M18.5,10c-3.59,0-6.5,2.91-6.5,6.5s2.91,6.5,6.5,6.5s6.5-2.91,6.5-6.5S22.09,10,18.5,10z M18.5,21.99  c-3.03,0-5.49-2.46-5.49-5.49c0-3.03,2.46-5.49,5.49-5.49c3.03,0,5.49,2.46,5.49,5.49C23.99,19.53,21.53,21.99,18.5,21.99z   M18.5,12.99c-1.94,0-3.51,1.57-3.51,3.51c0,1.94,1.569,3.51,3.51,3.51s3.51-1.569,3.51-3.51C22.01,14.56,20.44,12.99,18.5,12.99z   M18.5,18.99c-1.37,0-2.49-1.12-2.49-2.49s1.12-2.49,2.49-2.49s2.49,1.12,2.49,2.49S19.87,18.99,18.5,18.99z"/>
</svg>
