<?xml version="1.0"?>
<svg xmlns="http://www.w3.org/2000/svg" xmlns:xlink="http://www.w3.org/1999/xlink" version="1.1" id="266247334_icon_grid" x="0px" y="0px" width="32px" height="32px" viewBox="0 0 32 32" style="enable-background:new 0 0 32 32;" xml:space="preserve">
<path style="fill:#F3F3F3;" d="M4.5,13.5V21c0,0.827,0.673,1.5,1.5,1.5h19c0.827,0,1.5-0.673,1.5-1.5v-7.5H4.5z"/>
<rect x="11.5" y="18.5" style="fill:#75EA9C;" width="17" height="9"/>
<circle style="opacity:0.4;fill:#FFFFFF;" cx="20" cy="23" r="2.5"/>
<path id="266247334_shock_x5F_color_grid" class="stshockcolor" style="fill:#EF6565;" d="M25,8.5H6c-0.827,0-1.5,0.673-1.5,1.5v4.5h22V10C26.5,9.173,25.827,8.5,25,8.5z  "/>
<path id="266247334__x3C_Trazado_x3E__grid" style="fill:#4D5152;" d="M20,26c1.65,0,3-1.35,3-3s-1.35-3-3-3s-3,1.35-3,3S18.35,26,20,26z M20,21  c1.1,0,2,0.9,2,2s-0.9,2-2,2s-2-0.9-2-2S18.9,21,20,21z M28,18h-1v-8c0-2-2-2-2-2h-6V7c0-2-2-2-2-2h-3c-2,0-2,2-2,2v1H6  c-2,0-2,2-2,2v11c0,2,2,2,2,2h5v4c0,0,0,1,1,1h16c0,0,1,0,1-1v-6c0-1.15,0-2,0-2S29,18,28,18z M13,7.01C13.01,6.55,13.19,6,14,6  h2.99C17.45,6.01,18,6.2,18,7v1h-5V7.01z M5,10.01C5.01,9.55,5.19,9,6,9h18.99C25.45,9.01,26,9.2,26,10v4H5V10.01z M11,19v3H6.01  C5.55,21.99,5,21.81,5,21v-6h21v3H12C12,18,11,18,11,19z M28,27H12v-8h16V27z"/>
</svg>
