<?xml version="1.0" encoding="utf-8"?>
<!-- Generator: Adobe Illustrator 16.0.0, SVG Export Plug-In . SVG Version: 6.00 Build 0)  -->
<svg xmlns="http://www.w3.org/2000/svg" xmlns:xlink="http://www.w3.org/1999/xlink" version="1.1" id="266789661_Outlined_2__grid" x="0px" y="0px" width="32px" height="32px" viewBox="0 0 32 32" style="enable-background:new 0 0 32 32;" xml:space="preserve">

<path id="266789661_shock_x5F_color_grid" class="stshockcolor" d="M27.141,13.59c-1.07-4.28-4.451-7.66-8.73-8.73C17.48,4.62,16.5,4.5,15.5,4.5  c-6.62,0-12,5.38-12,12c0,1,0.12,1.98,0.36,2.91c1.07,4.279,4.45,7.66,8.73,8.729c0.93,0.24,1.91,0.36,2.91,0.36  c6.62,0,12-5.38,12-12C27.5,15.5,27.38,14.52,27.141,13.59z M15.5,19.5c-0.25,0-0.5-0.029-0.73-0.1  c-1.07-0.262-1.91-1.102-2.17-2.17c-0.07-0.23-0.1-0.48-0.1-0.73c0-1.65,1.35-3,3-3c0.25,0,0.5,0.03,0.73,0.1  c1.069,0.26,1.909,1.1,2.17,2.17c0.068,0.23,0.1,0.48,0.1,0.73C18.5,18.15,17.15,19.5,15.5,19.5z" style="fill:#BFBFBF;;"/>
<path class="st2" d="M18.41,4.86l-2.18,8.74c1.069,0.26,1.909,1.1,2.17,2.17l8.738-2.18C26.07,9.31,22.689,5.93,18.41,4.86z   M12.6,17.23l-8.74,2.18c1.07,4.279,4.45,7.66,8.73,8.729l2.18-8.738C13.7,19.141,12.86,18.3,12.6,17.23z" style="opacity:0.4;fill:#FFFFFF;enable-background:new    ;;"/>
<path class="st0" d="M15.5,4C8.6,4,3,9.6,3,16.5C3,23.4,8.6,29,15.5,29C22.4,29,28,23.4,28,16.5C28,9.6,22.4,4,15.5,4z M15.5,28  C9.16,28,4,22.84,4,16.5S9.16,5,15.5,5S27,10.16,27,16.5S21.84,28,15.5,28z M15.5,13c-1.93,0-3.5,1.57-3.5,3.5  c0,1.93,1.57,3.5,3.5,3.5c1.93,0,3.5-1.57,3.5-3.5C19,14.57,17.43,13,15.5,13z M15.5,19c-1.38,0-2.5-1.12-2.5-2.5s1.12-2.5,2.5-2.5  s2.5,1.12,2.5,2.5S16.88,19,15.5,19z" style="fill:#4D5152;;"/>
</svg>
