<?xml version="1.0"?>
<svg xmlns="http://www.w3.org/2000/svg" xmlns:xlink="http://www.w3.org/1999/xlink" version="1.1" id="266148695_Outlined_2__grid" x="0px" y="0px" width="32px" height="32px" viewBox="0 0 32 32" style="enable-background:new 0 0 32 32;" xml:space="preserve">
<path id="266148695_shock_x5F_color_grid" class="stshockcolor" style="fill:#67DDE0;" d="M16,4.5c-6.903,0-12.5,4.477-12.5,10c0,3.941,2.858,7.341,7,8.97v4.655  l3.279-3.792C14.501,24.438,15.241,24.5,16,24.5c6.903,0,12.5-4.478,12.5-10C28.5,8.977,22.903,4.5,16,4.5z"/>
<path style="opacity:0.8;fill:#FFFFFF;" d="M22.81,21.089c-0.163,0-0.323-0.08-0.419-0.228c-0.15-0.231-0.085-0.541,0.146-0.691  c0.455-0.296,0.876-0.623,1.253-0.975c0.203-0.188,0.518-0.177,0.707,0.025c0.188,0.202,0.177,0.519-0.025,0.707  c-0.419,0.39-0.887,0.753-1.39,1.08C22.998,21.063,22.903,21.089,22.81,21.089z M25.698,18.07c-0.081,0-0.164-0.02-0.24-0.062  c-0.242-0.132-0.331-0.436-0.198-0.679C25.751,16.432,26,15.479,26,14.5c0-4.01-4.181-7.301-9.518-7.492  C16.206,6.999,15.99,6.767,16,6.491c0.01-0.275,0.262-0.497,0.518-0.481C22.396,6.219,27,9.949,27,14.5  c0,1.148-0.29,2.263-0.863,3.311C26.046,17.977,25.875,18.07,25.698,18.07z"/>
<path style="fill:#4D5152;" d="M16,4C8.82,4,3.01,8.7,3.01,14.5c0,4.05,2.83,7.56,6.97,9.31l0.03,5.601l4.17-4.521  c0.6,0.07,1.2,0.12,1.82,0.12c7.18,0,12.99-4.7,12.99-10.51C28.99,8.7,23.18,4,16,4z M16,24c-0.75,0-1.48-0.06-2.2-0.16L11,26.8  v-3.67c-4.13-1.5-7-4.79-7-8.63c0-5.24,5.37-9.49,12-9.49s12,4.25,12,9.49C28,19.75,22.63,24,16,24z"/>
<path style="opacity:0.5;fill:#4D5152;" d="M15,15l-1-7h4l-1,7H15z M16,17c1.104,0,2,0.672,2,1.5S17.104,20,16,20s-2-0.672-2-1.5  S14.896,17,16,17z"/>
</svg>
