<?xml version="1.0"?>
<svg xmlns="http://www.w3.org/2000/svg" xmlns:xlink="http://www.w3.org/1999/xlink" version="1.1" id="266247335_icon_grid" x="0px" y="0px" width="32px" height="32px" viewBox="0 0 32 32" style="enable-background:new 0 0 32 32;" xml:space="preserve">
<rect id="266247335_shock_x5F_color_grid" x="5.75" y="9.75" class="stshockcolor" style="fill:#ACF0F2;" width="20.5" height="12.5"/>
<path id="266247335__x3C_Trazado_x3E__grid" style="fill:#4D5152;" d="M25,9H7c-2,0-2,2-2,2v10c0,2,2,2,2,2h18c2,0,2-2,2-2V11C27,9,25,9,25,9z   M26,20.988C25.988,21.45,25.806,22,25,22H7.012C6.55,21.988,6,21.806,6,21v-9.988C6.012,10.55,6.195,10,7,10h17.992  C25.453,10.013,26,10.197,26,11V20.988z M13,13H7v-1h6V13z M19,12h-2v-1h2V12z M22,12h-2v-1h2V12z M23,11h2v1h-2V11z M23,16H7v-1h16  V16z M23,18H7v-1h16V18z M20,20h5v1h-5V20z"/>
</svg>
