<?xml version="1.0"?>
<svg xmlns="http://www.w3.org/2000/svg" xmlns:xlink="http://www.w3.org/1999/xlink" version="1.1" id="266148699_Outlined_2__grid" x="0px" y="0px" width="32px" height="32px" viewBox="0 0 32 32" style="enable-background:new 0 0 32 32;" xml:space="preserve">
<path id="266148699_shock_x5F_color_grid" class="stshockcolor" style="fill:#E88C77;" d="M24.992,5.5H7c-0.916,0-1.476,0.561-1.5,1.512V25  c0,0.915,0.561,1.476,1.512,1.5H25c0.915,0,1.476-0.561,1.5-1.499V7C26.5,6.086,25.941,5.526,24.992,5.5z"/>
<path style="fill:#4D5152;" d="M25,5H7C5,5,5,7,5,7v18c0,2,2,2,2,2h18c2,0,2-2,2-2V7C27,5,25,5,25,5z M26,24.988  C25.988,25.45,25.806,26,25,26H7.012C6.55,25.988,6,25.806,6,25V7.012C6.012,6.55,6.195,6,7,6h17.992C25.453,6.013,26,6.197,26,7  V24.988z"/>
</svg>
