<?xml version="1.0"?>
<svg xmlns="http://www.w3.org/2000/svg" xmlns:xlink="http://www.w3.org/1999/xlink" version="1.1" id="266148698_Outlined_2__grid" x="0px" y="0px" width="32px" height="32px" viewBox="0 0 32 32" style="enable-background:new 0 0 32 32;" xml:space="preserve">
<path id="266148698_shock_x5F_color_grid" class="stshockcolor" style="fill:#EF6565;" d="M24.92,5.5H6.071C5.112,5.5,4.525,6.087,4.5,7.083v18.845  c0,0.958,0.587,1.546,1.583,1.571h18.845c0.958,0,1.546-0.587,1.571-1.57V7.071C26.5,6.114,25.915,5.527,24.92,5.5z"/>
<path style="fill:#4D5152;" d="M24.91,5H6.09C4,5,4,7.09,4,7.09v18.82C4,28,6.09,28,6.09,28h18.82C27,28,27,25.91,27,25.91V7.09  C27,5,24.91,5,24.91,5z M26,25.91c0,0.26-0.08,1.09-1.09,1.09H6.09C5.83,27,5,26.92,5,25.91V7.09C5,6.83,5.08,6,6.09,6h18.82  C25.17,6,26,6.08,26,7.09V25.91z M21.16,11.55l-4.95,4.95l4.95,4.95l-0.71,0.71l-4.95-4.95l-4.95,4.95l-0.71-0.71l4.95-4.95  l-4.95-4.95l0.71-0.71l4.95,4.95l4.95-4.95L21.16,11.55z"/>
</svg>
