<?xml version="1.0"?>
<svg xmlns="http://www.w3.org/2000/svg" xmlns:xlink="http://www.w3.org/1999/xlink" version="1.1" id="266148697_Outlined_2__grid" x="0px" y="0px" width="32px" height="32px" viewBox="0 0 32 32" style="enable-background:new 0 0 32 32;" xml:space="preserve">
<path id="266148697_shock_x5F_color_grid" class="stshockcolor" style="fill:#75EA9C;" d="M24.92,5.5H6.071C5.112,5.5,4.525,6.087,4.5,7.083v18.845  c0,0.958,0.587,1.546,1.583,1.571h18.845c0.958,0,1.546-0.587,1.571-1.57V7.071C26.5,6.114,25.915,5.527,24.92,5.5z"/>
<path style="fill:#4D5152;" d="M26,9h1v16.91c0,0,0,2.09-2.09,2.09H6.09c0,0-2.09,0-2.09-2.09V7.09C4,7.09,4,5,6.09,5H23v1H6.09  C5.08,6,5,6.83,5,7.09v18.82C5,26.92,5.83,27,6.09,27h18.82c1.01,0,1.09-0.83,1.09-1.09V9z M11.891,14.188l-0.781,0.625l4.391,5.488  L27.891,4.813l-0.781-0.625L15.5,18.699L11.891,14.188z"/>
</svg>
