<?xml version="1.0" encoding="utf-8"?>
<!-- Generator: Adobe Illustrator 16.0.0, SVG Export Plug-In . SVG Version: 6.00 Build 0)  -->
<svg xmlns="http://www.w3.org/2000/svg" xmlns:xlink="http://www.w3.org/1999/xlink" version="1.1" id="266185644_Capa_1_grid" x="0px" y="0px" width="32px" height="32px" viewBox="0 0 32 32" style="enable-background:new 0 0 32 32;" xml:space="preserve">

<circle id="266185644_shock_x5F_color_grid" class="stshockcolor" cx="15.5" cy="15.5" r="12" style="fill:#75EA9C;;"/>
<path class="st0" d="M15.5,27.98c-6.881,0-12.48-5.599-12.48-12.48c0-6.881,5.599-12.48,12.48-12.48  c6.882,0,12.48,5.599,12.48,12.48C27.98,22.382,22.382,27.98,15.5,27.98z M15.5,3.98C9.148,3.98,3.98,9.148,3.98,15.5  c0,6.353,5.168,11.52,11.52,11.52c6.353,0,11.52-5.167,11.52-11.52C27.02,9.148,21.853,3.98,15.5,3.98z M22.999,11.998H8v1h14.999  V11.998z M22.999,18.002H8v1h14.999V18.002z" style="fill:#4D5152;;"/>
</svg>
