<?xml version="1.0"?>
<svg xmlns="http://www.w3.org/2000/svg" xmlns:xlink="http://www.w3.org/1999/xlink" version="1.1" id="266148701_Outlined_2__grid" x="0px" y="0px" width="32px" height="32px" viewBox="0 0 32 32" style="enable-background:new 0 0 32 32;" xml:space="preserve">
<path id="266148701_shock_x5F_color_grid" class="stshockcolor" style="fill:#FF80ED;" d="M28.391,5.714c-1.038-1.039-2.419-1.611-3.889-1.611s-2.851,0.572-3.889,1.611  l-1.048,1.048l1.047-1.047l-2.123-2.123L4.67,17.491c-2.37,2.804-2.209,6.865,0.375,9.448c1.313,1.313,3.058,2.035,4.915,2.036  c0,0,0,0,0,0c1.656,0,3.267-0.59,4.594-1.716l13.837-13.767C30.535,11.348,30.535,7.859,28.391,5.714z M12.823,24.818  c-0.755,0.755-1.76,1.171-2.829,1.171c-1.068,0-2.073-0.416-2.829-1.171c-0.755-0.756-1.171-1.76-1.171-2.828  s0.416-2.073,1.171-2.829L9,17.326c-1.413,1.558-1.365,3.978,0.142,5.484c0.755,0.755,1.76,1.171,2.828,1.171  c1.069,0,2.073-0.416,2.828-1.17L12.823,24.818z M26.27,11.372L26.27,11.372L24.15,9.25L12.678,20.689  c-0.189,0.188-0.44,0.293-0.707,0.293c-0.268,0-0.519-0.104-0.708-0.293c-0.39-0.391-0.39-1.024-0.001-1.414l11.471-11.44  c0.473-0.472,1.1-0.732,1.768-0.732s1.295,0.26,1.768,0.732C27.244,8.81,27.244,10.396,26.27,11.372z"/>
<path style="fill:#4D5152;" d="M27.684,6.421c-1.757-1.758-4.606-1.758-6.363,0L9.842,17.893c-1.172,1.172-1.164,3.039,0.008,4.211  c1.171,1.171,3.071,1.171,4.243,0l10.763-10.732l-0.707-0.708L13.385,21.396c-0.781,0.781-2.047,0.78-2.828,0  c-0.781-0.781-0.781-2.048,0-2.829l11.47-11.439c1.366-1.366,3.582-1.367,4.949,0s1.366,3.583,0,4.95L13.53,25.525  c-1.952,1.952-5.119,1.952-7.071,0s-1.953-5.118,0-7.071l12.74-12.74l-0.707-0.707L5.434,18.137  c-1.993,2.357-1.904,5.874,0.318,8.096s5.739,2.31,8.097,0.318l13.835-13.765C29.441,11.028,29.441,8.179,27.684,6.421z"/>
</svg>
