<?xml version="1.0"?>
<svg xmlns="http://www.w3.org/2000/svg" xmlns:xlink="http://www.w3.org/1999/xlink" version="1.1" id="266148703_Outlined_2__grid" x="0px" y="0px" width="32px" height="32px" viewBox="0 0 32 32" style="enable-background:new 0 0 32 32;" xml:space="preserve">
<path style="fill:#AAAAAA;" d="M15.5,27.5c-6.617,0-12-5.383-12-12c0-6.617,5.383-12,12-12c6.617,0,12,5.383,12,12  C27.5,22.117,22.117,27.5,15.5,27.5z"/>
<path id="266148703_shock_x5F_color_grid" class="stshockcolor" style="fill:#ACF0F2;" d="M15.5,25C10.262,25,6,20.738,6,15.5S10.262,6,15.5,6s9.5,4.262,9.5,9.5  S20.738,25,15.5,25z"/>
<path style="fill:#FFFFFF;" d="M7.641,14.5c-0.031,0-0.063-0.003-0.094-0.009c-0.271-0.052-0.449-0.313-0.397-0.585  c0.578-3.029,2.759-5.512,5.694-6.48c0.262-0.09,0.544,0.056,0.631,0.318c0.087,0.262-0.056,0.545-0.318,0.631  c-2.59,0.854-4.515,3.045-5.025,5.718C8.086,14.333,7.876,14.5,7.641,14.5z"/>
<path style="fill:#4D5152;" d="M16,7h-1v9h7v-1h-6V7z M15.5,3C8.597,3,3,8.597,3,15.5S8.597,28,15.5,28S28,22.403,28,15.5  S22.403,3,15.5,3z M15.5,27C9.149,27,4,21.852,4,15.5S9.149,4,15.5,4C21.852,4,27,9.148,27,15.5S21.852,27,15.5,27z"/>
</svg>
