<?xml version="1.0"?>
<svg xmlns="http://www.w3.org/2000/svg" xmlns:xlink="http://www.w3.org/1999/xlink" version="1.1" id="266247350_icon_grid" x="0px" y="0px" width="32px" height="32px" viewBox="0 0 32 32" style="enable-background:new 0 0 32 32;" xml:space="preserve">
<path id="266247350_shock_x5F_color_grid" class="stshockcolor" style="fill:#FFD878;" d="M15.5,27.5c-6.617,0-12-5.384-12-12c0-6.617,5.383-12,12-12  c6.616,0,12,5.383,12,12C27.5,22.116,22.116,27.5,15.5,27.5z"/>
<g id="266247350__x3C_Trazado_x3E__grid" style="opacity:0.4;">
	<path style="fill:#FFFFFF;" d="M15.5,6C10.262,6,6,10.262,6,15.5s4.262,9.5,9.5,9.5s9.5-4.262,9.5-9.5S20.738,6,15.5,6z    M21.541,20.443l-9.886,2.196c0-2.196,1.561-3.613,1.561-3.613s0.635-0.791-1.53-0.791h-0.031h-0.008   c-1.09,0-1.09-0.835-1.09-3.027c0-0.011-1.099-0.258-1.099-1.356c1.099-1.099,1.099-1.099,1.099-1.099v-1.109   c0-2.197,0.868-3.284,4.372-3.284c2.988,0,4.416,1.295,4.416,3.284c0,2.493-0.517,3.097-0.55,4.394   c-0.033,1.307,1.648,1.822,2.746,2.92V20.443z"/>
</g>
<path style="fill:#4D5152;" d="M15.5,3C8.6,3,3,8.6,3,15.5S8.6,28,15.5,28S28,22.4,28,15.5S22.4,3,15.5,3z M15.5,27  C9.16,27,4,21.84,4,15.5S9.16,4,15.5,4S27,9.16,27,15.5S21.84,27,15.5,27z M20.75,17.446c-0.591-0.491-1.26-1.048-1.25-1.431  c0.01-0.379,0.079-0.69,0.168-1.084C19.815,14.272,20,13.453,20,11.99C20,9.492,18.123,8,14.98,8C11.489,8,10,9.193,10,11.99v0.596  l-0.707,0.707L9,13.586V14c0,0.789,0.374,1.41,1.002,1.738c0.007,0.713,0.035,1.274,0.151,1.741  c0.326,1.314,1.292,1.511,1.839,1.511h0c0.125,0,0.236,0.005,0.333,0.012C11.674,19.645,11,20.638,11,22v1.247l1.217-0.271l9-2  L22,20.802V20v-1v-0.414l-0.293-0.293C21.403,17.989,21.071,17.713,20.75,17.446z M21,20l-9,2c0-2,1.98-3,1.98-3  s0.019-1.01-1.952-1.01H12h-0.007C11,17.99,11,16.985,11,14.99c0-0.01-1,0.01-1-0.99c1-1,1-1,1-1v-1.01c0-2,0.79-2.99,3.98-2.99  C17.7,9,19,10.18,19,11.99c0,2.27-0.47,2.819-0.5,4C18.47,17.18,20,18,21,19V20z"/>
</svg>
