<?xml version="1.0"?>
<svg xmlns="http://www.w3.org/2000/svg" xmlns:xlink="http://www.w3.org/1999/xlink" version="1.1" id="266247354_icon_grid" x="0px" y="0px" width="32px" height="32px" viewBox="0 0 32 32" style="enable-background:new 0 0 32 32;" xml:space="preserve">
<path id="266247354_shock_x5F_color_grid" class="stshockcolor" style="fill:#FFD878;" d="M26.5,12.5v-4h-2v-4h-12v4h2v4h-2v4v0.418c-0.628-0.275-1.306-0.418-2-0.418  c-2.757,0-5,2.243-5,5s2.243,5,5,5c1.579,0,3.054-0.743,3.998-2H24.5v-4h1v-4h-1v-4H26.5z"/>
<polygon style="opacity:0.5;fill:#FFFFFF;" points="24,12.5 24,8.5 22,8.5 22,4.5 19,4.5 19,8.5 21,8.5 21,12.5 19,12.5 19,16.5   20,16.5 20,20.5 19,20.5 19,24.5 22,24.5 22,20.5 23,20.5 23,16.5 22,16.5 22,12.5 "/>
<path id="266247354__x3C_Trazado_x3E__grid" style="opacity:0.2;fill:#4D5152;" d="M15,12.5v4h1v4h-0.601c-0.203-0.993-0.702-1.877-1.399-2.562  V16.5h-1v-4H15z M13,4.5v4h2v-4H13z M17,8.5h-2v4h2V8.5z M10.5,18C8.567,18,7,19.567,7,21.5S8.567,25,10.5,25s3.5-1.567,3.5-3.5  S12.433,18,10.5,18z"/>
<path id="266247354__x3C_Trazado_x3E__1__grid" style="fill:#4D5152;" d="M10,18h1v7h-1V18z M27,8v1v3v1h-1h-1v3h1v5h-1v4H14.745  c-1.008,1.222-2.535,2-4.245,2C7.46,27,5,24.54,5,21.5S7.46,16,10.5,16c0.521,0,1.022,0.077,1.5,0.212V16v-3v-1h1h1V9h-1h-1V8V5V4h1  h11h1v1v3h1H27z M14,8h1h9V5H13v3H14z M15,21.5c0-2.481-2.019-4.5-4.5-4.5S6,19.019,6,21.5S8.019,26,10.5,26S15,23.981,15,21.5z   M24,21h-8.025C15.99,21.165,16,21.331,16,21.5c0,0.901-0.221,1.75-0.604,2.5H24V21z M15.134,24.457  c-0.018,0.027-0.032,0.056-0.05,0.083C15.102,24.513,15.116,24.484,15.134,24.457z M25,17h-1H14v0.256  c0.877,0.724,1.52,1.718,1.816,2.853C15.806,20.072,15.8,20.035,15.79,20H25V17z M15.898,20.454  c0.009,0.048,0.014,0.097,0.022,0.145C15.912,20.551,15.907,20.501,15.898,20.454z M24,13h-9h-1h-1v3h11V13z M26,9h-1h-1h-9v3h9h1h1  V9z"/>
</svg>
