<?xml version="1.0"?>
<svg xmlns="http://www.w3.org/2000/svg" xmlns:xlink="http://www.w3.org/1999/xlink" version="1.1" id="266247344_icon_grid" x="0px" y="0px" width="32px" height="32px" viewBox="0 0 32 32" style="enable-background:new 0 0 32 32;" xml:space="preserve">
<path id="266247344_shock_x5F_color_grid" class="stshockcolor" style="fill:#FFD878;" d="M15.5,27.5c-6.617,0-12-5.384-12-12c0-6.617,5.383-12,12-12  c6.616,0,12,5.383,12,12C27.5,22.116,22.116,27.5,15.5,27.5z"/>
<g style="opacity:0.4;">
	<path style="fill:#FFFFFF;" d="M15.5,6C10.262,6,6,10.262,6,15.5s4.262,9.5,9.5,9.5s9.5-4.262,9.5-9.5S20.738,6,15.5,6z    M19.239,20.823L15.5,18.019l-3.741,2.806l1.579-4.431l-2.92-2.188h3.702l1.38-3.855l1.38,3.855h3.701l-2.92,2.188L19.239,20.823z"/>
</g>
<path style="fill:#4D5152;" d="M15.5,3C8.6,3,3,8.6,3,15.5S8.6,28,15.5,28S28,22.4,28,15.5S22.4,3,15.5,3z M15.5,27  C9.16,27,4,21.84,4,15.5S9.16,4,15.5,4S27,9.16,27,15.5S21.84,27,15.5,27z M17.29,13.5l-1.79-5l-1.79,5H8.5l4.109,3.08L10.5,22.5  l5-3.75l5,3.75l-2.11-5.92l4.11-3.08H17.29z M18.442,19.707L15.5,17.5l-2.943,2.208l1.242-3.486L11.501,14.5h2.913l1.086-3.033  l1.086,3.033h2.912L17.2,16.222L18.442,19.707z"/>
</svg>
