<?xml version="1.0"?>
<svg xmlns="http://www.w3.org/2000/svg" xmlns:xlink="http://www.w3.org/1999/xlink" version="1.1" id="266247336_Outlined_2__grid" x="0px" y="0px" width="32px" height="32px" viewBox="0 0 32 32" style="enable-background:new 0 0 32 32;" xml:space="preserve">
<path style="fill:#AAAAAA;" d="M15.5,28.5c-7.168,0-13-5.832-13-13c0-7.168,5.832-13,13-13c7.168,0,13,5.832,13,13  C28.5,22.668,22.668,28.5,15.5,28.5z"/>
<path id="266247336_shock_x5F_color_grid" class="stshockcolor" style="fill:#FFE4A9;" d="M15.5,26C9.71,26,5,21.29,5,15.5C5,9.71,9.71,5,15.5,5C21.29,5,26,9.71,26,15.5  C26,21.29,21.29,26,15.5,26z"/>
<path style="fill:#4D5152;" d="M18.308,14.395C19.199,13.846,20,12.941,20,11.722c0-2.146-1.327-3.409-4-3.667V6h-1v2.004L14.927,8  C12.964,8,11,8.389,11,8.389v14.236c0,0,2,0.375,4,0.375v2h1v-2.044c3.32-0.216,5-1.546,5-4.525  C21,16.213,19.584,14.968,18.308,14.395z M15,22c-1.133,0-2.277-0.133-3-0.228V15h3V22z M15,14c-1.306,0-3,0-3,0V9.222  C12.705,9.124,13.819,9,14.917,9L15,9.003V14z M16,9.06c1.643,0.171,3,0.809,3,2.644C19,13.264,17.073,14,16.464,14H16V9.06z   M16,21.986V15h0.708C17.334,15,20,15.896,20,18.435C20,21.46,17.938,21.917,16,21.986z M15.5,2C8.044,2,2,8.044,2,15.5  S8.044,29,15.5,29S29,22.956,29,15.5S22.956,2,15.5,2z M15.5,28C8.607,28,3,22.393,3,15.5S8.607,3,15.5,3S28,8.607,28,15.5  S22.393,28,15.5,28z"/>
</svg>
