<?xml version="1.0"?>
<svg xmlns="http://www.w3.org/2000/svg" xmlns:xlink="http://www.w3.org/1999/xlink" version="1.1" id="266247348_Outlined_2__grid" x="0px" y="0px" width="32px" height="32px" viewBox="0 0 32 32" style="enable-background:new 0 0 32 32;" xml:space="preserve">
<path id="266247348_shock_x5F_color_grid" class="stshockcolor" style="fill:#AAAAAA;" d="M15.5,28.5c-7.168,0-13-5.832-13-13c0-7.168,5.832-13,13-13  c7.168,0,13,5.832,13,13C28.5,22.668,22.668,28.5,15.5,28.5z"/>
<g style="opacity:0.4;">
	<path style="fill:#FFFFFF;" d="M15.5,26C9.71,26,5,21.29,5,15.5C5,9.71,9.71,5,15.5,5C21.29,5,26,9.71,26,15.5   C26,21.29,21.29,26,15.5,26z"/>
</g>
<path style="fill:#4D5152;" d="M15.5,3C22.393,3,28,8.607,28,15.5S22.393,28,15.5,28S3,22.393,3,15.5S8.607,3,15.5,3 M15.5,2  C8.044,2,2,8.044,2,15.5S8.044,29,15.5,29S29,22.956,29,15.5S22.956,2,15.5,2L15.5,2z M15.196,17.998c3.201,0,4.8-1.667,4.8-5.001  s-1.6-5.001-4.8-5.001c-1.6,0-3.2,0.334-3.2,0.334v0.172h-0.002v10.495h-0.986v1.009h0.986v2.993h1.008v-2.993h6.995v-1.009h-6.995  v-1.165C13.601,17.915,14.398,17.998,15.196,17.998z M13.001,16.802V9.192c0.544-0.083,1.405-0.19,2.252-0.19  c1.611,0,3.754,0.414,3.754,3.995s-2.143,3.996-3.754,3.996C14.402,16.993,13.543,16.886,13.001,16.802z"/>
</svg>
