<?xml version="1.0"?>
<svg xmlns="http://www.w3.org/2000/svg" xmlns:xlink="http://www.w3.org/1999/xlink" version="1.1" id="266247338_Outlined_2__grid" x="0px" y="0px" width="32px" height="32px" viewBox="0 0 32 32" style="enable-background:new 0 0 32 32;" xml:space="preserve">
<path id="266247338_shock_x5F_color_grid" class="stshockcolor" style="fill:#BF9171;" d="M15.5,28.5c-7.168,0-13-5.832-13-13c0-7.168,5.832-13,13-13  c7.168,0,13,5.832,13,13C28.5,22.668,22.668,28.5,15.5,28.5z"/>
<path style="opacity:0.2;fill:#FFFFFF;" d="M15.5,26C9.71,26,5,21.29,5,15.5C5,9.71,9.71,5,15.5,5C21.29,5,26,9.71,26,15.5  C26,21.29,21.29,26,15.5,26z"/>
<path style="fill:#4D5152;" d="M15.5,3C22.393,3,28,8.607,28,15.5S22.393,28,15.5,28S3,22.393,3,15.5S8.607,3,15.5,3 M15.5,2  C8.044,2,2,8.044,2,15.5S8.044,29,15.5,29S29,22.956,29,15.5S22.956,2,15.5,2L15.5,2z M15.5,11.003c1.263,0,2.36,0.662,2.975,1.945  l0.75-0.75c-0.72-1.279-1.879-2.002-3.224-2.146V6.998h-1.002v3.055c-2.242,0.238-3.992,2.058-3.992,5.447s1.75,5.209,3.992,5.447  v3.055h1.002v-3.055c1.345-0.143,2.504-0.867,3.224-2.146l-0.75-0.75c-0.614,1.284-1.712,1.945-2.975,1.945  c-1.931,0-3.497-1.517-3.497-4.497S13.569,11.003,15.5,11.003z"/>
</svg>
