<?xml version="1.0"?>
<svg xmlns="http://www.w3.org/2000/svg" xmlns:xlink="http://www.w3.org/1999/xlink" version="1.1" id="266247345_Outlined_2__grid" x="0px" y="0px" width="32px" height="32px" viewBox="0 0 32 32" style="enable-background:new 0 0 32 32;" xml:space="preserve">
<path style="fill:#AAAAAA;" d="M15.5,28.5c-7.168,0-13-5.832-13-13c0-7.168,5.832-13,13-13c7.168,0,13,5.832,13,13  C28.5,22.668,22.668,28.5,15.5,28.5z"/>
<path id="266247345_shock_x5F_color_grid" class="stshockcolor" style="fill:#FFE4A9;" d="M15.5,26C9.71,26,5,21.29,5,15.5C5,9.71,9.71,5,15.5,5C21.29,5,26,9.71,26,15.5  C26,21.29,21.29,26,15.5,26z"/>
<path style="fill:#4D5152;" d="M15.5,3C22.393,3,28,8.607,28,15.5S22.393,28,15.5,28S3,22.393,3,15.5S8.607,3,15.5,3 M15.5,2  C8.044,2,2,8.044,2,15.5S8.044,29,15.5,29S29,22.956,29,15.5S22.956,2,15.5,2L15.5,2z M15,8h-3v3h-1v1h1v2h-1v1h1v8h1v-5  c0,0,1.398,0,2.196,0c2.471,0,3.977-1.007,4.541-2.994L21,15v-1h-1.068c0.037-0.317,0.064-0.647,0.064-1.003  c0-0.353-0.027-0.682-0.063-0.997h1.063v-1h-1.258C19.177,9.007,17.475,8,15,8z M13,9c0,0,0,0,2.253,0.002  c1.239,0.001,2.788,0.254,3.439,1.998H13V9z M15.253,17C15,17,13,17,13,17v-2l5.694,0.006C18.044,16.755,16.493,17,15.253,17z   M18.938,14H13v-2l5.938,0.006c0.042,0.304,0.069,0.63,0.069,0.998C19.007,13.37,18.979,13.697,18.938,14z"/>
</svg>
