<?xml version="1.0"?>
<svg xmlns="http://www.w3.org/2000/svg" xmlns:xlink="http://www.w3.org/1999/xlink" version="1.1" id="266247343_Outlined_2__grid" x="0px" y="0px" width="32px" height="32px" viewBox="0 0 32 32" style="enable-background:new 0 0 32 32;" xml:space="preserve">
<path style="fill:#AAAAAA;" d="M15.5,28.5c-7.168,0-13-5.832-13-13c0-7.168,5.832-13,13-13c7.168,0,13,5.832,13,13  C28.5,22.668,22.668,28.5,15.5,28.5z"/>
<path id="266247343_shock_x5F_color_grid" class="stshockcolor" style="fill:#FFE4A9;" d="M15.5,26C9.71,26,5,21.29,5,15.5C5,9.71,9.71,5,15.5,5C21.29,5,26,9.71,26,15.5  C26,21.29,21.29,26,15.5,26z"/>
<path style="fill:#4D5152;" d="M15.5,3C22.393,3,28,8.607,28,15.5S22.393,28,15.5,28S3,22.393,3,15.5S8.607,3,15.5,3 M15.5,2  C8.044,2,2,8.044,2,15.5S8.044,29,15.5,29S29,22.956,29,15.5S22.956,2,15.5,2L15.5,2z M10.181,14H9.162l-0.375,1h1.239  C10.013,15.166,10,15.331,10,15.5s0.013,0.334,0.025,0.5H9.162l-0.375,1h1.394c0.678,2.865,3.247,5,6.319,5  c1.291,0,2.491-0.381,3.502-1.03v-1.248C19.05,20.514,17.836,21,16.5,21c-2.517,0-4.634-1.692-5.288-4h6.649l0.378-1h-7.214  C11.01,15.835,11,15.669,11,15.5s0.01-0.335,0.025-0.5h7.592l0.378-1h-7.783c0.654-2.307,2.771-4,5.288-4  c1.344,0,2.563,0.493,3.518,1.293l0.371-0.982C19.304,9.495,17.963,9,16.5,9C13.427,9,10.859,11.135,10.181,14z"/>
</svg>
