<?xml version="1.0"?>
<svg xmlns="http://www.w3.org/2000/svg" xmlns:xlink="http://www.w3.org/1999/xlink" version="1.1" id="266247355_Outlined_2__grid" x="0px" y="0px" width="32px" height="32px" viewBox="0 0 32 32" style="enable-background:new 0 0 32 32;" xml:space="preserve">
<polygon id="266247355_shock_x5F_color_grid" class="stshockcolor" style="fill:#BFBFBF;" points="24.5,2.5 24.5,29.5 18.5,29.5 18.5,30 13.5,30 13.5,29.5 7.5,29.5   7.5,2.5 "/>
<rect x="13.5" y="26.5" style="opacity:0.4;fill:#4D5152;" width="5" height="3.5"/>
<rect x="9.5" y="6.5" style="fill:#ACF0F2;" width="15" height="16"/>
<polygon style="fill:#67DDE0;" points="24.5,6.53 24.5,22.5 9.5,22.5 9.5,22.47 "/>
<path style="fill:#4D5152;" d="M24.5,2h-17C7.224,2,7,2.224,7,2.5V30h7v-3h4v3h7V2.5C25,2.224,24.776,2,24.5,2z M24,22H10v-3h14V22z   M24,18H10v-3h14V18z M24,14H10v-3h14V14z M24,10H10V7h14V10z M24,6H9v17h15v6h-5v-2c0-0.553-0.447-1-1-1h-4c-0.552,0-1,0.447-1,1v2  H8V3h16V6z"/>
</svg>
