<?xml version="1.0"?>
<svg xmlns="http://www.w3.org/2000/svg" xmlns:xlink="http://www.w3.org/1999/xlink" version="1.1" id="266247356_Layer_1_grid" x="0px" y="0px" width="32px" height="32px" viewBox="0 0 32 32" style="enable-background:new 0 0 32 32;" xml:space="preserve">
<path style="fill:#E88C77;" d="M20.5,21.5c0-0.553,0.447-1,1-1h4c0.553,0,1,0.447,1,1v6c0,0.553-0.447,1-1,1h-4  c-0.553,0-1-0.447-1-1V21.5z"/>
<path style="fill:#FFD878;" d="M20.5,12.5c0-0.552,0.447-1,1-1h4c0.553,0,1,0.448,1,1v7c0,0.553-0.447,1-1,1h-4  c-0.553,0-1-0.447-1-1V12.5z"/>
<path id="266247356_shock_x5F_color_grid" class="stshockcolor" style="fill:#75EA9C;" d="M23.5,27.5c0,0.553-0.447,1-1,1h-15c-0.552,0-1-0.447-1-1v-23  c0-0.552,0.448-1,1-1h18c0.553,0,1,0.448,1,1v7l-3,0V27.5z"/>
<path style="opacity:0.4;fill:#FFFFFF;" d="M18.5,13.5c0,1.657-1.343,3-3,3c-1.657,0-3-1.343-3-3s1.343-3,3-3  C17.157,10.5,18.5,11.843,18.5,13.5z M17.238,17.731L15.5,19.564l-1.746-1.831C12.204,18.299,10.5,20.217,10.5,22.5h10  C20.5,20.216,18.792,18.295,17.238,17.731z"/>
<path style="fill:#4D5152;" d="M15.5,17c1.933,0,3.5-1.567,3.5-3.5S17.433,10,15.5,10c-1.933,0-3.5,1.567-3.5,3.5S13.567,17,15.5,17   M15.5,11c1.381,0,2.5,1.119,2.5,2.5S16.881,16,15.5,16c-1.381,0-2.5-1.119-2.5-2.5S14.119,11,15.5,11 M27,4.5  C27,3.672,26.328,3,25.5,3h-18C6.672,3,6,3.672,6,4.5v23C6,28.328,6.672,29,7.5,29h18c0.828,0,1.5-0.672,1.5-1.5v-6  c0-0.386-0.15-0.734-0.39-1c0.239-0.266,0.39-0.614,0.39-1v-7c0-0.386-0.15-0.734-0.39-1c0.239-0.266,0.39-0.614,0.39-1V4.5z   M26,27.5c0,0.276-0.224,0.5-0.5,0.5h-1.592C23.964,27.843,24,27.676,24,27.5V21h1.5c0.276,0,0.5,0.224,0.5,0.5V27.5z M26,19.5  c0,0.276-0.224,0.5-0.5,0.5H24v-7.5c0-0.276,0.224-0.5,0.5-0.5h1c0.276,0,0.5,0.224,0.5,0.5V19.5z M26,10.5  c0,0.276-0.224,0.5-0.5,0.5h-1c-0.828,0-1.5,0.672-1.5,1.5v15c0,0.276-0.224,0.5-0.5,0.5h-15C7.224,28,7,27.776,7,27.5v-23  C7,4.224,7.224,4,7.5,4h18C25.776,4,26,4.224,26,4.5V10.5z M17.089,17.257l-0.005-0.005L15.5,18.836l-1.584-1.584l-0.005,0.005  C11.649,18,10,20.289,10,23h11C21,20.289,19.352,18.001,17.089,17.257 M11.091,22c0.293-1.604,1.284-2.914,2.599-3.561l1.81,1.811  l1.811-1.811c1.314,0.646,2.306,1.957,2.599,3.561H11.091z"/>
</svg>
