<?xml version="1.0"?>
<svg xmlns="http://www.w3.org/2000/svg" xmlns:xlink="http://www.w3.org/1999/xlink" version="1.1" id="266247357_icon_grid" x="0px" y="0px" width="32px" height="32px" viewBox="0 0 32 32" style="enable-background:new 0 0 32 32;" xml:space="preserve">
<path id="266247357_shock_x5F_color_grid" class="stshockcolor" style="fill:#FFE4A9;" d="M6.625,4.958v22.083c0,0.736,0.597,1.333,1.333,1.333h16.083  c0.736,0,1.333-0.597,1.333-1.333V4.958c0-0.736-0.597-1.333-1.333-1.333H7.958C7.222,3.625,6.625,4.222,6.625,4.958z"/>
<path style="fill:#4D5152;" d="M24,3H8c0,0-2,0-2,2v22c0,0,0,2,2,2h16c0,0,2,0,2-2V5C26,5,26,3,24,3z M25,27c0,0.806-0.55,0.988-1,1  H8c-0.805,0-0.988-0.55-1-1V5c0-0.805,0.55-0.988,1-1h16c0.806,0,0.988,0.55,1,1V27z M19,8h-6V7h6V8z M10,11h12v1H10V11z M10,15h12  v1H10V15z M10,19h12v1H10V19z M11,24h4v1h-5v-2h1V24z M21,23h1v2h-5v-1h4V23z"/>
</svg>
