<?xml version="1.0"?>
<svg xmlns="http://www.w3.org/2000/svg" xmlns:xlink="http://www.w3.org/1999/xlink" version="1.1" id="266148706_Outlined_2__grid" x="0px" y="0px" width="32px" height="32px" viewBox="0 0 32 32" style="enable-background:new 0 0 32 32;" xml:space="preserve">
<path id="266148706_shock_x5F_color_grid" class="stshockcolor" style="fill:#FFE4A9;" d="M27.5,9v14.5c0,0.56-0.44,1-1,1H22c-0.28,0-0.5-0.22-0.5-0.5v-9  c0-0.26,0-0.26-0.2-0.43c-0.069-0.06-0.149-0.13-0.24-0.21l-0.71-0.71c0.15,0.14,0.19,0.35,0.11,0.54S20.2,14.5,20,14.5h-4.5  c-0.55,0-1-0.45-1-1V9c0-0.2,0.12-0.38,0.31-0.46C14.87,8.51,14.94,8.5,15,8.5c0.13,0,0.26,0.05,0.35,0.15l-0.7-0.71  c-0.09-0.09-0.16-0.16-0.22-0.24C14.26,7.5,14.26,7.5,14,7.5h-3c-0.28,0-0.5-0.22-0.5-0.5V2.5c0-0.55,0.45-1,1-1H20  c0.28,0,0.5,0.22,0.5,0.5v5.5c0,0.55,0.45,1,1,1H27C27.28,8.5,27.5,8.72,27.5,9z"/>
<path style="fill:#FFFFFF;" d="M21.5,8.5c-0.561,0-1-0.439-1-1V3c0-0.202,0.122-0.385,0.309-0.462C20.87,2.512,20.936,2.5,21,2.5  c0.13,0,0.258,0.051,0.354,0.146l5,5c0.143,0.143,0.186,0.358,0.108,0.545S26.202,8.5,26,8.5H21.5z M20.5,30.5c0.561,0,1-0.439,1-1  V15c0-0.276-0.224-0.5-0.5-0.5h-5.5c-0.551,0-1-0.449-1-1V8c0-0.276-0.224-0.5-0.5-0.5H5.5c-0.551,0-1,0.449-1,1v21  c0,0.561,0.439,1,1,1H20.5z"/>
<path style="fill:#4D5152;" d="M27.414,8L21,1.586C20.646,1.232,20.621,1,20,1h-8.5C10.672,1,10,1.672,10,2.5V7H5.5  C4.672,7,4,7.672,4,8.5v21C4,30.328,4.672,31,5.5,31h15c0.828,0,1.5-0.672,1.5-1.5V25h4.5c0.828,0,1.5-0.672,1.5-1.5V9  C28,8.368,27.768,8.354,27.414,8z M21,3l5,5c-1.86,0-4.5,0-4.5,0C21.224,8,21,7.776,21,7.5V3z M21,29.5c0,0.276-0.224,0.5-0.5,0.5  h-15C5.224,30,5,29.776,5,29.5v-21C5,8.224,5.224,8,5.5,8c1,0,8.5,0,8.5,0v5.5c0,0.828,0.671,1.5,1.5,1.5H21c0,0,0,0.792,0,2  c0,0.309,0,0.643,0,1c0,0.615,0,1.29,0,2c0,0.327,0,0.662,0,1C21,24.867,21,29.225,21,29.5z M20,14c-1.86,0-4.5,0-4.5,0  c-0.276,0-0.5-0.224-0.5-0.5V9L20,14z M27,23.5c0,0.276-0.224,0.5-0.5,0.5H22v-3h4v-1h-4v-2h4v-1h-4v-2h4v-1h-4.586l-2-2H26v-1  h-7.586l-2-2H19V8h-3.586L15,7.586C14.646,7.232,14.621,7,14,7h-3V2.5C11,2.224,11.224,2,11.5,2c1,0,8.5,0,8.5,0v5.5  C20,8.328,20.672,9,21.5,9H27C27,9,27,23,27,23.5z M13,15H6v-1h7V15z M6,17h14v1H6V17z M6,20h14v1H6V20z M6,23h14v1H6V23z M6,26h14  v1H6V26z"/>
</svg>
