<?xml version="1.0"?>
<svg xmlns="http://www.w3.org/2000/svg" xmlns:xlink="http://www.w3.org/1999/xlink" version="1.1" id="266148707_Outlined_2__grid" x="0px" y="0px" width="32px" height="32px" viewBox="0 0 32 32" style="enable-background:new 0 0 32 32;" xml:space="preserve">
<path id="266148707_shock_x5F_color_grid" class="stshockcolor" style="fill:#67DDE0;" d="M29.437,25.937c-0.376-2.957-2.31-5.364-5.047-6.281l-0.264-0.088L21.5,21.74  l-2.639-2.184l-0.484,0.19c-0.287,0.099-0.551,0.231-0.81,0.372c-1.324,0.727-3.27,2.275-3.906,5.282  c-0.019,0.094-0.036,0.188-0.051,0.282c-0.047,0.264-0.092,0.531-0.118,0.816h16.016L29.437,25.937z"/>
<path style="fill:#BFBFBF;" d="M17.567,20.119c-0.047,0.025-0.102,0.041-0.148,0.068c0.025-0.014,0.048-0.03,0.073-0.044  l0.427-0.225l-0.208-0.435c-0.88-1.836-2.415-3.195-4.324-3.829l-0.263-0.087L10.5,17.741l-2.625-2.174l-0.264,0.088  c-2.738,0.917-4.672,3.324-5.047,6.282L2.493,22.5h10.372h2l0.012-0.017c-0.004,0.005-0.007,0.011-0.011,0.017h0.039  C15.734,21.311,16.764,20.561,17.567,20.119z"/>
<path style="fill:#FFD878;" d="M17.5,13.5c0-2.206,1.794-4,4-4s4,1.794,4,4s-1.794,4-4,4S17.5,15.706,17.5,13.5z M10.5,13.5  c2.206,0,4-1.794,4-4s-1.794-4-4-4s-4,1.794-4,4S8.294,13.5,10.5,13.5z"/>
<path style="fill:#E57C5C;" d="M8.5,10.5c-0.712,0-1.373-0.203-1.953-0.531C6.529,9.813,6.5,9.661,6.5,9.5c0-2.206,1.794-4,4-4  c0.712,0,1.373,0.203,1.953,0.531C12.471,6.187,12.5,6.339,12.5,6.5C12.5,8.706,10.706,10.5,8.5,10.5z M23.5,10.5  c0-0.161-0.029-0.313-0.048-0.47C22.872,9.703,22.213,9.5,21.5,9.5c-2.206,0-4,1.794-4,4c0,0.161,0.029,0.313,0.048,0.47  c0.58,0.328,1.239,0.53,1.952,0.53C21.706,14.5,23.5,12.706,23.5,10.5z"/>
<path style="fill:#4D5152;" d="M30,27c0-3.84-2.45-7.06-6-7.98l-2.5,2.07L19,19.02c-0.29,0.07-0.57,0.16-0.84,0.271  c-1-2.09-2.85-3.67-5.16-4.27l-2.5,2.07L8,15.02C4.45,15.94,2,19.16,2,23h11.98C13.35,24.19,13,25.55,13,27H30z M18.54,20.22  l0.229-0.09l2.091,1.73l0.64,0.529l0.64-0.529l2.091-1.73c2.569,0.86,4.359,3.11,4.71,5.87H14.06c0.14-1.1,0.51-2.12,1.07-3  c0.22-0.36,0.47-0.69,0.75-1c0.5-0.54,1.09-1.01,1.75-1.36C17.92,20.47,18.22,20.33,18.54,20.22z M3.06,22  c0.35-2.76,2.14-5.01,4.71-5.87l2.09,1.73l0.64,0.529l0.64-0.529l2.09-1.73c1.81,0.601,3.23,1.9,4.03,3.57  c-1.05,0.55-1.95,1.34-2.65,2.3H3.06z M21.5,18c2.49,0,4.5-2.01,4.5-4.5S23.99,9,21.5,9S17,11.01,17,13.5S19.01,18,21.5,18z   M21.5,10c1.93,0,3.5,1.57,3.5,3.5S23.43,17,21.5,17S18,15.43,18,13.5S19.57,10,21.5,10z M10.5,14c2.49,0,4.5-2.01,4.5-4.5  S12.99,5,10.5,5S6,7.01,6,9.5S8.01,14,10.5,14z M10.5,6C12.43,6,14,7.57,14,9.5S12.43,13,10.5,13S7,11.43,7,9.5S8.57,6,10.5,6z"/>
</svg>
