<?xml version="1.0"?>
<svg xmlns="http://www.w3.org/2000/svg" xmlns:xlink="http://www.w3.org/1999/xlink" version="1.1" id="266148708_Outlined_2__grid" x="0px" y="0px" width="32px" height="32px" viewBox="0 0 32 32" style="enable-background:new 0 0 32 32;" xml:space="preserve">
<polygon id="266148708_shock_x5F_color_grid" class="stshockcolor" style="fill:#EF6565;" points="6.107,22.36 12.467,16 6.107,9.64 9.64,6.107 16,12.467 22.36,6.107   25.893,9.64 19.533,16 25.893,22.36 22.36,25.893 16,19.533 9.64,25.893 "/>
<path style="fill:#4D5152;" d="M26.601,9.636l-4.236-4.236L16,11.764L9.636,5.399L5.399,9.636L11.763,16l-6.364,6.364l4.237,4.236  L16,20.236l6.364,6.364l4.236-4.236L20.236,16L26.601,9.636z M25.187,22.364l-2.822,2.822L16,18.822l-6.364,6.364l-2.822-2.822  L13.178,16L6.813,9.636l2.822-2.822L16,13.178l6.364-6.364l2.822,2.822L18.822,16L25.187,22.364z"/>
</svg>
