<?xml version="1.0"?>
<svg xmlns="http://www.w3.org/2000/svg" xmlns:xlink="http://www.w3.org/1999/xlink" version="1.1" id="266247365_Outlined_2__grid" x="0px" y="0px" width="32px" height="32px" viewBox="0 0 32 32" style="enable-background:new 0 0 32 32;" xml:space="preserve">
<path id="266247365_shock_x5F_color_grid" class="stshockcolor" style="fill:#75EA9C;" d="M16,30v-3.011C15.834,26.996,15.669,27,15.504,27  c-0.167,0-0.334-0.006-0.504-0.017V30h-3v-3.762c-1.66-0.763-3.037-2.07-3.839-3.67l-0.449-0.894l2.682-1.345l0.448,0.894  C11.516,22.565,13.094,24,15.504,24c1.984,0,4.375-0.624,4.501-3.597c0.056-1.312-0.484-2.632-4.768-3.406  c-1.54-0.272-6.234-1.104-6.234-5.997c0-0.641,0.153-3.73,2.998-5.223V2h3v3.014C15.167,5.005,15.334,5,15.504,5  C15.67,5,15.834,5.005,16,5.016V2h3v3.791c1.718,0.866,2.524,2.192,2.746,2.614l0.466,0.884l-2.653,1.4l-0.467-0.886  C18.869,9.381,17.951,8,15.504,8c-3.046,0-3.501,1.879-3.501,3c0,1.468,0.629,2.489,3.763,3.043c2.042,0.37,7.455,1.349,7.237,6.487  c-0.12,2.826-1.565,4.932-4.002,5.884V30H16z"/>
<path style="fill:#4D5152;" d="M22.003,20.488c-0.079,1.862-0.895,4.347-4.003,5.205V29h-1v-3.108C16.54,25.957,16.049,26,15.504,26  c-0.535,0-1.028-0.067-1.504-0.162V29h-1v-3.434c-1.931-0.688-3.268-2.095-3.946-3.446l0.894-0.448  C10.755,23.28,12.639,25,15.504,25c3.586,0,5.385-1.826,5.5-4.555c0.101-2.38-1.571-3.706-5.589-4.433  c-2.322-0.411-5.412-1.378-5.412-5.013c0-0.607,0.176-3.49,2.998-4.58V3h1v3.145C14.452,6.057,14.944,6,15.504,6  C16.059,6,16.545,6.066,17,6.159V3h1v3.442c1.771,0.675,2.605,1.943,2.861,2.429l-0.885,0.467C19.688,8.789,18.51,7,15.504,7  c-4.063,0-4.501,2.947-4.501,4c0,2.255,1.372,3.459,4.588,4.028C18.661,15.584,22.163,16.705,22.003,20.488z"/>
</svg>
