<?xml version="1.0"?>
<svg xmlns="http://www.w3.org/2000/svg" xmlns:xlink="http://www.w3.org/1999/xlink" version="1.1" id="266247368_Outlined_2__grid" x="0px" y="0px" width="32px" height="32px" viewBox="0 0 32 32" style="enable-background:new 0 0 32 32;" xml:space="preserve">
<path id="266247368_shock_x5F_color_grid" class="stshockcolor" style="fill:#FFE4A9;" d="M10,29V15H8v-3h2v-1H8V8h2V3.687l0.796-0.166C10.898,3.5,13.325,3,15.8,3  c4.981,0,6.967,2.56,7.727,5H26v3h-2.009C23.997,11.167,24,11.333,24,11.5s-0.003,0.333-0.009,0.5H26v3h-2.474  c-0.76,2.439-2.745,5-7.727,5c-0.984,0-1.965-0.08-2.8-0.179V29H10z M13,16.817C13.81,16.915,14.787,17,15.75,17  c2.322,0,3.742-0.611,4.517-2H13V16.817z M20.987,12C20.996,11.833,21,11.667,21,11.5s-0.004-0.333-0.013-0.5H13v1H20.987z   M20.267,8c-0.774-1.389-2.194-2-4.517-2C14.785,6,13.809,6.085,13,6.183V8H20.267z"/>
<path style="fill:#4D5152;" d="M25,9h-2.244c-0.72-3.332-3.038-5-6.956-5C13.4,4,11,4.5,11,4.5V9H9v1h2v3H9v1h2v14h1v-9.325  C12.921,18.819,14.355,19,15.8,19c3.918,0,6.236-1.668,6.956-5H25v-1h-2.087C22.967,12.526,23,12.03,23,11.5s-0.033-1.026-0.087-1.5  H25V9z M12,5.311C12.906,5.174,14.339,5,15.75,5c2.234,0,5.074,0.479,5.964,4H12V5.311z M15.75,18c-1.417,0-2.846-0.174-3.75-0.31  V14h9.714C20.824,17.521,17.984,18,15.75,18z M21.899,13H12v-3h9.899C21.959,10.461,22,10.951,22,11.5S21.959,12.539,21.899,13z"/>
</svg>
