<?xml version="1.0"?>
<svg xmlns="http://www.w3.org/2000/svg" xmlns:xlink="http://www.w3.org/1999/xlink" version="1.1" id="266247366_Outlined_2__grid" x="0px" y="0px" width="32px" height="32px" viewBox="0 0 32 32" style="enable-background:new 0 0 32 32;" xml:space="preserve">
<path id="266247366_shock_x5F_color_grid" class="stshockcolor" style="fill:#E88C77;" d="M18,29c-5.662,0-10.636-3.663-12.357-9h-3.08l1.125-3h1.356  C5.015,16.657,5,16.326,5,16c0-0.326,0.015-0.658,0.044-1H2.563l1.125-3h1.955C7.364,6.664,12.338,3,18,3  c3.02,0,5.962,1.06,8.286,2.984l0.551,0.456l-1.146,3.027l-1.085-0.958C22.775,6.891,20.429,6,18,6c-3.992,0-7.586,2.41-9.157,6  h15.893l-1.134,3H8.054C8.018,15.339,8,15.67,8,16c0,0.329,0.018,0.661,0.054,1h14.793l-1.134,3H8.843c1.571,3.591,5.165,6,9.157,6  c2.319,0,4.579-0.812,6.363-2.286L26,22.362v3.882l-0.415,0.3C23.354,28.15,20.732,29,18,29z"/>
<path style="fill:#4D5152;" d="M7.425,13h15.864l-0.378,1H7.19C7.071,14.649,7,15.316,7,16c0,0.684,0.071,1.351,0.19,2H21.4  l-0.378,1H7.425c1.307,4.615,5.542,8,10.575,8c2.659,0,5.098-0.943,7-2.515v1.247C23.028,27.153,20.615,28,18,28  c-5.589,0-10.272-3.827-11.606-9H4.005l0.375-1H6.18C6.07,17.349,6,16.683,6,16c0-0.683,0.07-1.348,0.18-2H4.005l0.375-1h2.013  C7.728,7.828,12.411,4,18,4c2.907,0,5.571,1.035,7.648,2.754l-0.38,1.004C23.33,6.047,20.79,5,18,5C12.966,5,8.732,8.385,7.425,13z"/>
</svg>
