<?xml version="1.0"?>
<svg xmlns="http://www.w3.org/2000/svg" xmlns:xlink="http://www.w3.org/1999/xlink" version="1.1" id="266247375_Outlined_2__grid" x="0px" y="0px" width="32px" height="32px" viewBox="0 0 32 32" style="enable-background:new 0 0 32 32;" xml:space="preserve">
<path id="266247375_shock_x5F_color_grid" class="stshockcolor" style="fill:#FFD878;" d="M20.582,29.028c-0.292,0-0.591-0.015-0.888-0.03  c-0.246-0.014-0.476-0.026-0.694-0.026h-1v-3h1c0.273,0,0.562,0.014,0.853,0.029c0.238,0.013,0.479,0.025,0.709,0.025  c0.209,0,0.349-0.012,0.438-0.024c0-0.01,0-9.03,0-9.03H10v12H7v-26h17v23c0,1.164-0.47,1.854-0.863,2.229  C22.363,28.935,21.365,29.028,20.582,29.028z M17,13.995l4-0.019v-8l-4,0.019V13.995z M14,13.995v-8l-4-0.019v8L14,13.995z"/>
<path style="fill:#4D5152;" d="M8,3.972v24h1v-12h13v10c0,0.37-0.078,0.624-0.24,0.777c-0.353,0.334-1.207,0.289-1.961,0.251  c-0.272-0.015-0.543-0.028-0.799-0.028v1c0.239,0,0.491,0.014,0.747,0.027c0.279,0.015,0.561,0.029,0.835,0.029  c0.715,0,1.387-0.099,1.866-0.554C22.814,27.127,23,26.621,23,25.972v-22H8z M15,15l-6-0.028v-10L15,5V15z M22,14.972L16,15V5  l6-0.028V14.972z"/>
</svg>
