<?xml version="1.0"?>
<svg xmlns="http://www.w3.org/2000/svg" xmlns:xlink="http://www.w3.org/1999/xlink" version="1.1" id="266247361_Outlined_2__grid" x="0px" y="0px" width="32px" height="32px" viewBox="0 0 32 32" style="enable-background:new 0 0 32 32;" xml:space="preserve">
<path id="266247361_shock_x5F_color_grid" class="stshockcolor" style="fill:#FFE4A9;" d="M15,28v-4.133C11.324,23.226,9,20.23,9,16c0-4.231,2.324-7.226,6-7.867V4h3  v4.134c1.819,0.322,3.367,1.239,4.425,2.636l0.525,0.695l-2.188,2.187l-0.687-0.957C19.292,11.602,18.022,11,16.5,11  c-2.776,0-4.5,1.916-4.5,5s1.724,5,4.5,5c1.521,0,2.792-0.602,3.576-1.694l0.687-0.957l2.188,2.188l-0.525,0.694  c-1.058,1.397-2.606,2.313-4.425,2.636V28H15z"/>
<path style="fill:#4D5152;" d="M20.889,19.889l0.738,0.738c-1.094,1.445-2.749,2.234-4.627,2.353V27h-1v-4.021  c-3.355-0.212-6-2.558-6-6.979c0-4.421,2.645-6.768,6-6.979V5h1v4.021c1.878,0.118,3.533,0.907,4.627,2.353l-0.738,0.738  C19.885,10.712,18.295,10,16.5,10c-3.038,0-5.5,2.023-5.5,6s2.462,6,5.5,6C18.295,22,19.885,21.287,20.889,19.889z"/>
</svg>
