<?xml version="1.0"?>
<svg xmlns="http://www.w3.org/2000/svg" xmlns:xlink="http://www.w3.org/1999/xlink" version="1.1" id="266247374_Outlined_2__grid" x="0px" y="0px" width="32px" height="32px" viewBox="0 0 32 32" style="enable-background:new 0 0 32 32;" xml:space="preserve">
<polygon id="266247374_shock_x5F_color_grid" class="stshockcolor" style="fill:#F27C7C;" points="14,29 14,23 9,23 9,20 14,20 14,19 9,19 9,16 14,16 14,15.396 7.286,3   10.697,3 15.5,11.866 20.303,3 23.714,3 17,15.396 17,16 22,16 22,19 17,19 17,20 22,20 22,23 17,23 17,29 "/>
<path style="fill:#4D5152;" d="M16,17h5v1h-5v3h5v1h-5v6h-1v-6h-5v-1h5v-3h-5v-1h5v-1.858L8.965,4h1.137l5.398,9.966L20.898,4h1.137  L16,15.142V17z"/>
</svg>
