<?xml version="1.0"?>
<svg xmlns="http://www.w3.org/2000/svg" xmlns:xlink="http://www.w3.org/1999/xlink" version="1.1" id="266247373_Outlined_2__grid" x="0px" y="0px" width="32px" height="32px" viewBox="0 0 32 32" style="enable-background:new 0 0 32 32;" xml:space="preserve">
<path id="266247373_shock_x5F_color_grid" class="stshockcolor" style="fill:#F27C7C;" d="M7.342,22.584l3.52-3.521C10.295,18.134,10,17.089,10,16  c0-1.076,0.29-2.11,0.844-3.034L7.313,9.435l2.121-2.121l3.531,3.531C13.89,10.29,14.924,10,16,10c1.089,0,2.134,0.295,3.063,0.862  l3.525-3.525l2.121,2.121l-3.537,3.537C21.717,13.913,22,14.937,22,16c0,1.076-0.29,2.109-0.845,3.034l3.526,3.526l-2.121,2.121  l-3.526-3.526C18.109,21.71,17.076,22,16,22c-1.064,0-2.088-0.284-3.005-0.827l-3.532,3.532L7.342,22.584z M16,13  c-1.654,0-3,1.346-3,3s1.346,3,3,3s3-1.346,3-3S17.654,13,16,13z"/>
<path style="fill:#4D5152;" d="M21,16c0-1.188-0.432-2.265-1.123-3.123l3.419-3.419l-0.707-0.707l-3.415,3.415  C18.309,11.449,17.212,11,16,11c-1.2,0-2.287,0.44-3.148,1.145L9.434,8.728L8.727,9.435l3.417,3.417C11.44,13.714,11,14.8,11,16  c0,1.212,0.449,2.309,1.166,3.174l-3.41,3.41l0.707,0.707l3.415-3.415C13.735,20.568,14.812,21,16,21c1.2,0,2.286-0.44,3.148-1.145  l3.412,3.412l0.707-0.707l-3.412-3.412C20.56,18.286,21,17.2,21,16z M16,20c-2.209,0-4-1.791-4-4s1.791-4,4-4s4,1.791,4,4  S18.209,20,16,20z"/>
</svg>
