<?xml version="1.0"?>
<svg xmlns="http://www.w3.org/2000/svg" xmlns:xlink="http://www.w3.org/1999/xlink" version="1.1" id="266247360_Outlined_2__grid" x="0px" y="0px" width="32px" height="32px" viewBox="0 0 32 32" style="enable-background:new 0 0 32 32;" xml:space="preserve">
<path id="266247360_shock_x5F_color_grid" class="stshockcolor" style="fill:#F27C7C;" d="M13,30v-3.179c-1.255-0.146-2.157-0.333-2.204-0.342L10,26.313V5.687  l0.796-0.166c0.046-0.01,0.949-0.195,2.204-0.343V2h3v3.002V2h3v3.433c2.588,0.777,4,2.653,4,5.352c0,1.339-0.585,2.604-1.615,3.581  C22.621,15.318,24,17.025,24,19.907c0,3.706-1.681,5.978-5,6.764V30H13z M13,23.805C13.73,23.897,14.754,24,15.75,24  c3.171,0,5.25-0.285,5.25-4.093c0-2.989-2.733-3.886-3.123-3.907H13V23.805z M17.739,13C18.061,12.993,20,12.325,20,10.785  C20,9.408,19.495,8,15.75,8C14.785,8,13.809,8.085,13,8.183V13H17.739z"/>
<path style="fill:#4D5152;" d="M19.589,14.441C20.81,13.772,22,12.519,22,10.785c0-2.492-1.34-4.045-4-4.57V3h-1v3.064  C16.617,6.029,16.227,6,15.8,6c-0.268,0-0.535,0.008-0.8,0.019V3h-1v3.082C12.331,6.224,11,6.5,11,6.5v19c0,0,1.331,0.276,3,0.418  V29h1v-3.02c0.265,0.012,0.532,0.02,0.8,0.02c0.421,0,0.816-0.019,1.2-0.046V29h1v-3.154c3.329-0.503,5-2.308,5-5.938  C23,16.834,21.164,15.163,19.589,14.441z M12,7.311C12.906,7.174,14.339,7,15.75,7C18.434,7,21,7.663,21,10.785  C21,12.97,18.522,14,17.739,14C17.326,14,12,14,12,14V7.311z M15.75,25c-1.417,0-2.846-0.189-3.75-0.325V15h5.886  C18.668,15,22,16.281,22,19.907C22,24.988,18.434,25,15.75,25z"/>
</svg>
