<?xml version="1.0"?>
<svg xmlns="http://www.w3.org/2000/svg" xmlns:xlink="http://www.w3.org/1999/xlink" version="1.1" id="266247369_Outlined_2__grid" x="0px" y="0px" width="32px" height="32px" viewBox="0 0 32 32" style="enable-background:new 0 0 32 32;" xml:space="preserve">
<path id="266247369_shock_x5F_color_grid" class="stshockcolor" style="fill:#E88C77;" d="M8.424,29l0.655-1.973c0.04-0.122,0.978-3.099,1.529-9.027H8v-3h2.831  c0.115-1.961,0.172-3.933,0.172-6c0-3.354,2.692-6.083,6-6.083c3.297,0,6.083,2.786,6.083,6.083v1h-3.083V9c0-1.654-1.346-3-3-3  s-3,1.346-3,3c0,2.057-0.054,4.07-0.161,6H18v3h-4.375c-0.333,3.744-0.823,6.411-1.18,8h11.558v3H8.424z"/>
<path style="fill:#4D5152;" d="M23.003,27v1H9.81l0.218-0.657c0.015-0.046,1.12-3.459,1.67-10.343H9v-1h2.769  c0.141-2.056,0.234-4.376,0.234-7c0-2.757,2.243-5.083,5-5.083c2.757,0,5.083,2.326,5.083,5.083h-1.083c0-2.205-1.795-4-4-4  c-2.206,0-4,1.795-4,4c0,2.619-0.087,4.947-0.224,7H17v1h-4.294c-0.42,5.393-1.178,8.684-1.535,10H23.003z"/>
</svg>
