<?xml version="1.0"?>
<svg xmlns="http://www.w3.org/2000/svg" xmlns:xlink="http://www.w3.org/1999/xlink" version="1.1" id="266247363_Outlined_2__grid" x="0px" y="0px" width="32px" height="32px" viewBox="0 0 32 32" style="enable-background:new 0 0 32 32;" xml:space="preserve">
<path id="266247363_shock_x5F_color_grid" class="stshockcolor" style="fill:#C9A287;" d="M10.5,26.004c-4.5,0-4.5-4.516-4.5-6v-1h3v1c0,3,0.797,3,1.5,3h11.491  c-0.145-11.499-1.97-13.661-4.332-15.257l-0.828-0.561l1.682-2.484l0.828,0.56C23.625,8.158,25,12.834,25,24.504v1.5H10.5z"/>
<path style="fill:#4D5152;" d="M24,24.504v0.5H10.5c-2.405,0-3.5-1.504-3.5-5h1c0,2.996,0.782,4,2.5,4h12.499  C22.95,11.556,21.069,8.845,18.22,6.918L18.78,6.09C22.39,8.53,24,12.196,24,24.504z"/>
</svg>
