<?xml version="1.0"?>
<svg xmlns="http://www.w3.org/2000/svg" xmlns:xlink="http://www.w3.org/1999/xlink" version="1.1" id="266247371_Outlined_2__grid" x="0px" y="0px" width="32px" height="32px" viewBox="0 0 32 32" style="enable-background:new 0 0 32 32;" xml:space="preserve">
<path id="266247371_shock_x5F_color_grid" class="stshockcolor" style="fill:#F27C7C;" d="M10,29v-5H9v-3h1V3.687l0.796-0.166C10.898,3.5,13.325,3,15.8,3  c5.364,0,8.2,2.939,8.2,8.5S21.164,20,15.8,20c-0.984,0-1.965-0.08-2.8-0.179V21h11v3H13v5H10z M13,16.817  C13.81,16.915,14.787,17,15.75,17c2.727,0,5.25-0.666,5.25-5.5C21,6.667,18.477,6,15.75,6C14.785,6,13.809,6.085,13,6.183V16.817z"/>
<path style="fill:#4D5152;" d="M12,18.675C12.921,18.819,14.355,19,15.8,19c4.8,0,7.2-2.5,7.2-7.5S20.6,4,15.8,4  C13.4,4,11,4.5,11,4.5V22h-1v1h1v5h1v-5h11v-1H12V18.675z M12,5.311C12.906,5.174,14.339,5,15.75,5C18.434,5,22,5.674,22,11.5  S18.434,18,15.75,18c-1.417,0-2.846-0.174-3.75-0.31V5.311z"/>
</svg>
