<?xml version="1.0"?>
<svg xmlns="http://www.w3.org/2000/svg" xmlns:xlink="http://www.w3.org/1999/xlink" version="1.1" id="266247370_Outlined_2__grid" x="0px" y="0px" width="32px" height="32px" viewBox="0 0 32 32" style="enable-background:new 0 0 32 32;" xml:space="preserve">
<path id="266247370_shock_x5F_color_grid" class="stshockcolor" style="fill:#FFD878;" d="M19.166,29c-1.821,0-3.396-0.91-4.321-2.496L13.968,25h3.541l0.332,0.456  l0.032,0.056c0.012,0.02,0.29,0.488,1.293,0.488C20.083,26,23,22.727,23,20.5V12c0,1.869-1.185,7-5,7h4v3h-6v-3h2c-3,0-3-2.517-3-6  V3h3v10c0,1.115,0,2.476,0.162,2.979C19.006,15.763,20,13.935,20,12v-1h3v1h3v8.5C26,23.227,22.767,29,19.166,29z M8.5,29  C5.505,29,5,27.458,5,24c0-2.602,0.933-5.908,1.039-6.276l0.208-0.723L9.319,17l-0.356,1.271C8.695,19.227,8,22.119,8,24  c0,0.821,0,1.669,0.082,1.975C8.151,25.986,8.278,26,8.5,26c1.33,0,3.5-3.352,3.5-6V3h3v17C15,23.055,12.706,29,8.5,29z"/>
<path style="fill:#4D5152;" d="M25,13v7.5c0,2.5-3,7.5-5.834,7.5C17,28,16,26.5,15.708,26H17c0.016,0.021,0.5,1,2.166,1  C20.872,27,24,23,24,20.5V13H25z M20,21h1v-1h-1V21z M18,18c3,0,4-4.504,4-6h-1c0,2.401-1.341,5-3,5c-1,0-1-1.599-1-4V4h-1v9  C16,16.5,16,18,18,18z M18,21v-1h-1v1H18z M13,20c0,2.928-2.334,7-4.5,7C7,27,7,26.5,7,24c0-2.399,0.99-5.966,1-6H7  c-0.042,0.146-1,3.459-1,6c0,3.5,0.5,4,2.5,4c3.5,0,5.5-5.468,5.5-8V4h-1V20z"/>
</svg>
