<?xml version="1.0"?>
<svg xmlns="http://www.w3.org/2000/svg" xmlns:xlink="http://www.w3.org/1999/xlink" version="1.1" id="266247359_Outlined_2__grid" x="0px" y="0px" width="32px" height="32px" viewBox="0 0 32 32" style="enable-background:new 0 0 32 32;" xml:space="preserve">
<path id="266247359_shock_x5F_color_grid" class="stshockcolor" style="fill:#67DDE0;" d="M15,30v-2.018c-2.184-0.087-4.113-0.484-4.204-0.504L10,27.313V4.687  l0.796-0.166C10.887,4.502,12.827,4.103,15,4.017V2h3v2.208c3.233,0.628,5,2.77,5,6.108c0,1.526-0.639,2.961-1.759,4.043  C22.484,15.346,24,17.205,24,20.399c0,4.398-1.965,6.842-6,7.444V30H15z M13,24.805c0.547,0.069,1.259,0.145,2,0.178V16h-2V24.805z   M18,24.864c1.877-0.323,3-1.371,3-4.465c0-3.042-2.329-4.185-3-4.372V24.864z M15,13V7.016c-0.71,0.029-1.401,0.094-2,0.167V13H15z   M18,12.927c0.628-0.24,2-1.076,2-2.611c0-1.603-0.626-2.565-2-3.014V12.927z"/>
<path style="fill:#4D5152;" d="M19.494,14.433C20.746,13.704,22,12.292,22,10.316c0-3.098-1.662-4.904-5-5.245V3h-1v2.012L15.8,5  C13.4,5,11,5.5,11,5.5v21c0,0,2.4,0.5,4.8,0.5l0.2-0.005V29h1v-2.05c3.995-0.307,6-2.24,6-6.551  C23,17.002,21.089,15.188,19.494,14.433z M16,25.999L15.75,26c-1.417,0-2.846-0.189-3.75-0.325V15h4V25.999z M16,14  c-1.695,0-4,0-4,0V6.311C12.906,6.174,14.339,6,15.75,6L16,6.005V14z M17,6.073c2.178,0.263,4,1.321,4,4.243  C21,12.744,18.522,14,17.739,14H17V6.073z M17,25.974V15h0.886C18.668,15,22,16.471,22,20.399C22,25.08,19.422,25.848,17,25.974z"/>
</svg>
