<?xml version="1.0"?>
<svg xmlns="http://www.w3.org/2000/svg" xmlns:xlink="http://www.w3.org/1999/xlink" version="1.1" id="266247364_Outlined_2__grid" x="0px" y="0px" width="32px" height="32px" viewBox="0 0 32 32" style="enable-background:new 0 0 32 32;" xml:space="preserve">
<path id="266247364_shock_x5F_color_grid" class="stshockcolor" style="fill:#A4FFBE;" d="M14,30v-3.151c-2.962-0.517-4.94-2.487-5.84-4.28l-0.448-0.894l2.682-1.345  l0.448,0.894C11.516,22.565,13.094,24,15.504,24c1.984,0,4.375-0.624,4.501-3.597c0.056-1.312-0.484-2.632-4.768-3.406  c-1.54-0.272-6.234-1.104-6.234-5.997c0-1.944,1.081-5.202,4.998-5.867V2h3v3.149c3.075,0.535,4.395,2.589,4.746,3.255l0.467,0.885  l-2.654,1.4l-0.467-0.886C18.869,9.381,17.951,8,15.504,8c-3.046,0-3.501,1.879-3.501,3c0,1.468,0.629,2.489,3.763,3.043  c2.042,0.37,7.455,1.349,7.237,6.487c-0.058,1.368-0.673,5.683-6.002,6.368V30H14z"/>
<path style="fill:#4D5152;" d="M22.003,20.488c-0.094,2.21-1.234,5.288-6.003,5.492V29h-1v-3.038  c-3.031-0.195-5.055-2.065-5.946-3.842l0.894-0.448C10.755,23.28,12.639,25,15.504,25c3.586,0,5.385-1.826,5.5-4.555  c0.101-2.38-1.571-3.706-5.589-4.433c-2.322-0.411-5.412-1.378-5.412-5.013c0-0.727,0.261-4.703,4.998-4.974V3h1v3.038  c3.187,0.2,4.523,2.193,4.861,2.833l-0.885,0.467C19.688,8.789,18.51,7,15.504,7c-4.063,0-4.501,2.947-4.501,4  c0,2.255,1.372,3.459,4.588,4.028C18.661,15.584,22.163,16.705,22.003,20.488z"/>
</svg>
