<?xml version="1.0"?>
<svg xmlns="http://www.w3.org/2000/svg" xmlns:xlink="http://www.w3.org/1999/xlink" version="1.1" id="266148709_Layer_1_grid" x="0px" y="0px" width="32px" height="32px" viewBox="0 0 32 32" style="enable-background:new 0 0 32 32;" xml:space="preserve">
<circle id="266148709_shock_x5F_color_grid" class="stshockcolor" style="fill:#EF6565;" cx="15.5" cy="15.5" r="12"/>
<rect x="7" y="15" style="fill:#FFFFFF;" width="17" height="1"/>
<path style="fill:#4D5152;" d="M15.508,3C8.613,3,3.024,8.597,3.024,15.5c0,6.903,5.589,12.5,12.484,12.5  c6.896,0,12.485-5.597,12.485-12.5C27.993,8.597,22.404,3,15.508,3 M15.507,26.994c-6.348,0-11.495-5.146-11.495-11.494  c0-6.349,5.147-11.495,11.495-11.495c6.348,0,11.495,5.146,11.495,11.495C27.002,21.848,21.855,26.994,15.507,26.994"/>
</svg>
