<?xml version="1.0"?>
<svg xmlns="http://www.w3.org/2000/svg" xmlns:xlink="http://www.w3.org/1999/xlink" version="1.1" id="266247378_Outlined_2__grid" x="0px" y="0px" width="32px" height="32px" viewBox="0 0 32 32" style="enable-background:new 0 0 32 32;" xml:space="preserve">
<path id="266247378_shock_x5F_color_grid" class="stshockcolor" style="fill:#75EA9C;" d="M21.5,4.5h-14c-0.55,0-1,0.45-1,1V28h16V5.5C22.5,4.95,22.05,4.5,21.5,4.5z"/>
<path style="opacity:0.4;fill:#FFFFFF;" d="M6.5,7.5H7c1.379,0,2.5-1.122,2.5-2.5V4.5H7C6.725,4.5,6.5,4.724,6.5,5V7.5z M19.5,5  c0,1.378,1.122,2.5,2.5,2.5h0.5V5c0-0.276-0.224-0.5-0.5-0.5h-2.5V5z M14.5,23.409c3.309,0,6-2.202,6-4.909s-2.691-4.909-6-4.909  c-3.308,0-6,2.202-6,4.909S11.192,23.409,14.5,23.409z"/>
<path style="fill:#4D5152;" d="M31.157,17.5L27.5,21.157L23.843,17.5l0.707-0.707L27,19.242V9h1v10.242l2.45-2.449L31.157,17.5z   M21,18.5c0,3.037-2.91,5.5-6.5,5.5S8,21.537,8,18.5s2.91-5.5,6.5-5.5S21,15.463,21,18.5z M20,18.5c0-2.485-2.463-4.5-5.5-4.5  C11.462,14,9,16.015,9,18.5s2.462,4.5,5.5,4.5C17.537,23,20,20.985,20,18.5z M26,27.5c0,0.276-0.224,0.5-0.5,0.5h-22  C3.224,28,3,27.776,3,27.5S3.224,27,3.5,27H6V5c0-0.553,0.448-1,1-1h15c0.553,0,1,0.447,1,1v22h2.5C25.776,27,26,27.224,26,27.5z   M7,7c1.104,0,2-0.896,2-2H7V7z M22,8c-1.657,0-3-1.343-3-3h-9c0,1.657-1.343,3-3,3v19h15V8z M22,5h-2c0,1.104,0.896,2,2,2V5z"/>
</svg>
