<?xml version="1.0"?>
<svg xmlns="http://www.w3.org/2000/svg" xmlns:xlink="http://www.w3.org/1999/xlink" version="1.1" id="266247379_Outlined_2__grid" x="0px" y="0px" width="32px" height="32px" viewBox="0 0 32 32" style="enable-background:new 0 0 32 32;" xml:space="preserve">
<rect id="266247379_shock_x5F_color_grid" class="stshockcolor" x="4.5" y="8.5" style="fill:#BFBFBF;" width="19" height="19"/>
<polygon style="opacity:0.3;fill:#4D5152;" points="23.5,27.5 23.5,26 6,26 6,8.5 4.5,8.5 4.5,25.5 4.5,26.5 4.5,27.5 "/>
<polygon style="opacity:0.3;fill:#FFFFFF;" points="4.5,8.5 4.5,10 22,10 22,27.5 23.5,27.5 23.5,10.5 23.5,9.5 23.5,8.5 "/>
<path style="fill:#4D5152;" d="M30,27.5c0,0.276-0.224,0.5-0.5,0.5h-4c-0.276,0-0.5-0.224-0.5-0.5s0.224-0.5,0.5-0.5H27V9h-1.5  C25.224,9,25,8.776,25,8.5S25.224,8,25.5,8h4C29.776,8,30,8.224,30,8.5S29.776,9,29.5,9H28v18h1.5C29.776,27,30,27.224,30,27.5z   M24,9v18c0,0.553-0.447,1-1,1H5c-0.552,0-1-0.447-1-1V9c0-0.553,0.448-1,1-1h18C23.553,8,24,8.447,24,9z M23,9H5v18h18V9z M23.5,2  C23.224,2,23,2.224,23,2.5V4H5V2.5C5,2.224,4.776,2,4.5,2S4,2.224,4,2.5v4C4,6.776,4.224,7,4.5,7S5,6.776,5,6.5V5h18v1.5  C23,6.776,23.224,7,23.5,7S24,6.776,24,6.5v-4C24,2.224,23.776,2,23.5,2z"/>
</svg>
