<?xml version="1.0"?>
<svg xmlns="http://www.w3.org/2000/svg" xmlns:xlink="http://www.w3.org/1999/xlink" version="1.1" id="266148711_Outlined_2__grid" x="0px" y="0px" width="32px" height="32px" viewBox="0 0 32 32" style="enable-background:new 0 0 32 32;" xml:space="preserve">
<path id="266148711_shock_x5F_color_grid" class="stshockcolor" style="fill:#AAAAAA;" d="M5,27.5c-0.276,0-0.5-0.225-0.5-0.5V5c0-0.276,0.224-0.5,0.5-0.5h19.5  c0.132,0,0.262,0.054,0.366,0.153l2.49,2.49C27.445,7.238,27.5,7.368,27.5,7.5V27c0,0.275-0.225,0.5-0.5,0.5H5z"/>
<rect x="8.5" y="16.5" style="fill:#FFFFFF;" width="15" height="11"/>
<rect x="11.5" y="4.5" style="opacity:0.4;fill:#FFFFFF;" width="10" height="8"/>
<path style="fill:#4D5152;" d="M27.71,6.79l-2.5-2.5C25.02,4.11,24.77,4,24.5,4H5C4.45,4,4,4.45,4,5v22c0,0.55,0.45,1,1,1h22  c0.55,0,1-0.45,1-1V7.5C28,7.23,27.89,6.98,27.71,6.79z M12,5h9v7h-9V5z M23,27H9V17h14V27z M27,27h-3V17c0-0.55-0.45-1-1-1H9  c-0.55,0-1,0.45-1,1v10H5V5h6v7c0,0.55,0.45,1,1,1h9c0.55,0,1-0.45,1-1V5h2.5L27,7.5V27z M17,6h2v5h-2V6z"/>
</svg>
