<?xml version="1.0"?>
<svg xmlns="http://www.w3.org/2000/svg" xmlns:xlink="http://www.w3.org/1999/xlink" version="1.1" id="266247381_icon_grid" x="0px" y="0px" width="32px" height="32px" viewBox="0 0 32 32" style="enable-background:new 0 0 32 32;" xml:space="preserve">
<path style="fill:#C9A287;" d="M25.5,4.5h-19c-0.561,0-1,0.439-1,1v24c0,0.561,0.439,1,1,1h19c0.561,0,1-0.439,1-1v-24  C26.5,4.939,26.061,4.5,25.5,4.5z"/>
<rect id="266247381_shock_x5F_color_grid" class="stshockcolor" x="8.5" y="10.5" style="fill:#FFE4A9;" width="15" height="16"/>
<path style="fill:#BFBFBF;" d="M22.838,7.476L19.5,6.36V5c0-1.93-1.57-3.5-3.5-3.5S12.5,3.07,12.5,5v1.36L9.162,7.476  C7.966,7.874,7.5,8.582,7.5,10v0.5h17V10C24.5,8.582,24.034,7.874,22.838,7.476z"/>
<g>
	<polygon style="opacity:0.3;fill:#4D5152;" points="16.01,18 11,18 11,20 16.01,20 16,23 21,19 16,15  "/>
	<path style="opacity:0.3;fill:#4D5152;" d="M7.623,9C7.546,9.289,7.5,9.612,7.5,10v0.5h17V10c0-0.388-0.046-0.711-0.123-1H7.623z"/>
</g>
<g>
	<circle style="fill:#4D5152;" cx="16" cy="5" r="1"/>
	<path style="fill:#4D5152;" d="M23,11H9v9v6h14v-7V11z M19.86,4h5.64C26.33,4,27,4.67,27,5.5v24c0,0.83-0.67,1.5-1.5,1.5h-19   C5.67,31,5,30.33,5,29.5v-24C5,4.67,5.67,4,6.5,4h5.64c0.45-1.72,2-3,3.86-3C17.86,1,19.41,2.28,19.86,4z M22.68,7.95L19,6.72V5   c0-1.65-1.35-3-3-3c-1.65,0-3,1.35-3,3v1.72L9.32,7.95C8.33,8.28,8,8.79,8,10h16C24,8.79,23.67,8.28,22.68,7.95z M20,6   c0,0,1.5,0.5,3,1s2,1.5,2,3c0,0.5,0,1,0,1h-1v16L8,26.98V11H7c0,0,0-0.5,0-1c0-1.5,0.5-2.5,2-3s3-1,3-1s0-0.5,0-1H6.5   C6.22,5,6,5.22,6,5.5v24C6,29.78,6.22,30,6.5,30h19c0.28,0,0.5-0.22,0.5-0.5v-24C26,5.22,25.78,5,25.5,5H20C20,5.5,20,6,20,6z"/>
</g>
</svg>
