<?xml version="1.0"?>
<svg xmlns="http://www.w3.org/2000/svg" xmlns:xlink="http://www.w3.org/1999/xlink" version="1.1" x="0px" y="0px" viewBox="0 0 32 32" style="enable-background:new 0 0 32 32;" xml:space="preserve">
<path class="stshockcolor" style="fill:#E57C5C;" d="M23.5,27.5c-1.5,0-2.7-1.1-3-2.6l-0.1-0.4h-8  l-0.1,0.4c-0.2,1.5-1.5,2.6-3,2.6s-2.7-1.1-3-2.6l-0.1-0.4h-2c-3,0-3-2.5-3-2.5v-0.5h18v-13l0.5,0c1.3,0.1,2,0.6,2.9,1.8l0.1,0.2  l0.3,0c3.5,0,5.6,0.4,6.1,1.2c0.8,1.2,1.2,4.1,1.2,5.8v6c0,0.5-0.5,1-1,1h-3l-0.1,0.4C26.2,26.4,25,27.5,23.5,27.5z"/>
<path style="fill:#AAAAAA;" d="M23.5,27.5c-1.7,0-3-1.3-3-3s1.3-3,3-3s3,1.3,3,3S25.2,27.5,23.5,27.5 M9.5,27.5c-1.7,0-3-1.3-3-3  s1.3-3,3-3s3,1.3,3,3S11.2,27.5,9.5,27.5"/>
<rect x="1.5" y="8.5" style="fill:#FFD878;" width="18" height="13"/>
<path style="fill:#FFFFFF;" d="M27.8,13c0.7,0.8,0.7,3.6,0.7,4.5h-5v-5h0.8C26.4,12.5,27.5,12.6,27.8,13"/>
<path style="fill:#4D5152;" d="M29.7,11.4C29,10.3,26,10,23.3,10c-1-1.5-2-2-3.8-2h-18C1.2,8,1,8.2,1,8.5V21c0,3,1.5,4,3.5,4h1.6  c0.2,1.7,1.7,3,3.4,3s3.2-1.3,3.4-3H20c0.2,1.7,1.7,3,3.5,3s3.2-1.3,3.5-3h2.5c0.8,0,1.5-0.7,1.5-1.5v-6  C31,15.9,30.6,12.8,29.7,11.4z M2,15h11.3l-2.7,2.6l0.7,0.7l3.8-3.9l-3.9-3.9l-0.7,0.7l2.6,2.6H2V9h17v12H2V15z M4.5,24  C3,24,2,23,2,22h5.1c-0.5,0.5-0.9,1.2-1,2H4.5z M9.5,27C8.1,27,7,25.9,7,24.5S8.1,22,9.5,22s2.5,1.1,2.5,2.5S10.9,27,9.5,27z   M23.5,27c-1.4,0-2.5-1.1-2.5-2.5s1.1-2.5,2.5-2.5s2.5,1.1,2.5,2.5S24.9,27,23.5,27z M30,23.5c0,0.2-0.3,0.5-0.5,0.5H27  c-0.2-1.7-1.7-3-3.5-3s-3.2,1.3-3.5,3h-7.1c-0.1-0.8-0.5-1.5-1-2H20V9c1.1,0.1,1.8,0.5,2.6,1.8c0.1,0.1,0.3,0.2,0.4,0.2  c2.5,0,5.3,0.1,5.9,1c0.8,1.2,1.1,4.2,1.1,5.5V23.5z M28.1,12.6C27.7,12.2,26.5,12,24,12h-1v6h6C29,17,29,13.6,28.1,12.6z M24,17v-4  h1c0.7,0,1.8,0,2.2,0.3c0.6,0.5,0.7,2.4,0.7,3.7H24z"/>
</svg>
