<?xml version="1.0"?>
<svg xmlns="http://www.w3.org/2000/svg" xmlns:xlink="http://www.w3.org/1999/xlink" version="1.1" id="266148712_Layer_1_grid" x="0px" y="0px" width="32px" height="32px" viewBox="0 0 32 32" style="enable-background:new 0 0 32 32;" xml:space="preserve">
<path id="266148712_shock_x5F_color_grid" class="stshockcolor" style="fill:#67DDE0;" d="M25.5,9.5v19c0,0.56-0.44,1-1,1h-17c-0.56,0-1-0.44-1-1v-25c0-0.55,0.45-1,1-1  h11L25.5,9.5z"/>
<path style="opacity:0.4;fill:#FFFFFF;" d="M7.5,29.5c-0.561,0-1-0.439-1-1v-25c0-0.551,0.449-1,1-1h11v6c0,0,0,1,1,1h6v19  c0,0.561-0.439,1-1,1H7.5z"/>
<path style="fill:#4D5152;" d="M10,12v1h12v-1H10z M10,16v1h12v-1H10z M10,20v1h12v-1H10z M10,24v1h12v-1H10z M10,25h12v-1H10V25z   M10,21h12v-1H10V21z M10,17h12v-1H10V17z M10,12v1h12v-1H10z M18.71,2H7.5C6.67,2,6,2.67,6,3.5v25C6,29.33,6.67,30,7.5,30h17  c0.83,0,1.5-0.67,1.5-1.5V9.29L18.71,2z M19,3.71L24.29,9H19.5c-0.4,0-0.49-0.27-0.5-0.5V3.71z M25,28.5c0,0.28-0.22,0.5-0.5,0.5  h-17C7.22,29,7,28.78,7,28.5v-25C7,3.22,7.22,3,7.5,3H18v5h-8v1h8.08c0.17,0.5,0.6,1,1.42,1H25V28.5z M10,25h12v-1H10V25z M10,21h12  v-1H10V21z M10,17h12v-1H10V17z M10,13h12v-1H10V13z M10,12v1h12v-1H10z M10,16v1h12v-1H10z M10,20v1h12v-1H10z M10,24v1h12v-1H10z   M10,12v1h12v-1H10z M10,16v1h12v-1H10z M10,20v1h12v-1H10z M10,24v1h12v-1H10z"/>
</svg>
