<?xml version="1.0"?>
<svg xmlns="http://www.w3.org/2000/svg" xmlns:xlink="http://www.w3.org/1999/xlink" version="1.1" id="266148716_Outlined_2__grid" x="0px" y="0px" width="32px" height="32px" viewBox="0 0 32 32" style="enable-background:new 0 0 32 32;" xml:space="preserve">
<path id="266148716_shock_x5F_color_grid" class="stshockcolor" style="fill:#67DDE0;" d="M15.5,27.5c-6.617,0-12-5.383-12-12c0-6.617,5.383-12,12-12  c6.617,0,12,5.383,12,12C27.5,22.117,22.117,27.5,15.5,27.5z"/>
<path style="fill:#4D5152;" d="M15.5,3C8.597,3,3,8.597,3,15.5S8.597,28,15.5,28S28,22.403,28,15.5S22.403,3,15.5,3z M15.5,27  C9.159,27,4,21.841,4,15.5C4,9.328,8.892,4.29,15,4.025V22.11l-6.78-6.8L7.51,16.02L15.48,24l8.03-7.91l-0.7-0.82L16,22.07V4.025  C22.108,4.29,27,9.328,27,15.5C27,21.841,21.841,27,15.5,27z"/>
</svg>
