<?xml version="1.0"?>
<svg xmlns="http://www.w3.org/2000/svg" xmlns:xlink="http://www.w3.org/1999/xlink" version="1.1" x="0px" y="0px" width="32" height="32" viewBox="0 0 32 32" style="enable-background:new 0 0 32 32;" xml:space="preserve" preserveAspectRatio="none" viewbox="0 0 32 32">
<path id="266148717_266148742_shock_x5F_color_focus_grid" class="stshockcolor" style="fill:#FFD878;" d="M24,3.5H7.989C7.071,3.52,6.5,4.095,6.5,5v22.011C6.52,27.93,7.095,28.5,8,28.5h16.011  C24.93,28.479,25.5,27.905,25.5,27V4.989C25.479,4.071,24.905,3.5,24,3.5z"/>
<path style="opacity:0.7;fill:#FFFFFF;" d="M24,3.5H7.989C7.071,3.52,6.5,4.095,6.5,5v22.011C6.52,27.93,7.095,28.5,8,28.5h16.011  C24.93,28.479,25.5,27.905,25.5,27V4.989C25.479,4.071,24.905,3.5,24,3.5z"/>
<polygon style="fill:#E57C5C;" points="22.61,9.783 14.833,17.559 18.359,21.097 26.147,13.32 "/>
<path style="fill:#BA4A4A;" d="M26.493,9.426c-1.741-1.742-2.781-0.755-2.827-0.71L22.603,9.78l3.537,3.537l1.063-1.063  c0.06-0.06,0.322-0.352,0.324-0.875C27.529,10.771,27.182,10.115,26.493,9.426z"/>
<polygon style="fill:#FFE4A9;" points="14.612,17.345 12.619,23.299 18.587,21.319 "/>
<path style="fill:#4D5152;" d="M26.85,9.07c-0.3-0.3-0.58-0.53-0.85-0.69V5c0,0,0-2-2-2H8c0,0-2,0-2,2v22c0,0,0,2,2,2h16  c0,0,2,0,2-2V14.16l1.56-1.55C27.61,12.55,28.95,11.17,26.85,9.07z M25,27c0,0.81-0.55,0.99-1,1H8c-0.81,0-0.99-0.55-1-1V5  c0-0.81,0.55-0.99,1-1h16c0.81,0,0.99,0.55,1,1v2.94c-1.03-0.21-1.65,0.39-1.69,0.43L21.9,9.78l-7.78,7.78L12,23.92l6.36-2.12  L25,15.16V27z M14.83,18.27l2.83,2.83l-4.25,1.41L14.83,18.27z M18.36,20.39l-2.82-2.83l7.07-7.069l2.83,2.83L18.36,20.39z   M26.85,11.9l-0.71,0.71l-2.83-2.83l0.71-0.71c0,0,0.711-0.7,2.12,0.71C27.56,11.2,26.85,11.9,26.85,11.9z"/>
</svg>
