<?xml version="1.0" encoding="utf-8"?>
<!-- Generator: Adobe Illustrator 16.0.0, SVG Export Plug-In . SVG Version: 6.00 Build 0)  -->
<svg xmlns="http://www.w3.org/2000/svg" xmlns:xlink="http://www.w3.org/1999/xlink" version="1.1" id="266789662_Outlined_2__grid" x="0px" y="0px" width="32px" height="32px" viewBox="0 0 32 32" style="enable-background:new 0 0 32 32;" xml:space="preserve">

<path id="266789662_shock_x5F_color_grid" class="stshockcolor" d="M7,27.5c-1.378,0-2.5-1.121-2.5-2.5V7c0-1.378,1.122-2.5,2.5-2.5h18  c1.379,0,2.5,1.122,2.5,2.5v18c0,1.379-1.121,2.5-2.5,2.5H7z" style="fill:#67DDE0;;"/>
<polygon class="st1" points="9.823,16.5 16,10.726 22.178,16.5 " style="fill:#FFFFFF;;"/>
<path class="st0" d="M16,10l-7.5,7h15L16,10z M16,11.41L20.91,16h-9.82L16,11.41z M16,10l-7.5,7h15L16,10z M16,11.41L20.91,16h-9.82  L16,11.41z M25,4H7C5.34,4,4,5.34,4,7v18c0,1.66,1.34,3,3,3h18c1.66,0,3-1.34,3-3V7C28,5.34,26.66,4,25,4z M27,25c0,1.1-0.9,2-2,2H7  c-1.1,0-2-0.9-2-2V7c0-1.1,0.9-2,2-2h18c1.1,0,2,0.9,2,2V25z M8.5,17h15L16,10L8.5,17z M11.09,16L16,11.41L20.91,16H11.09z M8.5,19  v1h15v-1H8.5z" style="fill:#4D5152;;"/>
</svg>
