<?xml version="1.0"?>
<svg xmlns="http://www.w3.org/2000/svg" xmlns:xlink="http://www.w3.org/1999/xlink" version="1.1" id="266148718_Outlined_2__grid" x="0px" y="0px" width="32px" height="32px" viewBox="0 0 32 32" style="enable-background:new 0 0 32 32;" xml:space="preserve">
<path id="266148718_shock_x5F_color_grid" class="stshockcolor" style="fill:#BFBFBF;" d="M26,12V6h-6V5.5H7c-0.916,0-1.476,0.561-1.5,1.512V25  c0,0.915,0.561,1.476,1.512,1.5H25c0.915,0,1.476-0.561,1.5-1.499V12H26z"/>
<path style="fill:#4D5152;" d="M28,4v7h-1V5.7L16.35,16.35l-0.7-0.7L26.3,5H21V4H28z M26,24.99C25.99,25.45,25.81,26,25,26H7.01  C6.55,25.99,6,25.81,6,25V7.01C6.01,6.55,6.19,6,7,6h13V5H7C5,5,5,7,5,7v18c0,2,2,2,2,2h18c2,0,2-2,2-2V12h-1V24.99z"/>
</svg>
