<?xml version="1.0"?>
<svg xmlns="http://www.w3.org/2000/svg" xmlns:xlink="http://www.w3.org/1999/xlink" version="1.1" id="266247382_Layer_1_grid" x="0px" y="0px" width="32px" height="32px" viewBox="0 0 32 32" style="enable-background:new 0 0 32 32;" xml:space="preserve">
<polygon style="fill:#AAAAAA;" points="7.5,3.5 4.457,3.5 3.5,13.5 3.5,26.5 8,26.5 8,9.5 "/>
<polygon style="fill:#BFBFBF;" points="29.5,8.5 22.5,13.5 22.5,8.5 15.5,13.5 15.5,8.5 8,13.5 8,26.5 29.5,26.5 "/>
<path id="266247382_shock_x5F_color_grid" class="stshockcolor" style="fill:#E57C5C;" d="M19.5,26.5h-7v-5h7V26.5z M23,8.5l-8,4.972V15.5  c0,0.187,0.104,0.359,0.271,0.444c0.167,0.085,0.367,0.072,0.52-0.037L22,11.472L23,8.5z M30,8.5l-8,4.972V15.5  c0,0.187,0.104,0.359,0.271,0.444c0.166,0.085,0.367,0.072,0.52-0.037L29,11.472L30,8.5z M16,8.5l-8,4.972V15.5  c0,0.187,0.104,0.359,0.271,0.444c0.166,0.085,0.367,0.072,0.52-0.037L15,11.472L16,8.5z"/>
<path style="fill:#4D5152;" d="M29.729,8.056c-0.167-0.086-0.367-0.072-0.52,0.037L23,12.528V8.5c0-0.187-0.104-0.359-0.271-0.444  c-0.167-0.086-0.367-0.072-0.52,0.037L16,12.528V8.5c0-0.187-0.104-0.359-0.271-0.444c-0.167-0.086-0.368-0.072-0.52,0.037  l-6.302,4.502l-0.91-9.148C7.97,3.193,7.756,3,7.5,3h-3C4.241,3,4.025,3.197,4.002,3.455L3,15v11.5C3,26.776,3.224,27,3.5,27h26  c0.276,0,0.5-0.224,0.5-0.5v-18C30,8.313,29.896,8.141,29.729,8.056 M19,26h-6v-4h6V26z M29,26h-9v-4c0-0.553-0.447-1-1-1h-6  c-0.552,0-1,0.447-1,1v4H4L3.998,15.045L4.957,4H7.05l0.953,9.553c0.018,0.176,0.129,0.33,0.292,0.403  c0.162,0.072,0.351,0.054,0.496-0.049L15,9.472V13.5c0,0.187,0.104,0.359,0.271,0.444c0.167,0.086,0.367,0.072,0.52-0.037L22,9.472  V13.5c0,0.187,0.104,0.359,0.271,0.444c0.167,0.086,0.367,0.072,0.52-0.037L29,9.472V26z"/>
</svg>
