<?xml version="1.0" encoding="utf-8"?>
<!-- Generator: Adobe Illustrator 16.0.0, SVG Export Plug-In . SVG Version: 6.00 Build 0)  -->
<svg xmlns="http://www.w3.org/2000/svg" xmlns:xlink="http://www.w3.org/1999/xlink" version="1.1" id="266789666_Outlined_2__grid" x="0px" y="0px" width="32px" height="32px" viewBox="0 0 32 32" style="enable-background:new 0 0 32 32;" xml:space="preserve">

<path id="266789666_shock_x5F_color_grid" class="stshockcolor" d="M7,27.5c-1.378,0-2.5-1.121-2.5-2.5V7c0-1.378,1.122-2.5,2.5-2.5h18  c1.379,0,2.5,1.122,2.5,2.5v18c0,1.379-1.121,2.5-2.5,2.5H7z" style="fill:#67DDE0;;"/>
<path class="st1" d="M17.5,10.646L23.266,16L17.5,21.354V10.646z M10.5,21.354L16.266,16L10.5,10.646V21.354z" style="fill:#FFFFFF;;"/>
<path class="st0" d="M25,4H7C5.343,4,4,5.343,4,7v18c0,1.657,1.343,3,3,3h18c1.657,0,3-1.343,3-3V7C28,5.343,26.657,4,25,4z M27,25  c0,1.104-0.896,2-2,2H7c-1.104,0-2-0.896-2-2V7c0-1.104,0.896-2,2-2h18c1.104,0,2,0.896,2,2V25z M17,9.5v13l7-6.5L17,9.5z M18,11.74  L22.59,16L18,20.26V11.74z M10,9.5v13l7-6.5L10,9.5z M11,11.74L15.59,16L11,20.26V11.74z" style="fill:#4D5152;;"/>
</svg>
