<?xml version="1.0"?>
<svg xmlns="http://www.w3.org/2000/svg" xmlns:xlink="http://www.w3.org/1999/xlink" version="1.1" id="266247386_icon_grid" x="0px" y="0px" width="32px" height="32px" viewBox="0 0 32 32" style="enable-background:new 0 0 32 32;" xml:space="preserve">
<path id="266247386_shock_x5F_color_grid" class="stshockcolor" style="fill:#4D5152;" d="M26,11.44c-0.015-0.66-0.164-2.389-1.215-4.198  c-0.731-1.255-1.74-2.257-2.997-2.974C20.318,3.426,18.54,3,16.497,3c-2.038,0-3.815,0.426-5.284,1.267  C9.012,5.523,7.984,7.414,7.509,8.777C7.067,10.043,7.006,11.078,7,11.5V28h8.494H15.5h9H26V11.44z"/>
<path style="opacity:0.3;fill:#FFFFFF;" d="M23,11.5V13h-1v-1.5v-0.026l-0.004-0.097c-0.005-0.086-0.014-0.214-0.032-0.374  c-0.037-0.319-0.111-0.766-0.259-1.258c-0.297-0.988-0.88-2.138-2.014-2.892C18.934,6.35,17.918,6.001,16.5,6  c-1.329,0.001-2.305,0.308-3.046,0.761c-0.74,0.454-1.254,1.063-1.619,1.705c-0.73,1.281-0.826,2.698-0.833,2.983L11,11.5h-1  c0-0.031,0.001-0.917,0.337-2.042c0.336-1.121,1.019-2.503,2.417-3.437C13.683,5.4,14.917,4.999,16.5,5  c1.582-0.001,2.816,0.4,3.746,1.021c0.931,0.62,1.547,1.446,1.951,2.255C23.003,9.897,22.997,11.458,23,11.5z M21.999,19.551  c-0.007,0.285-0.104,1.702-0.834,2.983c-0.364,0.643-0.879,1.251-1.619,1.705c-0.741,0.453-1.717,0.76-3.046,0.761  c-1.417-0.001-2.433-0.35-3.191-0.854c-1.133-0.754-1.717-1.903-2.013-2.892c-0.148-0.492-0.222-0.938-0.259-1.259  c-0.019-0.159-0.027-0.287-0.032-0.374L11,19.526l0-0.026v-1h-1v1c0.003,0.042-0.003,1.604,0.803,3.224  c0.404,0.809,1.021,1.635,1.951,2.255C13.683,25.6,14.917,26.001,16.5,26c1.582,0.001,2.816-0.4,3.746-1.021  c1.397-0.934,2.08-2.315,2.416-3.437c0.337-1.125,0.337-2.011,0.338-2.042h-1L21.999,19.551z M22.697,15.276  c0.306,0.621,0.3,1.182,0.303,1.224v2h-1v-2l-0.001-0.023l-0.009-0.104c-0.011-0.092-0.032-0.222-0.074-0.362  c-0.086-0.285-0.247-0.591-0.537-0.782C21.184,15.1,20.918,15.001,20.5,15c-0.742,0-1.207,0-1.5,0v3.5  c-0.001,0.031-0.001,0.354-0.127,0.776c-0.125,0.418-0.386,0.956-0.939,1.327C17.566,20.85,17.082,21.001,16.5,21  c-0.583,0.001-1.067-0.15-1.434-0.396c-0.368-0.245-0.61-0.571-0.764-0.88c-0.306-0.62-0.3-1.182-0.303-1.224V17  c-0.293,0-0.758,0-1.5,0c-0.583,0.001-1.067-0.15-1.434-0.396c-0.368-0.245-0.61-0.571-0.764-0.88  c-0.306-0.621-0.3-1.182-0.303-1.224v-2h1v2v0l0.001,0.023l0.009,0.104c0.011,0.091,0.032,0.221,0.075,0.362  c0.085,0.285,0.247,0.591,0.537,0.782C11.817,15.9,12.083,15.999,12.5,16c0.742,0,1.207,0,1.5,0v-3.5  c0-0.031,0.001-0.354,0.126-0.776c0.125-0.418,0.386-0.956,0.94-1.327C15.433,10.15,15.917,9.999,16.5,10  c0.582-0.001,1.066,0.15,1.434,0.396c0.368,0.245,0.609,0.571,0.764,0.88c0.306,0.621,0.3,1.182,0.303,1.224V14  c0.293,0,0.758,0,1.5,0c0.582-0.001,1.066,0.15,1.434,0.396C22.302,14.642,22.543,14.968,22.697,15.276z M18,18.498V12.5v0  l-0.001-0.023l-0.009-0.104c-0.011-0.091-0.032-0.221-0.074-0.362c-0.086-0.285-0.247-0.591-0.537-0.782  C17.184,11.1,16.918,11.001,16.5,11c-0.404,0.001-0.667,0.094-0.86,0.216c-0.193,0.124-0.326,0.288-0.424,0.472  c-0.198,0.364-0.218,0.798-0.215,0.814V18.5l0.001,0.023l0.009,0.104c0.011,0.092,0.032,0.222,0.075,0.362  c0.085,0.285,0.247,0.591,0.537,0.782C15.817,19.9,16.082,19.999,16.5,20c0.404-0.001,0.667-0.094,0.86-0.217  c0.192-0.123,0.326-0.288,0.424-0.472C17.982,18.948,18.002,18.514,18,18.498z"/>
</svg>
