<?xml version="1.0"?>
<svg xmlns="http://www.w3.org/2000/svg" xmlns:xlink="http://www.w3.org/1999/xlink" version="1.1" id="266247384_icon_grid" x="0px" y="0px" width="32px" height="32px" viewBox="0 0 32 32" style="enable-background:new 0 0 32 32;" xml:space="preserve">
<path id="266247384_shock_x5F_color_grid" class="stshockcolor" style="fill:#C9A287;" d="M26,11.44c-0.015-0.66-0.164-2.389-1.215-4.198  c-0.731-1.255-1.74-2.257-2.997-2.974C20.318,3.426,18.54,3,16.497,3c-2.038,0-3.815,0.426-5.284,1.267  C9.012,5.523,7.984,7.414,7.509,8.777C7.067,10.043,7.006,11.078,7,11.5V28h8.494H15.5h9H26V11.44z"/>
<path style="opacity:0.4;fill:#FFFFFF;" d="M24,11.5v6c0.001,1.082-0.275,1.941-0.709,2.59c-0.433,0.649-1.009,1.078-1.567,1.357  c-1.12,0.556-2.182,0.55-2.224,0.553h-3c-0.583,0.001-1.067-0.15-1.434-0.396c-0.368-0.245-0.61-0.571-0.764-0.88  c-0.306-0.62-0.3-1.182-0.303-1.224v-8c0-0.031,0.001-0.354,0.126-0.776c0.125-0.418,0.386-0.956,0.94-1.327  C15.433,9.15,15.917,8.999,16.5,9c0.582-0.001,1.066,0.15,1.434,0.396c0.368,0.245,0.609,0.571,0.764,0.88  c0.306,0.621,0.3,1.182,0.303,1.224v6h-1v-6v0l-0.001-0.023l-0.009-0.104c-0.011-0.091-0.032-0.221-0.074-0.362  c-0.086-0.285-0.247-0.591-0.537-0.782C17.184,10.1,16.918,10.001,16.5,10c-0.404,0.001-0.667,0.094-0.86,0.216  c-0.193,0.124-0.326,0.288-0.424,0.472c-0.198,0.364-0.218,0.798-0.215,0.814V19.5l0.001,0.023l0.009,0.104  c0.011,0.092,0.032,0.222,0.075,0.362c0.085,0.285,0.247,0.591,0.537,0.782C15.817,20.9,16.082,20.999,16.5,21h3h0.014l0.06-0.003  c0.054-0.003,0.136-0.009,0.238-0.021c0.206-0.023,0.494-0.071,0.811-0.166c0.637-0.191,1.364-0.563,1.837-1.275  c0.316-0.477,0.539-1.117,0.541-2.035v-6l-0.001-0.024l-0.004-0.094c-0.005-0.084-0.016-0.211-0.037-0.369  c-0.042-0.316-0.128-0.758-0.299-1.247c-0.345-0.979-1.014-2.125-2.36-2.895C19.398,6.357,18.18,6,16.5,6  c-3.148,0.012-4.679,1.224-5.533,2.495c-0.849,1.277-0.957,2.678-0.965,2.958L10,11.5v8l0,0.026l0.004,0.096  c0.004,0.087,0.013,0.215,0.032,0.374c0.037,0.32,0.111,0.767,0.259,1.259c0.296,0.988,0.88,2.138,2.013,2.892  C13.067,24.65,14.083,24.999,15.5,25c4,0,7,0,7,0v1c0,0-3,0-7,0c-1.583,0.001-2.817-0.4-3.746-1.021  c-0.931-0.62-1.547-1.446-1.951-2.255C8.997,21.104,9.003,19.542,9,19.5v-8c0.001-0.037,0.001-0.93,0.397-2.063  c0.394-1.13,1.202-2.516,2.808-3.433C13.273,5.392,14.68,5,16.5,5c1.82,0,3.227,0.392,4.295,1.003  c1.068,0.61,1.789,1.433,2.262,2.245C24.002,9.876,23.997,11.453,24,11.5z"/>
<rect id="266247384__x3C_Trazado_compuesto_x3E__grid" x="7" y="12.5" style="opacity:0.5;fill:#FFFFFF;" width="19" height="5"/>
<path style="fill:#67DDE0;" d="M28,13H5v-1h23V13z M28,17H5v1h23V17z"/>
</svg>
