<?xml version="1.0" encoding="utf-8"?>
<!-- Generator: Adobe Illustrator 16.0.0, SVG Export Plug-In . SVG Version: 6.00 Build 0)  -->
<svg xmlns="http://www.w3.org/2000/svg" xmlns:xlink="http://www.w3.org/1999/xlink" version="1.1" id="266789685_Outlined_2__grid" x="0px" y="0px" width="32px" height="32px" viewBox="0 0 32 32" style="enable-background:new 0 0 32 32;" xml:space="preserve">

<path id="266789685_shock_x5F_color_grid" class="stshockcolor" d="M7,27.5c-1.378,0-2.5-1.121-2.5-2.5V7c0-1.378,1.122-2.5,2.5-2.5h18  c1.379,0,2.5,1.122,2.5,2.5v18c0,1.379-1.121,2.5-2.5,2.5H7z" style="fill:#67DDE0;;"/>
<path class="st1" d="M10.735,16l5.765-5.354v10.707L10.735,16z M23.5,21.354V10.646L17.734,16L23.5,21.354z" style="fill:#FFFFFF;;"/>
<path class="st0" d="M8,10h1v12H8V10z M28,7v18c0,1.657-1.343,3-3,3H7c-1.657,0-3-1.343-3-3V7c0-1.657,1.343-3,3-3h18  C26.657,4,28,5.343,28,7z M27,7c0-1.104-0.896-2-2-2H7C5.896,5,5,5.896,5,7v18c0,1.104,0.896,2,2,2h18c1.104,0,2-0.896,2-2V7z   M17,9.5v13L10,16L17,9.5z M16,11.74L11.41,16L16,20.26V11.74z M24,9.5v13L17,16L24,9.5z M23,11.74L18.41,16L23,20.26V11.74z" style="fill:#4D5152;;"/>
</svg>
