<?xml version="1.0" encoding="utf-8"?>
<!-- Generator: Adobe Illustrator 16.0.0, SVG Export Plug-In . SVG Version: 6.00 Build 0)  -->
<svg xmlns="http://www.w3.org/2000/svg" xmlns:xlink="http://www.w3.org/1999/xlink" version="1.1" id="266185646_Capa_1_grid" x="0px" y="0px" width="32px" height="32px" viewBox="0 0 32 32" style="enable-background:new 0 0 32 32;" xml:space="preserve">

<polygon id="266185646_shock_x5F_color_grid" class="stshockcolor" points="12.539,16.5 8.496,16.5 12.5,4.5 22.5,4.5 17.5,13.5 22.497,13.5 10.5,27.497 " style="fill:#BFBFBF;;"/>
<path class="st0" d="M24.98,18.35H24.02L20.83,29h1.04l0.899-3h3.45l0.891,3h1.05L24.98,18.35z M23.07,25l1.43-4.76L25.92,25H23.07z   M23.59,13h-5.24l5-9H12.14L7.81,17h4.13L9.67,29.24L23.59,13z M9.19,16l3.67-11h8.791l-5,9h4.76L11.33,25.76L13.14,16H9.19z" style="fill:#4D5152;;"/>
</svg>
