<?xml version="1.0"?>
<svg xmlns="http://www.w3.org/2000/svg" xmlns:xlink="http://www.w3.org/1999/xlink" version="1.1" id="266247387_icon_grid" x="0px" y="0px" width="32px" height="32px" viewBox="0 0 32 32" style="enable-background:new 0 0 32 32;" xml:space="preserve">
<path id="266247387_shock_x5F_color_grid" class="stshockcolor" style="fill:#75EA9C;" d="M4.5,6c0-1.69,2.411-3.5,6-3.5s6,1.81,6,3.5s-2.411,3.5-6,3.5S4.5,7.69,4.5,6z   M12.03,22.5H9c-1.21,0-3.5,0.731-3.5,3.5s2.29,3.5,3.5,3.5h3.03c1.064,0,3.159-0.606,3.47-2.97L15.53,26  C15.53,23.231,13.24,22.5,12.03,22.5z M4.125,15.5l6.375,4.094l6.376-4.094L10.5,11.406L4.125,15.5z"/>
<rect x="18.5" y="11.5" style="fill:#F27C7C;" width="9" height="8"/>
<path style="opacity:0.5;fill:#4D5152;" d="M12.03,22.5H9c-1.21,0-3.5,0.731-3.5,3.5s2.29,3.5,3.5,3.5h3.03  c1.064,0,3.159-0.606,3.47-2.97L15.53,26C15.53,23.231,13.24,22.5,12.03,22.5z"/>
<path style="opacity:0.6;fill:#FFFFFF;" d="M10.5,9.5c3.589,0,6-1.81,6-3.5s-2.411-3.5-6-3.5s-6,1.81-6,3.5S6.911,9.5,10.5,9.5z"/>
<path style="fill:#4D5152;" d="M18,11v4h-1l-5.97-3.98V9.98C14.37,9.82,17,8.1,17,6c0-2.21-2.91-4-6.5-4S4,3.79,4,6  c0,2.11,2.66,3.84,6.03,3.99V11H10l-6,4v1l6,4h0.03v2H9c-1.61,0-4,1.07-4,4c0,2.94,2.39,4,4,4h3.03c1.41,0,3.43-0.82,3.89-3H24v-7h4  v-9H18z M5,6c0-1.42,2.26-3,5.5-3S16,4.58,16,6s-2.26,3-5.5,3S5,7.42,5,6z M5.05,15.5L10.5,12l5.45,3.5L10.5,19L5.05,15.5z M15,26  v0.53C14.67,29,12.03,29,12.03,29H9c0,0-3,0-3-3s3-3,3-3h3.03c0,0,3,0,3,3H15z M23,26h-6.971c0-2.93-2.389-4-4-4h-1v-2H11l6-4h1v4h5  V26z M27,19h-8v-7h8V19z"/>
</svg>
