<?xml version="1.0"?>
<svg xmlns="http://www.w3.org/2000/svg" xmlns:xlink="http://www.w3.org/1999/xlink" version="1.1" id="266148722_Outlined_2__grid" x="0px" y="0px" width="32px" height="32px" viewBox="0 0 32 32" style="enable-background:new 0 0 32 32;" xml:space="preserve">
<polygon id="266148722_shock_x5F_color_grid" class="stshockcolor" style="fill:#AAAAAA;" points="15.5,3.526 6.556,15.993 15.5,28.46 24.443,15.993 "/>
<polygon style="opacity:0.2;fill:#4D5152;" points="15.5,3.526 15.5,28.46 24.443,15.993 "/>
<path style="fill:#4D5152;" d="M24.903,15.712L15.937,3.213c-0.197-0.273-0.676-0.273-0.873,0L6.097,15.712  c-0.122,0.17-0.122,0.393,0,0.563l8.967,12.499c0.099,0.137,0.262,0.219,0.437,0.219s0.338-0.082,0.437-0.219l8.967-12.499  C25.024,16.104,25.024,15.882,24.903,15.712z M15.5,27.603L7.171,15.993L15.5,4.384l8.328,11.609L15.5,27.603z"/>
</svg>
