<?xml version="1.0"?>
<svg xmlns="http://www.w3.org/2000/svg" xmlns:xlink="http://www.w3.org/1999/xlink" version="1.1" id="266148726_Outlined_2__grid" x="0px" y="0px" width="32px" height="32px" viewBox="0 0 32 32" style="enable-background:new 0 0 32 32;" xml:space="preserve">
<path id="266148726_shock_x5F_color_grid" class="stshockcolor" style="fill:#FFE4A9;" d="M24.992,5.5H7c-0.916,0-1.476,0.561-1.5,1.512V25  c0,0.915,0.561,1.476,1.512,1.5H25c0.915,0,1.476-0.561,1.5-1.512V7C26.5,6.086,25.941,5.526,24.992,5.5z"/>
<path style="fill:#4D5152;" d="M12,10c0,1.1-0.9,2-2,2s-2-0.9-2-2s0.9-2,2-2S12,8.9,12,10z M10,20c-1.1,0-2,0.9-2,2s0.9,2,2,2  s2-0.9,2-2S11.1,20,10,20z M16,14c-1.1,0-2,0.9-2,2c0,1.1,0.9,2,2,2c1.1,0,2-0.9,2-2C18,14.9,17.1,14,16,14z M27,7v18c0,0,0,2-2,2H7  c0,0-2,0-2-2V7c0,0,0-2,2-2h18C25,5,27,5,27,7z M26,7c0-0.803-0.547-0.987-1.008-1H7C6.195,6,6.012,6.55,6,7.012V25  c0,0.806,0.55,0.988,1.012,1H25c0.806,0,0.988-0.55,1-1.012V7z M22,8c-1.1,0-2,0.9-2,2s0.9,2,2,2s2-0.9,2-2S23.1,8,22,8z M22,20  c-1.1,0-2,0.9-2,2s0.9,2,2,2s2-0.9,2-2S23.1,20,22,20z"/>
</svg>
