<?xml version="1.0"?>
<svg xmlns="http://www.w3.org/2000/svg" xmlns:xlink="http://www.w3.org/1999/xlink" version="1.1" id="266148725_Outlined_2__grid" x="0px" y="0px" width="32px" height="32px" viewBox="0 0 32 32" style="enable-background:new 0 0 32 32;" xml:space="preserve">
<path id="266148725_shock_x5F_color_grid" class="stshockcolor" style="fill:#AAAAAA;" d="M29.5,22c0,1.31-1.19,2.5-2.5,2.5c-2.29,0-3.76-0.98-5.18-1.93  C20.3,21.55,18.74,20.5,16,20.5c-3.21,0-4.73,1.09-6.2,2.15C8.53,23.56,7.23,24.5,5,24.5c-1.31,0-2.5-1.19-2.5-2.5  c0-0.49,0.02-0.99,0.06-1.49C2.9,15.24,5.1,9.77,8.9,9.01C11.45,8.5,13.46,8.5,16,8.5s4.55,0,7.1,0.51c3.801,0.76,6,6.23,6.341,11.5  C29.48,21.01,29.5,21.51,29.5,22z"/>
<path style="opacity:0.3;fill:#FFFFFF;" d="M29.44,20.51C29.19,21.6,28.14,22.5,27,22.5c-2.29,0-3.76-0.98-5.18-1.93  C20.3,19.55,18.74,18.5,16,18.5c-3.21,0-4.73,1.09-6.2,2.15C8.53,21.56,7.23,22.5,5,22.5c-1.14,0-2.19-0.9-2.44-1.99  C2.9,15.24,5.1,9.77,8.9,9.01C11.45,8.5,13.46,8.5,16,8.5s4.55,0,7.1,0.51C26.9,9.77,29.1,15.24,29.44,20.51z"/>
<circle style="fill:#67DDE0;" cx="20.5" cy="13.5" r="1"/>
<path style="fill:#FF61E1;" d="M19,11h-6V8.5h6V11z M24.5,16.5c0-0.551-0.448-1-1-1s-1,0.449-1,1c0,0.552,0.448,1,1,1  S24.5,17.052,24.5,16.5z"/>
<path style="fill:#4D5152;" d="M23.2,8.52C20.6,8,18.51,8,16,8s-4.6,0-7.2,0.52C4.15,9.45,2,16.36,2,22c0,1.57,1.43,3,3,3  c2.39,0,3.76-0.99,5.09-1.94C11.56,22,12.95,21,16,21c2.58,0,4.02,0.96,5.54,1.98C23.03,23.97,24.56,25,27,25c1.57,0,3-1.43,3-3  C30,16.36,27.85,9.45,23.2,8.52z M27,24c-4.5,0-5.5-4-11-4c-6.24,0-6.5,4-11,4c-1.05,0-2-1-2-2c0-5.06,1.98-11.7,6-12.5  C11.5,9,13.5,9,16,9s4.5,0,7,0.5c4.02,0.8,6,7.44,6,12.5C29,23,28.05,24,27,24z M13,14v1h-2v2h-1v-2H8v-1h2v-2h1v2H13z M20.5,12  c-0.83,0-1.5,0.67-1.5,1.5s0.67,1.5,1.5,1.5s1.5-0.67,1.5-1.5S21.33,12,20.5,12z M20.5,14c-0.28,0-0.5-0.22-0.5-0.5  s0.22-0.5,0.5-0.5s0.5,0.22,0.5,0.5S20.78,14,20.5,14z M23.5,15c-0.83,0-1.5,0.67-1.5,1.5s0.67,1.5,1.5,1.5s1.5-0.67,1.5-1.5  S24.33,15,23.5,15z M23.5,17c-0.28,0-0.5-0.22-0.5-0.5s0.22-0.5,0.5-0.5s0.5,0.22,0.5,0.5S23.78,17,23.5,17z"/>
</svg>
