<?xml version="1.0"?>
<svg xmlns="http://www.w3.org/2000/svg" xmlns:xlink="http://www.w3.org/1999/xlink" version="1.1" id="266148721_Outlined_2__grid" x="0px" y="0px" width="32px" height="32px" viewBox="0 0 32 32" style="enable-background:new 0 0 32 32;" xml:space="preserve">
<path id="266148721_shock_x5F_color_grid" class="stshockcolor" style="fill:#AAAAAA;" d="M17.254,26.594l1.259,0.906h-6.005l1.224-0.902  c0.519-0.383,1.053-1.129,1.298-1.813l0.505-1.408l0.443,1.429C16.217,25.575,16.807,26.272,17.254,26.594z M21,14.5  c-0.739,0-1.961,0.438-3.643,1.304C18.461,13.666,19.5,11.306,19.5,10c0-2.481-1.794-4.5-4-4.5c-2.206,0-4,2.019-4,4.5  c0,1.307,1.039,3.667,2.143,5.804C11.96,14.938,10.738,14.5,10,14.5c-1.93,0-3.5,2.019-3.5,4.5s1.57,4.5,3.5,4.5  c1.787,0,3.911-2.11,5.5-4.073C17.088,21.39,19.212,23.5,21,23.5c1.93,0,3.5-2.019,3.5-4.5S22.93,14.5,21,14.5z"/>
<path style="opacity:0.2;fill:#4D5152;" d="M6.5,19h18c0,2.481-1.57,4.5-3.5,4.5c-1.788,0-3.912-2.11-5.5-4.073  C13.911,21.39,11.787,23.5,10,23.5C8.07,23.5,6.5,21.481,6.5,19z M15.5,5.5v12.653c0,0,4-6.847,4-8.153  C19.5,7.519,17.706,5.5,15.5,5.5z"/>
<path style="fill:#4D5152;" d="M21,14c-0.666,0-1.613,0.32-2.609,0.765C19.266,12.962,20,11.117,20,10c0-2.762-2.015-5-4.5-5  S11,7.238,11,10c0,1.118,0.738,2.963,1.614,4.767C11.616,14.321,10.667,14,10,14c-2.209,0-4,2.238-4,5s1.791,5,4,5  c1.726,0,3.571-1.58,5-3.182V22c0,3-1.458,5-4,5c-0.276,0-0.5,0.224-0.5,0.5S10.724,28,11,28h9c0.276,0,0.5-0.224,0.5-0.5  S20.276,27,20,27c-2.804,0-4-2-4-5v-1.182C17.43,22.42,19.274,24,21,24c2.209,0,4-2.238,4-5S23.209,14,21,14z M16.962,27h-2.934  c0.579-0.427,1.181-1.233,1.472-2.047C15.757,25.782,16.38,26.581,16.962,27z M21,23c-1.865,0-4.355-2.903-5.5-4.379  C14.355,20.097,11.865,23,10,23c-1.657,0-3-1.791-3-4s1.343-4,3-4c1.099,0,3.423,1.218,4.87,2.041C13.863,15.213,12,11.613,12,10  c0-2.209,1.567-4,3.5-4c1.933,0,3.5,1.791,3.5,4c0,1.613-1.863,5.213-2.87,7.041C17.576,16.218,19.9,15,21,15c1.657,0,3,1.791,3,4  S22.657,23,21,23z"/>
</svg>
