<?xml version="1.0"?>
<svg xmlns="http://www.w3.org/2000/svg" xmlns:xlink="http://www.w3.org/1999/xlink" version="1.1" id="266148727_Outlined_2__grid" x="0px" y="0px" width="32px" height="32px" viewBox="0 0 32 32" style="enable-background:new 0 0 32 32;" xml:space="preserve">
<path id="266148727_shock_x5F_color_grid" class="stshockcolor" style="fill:#BFBFBF;" d="M28.08,14.5l-2.32-0.38l-0.08-0.33c-0.239-1.09-0.67-2.12-1.27-3.07l-0.18-0.29  L25.6,8.51c0.141-0.2,0.12-0.47-0.05-0.65l-1.399-1.4c-0.11-0.1-0.24-0.15-0.37-0.15c-0.11,0-0.21,0.03-0.29,0.09l-1.92,1.37  l-0.29-0.18c-0.95-0.6-1.98-1.03-3.07-1.27l-0.33-0.08L17.5,3.92C17.46,3.68,17.25,3.5,17,3.5h-2c-0.25,0-0.46,0.18-0.5,0.42  l-0.38,2.32l-0.33,0.08c-1.09,0.24-2.12,0.67-3.07,1.27l-0.29,0.18L8.51,6.4C8.43,6.34,8.33,6.31,8.22,6.31  c-0.13,0-0.25,0.05-0.35,0.15l-1.42,1.4C6.28,8.04,6.26,8.31,6.4,8.51l1.37,1.92l-0.18,0.29c-0.6,0.95-1.03,1.98-1.27,3.07  l-0.08,0.33L3.92,14.5C3.68,14.54,3.5,14.75,3.5,15v2c0,0.25,0.18,0.46,0.42,0.5l2.32,0.38l0.08,0.33c0.24,1.09,0.67,2.12,1.27,3.07  l0.18,0.29L6.4,23.49c-0.14,0.2-0.12,0.47,0.05,0.649l1.42,1.41c0.1,0.09,0.22,0.141,0.35,0.141c0.1,0,0.21-0.03,0.29-0.091  l1.92-1.369l0.29,0.18c0.95,0.6,1.98,1.03,3.07,1.27l0.33,0.08l0.38,2.32c0.04,0.24,0.25,0.42,0.5,0.42h2c0.25,0,0.46-0.18,0.5-0.42  l0.38-2.32l0.33-0.08c1.09-0.239,2.12-0.67,3.07-1.27l0.29-0.18l1.92,1.369c0.08,0.061,0.18,0.091,0.29,0.091  c0.13,0,0.26-0.051,0.359-0.141l1.41-1.41c0.17-0.18,0.19-0.449,0.05-0.649l-1.369-1.92l0.18-0.29c0.6-0.95,1.03-1.98,1.27-3.07  l0.08-0.33l2.32-0.38c0.24-0.04,0.42-0.25,0.42-0.5v-2C28.5,14.75,28.32,14.54,28.08,14.5z M16,18.5c-1.38,0-2.5-1.12-2.5-2.5  s1.12-2.5,2.5-2.5s2.5,1.12,2.5,2.5S17.38,18.5,16,18.5z"/>
<path style="opacity:0.3;fill:#4D5152;" d="M16,10.5c-3.03,0-5.5,2.47-5.5,5.5c0,3.03,2.47,5.5,5.5,5.5c3.03,0,5.5-2.47,5.5-5.5  C21.5,12.97,19.03,10.5,16,10.5z M16,18.5c-1.38,0-2.5-1.12-2.5-2.5s1.12-2.5,2.5-2.5s2.5,1.12,2.5,2.5S17.38,18.5,16,18.5z"/>
<path style="fill:#4D5152;" d="M28.16,14.01l-1.99-0.33c-0.26-1.16-0.72-2.25-1.34-3.23l1.18-1.65c0.28-0.39,0.24-0.94-0.109-1.29  L24.49,6.1c-0.2-0.19-0.45-0.29-0.71-0.29c-0.2,0-0.41,0.06-0.58,0.18l-1.65,1.18C20.57,6.55,19.48,6.09,18.32,5.83l-0.33-1.99  C17.91,3.35,17.49,3,17,3h-2c-0.49,0-0.91,0.35-0.99,0.84l-0.33,1.99c-1.16,0.26-2.25,0.72-3.23,1.34L8.8,5.99  C8.63,5.87,8.42,5.81,8.22,5.81c-0.26,0-0.51,0.1-0.7,0.29L6.1,7.51C5.75,7.86,5.71,8.41,5.99,8.8l1.18,1.65  c-0.62,0.98-1.08,2.07-1.34,3.23l-1.99,0.33C3.35,14.09,3,14.51,3,15v2c0,0.49,0.35,0.91,0.84,0.99l1.99,0.33  c0.26,1.16,0.72,2.25,1.34,3.229L5.99,23.2c-0.28,0.39-0.24,0.939,0.11,1.29l1.42,1.41c0.19,0.189,0.44,0.29,0.7,0.29  c0.2,0,0.41-0.061,0.58-0.181l1.65-1.18c0.98,0.62,2.07,1.08,3.23,1.34l0.33,1.99C14.09,28.65,14.51,29,15,29h2  c0.49,0,0.91-0.35,0.99-0.84l0.33-1.99c1.16-0.26,2.25-0.72,3.229-1.34l1.65,1.18c0.17,0.12,0.38,0.181,0.58,0.181  c0.26,0,0.51-0.101,0.71-0.29l1.41-1.41c0.35-0.351,0.39-0.9,0.109-1.29l-1.18-1.65c0.62-0.979,1.08-2.069,1.34-3.229l1.99-0.33  C28.65,17.91,29,17.49,29,17v-2C29,14.51,28.65,14.09,28.16,14.01z M28,17l-2.72,0.45c-0.23,1.51-0.82,2.899-1.69,4.09l1.601,2.24  l-1.41,1.41l-2.24-1.601c-1.19,0.87-2.58,1.46-4.09,1.69L17,28h-2l-0.45-2.72c-1.51-0.23-2.9-0.82-4.09-1.69L8.22,25.19l-1.41-1.41  l1.6-2.24c-0.87-1.19-1.46-2.58-1.69-4.09L4,17v-2l2.72-0.45c0.23-1.51,0.82-2.9,1.69-4.09l-1.6-2.24l1.41-1.41l2.24,1.6  c1.19-0.87,2.58-1.46,4.09-1.69L15,4h2l0.45,2.72c1.51,0.23,2.899,0.82,4.09,1.69l2.24-1.6l1.41,1.41l-1.601,2.24  c0.87,1.19,1.46,2.58,1.69,4.09L28,15V17z M16,11c2.757,0,5,2.243,5,5s-2.243,5-5,5s-5-2.243-5-5S13.243,11,16,11L16,11z M16,10  c-3.32,0-6,2.68-6,6c0,3.32,2.68,6,6,6c3.32,0,6-2.68,6-6C22,12.68,19.32,10,16,10L16,10z M16,13c-1.66,0-3,1.34-3,3s1.34,3,3,3  s3-1.34,3-3S17.66,13,16,13z M16,18c-1.1,0-2-0.9-2-2c0-1.1,0.9-2,2-2c1.1,0,2,0.9,2,2C18,17.1,17.1,18,16,18z"/>
</svg>
