<?xml version="1.0"?>
<svg xmlns="http://www.w3.org/2000/svg" xmlns:xlink="http://www.w3.org/1999/xlink" version="1.1" id="266148728_Outlined_2__grid" x="0px" y="0px" width="32px" height="32px" viewBox="0 0 32 32" style="enable-background:new 0 0 32 32;" xml:space="preserve">
<path id="266148728_shock_x5F_color_grid" class="stshockcolor" style="fill:#67DDE0;" d="M23.096,18.583l-0.39-0.146l-3.709,3.322l-2.337-2.093  C16.137,16.179,13.135,13.5,9.5,13.5c-4.004,0-7.25,3.246-7.25,7.25h9.131c-1.935,1.823-2.93,4.273-2.762,6.75h20.767  C29.625,23.802,27.291,20.156,23.096,18.583z"/>
<path style="fill:#FFD878;" d="M19,5.5c-1.935,0-3.634,1.005-4.615,2.519C13.935,6.009,12.144,4.5,10,4.5C7.518,4.5,5.5,6.519,5.5,9  s2.018,4.5,4.5,4.5c1.452,0,2.73-0.702,3.554-1.771C13.912,14.417,16.214,16.5,19,16.5c3.033,0,5.5-2.467,5.5-5.5S22.033,5.5,19,5.5  z"/>
<path style="fill:#E57C5C;" d="M12.25,5.625c0-0.181-0.033-0.353-0.053-0.528C11.544,4.728,10.802,4.5,10,4.5  C7.518,4.5,5.5,6.519,5.5,9c0,0.181,0.033,0.353,0.053,0.528c0.653,0.369,1.395,0.597,2.197,0.597  C10.232,10.125,12.25,8.106,12.25,5.625z M21.75,6.875c0-0.221-0.04-0.431-0.065-0.646C20.887,5.779,19.979,5.5,19,5.5  c-3.033,0-5.5,2.467-5.5,5.5c0,0.221,0.04,0.431,0.065,0.646c0.797,0.451,1.705,0.729,2.685,0.729  C19.283,12.375,21.75,9.908,21.75,6.875z"/>
<path style="fill:#4D5152;" d="M19,17c3.313,0,6-2.687,6-6s-2.687-6-6-6s-6,2.687-6,6S15.687,17,19,17z M19,6c2.762,0,5,2.238,5,5  s-2.238,5-5,5s-5-2.238-5-5S16.238,6,19,6z M30,28c0-4.838-3.127-8.937-7.467-10.409L19,21.125l-3.529-3.53  c-1.506,0.514-2.87,1.336-4.005,2.405H3.08c0.486-3.391,3.395-6,6.92-6v-1c-2.209,0-4-1.791-4-4s1.791-4,4-4  c1.029,0,1.958,0.399,2.666,1.038l0.669-0.743c-0.886-0.797-2.045-1.296-3.33-1.296c-2.76,0-4.998,2.238-4.998,4.998  c0,1.888,1.059,3.512,2.604,4.362C4.359,14.375,2,17.411,2,21h8.515C8.944,22.902,8,25.341,8,28H30z M15.237,18.736L19,22.5  l3.763-3.763c3.362,1.367,5.813,4.508,6.187,8.263H9.05C9.423,23.245,11.875,20.104,15.237,18.736z"/>
</svg>
