<?xml version="1.0"?>
<svg xmlns="http://www.w3.org/2000/svg" xmlns:xlink="http://www.w3.org/1999/xlink" version="1.1" id="266148732_Outlined_2__grid" x="0px" y="0px" width="32px" height="32px" viewBox="0 0 32 32" style="enable-background:new 0 0 32 32;" xml:space="preserve">
<path id="266148732_shock_x5F_color_grid" class="stshockcolor" style="fill:#67DDE0;" d="M23.21,25.5h0.29v3h-9v-3h0.92l-0.08-0.03c-0.07-0.02-1.59-0.55-4.62-2.55  c-2.25-1.49-2.49-2.46-2.89-4.06c-0.28-1.13-0.67-2.69-2.06-5.18c-0.47-0.84-0.25-1.4,0.02-1.72s0.66-0.51,1.07-0.51  c0.28,0,0.55,0.09,0.77,0.27c1.18,0.92,1.75,2.29,2.27,3.5c0.45,1.08,0.85,2.01,1.51,2.22c0.11,0.04,0.22,0.06,0.32,0.06  c0.67,0,0.77-0.9,0.77-1.44V3c0-0.83,0.67-1.5,1.5-1.5s1.5,0.67,1.5,1.5v6c0-0.83,0.67-1.5,1.49-1.5c0.819,0,1.51,0.69,1.51,1.5v1  c0-0.83,0.67-1.5,1.5-1.5s1.5,0.67,1.5,1.5V9.89l0.31-0.13c0.051-0.02,0.46-0.19,0.96-0.19c0.101,0,0.211,0.01,0.311,0.03  c0.83,0.15,1.3,1.23,1.41,1.92c0.13,0.76,0.26,1.41,0.37,2.02c0.359,1.85,0.64,3.3,0.64,5.96c0,3.67-2.06,5.77-2.15,5.85L23.21,25.5  z"/>
<path style="opacity:0.4;fill:#FFFFFF;" d="M25.5,19.5c0,3.67-2.06,5.77-2.15,5.85l-0.14,0.15h-7.79l-0.08-0.03  c-0.07-0.02-1.59-0.55-4.62-2.55c-2.25-1.49-2.49-2.46-2.89-4.06c-0.28-1.13-0.67-2.69-2.06-5.18c-0.47-0.84-0.25-1.4,0.02-1.72  s0.66-0.51,1.07-0.51c0.28,0,0.55,0.09,0.77,0.27c1.18,0.92,1.75,2.29,2.27,3.5c0.45,1.08,0.85,2.01,1.51,2.22  c0.11,0.04,0.22,0.06,0.32,0.06c0.67,0,0.77-0.9,0.77-1.44V3c0-0.83,0.67-1.5,1.5-1.5s1.5,0.67,1.5,1.5v6c0-0.83,0.67-1.5,1.49-1.5  c0.819,0,1.51,0.69,1.51,1.5v1c0-0.83,0.67-1.5,1.5-1.5s1.5,0.67,1.5,1.5V9.89l0.31-0.13c0.051-0.02,0.46-0.19,0.96-0.19  c0.101,0,0.211,0.01,0.311,0.03c0.83,0.15,1.3,1.23,1.41,1.92c0.13,0.76,0.26,1.41,0.37,2.02C25.22,15.39,25.5,16.84,25.5,19.5z"/>
<path style="fill:#4D5152;" d="M25.35,13.45c-0.109-0.61-0.239-1.26-0.359-2.01c-0.17-1.01-0.891-2.17-1.82-2.33  c-0.47-0.08-0.92,0.09-1.21,0.17C21.61,8.43,20.96,8,20,8c-0.41,0-0.8,0.12-1.11,0.34C18.61,7.56,17.85,7,16.99,7  c-0.37,0-0.7,0.1-1,0.27C15.99,7.27,16,3.5,16,3c0-1.09-0.86-2-2-2c-1.1,0-2,0.9-2,2v13.06c0,0.551-0.12,0.79-0.19,0.851  c-0.08,0.06-0.12,0.13-0.37,0.03c-0.88-0.341-1.17-3.8-3.5-5.621c-0.76-0.59-1.87-0.46-2.53,0.32l-0.08,0.1  c-0.5,0.67-0.41,1.44,0.03,2.25c3.13,5.75,0.91,6.67,5.09,9.34c3.11,1.99,4.66,2.59,4.72,2.62L15.33,26h8.08l0.3-0.29  C23.8,25.61,26,23.37,26,19.5C26,16.79,25.7,15.25,25.35,13.45z M23,25h-7.5c0,0-1.49-0.51-4.5-2.5c-3.69-2.44-1.52-3.19-4.79-9.06  c-0.21-0.37-0.34-0.8-0.04-1.16c0.31-0.36,0.82-0.43,1.15-0.17c2.17,1.7,2.19,5.24,3.93,5.81C12.11,18.2,13,17.79,13,16.06V3  c0-0.55,0.45-1,1-1s1,0.45,1,1v8.62c0,0.5,1,0.5,1,0V9c0-0.55,0.44-1,0.99-1C17.53,8,18,8.45,18,9v2.62c0,0.5,1,0.5,1,0V10  c0-0.55,0.45-1,1-1s1,0.45,1,1v2.62c0,0.5,1,0.5,1,0v-2.4c0,0,0.51-0.21,1-0.13c0.54,0.1,0.91,0.97,1,1.51c0.5,3,1,4.4,1,7.9  S23,25,23,25z M23,26v2h-8v-2H23 M24,25H14v4h10V25L24,25z"/>
</svg>
