<?xml version="1.0"?>
<svg xmlns="http://www.w3.org/2000/svg" xmlns:xlink="http://www.w3.org/1999/xlink" version="1.1" id="266148731_Outlined_2__grid" x="0px" y="0px" width="32px" height="32px" viewBox="0 0 32 32" style="enable-background:new 0 0 32 32;" xml:space="preserve">
<path id="266148731_shock_x5F_color_grid" class="stshockcolor" style="fill:#67DDE0;" d="M23.21,25.5h0.29v3h-9v-3h0.92l-0.08-0.03c-0.07-0.02-1.59-0.55-4.62-2.55  c-2.25-1.49-2.49-2.46-2.89-4.06c-0.28-1.13-0.67-2.69-2.06-5.18c-0.48-0.84-0.25-1.4,0.03-1.73c0.26-0.31,0.65-0.5,1.06-0.5  c0.28,0,0.55,0.09,0.77,0.26c1.18,0.93,1.76,2.29,2.27,3.5c0.46,1.08,0.85,2.021,1.52,2.23c0.1,0.04,0.2,0.06,0.3,0.06  c0.7,0,0.78-1.05,0.78-1.5V4c0-0.83,0.67-1.5,1.5-1.5s1.5,0.67,1.5,1.5V3c0-0.83,0.67-1.5,1.49-1.5c0.83,0,1.51,0.67,1.51,1.5v1  c0-0.83,0.67-1.5,1.5-1.5s1.5,0.67,1.5,1.5v1.88c0-0.55,0.4-1.38,1.5-1.38c0.69,0,1.5,0.52,1.5,2v1.24c0,1.56-0.01,3.7,0.03,3.98  c0.13,0.75,0.25,1.39,0.37,1.99c0.33,1.75,0.6,3.13,0.6,5.79c0,3.67-2.06,5.77-2.15,5.85L23.21,25.5z"/>
<path style="opacity:0.4;fill:#FFFFFF;" d="M25.5,19.5c0,3.67-2.06,5.77-2.15,5.85l-0.14,0.15h-7.79l-0.08-0.03  c-0.07-0.02-1.59-0.55-4.62-2.55c-2.25-1.49-2.49-2.46-2.89-4.06c-0.28-1.13-0.67-2.69-2.06-5.18c-0.48-0.84-0.25-1.4,0.03-1.73  c0.26-0.31,0.65-0.5,1.06-0.5c0.28,0,0.55,0.09,0.77,0.26c1.18,0.93,1.76,2.29,2.27,3.5c0.46,1.08,0.85,2.021,1.52,2.23  c0.1,0.04,0.2,0.06,0.3,0.06c0.7,0,0.78-1.05,0.78-1.5V4c0-0.83,0.67-1.5,1.5-1.5s1.5,0.67,1.5,1.5V3c0-0.83,0.67-1.5,1.49-1.5  c0.83,0,1.51,0.67,1.51,1.5v1c0-0.83,0.67-1.5,1.5-1.5s1.5,0.67,1.5,1.5v1.88c0-0.55,0.4-1.38,1.5-1.38c0.69,0,1.5,0.52,1.5,2v1.24  c0,1.56-0.01,3.7,0.03,3.98c0.13,0.75,0.25,1.39,0.37,1.99C25.23,15.46,25.5,16.84,25.5,19.5z"/>
<path style="fill:#4D5152;" d="M25.39,13.64c-0.12-0.6-0.239-1.24-0.359-1.98C24.99,11.35,25,9.36,25,7.91V6.5C25,4.77,24,4,23,4  c-0.4,0-0.73,0.09-1,0.23V4c0-1.1-0.89-2-2-2c-0.41,0-0.79,0.12-1.11,0.34C18.61,1.56,17.87,1,16.99,1c-0.87,0-1.6,0.56-1.88,1.34  C14.8,2.12,14.41,2,14,2c-1.1,0-2,0.9-2,2v12c0,0.62-0.15,1-0.29,1l-0.14-0.03c-0.45-0.149-0.84-1.06-1.21-1.95  c-0.51-1.2-1.14-2.7-2.42-3.7c-0.3-0.24-0.68-0.36-1.08-0.36c-0.55,0-1.08,0.24-1.45,0.67c-0.3,0.36-0.72,1.14-0.08,2.29  c1.36,2.43,1.72,3.89,2.02,5.061c0.44,1.76,0.8,2.829,3.1,4.35c1.58,1.05,2.77,1.7,3.55,2.09V29h10v-3.62c0.62-0.77,2-2.81,2-5.88  C26,16.8,25.73,15.41,25.39,13.64z M23,28h-8v-2h8V28z M23,25h-7.5c0,0-1.49-0.51-4.5-2.5c-3.69-2.44-1.52-3.19-4.79-9.06  c-0.21-0.37-0.34-0.8-0.03-1.16c0.3-0.36,0.81-0.43,1.15-0.17c2.16,1.7,2.19,5.24,3.93,5.81C12.12,18.21,13,17.73,13,16V4  c0-0.55,0.45-1,1-1s1,0.45,1,1v7.62c0,0.5,1,0.5,1,0V3c0-0.55,0.44-1,0.99-1S18,2.45,18,3v8.62c0,0.5,1,0.5,1,0V4c0-0.55,0.45-1,1-1  s1,0.45,1,1v8.62c0,0.5,1,0.5,1,0V5.88c0,0,0-0.88,1-0.88c0.5,0,1,0.4,1,1.5c0,2-0.02,4.96,0.04,5.3c0.5,3,0.96,4.2,0.96,7.7  S23,25,23,25z"/>
</svg>
