<?xml version="1.0"?>
<svg xmlns="http://www.w3.org/2000/svg" xmlns:xlink="http://www.w3.org/1999/xlink" version="1.1" id="266148734_Outlined_2__grid" x="0px" y="0px" width="32px" height="32px" viewBox="0 0 32 32" style="enable-background:new 0 0 32 32;" xml:space="preserve">
<path id="266148734_shock_x5F_color_grid" class="stshockcolor" style="fill:#EF6565;" d="M28.5,7v8c0,0.28-0.22,0.5-0.5,0.5h-3c-0.28,0-0.5-0.22-0.5-0.5  c0,0.08-0.02,0.16-0.06,0.23c-0.021,0.04-0.54,1.04-2.521,4.04c-0.97,1.461-1.6,1.98-2.11,2.4c-0.739,0.6-1.27,1.04-2.649,4.82  c-0.33,0.91-0.94,1.04-1.28,1.04c-0.83-0.05-1.4-0.63-1.38-1.33c0.05-1.91,0.62-3.5,1.17-5.03c0.28-0.77,0.54-1.5,0.73-2.24  c0.08-0.33,0.13-0.779-0.091-1.05c-0.25-0.32-0.819-0.39-1.25-0.39H8c-0.83,0-1.5-0.67-1.5-1.5s0.67-1.5,1.5-1.5  c-0.83,0-1.5-0.67-1.5-1.49c0-0.83,0.67-1.51,1.5-1.51h1c-0.83,0-1.5-0.67-1.5-1.5c0-0.83,0.67-1.5,1.5-1.5h0.62  c-0.39,0-1.12-0.31-1.12-1.5c0-0.91,1.27-1.37,2.02-1.49c0.76-0.13,1.41-0.26,2.02-0.37c1.85-0.36,3.3-0.64,5.96-0.64  c3.67,0,5.77,2.06,5.85,2.15c0.101,0.09,0.15,0.22,0.15,0.35C24.51,6.71,24.72,6.5,25,6.5h3C28.28,6.5,28.5,6.72,28.5,7z"/>
<path style="opacity:0.2;fill:#FFFFFF;" d="M6.5,13c0-0.83,0.67-1.51,1.5-1.51h1c-0.83,0-1.5-0.67-1.5-1.5s0.67-1.5,1.5-1.5h0.62  c-0.39,0-1.12-0.311-1.12-1.5c0-0.91,1.27-1.37,2.02-1.49c0.761-0.13,1.41-0.26,2.021-0.37c1.85-0.36,3.3-0.64,5.96-0.64  c3.67,0,5.77,2.06,5.85,2.149C24.45,6.73,24.5,6.86,24.5,6.99V15c0,0.08-0.02,0.16-0.061,0.23c-0.02,0.039-0.539,1.039-2.52,4.039  c-0.97,1.461-1.6,1.98-2.109,2.4c-0.74,0.6-1.271,1.04-2.65,4.82c-0.33,0.91-0.939,1.039-1.28,1.039  C15.05,27.48,14.48,26.9,14.5,26.2c0.05-1.91,0.62-3.5,1.17-5.03c0.28-0.77,0.54-1.5,0.73-2.24c0.08-0.33,0.129-0.779-0.09-1.05  c-0.25-0.319-0.82-0.39-1.251-0.39H8c-0.83,0-1.5-0.67-1.5-1.5s0.67-1.5,1.5-1.5C7.17,14.49,6.5,13.82,6.5,13z"/>
<path style="fill:#4D5152;" d="M6,15.99c0,1.1,0.9,2,2,2h7.06c0.551,0,0.79,0.119,0.851,0.189c0.06,0.07,0.08,0.291,0,0.631  c-0.19,0.75-0.53,1.479-0.851,2.239c-0.619,1.5-1.01,3.07-1.06,5.13c-0.03,0.971,0.75,1.78,1.76,1.85h0.12  c0.841,0,1.46-0.569,1.78-1.439c2.311-6.119,2-2.869,4.67-7.05c1.47-2.29,2.109-3.19,2.391-3.54H29V6h-4.609  C23.63,5.38,21.58,3.99,18.5,3.99c-2.71,0-4.75,0.3-6.55,0.64C11.34,4.75,11.19,4.8,10.44,5C9.45,5.27,8.11,5.88,7.95,6.82  C7.87,7.29,8,8,8.38,8C7.47,8.19,7,9.02,7,9.99c0,0.41,0.12,0.79,0.34,1.109C6.56,11.37,6,12.14,6,13c0,0.59,0.26,1.12,0.68,1.49  C6.26,14.85,6,15.39,6,15.99z M25,7h3v8h-3V7z M10.62,13.99H8c-0.55,0-1-0.44-1-0.99s0.45-1.01,1-1.01h2.62c0.5,0,0.5-1,0-1H9  c-0.55,0-1-0.45-1-1c0-0.561,0.45-1,1-1h2.62c0.5,0,0.5-1,0-1h-2C9.6,7.99,9,7.98,9,6.99c0-0.561,1.06-0.91,1.6-1c3-0.5,4.4-1,7.9-1  s5.5,2,5.5,2V15c0,0-0.51,0.98-2.5,3.99c-2.439,3.68-2.5,1.01-4.811,7.33c-0.14,0.39-0.399,0.74-0.869,0.709  C15.35,27,14.99,26.63,15,26.21c0.07-2.75,1.3-4.88,1.88-7.16c0.28-1.13-0.09-2.06-1.82-2.06H8c-0.55,0-1-0.45-1-1  c0-0.561,0.45-1,1-1h2.62C11.12,14.99,11.12,13.99,10.62,13.99z"/>
</svg>
