<?xml version="1.0"?>
<svg xmlns="http://www.w3.org/2000/svg" xmlns:xlink="http://www.w3.org/1999/xlink" version="1.1" id="266148730_Outlined_2__grid" x="0px" y="0px" width="32px" height="32px" viewBox="0 0 32 32" style="enable-background:new 0 0 32 32;" xml:space="preserve">
<path id="266148730_shock_x5F_color_grid" class="stshockcolor" style="fill:#67DDE0;" d="M28.37,7.57l-0.45,1.09c-0.64,1.57-1.72,4.19-1.84,4.46  c-0.47,1.11-0.79,3.24-1.08,5.11c-0.12,0.829-0.25,1.619-0.37,2.27c-0.689,3.58-2.25,4.84-2.32,4.89l-0.14,0.11h0.33v3h-9v-3h0.92  l-0.08-0.03c-0.07-0.02-1.59-0.55-4.62-2.55c-2.13-1.41-2.51-2.46-3.05-3.91c-0.44-1.21-1-2.71-2.78-5.13  c-0.59-0.77-0.43-1.36-0.2-1.72c0.25-0.39,0.69-0.64,1.16-0.64c0.22,0,0.44,0.06,0.63,0.17c1.31,0.78,2.19,2.2,2.96,3.44  c0.67,1.08,1.29,2.09,1.98,2.311c0.1,0.04,0.2,0.06,0.3,0.06c0.7,0,0.78-1.05,0.78-1.5V4c0-0.83,0.67-1.5,1.5-1.5s1.5,0.67,1.5,1.5  v7.22c0,0.28,0.42,0.28,0.42,0.28c0.16,0,0.25-0.06,0.26-0.08c0.41-2.59,0.74-4.78,0.98-6.33c0.189-1.29,0.32-2.13,0.37-2.38  C16.66,2,17.27,1.48,17.99,1.48c0.09,0,0.18,0.01,0.27,0.03c0.82,0.15,1.37,0.94,1.221,1.75c-0.091,0.46-0.33,2.51-0.57,4.49  c-0.15,1.25-0.3,2.51-0.41,3.39c-0.01,0.08,0,0.14,0.05,0.2c0.07,0.08,0.22,0.14,0.36,0.14c0.18,0,0.29-0.08,0.33-0.22  C19.6,9.8,20.49,7,21.07,5.15c0.25-0.81,0.439-1.41,0.489-1.58c0.171-0.66,0.771-1.12,1.45-1.12c0.12,0,0.25,0.01,0.38,0.05  c0.38,0.1,0.71,0.35,0.91,0.69c0.2,0.35,0.26,0.75,0.15,1.14c-0.08,0.33-0.48,1.83-0.91,3.41c-0.51,1.9-1.08,4.05-1.14,4.31  c-0.011,0.04-0.011,0.08,0.029,0.13c0.101,0.12,0.34,0.21,0.54,0.21c0.13,0,0.181-0.03,0.19-0.04c0.22-0.56,2.229-5.44,2.42-5.9  c0.229-0.57,0.78-0.93,1.39-0.93c0.19,0,0.38,0.03,0.561,0.11C28.29,5.93,28.67,6.8,28.37,7.57z"/>
<path style="opacity:0.4;fill:#FFFFFF;" d="M14.417,25.5l-0.079-0.027c-0.063-0.021-1.586-0.553-4.614-2.556  c-2.129-1.406-2.516-2.454-3.051-3.906c-0.445-1.207-0.999-2.711-2.786-5.134c-0.589-0.77-0.431-1.357-0.194-1.714  c0.248-0.397,0.683-0.642,1.154-0.642c0.221,0,0.439,0.057,0.628,0.165c1.315,0.785,2.191,2.201,2.965,3.449  c0.665,1.074,1.292,2.087,1.974,2.31c0.108,0.037,0.208,0.055,0.302,0.055c0.707,0,0.783-1.048,0.783-1.499V4  c0-0.827,0.673-1.5,1.5-1.5s1.5,0.673,1.5,1.5v7.22c0,0.278,0.418,0.281,0.422,0.281c0.159,0,0.25-0.057,0.254-0.081  c0.409-2.591,0.744-4.784,0.98-6.329c0.197-1.293,0.326-2.136,0.371-2.383c0.133-0.71,0.747-1.226,1.462-1.226  c0.09,0,0.181,0.008,0.271,0.025c0.821,0.152,1.369,0.938,1.222,1.751c-0.091,0.459-0.336,2.51-0.573,4.493  c-0.149,1.252-0.299,2.505-0.413,3.392c-0.011,0.081,0.005,0.139,0.051,0.191c0.075,0.085,0.221,0.143,0.362,0.143  c0.179,0,0.288-0.075,0.326-0.222c0.367-1.456,1.25-4.256,1.833-6.11c0.256-0.811,0.445-1.41,0.488-1.574  c0.175-0.663,0.771-1.125,1.452-1.125c0.126,0,0.253,0.016,0.377,0.048c0.388,0.103,0.711,0.35,0.913,0.696  c0.201,0.347,0.257,0.75,0.154,1.136c-0.083,0.334-0.484,1.827-0.911,3.416c-0.509,1.896-1.086,4.045-1.144,4.305  c-0.009,0.041-0.007,0.077,0.035,0.127c0.1,0.123,0.332,0.216,0.54,0.216c0.122,0,0.18-0.032,0.188-0.041  c0.223-0.566,2.226-5.443,2.416-5.903c0.233-0.566,0.778-0.933,1.388-0.933c0.193,0,0.384,0.038,0.564,0.112  c0.759,0.298,1.138,1.172,0.836,1.944L27.919,8.66c-0.644,1.567-1.721,4.191-1.842,4.463c-0.469,1.109-0.792,3.235-1.076,5.111  c-0.126,0.83-0.246,1.618-0.37,2.27c-0.687,3.573-2.256,4.838-2.322,4.89L22.173,25.5H14.417z"/>
<path style="fill:#4D5152;" d="M27.72,5.16c-0.239-0.1-0.489-0.15-0.75-0.15c-0.819,0-1.55,0.5-1.859,1.26  c-0.08,0.21-1.7,4.17-1.971,4.82c0.95-3.19,1.69-6.19,1.801-6.64C25.08,3.93,25,3.4,24.73,2.94C24.46,2.48,24.02,2.15,23.51,2.01  C23.34,1.97,23.17,1.95,23,1.95c-0.91,0-1.7,0.62-1.93,1.5c-0.061,0.23-1.311,4.09-1.95,6.49c0.38-2.43,0.77-6.16,0.85-6.59  c0.2-1.08-0.52-2.13-1.609-2.33C18.26,1,18.17,0.99,18.08,0.98c-0.98-0.04-1.91,0.65-2.04,1.64c-0.6,4.35-0.98,6.85-1.04,7.47V4  c0-1.1-0.89-2-2-2c-1.1,0-2,0.9-2,2v12c0,0.62-0.15,1-0.29,1l-0.14-0.03c-0.44-0.14-1.48-1.52-1.97-2.35  c-0.65-1.13-1.47-2.53-2.86-3.36c-0.34-0.2-0.73-0.28-1.12-0.23c-0.55,0.08-1.04,0.39-1.35,0.86c-0.26,0.4-0.57,1.22,0.21,2.28  c1.65,2.24,2.2,3.64,2.64,4.771c0.67,1.68,1.03,2.88,3.33,4.399c1.58,1.04,2.77,1.7,3.55,2.09V29h10v-3.56  c0.51-0.54,1.56-1.94,2.12-4.841l0.13-0.68c0.36-1.93,0.74-5.29,1.29-6.61c0.16-0.36,2.08-5.04,2.28-5.55  C29.24,6.74,28.74,5.57,27.72,5.16z M22,28h-8v-2h8V28z M27.9,7.39c-0.19,0.46-2.12,5.17-2.28,5.53c-0.71,1.68-1.07,5.34-1.48,7.49  C23.48,23.84,22,25,22,25h-7.5c0,0-1.49-0.51-4.5-2.5c-3.68-2.43-1.72-3.51-5.71-8.92c-0.26-0.34-0.44-0.75-0.18-1.14  c0.25-0.4,0.75-0.53,1.12-0.32c2.36,1.41,3.29,5.229,5.03,5.8C11.12,18.21,12,17.73,12,16V4c0-0.55,0.45-1,1-1c0.56,0,1,0.45,1,1  v7.22c0,0.94,1.55,1.03,1.67,0.28c0.75-4.75,1.25-8.16,1.35-8.7c0.101-0.54,0.61-0.9,1.15-0.8s0.92,0.62,0.82,1.17  C18.84,3.93,18.3,8.76,18,11.08c-0.13,0.97,1.47,1.28,1.72,0.3c0.53-2.1,2.181-7.15,2.32-7.68c0.14-0.53,0.68-0.86,1.22-0.72  c0.53,0.14,0.851,0.69,0.71,1.22c-0.189,0.76-1.95,7.25-2.06,7.74c-0.19,0.89,1.43,1.29,1.71,0.61c0.229-0.58,2.229-5.45,2.42-5.91  c0.21-0.51,0.79-0.76,1.3-0.55C27.85,6.29,28.1,6.88,27.9,7.39z"/>
</svg>
