<?xml version="1.0"?>
<svg xmlns="http://www.w3.org/2000/svg" xmlns:xlink="http://www.w3.org/1999/xlink" version="1.1" id="266247389_icon_grid" x="0px" y="0px" width="32px" height="32px" viewBox="0 0 32 32" style="enable-background:new 0 0 32 32;" xml:space="preserve">
<path id="266247389_shock_x5F_color_grid" class="stshockcolor" style="fill:#75EA9C;" d="M30.5,9.5v10h-2l-1.31,0.66l-0.261-0.29c-0.05-0.061-0.09-0.101-0.149-0.14  l-2.32-1.921c-0.36-0.3-0.81-0.46-1.27-0.46c-0.601,0-1.16,0.261-1.551,0.721c-0.37,0.449-0.529,1.05-0.42,1.63l0.11,0.59h-0.6  l-0.25,0.01c-0.37,0.04-0.761,0.25-1.03,0.57c-0.26,0.33-0.391,0.74-0.351,1.16L19.15,22.6h-0.58c-0.54,0-0.971,0.19-1.271,0.521  c-0.29,0.34-0.43,0.77-0.38,1.22l0.061,0.59l-0.7-0.05c-0.45,0-0.85,0.18-1.17,0.51c-0.12,0.141-0.21,0.271-0.27,0.41l-0.06,0.12  L14.67,26c-0.24,0.17-0.63,0.4-0.97,0.61l-0.37,0.22c-0.15,0.09-0.27,0.17-0.35,0.22c-0.21,0.15-0.76,0.45-1.35,0.45  c-0.45,0-0.84-0.18-1.13-0.51c-0.39-0.45-0.58-0.931-0.54-1.391c0.05-0.5,0.37-0.88,0.55-1.06c-0.24,0.16-0.47,0.32-0.66,0.47  c-0.01,0.021-0.66,0.44-1.36,0.44c-0.45,0-0.84-0.17-1.13-0.5c-0.4-0.47-0.58-0.94-0.54-1.4c0.07-0.66,0.59-1.09,0.65-1.13  l0.05-0.07L7.6,22.28c-0.1,0.08-0.2,0.149-0.29,0.21l-0.13,0.09H7.15c-0.32,0.17-0.75,0.35-1.21,0.35c-0.45,0-0.84-0.18-1.13-0.5  C4.42,21.95,4.24,21.49,4.28,21.03c0.06-0.57,0.45-0.99,0.65-1.141l12.05-9.38l0.31,0.28c1.03,0.92,2.49,1.57,3.57,1.59  c0.51,0,0.89-0.13,1.13-0.38c1.05-1.04,0.67-1.9-0.641-3.56L22,7.7l3,1.8H30.5z"/>
<path style="fill:#67DDE0;" d="M24.02,22.68c0.32,0.261,0.521,0.641,0.57,1.061c0.03,0.45-0.1,0.84-0.37,1.17  c-0.26,0.33-0.66,0.53-1.08,0.56c-0.04,0-0.09,0.011-0.14,0.011c-0.36,0-0.7-0.12-0.99-0.341l-0.42-0.359  c0.32,0.31,0.5,0.689,0.53,1.1c0.01,0.44-0.13,0.851-0.41,1.16c-0.28,0.3-0.66,0.49-1.08,0.52h-0.08c-0.41,0-0.78-0.14-1.08-0.409  L18.61,26.4c0.319,0.31,0.5,0.699,0.51,1.109c0.01,0.431-0.14,0.83-0.44,1.141c-0.27,0.31-0.66,0.479-1.09,0.5h-0.04  c-0.46-0.021-0.83-0.17-1.12-0.46L15.2,27.64c-0.32-0.31-0.5-0.699-0.51-1.13c-0.02-0.42,0.14-0.819,0.43-1.13  c0.28-0.31,0.7-0.49,1.149-0.49c0.41,0,0.881,0.2,1.171,0.48c-0.65-0.59-0.71-1.59-0.131-2.24c0.29-0.34,0.721-0.53,1.181-0.53  c0.38,0,0.75,0.141,1.05,0.391l0.09,0.08c-0.3-0.261-0.5-0.641-0.53-1.051c-0.04-0.409,0.08-0.819,0.351-1.149  c0.27-0.33,0.649-0.521,1.08-0.57c0.06-0.01,0.1-0.01,0.149-0.01c0.33,0,0.65,0.11,0.931,0.31l-0.101-0.09V20.44  c-0.47-0.721-0.43-1.7,0.141-2.37c0.38-0.46,0.939-0.73,1.529-0.73c0.471,0,0.92,0.17,1.28,0.47l2.31,1.9  c0.41,0.35,0.671,0.83,0.721,1.37c0.05,0.53-0.12,1.05-0.46,1.45c-0.34,0.41-0.82,0.66-1.351,0.72c-0.069,0-0.13,0.01-0.199,0.01  c-0.461,0-0.9-0.16-1.261-0.47l-0.538-0.397L24.02,22.68z M4.4,20.398l0.354-0.355c0.07-0.07,0.128-0.119,0.183-0.158l12.06-9.38  c0.975,1.029,2.672,1.853,3.895,1.875c0.269-0.011,0.77-0.033,1.114-0.378c1.212-1.227,0.392-2.252-1.093-4.109l-0.556-0.707  c-0.168-0.207-0.343-0.432-0.528-0.67l-0.233-0.301l-0.022-0.021C19.069,5.546,17.887,5.5,16,5.5h-3c-1.943,0-5.794,3.789-6.006,4  H1.49v10h2.013L4.4,20.398z"/>
<path style="fill:#4D5152;" d="M25.14,9L19.99,5.91C19.98,5.9,19.98,5.9,19.97,5.89C19.33,5.06,18.05,5,16,5h-3  c-1.99,0-5.38,3.19-6.21,4h-5.8v11h2.3l0.58,0.58c-0.04,0.12-0.07,0.25-0.08,0.38c-0.07,0.61,0.15,1.21,0.65,1.79  c0.53,0.62,1.25,0.74,1.9,0.64c0,0.03-0.01,0.061-0.01,0.101C6.26,24.1,6.48,24.7,6.98,25.27c0.69,0.811,1.71,0.771,2.48,0.49  c0.01,0.53,0.23,1.05,0.66,1.561c0.93,1.069,2.43,0.649,3.16,0.14c0.12-0.08,0.38-0.25,0.67-0.42c0.1-0.06,0.19-0.11,0.28-0.17  c0.08,0.42,0.29,0.82,0.63,1.13l1.25,1.09c0.39,0.36,0.89,0.561,1.42,0.561H17.6c0.561-0.021,1.07-0.25,1.45-0.65  c0.311-0.33,0.5-0.73,0.55-1.16c0.32,0.16,0.69,0.23,1.061,0.21c0.55-0.03,1.06-0.27,1.43-0.689c0.351-0.391,0.54-0.891,0.53-1.42  c0.189,0.04,0.38,0.05,0.58,0.029c0.56-0.05,1.06-0.319,1.41-0.739c0.35-0.431,0.52-0.961,0.47-1.511c0.21,0.04,0.43,0.04,0.65,0.03  c0.659-0.07,1.26-0.38,1.689-0.9c0.59-0.71,0.72-1.649,0.42-2.46L28.62,20H31V9H25.14z M4.4,19.69L3.71,19H1.99v-9h5.22l0.14-0.15  C8.84,8.36,11.7,6,13,6h3c1.64,0,2.82,0.04,3.18,0.5c0.021,0.03,0.04,0.05,0.061,0.08c0.01,0.01,0.02,0.02,0.029,0.03  c0.25,0.32,0.48,0.62,0.7,0.89l0.55,0.7c1.671,2.09,1.95,2.62,1.131,3.45c-0.2,0.2-0.551,0.22-0.78,0.23  c-1.061-0.02-2.63-0.79-3.51-1.72L17.05,9.83L4.63,19.49C4.6,19.51,4.51,19.58,4.4,19.69z M18.32,28.31  c-0.19,0.21-0.46,0.33-0.75,0.341C17.27,28.64,17,28.56,16.78,28.34l-1.25-1.08c-0.44-0.41-0.46-1.1-0.05-1.529  c0.21-0.23,0.5-0.341,0.79-0.341c0.271,0,0.53,0.091,0.74,0.29l1.271,1.101c0.21,0.2,0.33,0.47,0.34,0.75  C18.63,27.82,18.52,28.1,18.32,28.31z M21.34,26.7c-0.189,0.21-0.45,0.34-0.74,0.359c-0.3,0.011-0.569-0.079-0.79-0.279l-2.04-1.79  c-0.449-0.4-0.489-1.08-0.09-1.53c0.21-0.24,0.511-0.36,0.811-0.36c0.25,0,0.51,0.091,0.72,0.271l2.05,1.79  c0.21,0.2,0.34,0.46,0.36,0.75C21.63,26.2,21.54,26.48,21.34,26.7z M23.84,24.59c-0.18,0.22-0.439,0.36-0.729,0.38  c-0.301,0.03-0.57-0.06-0.79-0.229l-2.34-2.03c-0.221-0.18-0.36-0.44-0.381-0.729c-0.029-0.29,0.061-0.57,0.24-0.79  c0.19-0.23,0.45-0.36,0.74-0.391c0.03,0,0.06-0.01,0.1-0.01c0.221,0,0.44,0.07,0.63,0.21c0.08,0.09,0.181,0.18,0.28,0.27l2.11,1.79  c0.22,0.181,0.359,0.44,0.39,0.73C24.11,24.08,24.03,24.36,23.84,24.59z M26.65,22.21c-0.261,0.31-0.62,0.5-1.021,0.54  c-0.399,0.04-0.78-0.08-1.09-0.34l-1.35-1.11l-1.181-1.02V20.27H22c-0.42-0.539-0.43-1.329,0.03-1.88  c0.529-0.64,1.47-0.729,2.109-0.199L26.45,20.1C27.09,20.63,27.18,21.58,26.65,22.21z M30,19h-1.62l-1.07,0.54  c-0.069-0.08-0.14-0.14-0.22-0.21l-2.31-1.91c-1.061-0.88-2.641-0.729-3.521,0.33c-0.49,0.59-0.66,1.34-0.529,2.04  c-0.08,0-0.171,0.01-0.25,0.01c-0.551,0.061-1.051,0.32-1.41,0.75C18.72,20.98,18.55,21.52,18.6,22.07V22.1  c-0.6-0.029-1.229,0.2-1.67,0.69c-0.399,0.46-0.569,1.04-0.51,1.6c-0.62-0.04-1.22,0.181-1.67,0.65c-0.15,0.17-0.28,0.35-0.37,0.55  c-0.23,0.16-0.61,0.391-0.94,0.59c-0.32,0.2-0.61,0.37-0.74,0.46c-0.01,0.011-1.17,0.78-1.82,0.021c-0.31-0.351-0.45-0.7-0.42-1.01  c0.05-0.471,0.45-0.79,0.46-0.801c0.01-0.01,0.03-0.02,0.04-0.029c1.78-1.34,4.24-3.33,4.36-3.431c0.21-0.18,0.24-0.489,0.07-0.71  c-0.18-0.21-0.49-0.239-0.71-0.069c-0.03,0.029-3.42,2.79-5.12,3.989C9.55,24.61,8.39,25.37,7.74,24.62  c-0.31-0.36-0.45-0.7-0.42-1.021c0.05-0.47,0.46-0.79,0.46-0.79c0.05-0.04,0.09-0.09,0.12-0.13c1.78-1.3,4.74-3.71,4.87-3.81  c0.22-0.18,0.25-0.49,0.07-0.71c-0.17-0.21-0.48-0.24-0.7-0.07c-0.03,0.03-3.43,2.79-5.12,3.99c-0.01,0-1.18,0.77-1.83,0.02  c-0.3-0.359-0.44-0.699-0.41-1.02c0.05-0.47,0.44-0.79,0.46-0.8l11.72-9.12c1.09,0.98,2.68,1.7,3.89,1.72  c0.61,0.01,1.15-0.17,1.5-0.53C23.74,10.97,23,9.73,21.74,8.13L24.86,10H30V19z"/>
</svg>
