<?xml version="1.0"?>
<svg xmlns="http://www.w3.org/2000/svg" xmlns:xlink="http://www.w3.org/1999/xlink" version="1.1" id="266148733_Outlined_2__grid" x="0px" y="0px" width="32px" height="32px" viewBox="0 0 32 32" style="enable-background:new 0 0 32 32;" xml:space="preserve">
<path id="266148733_shock_x5F_color_grid" class="stshockcolor" style="fill:#67DDE0;" d="M29.45,16.958c-0.196-0.831-0.885-1.458-1.601-1.458  c-0.859,0-1.905,0.44-3.117,0.95c-1.811,0.762-3.969,1.608-5.589,1.07c-1.998-0.669-2.746-0.919-3.267-2.552  c-0.068-0.213-0.048-0.291-0.05-0.291c0.159-0.178,1.266-0.178,2.073-0.178H18c2.996,0,4.5,0,4.5-2s-3.179-2-5.5-2  c-0.921,0-1.862-0.306-2.859-0.629c-1.027-0.333-2.089-0.678-3.168-0.678c-1.261,0-2.349,0.475-3.327,1.453  C6.793,11.5,6.46,11.5,6,11.5H2.5v8h4.419c0.947,0.313,9.15,3,12.081,3c2.967,0,5.438-1.235,8.567-2.8l0.506-0.253  C29.173,18.897,29.688,17.967,29.45,16.958z"/>
<path style="opacity:0.4;fill:#FFFFFF;" d="M29.45,16.958c-0.196-0.831-0.885-1.458-1.601-1.458c-0.859,0-1.905,0.44-3.117,0.95  c-1.811,0.762-3.969,1.608-5.589,1.07c-1.998-0.669-2.746-0.919-3.267-2.552c-0.068-0.213-0.048-0.291-0.05-0.291  c0.159-0.178,1.266-0.178,2.073-0.178H18c2.996,0,4.5,0,4.5-2s-3.179-2-5.5-2c-0.921,0-1.862-0.306-2.859-0.629  c-1.027-0.333-2.089-0.678-3.168-0.678c-1.261,0-2.349,0.475-3.327,1.453C6.793,11.5,6.46,11.5,6,11.5H5.5v8h1.419  c0.947,0.313,9.15,3,12.081,3c2.967,0,5.438-1.235,8.567-2.8l0.506-0.253C29.173,18.897,29.688,17.967,29.45,16.958z"/>
<path style="fill-rule:evenodd;clip-rule:evenodd;fill:#4D5152;" d="M29.937,16.843C29.685,15.775,28.807,15,27.85,15  c-0.96,0-2.049,0.458-3.311,0.989c-1.353,0.569-2.887,1.215-4.209,1.215c-0.374,0-0.705-0.05-1.014-0.152  c-1.879-0.63-2.457-0.823-2.89-2.016C16.806,15,17.396,15,17.899,15H18c3.011,0,5,0,5-2.5S19.39,10,17,10  c-0.842,0-1.747-0.293-2.705-0.604c-1.064-0.345-2.164-0.702-3.322-0.702c-1.4,0-2.604,0.523-3.68,1.6C6.586,11,6.378,11,6,11H3H2v1  v7v1h1h3.839c1.254,0.413,9.222,3,12.161,3c3.085,0,5.603-1.259,8.791-2.853l0.505-0.253C29.854,19.116,30.164,17.808,29.937,16.843  z M3,19v-7h2v7H3z M27.85,19C24.46,20.69,22,22,19,22S7,19,7,19H6v-7c0.52,0,1,0,2-1c0.98-0.98,1.973-1.307,2.973-1.307  C12.973,9.693,15,11,17,11s5,0,5,1.5S21,14,18,14h-0.101c-1.932,0-2.854,0.009-2.5,1.12C16,17,16.97,17.32,19,18  c0.429,0.143,0.875,0.204,1.33,0.204c2.732,0,5.805-2.204,7.52-2.204C28.85,16,29.85,18,27.85,19z"/>
</svg>
