<?xml version="1.0"?>
<svg xmlns="http://www.w3.org/2000/svg" xmlns:xlink="http://www.w3.org/1999/xlink" version="1.1" id="266148738_Outlined_2__grid" x="0px" y="0px" width="32px" height="32px" viewBox="0 0 32 32" style="enable-background:new 0 0 32 32;" xml:space="preserve">
<polygon id="266148738_shock_x5F_color_grid" class="stshockcolor" style="fill:#FFE4A9;" points="9.5,5.5 9.5,11.5 9.5,11.5 7.5,20.5 7.5,26.5 22.5,26.5 22.5,20.5   24.5,11.5 24.5,5.5 "/>
<path style="opacity:0.2;fill:#4D5152;" d="M7.5,26.5v-6h15v6H7.5z M24.5,11.5v-6h-15v6H24.5z"/>
<path style="fill:#AAAAAA;" d="M7,20.5h0.5v6.017L6.984,26.5C6.055,26.47,5.5,25.909,5.5,25v-2.988C5.524,21.061,6.084,20.5,7,20.5z   M7.5,7.012V10c0,0.91,0.555,1.47,1.484,1.5L9.5,11.516V5.5H9C8.084,5.5,7.524,6.061,7.5,7.012z M23,20.5h-0.5v6.013l0.513-0.013  c0.918-0.024,1.487-0.599,1.487-1.5v-3.013C24.476,21.069,23.901,20.5,23,20.5z M25,5.5h-0.5v6.013l0.513-0.013  c0.918-0.024,1.487-0.599,1.487-1.5V6.987C26.476,6.07,25.901,5.5,25,5.5z"/>
<path style="fill:#4D5152;" d="M27,8c0-0.66,0-1,0-1s0-2-2-2H9C7,5,7,7,7,7s0,0.34,0,1H6v1h1v1c0,1.71,1.46,1.96,1.88,1.99L7.1,20H7  c-2,0-2,2-2,2s0,0.34,0,1H4v1h1v1c0,2,2,2,2,2h16c0,0,2,0,2-2v-1h1v-1h-1c0-0.66,0-1,0-1s-0.01-1.9-1.88-1.98L24.9,12H25  c0,0,2,0,2-2V9h1V8H27z M7,26c-0.46-0.01-1-0.2-1-1v-2.99C6.01,21.55,6.19,21,7,21V26z M8,10V7.01C8.01,6.55,8.19,6,9,6v5  C8.54,10.99,8,10.8,8,10z M22,26H8v-5h14V26z M24,22v3c0,0.81-0.55,0.99-1,1v-5C23.81,21,23.99,21.55,24,22z M22.1,20H8.12l1.78-8  h13.98L22.1,20z M24,11H10V6h14V11z M26,10c0,0.81-0.55,0.99-1,1V6c0.81,0,0.99,0.55,1,1V10z"/>
</svg>
