<?xml version="1.0"?>
<svg xmlns="http://www.w3.org/2000/svg" xmlns:xlink="http://www.w3.org/1999/xlink" version="1.1" id="266148737_Outlined_2__grid" x="0px" y="0px" width="32px" height="32px" viewBox="0 0 32 32" style="enable-background:new 0 0 32 32;" xml:space="preserve">
<path id="266148737_shock_x5F_color_grid" class="stshockcolor" style="fill:#ACF0F2;" d="M28,15.5c0,0.17,0,0.34-0.02,0.5c-0.25,6.66-5.761,12-12.48,12  C8.61,28,3,22.39,3,15.5C3,8.78,8.34,3.27,15,3.02C15.16,3,15.33,3,15.5,3C22.39,3,28,8.61,28,15.5z"/>
<path style="fill:#FF61E1;" d="M28,15.5c0,0.17,0,0.34-0.02,0.5H15V3.02C15.16,3,15.33,3,15.5,3C22.39,3,28,8.61,28,15.5z"/>
<path style="fill:#4D5152;" d="M16,15V6h-1v10h8v-1H16z M5.05,8.65c-1.07,1.63-1.77,3.53-1.98,5.56l1,0.11  C4.26,12.44,4.9,10.7,5.88,9.2L5.05,8.65z M4.06,16.68l-0.99,0.11c0.2,2.04,0.91,3.93,1.98,5.56l0.83-0.55  C4.9,20.3,4.25,18.56,4.06,16.68z M28,15.5C28,22.4,22.4,28,15.5,28c-3.45,0-6.57-1.41-8.83-3.67l0.71-0.71  C9.46,25.71,12.32,27,15.5,27C21.85,27,27,21.85,27,15.5C27,9.15,21.85,4,15.5,4c-2,0-3.88,0.52-5.51,1.42  C9.82,5.51,9.66,5.6,9.5,5.7C9.28,5.83,8.66,6.26,8.59,6.32l3.6,0.71L12,8.01L7.09,7.04l0.96-4.9l0.99,0.19L8.48,5.18  C10.48,3.82,12.89,3,15.5,3C22.4,3,28,8.6,28,15.5z"/>
</svg>
