<?xml version="1.0"?>
<svg xmlns="http://www.w3.org/2000/svg" xmlns:xlink="http://www.w3.org/1999/xlink" version="1.1" id="266148739_Outlined_2__grid" x="0px" y="0px" width="32px" height="32px" viewBox="0 0 32 32" style="enable-background:new 0 0 32 32;" xml:space="preserve">
<path id="266148739_shock_x5F_color_grid" class="stshockcolor" style="fill:#FFE4A9;" d="M25.869,9.272l-0.03-0.419c-0.125-1.725-0.481-3.414-1.058-5.021L24.662,3.5  H9.013l0.285,0.691c0.215,0.521,0.367,1.08,0.452,1.662l0.048,0.332L17.061,8L9.374,9.924l-0.085,0.263  c-0.218,0.672-0.501,1.357-0.841,2.037c-1.083,2.166-1.797,4.396-2.122,6.628L6.26,19.299l6.805,1.702l-6.933,1.727l0.03,0.42  c0.124,1.724,0.48,3.413,1.057,5.021L7.338,28.5h15.647L22.7,27.81c-0.387-0.938-0.563-1.976-0.524-3.088l0.014-0.404l-5.243-1.318  l5.854-1.467l0.378-0.978L16.932,19l7.778-1.94l0.088-0.26c0.404-1.208,0.699-2.437,0.877-3.652L25.74,12.7l-6.806-1.701  L25.869,9.272z"/>
<path style="fill:#4D5152;" d="M26.38,9.66C26.31,7.31,25.83,5.07,25,3H8c0,0,1.19,1.19,1.32,3.58L15,8L8.97,9.51  C8.76,10.27,8.45,11.1,8,12c-1.29,2.58-2.03,5.18-2.28,7.68L11,21l-5.38,1.34C5.69,24.69,6.17,26.93,7,29h17  c0,0-1.69-1.69-1.26-5.06L19,23l4.19-1.05c0.18-0.54,0.409-1.12,0.71-1.73L19,19l6.09-1.52c0.63-1.74,1.021-3.471,1.19-5.161L21,11  L26.38,9.66z M25.18,13.076c-0.174,1.189-0.461,2.383-0.856,3.565l-5.565,1.389l-3.893,0.972l3.894,0.97l3.748,0.933l-0.08,0.207  l-3.67,0.92l-3.865,0.968l3.864,0.972l2.92,0.734c-0.048,1.382,0.227,2.482,0.563,3.296H7.69c-0.563-1.569-0.908-3.208-1.029-4.889  l4.581-1.141l3.888-0.969l-3.887-0.972L6.82,18.924c0.317-2.181,1.013-4.355,2.074-6.477c0.351-0.702,0.642-1.407,0.869-2.105  l5.479-1.372l3.877-0.971L15.243,7.03l-4.999-1.25C10.143,5.083,9.962,4.49,9.76,4h14.551c0.563,1.568,0.907,3.207,1.029,4.889  l-4.581,1.141l-3.89,0.968l3.889,0.972L25.18,13.076z"/>
</svg>
