<?xml version="1.0"?>
<svg xmlns="http://www.w3.org/2000/svg" xmlns:xlink="http://www.w3.org/1999/xlink" version="1.1" id="266148741_Outlined_2__grid" x="0px" y="0px" width="32px" height="32px" viewBox="0 0 32 32" style="enable-background:new 0 0 32 32;" xml:space="preserve">
<path style="fill:#ACF0F2;" d="M23.5,28.5h-15V28c0-5.63,2.2-7.69,5.25-10.53c0.26-0.239,0.52-0.5,0.79-0.75l0.37-0.359  c0.1-0.091,0.16-0.221,0.16-0.36c0-0.14-0.06-0.27-0.16-0.36l-1.16-1.1C11.09,12.06,9.08,10.17,8.61,6h14.78  c-0.47,4.18-2.489,6.05-5.149,8.54c-0.391,0.35-0.771,0.72-1.16,1.09c-0.1,0.09-0.16,0.22-0.16,0.36c0,0.14,0.061,0.27,0.16,0.359  l0.38,0.37c0.26,0.25,0.521,0.5,0.78,0.74c3.05,2.85,5.26,4.91,5.26,10.54C23.5,28.28,23.52,28.5,23.5,28.5z"/>
<path style="fill:#67DDE0;" d="M23.5,3.5c0,0,0,0.22,0,0.5c0,0.72-0.04,1.38-0.11,2H8.61C8.54,5.39,8.5,4.72,8.5,4  c0-0.28,0.02-0.48,0-0.5H23.5z"/>
<path id="266148741_shock_x5F_color_grid" class="stshockcolor" style="fill:#FF80ED;" d="M23.5,28c0,0.28-0.22,0.5-0.5,0.5H9c-0.28,0-0.5-0.22-0.5-0.5  c0-0.54,0.03-1.09,0.09-1.77C8.6,26.15,8.63,26.07,8.67,26c0.05-0.06,0.11-0.12,0.18-0.16l6.93-3.85  c0.07-0.04,0.16-0.061,0.24-0.061c0.08,0,0.171,0.021,0.24,0.061l6.891,3.819c0.08,0.04,0.149,0.11,0.189,0.19  c0.04,0.06,0.061,0.13,0.07,0.21C23.45,26.71,23.5,27.31,23.5,28z M21.96,9.67c-0.1-0.1-0.229-0.15-0.36-0.15  c-0.08,0-0.17,0.02-0.239,0.06l-5.341,2.97l-5.399-3c-0.07-0.04-0.16-0.06-0.24-0.06c-0.13,0-0.26,0.05-0.36,0.15  c-0.15,0.16-0.19,0.41-0.07,0.6c0.94,1.62,2.28,2.88,3.84,4.34c0.47,0.44,0.98,0.91,1.5,1.42h1.4c0.529-0.52,1.05-1,1.529-1.45  c1.54-1.44,2.87-2.67,3.811-4.28C22.14,10.08,22.12,9.83,21.96,9.67z"/>
<path style="fill:#4D5152;" d="M24,4h1V3H7v1h1c0,5.85,2.39,8.08,5.41,10.9c0.37,0.35,0.76,0.72,1.16,1.1  c-0.4,0.38-0.78,0.75-1.16,1.1C10.39,19.92,8,22.15,8,28H7v1h18v-1h-1c0-5.85-2.39-8.08-5.42-10.91c-0.38-0.35-0.76-0.72-1.16-1.1  c0.39-0.37,0.771-0.73,1.15-1.08C21.6,12.09,24,9.86,24,4z M9,4h14c0,1.84-0.25,3.27-0.68,4.48l-6.301,3.49L9.67,8.45  C9.24,7.25,9,5.82,9,4z M23,28H9c0-0.62,0.04-1.19,0.09-1.72l6.93-3.851l6.891,3.82C22.96,26.8,23,27.37,23,28z M22.73,25.01  L16.02,21.28l-6.75,3.76c0.81-4.13,3.42-5.73,6.73-9.04C19.3,19.3,21.91,20.91,22.73,25.01z M15.99,15.99  c-2.36-2.35-4.36-3.85-5.61-6l5.64,3.13l5.58-3.1C20.34,12.16,18.34,13.65,15.99,15.99z"/>
</svg>
