<?xml version="1.0"?>
<svg xmlns="http://www.w3.org/2000/svg" xmlns:xlink="http://www.w3.org/1999/xlink" version="1.1" id="266148743_Outlined_2__grid" x="0px" y="0px" width="32px" height="32px" viewBox="0 0 32 32" style="enable-background:new 0 0 32 32;" xml:space="preserve">
<path style="fill:#ACF0F2;" d="M23.5,28.5h-15V28c0-5.63,2.2-7.69,5.25-10.53c0.26-0.239,0.52-0.5,0.79-0.75l0.37-0.359  c0.1-0.091,0.16-0.221,0.16-0.36c0-0.14-0.06-0.27-0.16-0.36l-1.16-1.1C11.09,12.06,9.08,10.17,8.61,6h14.78  c-0.47,4.18-2.489,6.05-5.149,8.54c-0.391,0.35-0.771,0.72-1.16,1.09c-0.1,0.09-0.16,0.22-0.16,0.36c0,0.14,0.061,0.27,0.16,0.359  l0.38,0.37c0.26,0.25,0.521,0.5,0.78,0.74c3.05,2.85,5.26,4.91,5.26,10.54C23.5,28.28,23.52,28.5,23.5,28.5z"/>
<path style="fill:#67DDE0;" d="M23.5,3.5c0,0,0,0.22,0,0.5c0,0.72-0.04,1.38-0.11,2H8.61C8.54,5.39,8.5,4.72,8.5,4  c0-0.28,0.02-0.48,0-0.5H23.5z"/>
<path id="266148743_shock_x5F_color_grid" class="stshockcolor" style="fill:#FF80ED;" d="M9,28.5c-0.276,0-0.5-0.224-0.5-0.5c0-2.506,0.446-4.466,1.404-6.165  c0.045-0.081,0.112-0.147,0.193-0.192l5.68-3.15c0.076-0.042,0.159-0.063,0.243-0.063c0.084,0,0.167,0.021,0.242,0.063l5.61,3.11  c0.079,0.044,0.145,0.108,0.19,0.187c0.98,1.69,1.438,3.664,1.438,6.211c0,0.276-0.224,0.5-0.5,0.5H9z"/>
<path style="fill:#4D5152;" d="M24,4h1V3H7v1h1c0,5.85,2.39,8.08,5.41,10.9c0.37,0.35,0.76,0.72,1.16,1.1  c-0.4,0.38-0.78,0.75-1.16,1.1C10.39,19.92,8,22.15,8,28H7v1h18v-1h-1c0-5.85-2.39-8.08-5.42-10.91c-0.38-0.35-0.76-0.72-1.16-1.1  c0.39-0.37,0.771-0.73,1.15-1.08C21.6,12.09,24,9.86,24,4z M23,28H9c0-2.63,0.5-4.43,1.34-5.92l5.68-3.15l5.61,3.11  C22.5,23.54,23,25.35,23,28z M20.21,20.11l-4.19-2.33l-4.27,2.38C12.91,18.85,14.37,17.63,16,16  C17.61,17.61,19.06,18.82,20.21,20.11z M15.99,15.99c-2-1.99-3.75-3.37-4.99-5.06C9.75,9.24,9,7.24,9,4h14  C23,10.5,20,12,15.99,15.99z"/>
</svg>
