<?xml version="1.0"?>
<svg xmlns="http://www.w3.org/2000/svg" xmlns:xlink="http://www.w3.org/1999/xlink" version="1.1" x="0px" y="0px" width="32" height="32" viewBox="0 0 32 32" style="enable-background:new 0 0 32 32;" xml:space="preserve" preserveAspectRatio="none" viewbox="0 0 32 32">
<path style="fill:#ACF0F2;" d="M23.5,28c0,0.28-0.22,0.5-0.5,0.5H9c-0.28,0-0.5-0.22-0.5-0.5c0-0.72,0.04-1.39,0.11-2  c0.47-4.17,2.48-6.06,5.14-8.54c0.6-0.55,1.23-1.15,1.9-1.81c0.09-0.1,0.22-0.15,0.35-0.15s0.26,0.05,0.35,0.15  c0.66,0.65,1.29,1.24,1.891,1.8c2.66,2.49,4.68,4.37,5.149,8.55C23.46,26.62,23.5,27.28,23.5,28z"/>
<path style="fill:#67DDE0;" d="M23.5,28c0,0.28-0.22,0.5-0.5,0.5H9c-0.28,0-0.5-0.22-0.5-0.5c0-0.72,0.04-1.39,0.11-2h14.78  C23.46,26.62,23.5,27.28,23.5,28z M23.438,5.5l0.03-0.468C23.49,4.702,23.5,4.361,23.5,4V3.5h-15V4c0,0.361,0.01,0.702,0.031,1.031  L8.56,5.5H23.438z"/>
<path id="266148742_shock_x5F_color_focus_grid" class="stshockcolor" style="fill:#FF80ED;" d="M15.128,16c0.139-0.636-0.919-1.035-1.353-1.441  c-1-0.937-1.943-1.821-2.721-2.76c-1.419-1.703-2.169-3.474-2.431-5.741L8.559,5.5h14.883l-0.065,0.558  c-0.486,4.144-2.55,6.067-5.162,8.501c-0.451,0.421-0.777,0.847-1.414,1.44C16.798,16.003,15.125,16.016,15.128,16z"/>
<path style="fill:#4D5152;" d="M24,4h1V3H7v1h1c0,5.85,2.39,8.08,5.41,10.9c0.37,0.35,0.76,0.72,1.16,1.1  c-0.4,0.38-0.78,0.75-1.16,1.1C10.39,19.92,8,22.15,8,28H7v1h18v-1h-1c0-5.85-2.39-8.08-5.42-10.91c-0.38-0.35-0.76-0.72-1.16-1.1  c0.39-0.37,0.771-0.73,1.15-1.08C21.6,12.09,24,9.86,24,4z M9,4h14c0,0.35-0.01,0.68-0.03,1H9.03C9.01,4.68,9,4.35,9,4z M23,28H9  c0-6.5,3-8,7-12C20.01,20,23,21.51,23,28z M15.99,15.99c-1.77-1.77-3.35-3.06-4.55-4.51C10.24,10.04,9.4,8.42,9.12,6h13.76  C22.31,10.86,19.55,12.45,15.99,15.99z"/>
</svg>
