<?xml version="1.0" encoding="UTF-8" standalone="no"?>
<svg
   xmlns:dc="http://purl.org/dc/elements/1.1/"
   xmlns:cc="http://creativecommons.org/ns#"
   xmlns:rdf="http://www.w3.org/1999/02/22-rdf-syntax-ns#"
   xmlns:svg="http://www.w3.org/2000/svg"
   xmlns="http://www.w3.org/2000/svg"
   xmlns:sodipodi="http://sodipodi.sourceforge.net/DTD/sodipodi-0.dtd"
   xmlns:inkscape="http://www.inkscape.org/namespaces/inkscape"
   version="1.1"
   id="266148741_Outlined_2__grid"
   x="0px"
   y="0px"
   width="32px"
   height="32px"
   viewBox="0 0 32 32"
   style="enable-background:new 0 0 32 32;"
   xml:space="preserve"
   sodipodi:docname="hourglass1.svg"
   inkscape:version="1.0.1 (3bc2e813f5, 2020-09-07)"><metadata
   id="metadata14"><rdf:RDF><cc:Work
       rdf:about=""><dc:format>image/svg+xml</dc:format><dc:type
         rdf:resource="http://purl.org/dc/dcmitype/StillImage" /></cc:Work></rdf:RDF></metadata><defs
   id="defs12" /><sodipodi:namedview
   pagecolor="#ffffff"
   bordercolor="#666666"
   borderopacity="1"
   objecttolerance="10"
   gridtolerance="10"
   guidetolerance="10"
   inkscape:pageopacity="0"
   inkscape:pageshadow="2"
   inkscape:window-width="1631"
   inkscape:window-height="957"
   id="namedview10"
   showgrid="false"
   inkscape:zoom="12.96875"
   inkscape:cx="1.1781234"
   inkscape:cy="20.436717"
   inkscape:window-x="0"
   inkscape:window-y="0"
   inkscape:window-maximized="0"
   inkscape:current-layer="266148741_Outlined_2__grid" />
<path
   style="opacity:0.999;fill:#acf0f2"
   d="M 12.464466,30.142136 1.8578644,19.535534 2.2114178,19.181981 c 3.9810111,-3.981012 6.993286,-3.882017 11.1581452,-3.733524 0.352846,0.01485 0.721249,0.01414 1.088944,0.02828 l 0.515481,0.0078 c 0.135057,0.0064 0.269408,-0.04313 0.367696,-0.141421 0.09899,-0.09899 0.148492,-0.233345 0.141421,-0.367696 l -0.04243,-1.598061 C 15.314106,9.742105 15.229254,6.9843885 17.845549,3.7034131 L 28.296587,14.154451 c -3.288047,2.623366 -6.037985,2.518008 -9.679585,2.397799 -0.523966,-0.02899 -1.054296,-0.03606 -1.59099,-0.0495 -0.13435,-0.0071 -0.268701,0.04243 -0.367696,0.141421 -0.09899,0.099 -0.147785,0.234053 -0.140714,0.366989 l 0.0071,0.53033 c 0.0071,0.360624 0.01485,0.721956 0.02829,1.074802 0.141421,4.17193 0.247487,7.191276 -3.733524,11.172287 -0.199404,0.19799 -0.340826,0.367696 -0.354968,0.353554 z"
   id="path2" />
<path
   style="opacity:0.999;fill:#67dde0"
   d="m 30.142136,12.464466 c 0,0 -0.155564,0.155564 -0.353554,0.353553 -0.509117,0.509117 -1.004091,0.947524 -1.491995,1.336432 L 17.845549,3.7034131 C 18.227386,3.2225805 18.672864,2.7205346 19.181981,2.2114178 19.37997,2.0134279 19.535534,1.8861486 19.535534,1.8578644 Z"
   id="path4" />
<path
   id="266148741_shock_x5F_color_grid"
   class="stshockcolor"
   style="opacity:0.999;fill:#ff80ed"
   d="m 12.818019,29.788582 c -0.197989,0.19799 -0.509116,0.19799 -0.707106,0 L 2.2114178,19.889087 c -0.1979899,-0.19799 -0.1979899,-0.509117 0,-0.707106 0.3818376,-0.381838 0.7919596,-0.749534 1.3152186,-1.18794 0.06364,-0.0495 0.1414213,-0.08485 0.2192031,-0.106066 0.077782,-0.0071 0.1626345,-0.0071 0.2404163,0.01414 l 7.6226112,2.177889 c 0.07778,0.02121 0.15627,0.07 0.212839,0.126572 0.05657,0.05657 0.106066,0.135765 0.126572,0.212839 l 2.172232,7.573114 c 0.02828,0.08485 0.02758,0.183141 -7.07e-4,0.267993 -0.01414,0.07071 -0.04879,0.135058 -0.09899,0.19799 -0.325976,0.382545 -0.714885,0.842165 -1.202789,1.330068 z M 24.690342,15.73837 c 0,-0.141421 -0.05586,-0.267993 -0.148492,-0.360624 -0.05657,-0.05657 -0.13435,-0.106066 -0.211425,-0.126572 l -5.876764,-1.67655 -1.69635,-5.9389901 c -0.02121,-0.077782 -0.07071,-0.1555635 -0.127279,-0.212132 -0.09192,-0.091924 -0.219203,-0.1484925 -0.360624,-0.1484925 -0.219203,0.00707 -0.424264,0.1555635 -0.473762,0.3747666 -0.480832,1.8101934 -0.424264,3.648671 -0.353553,5.784133 0.02121,0.643468 0.0495,1.336432 0.05657,2.064752 l 0.98995,0.98995 c 0.741755,0.0064 1.449569,0.03536 2.106471,0.05586 2.107178,0.07071 3.917371,0.141422 5.721201,-0.331633 0.211425,-0.05728 0.374059,-0.248194 0.374059,-0.474469 z" />
<path
   style="opacity:0.999;fill:#4d5152"
   d="M 30.142136,13.171573 30.849242,13.87868 31.556349,13.171573 18.828427,0.44365081 18.12132,1.1507576 18.828427,1.8578644 c -4.136575,4.1365746 -4.023437,7.403408 -3.882016,11.5329116 0.01414,0.509117 0.02828,1.046518 0.04243,1.598061 -0.551543,-0.01414 -1.081873,-0.02121 -1.598061,-0.04243 C 9.2612724,14.80499 5.994439,14.691852 1.8578644,18.828427 L 1.1507576,18.12132 0.44365081,18.828427 13.171573,31.556349 13.87868,30.849242 13.171573,30.142136 c 4.136575,-4.136575 4.023437,-7.403408 3.882016,-11.547054 -0.02121,-0.516188 -0.02828,-1.046518 -0.04243,-1.598061 0.537401,0.01414 1.061367,0.02899 1.576848,0.0495 4.136574,0.148492 7.410479,0.268701 11.554125,-3.874945 z M 19.535534,2.5649712 29.435029,12.464466 c -1.301077,1.301077 -2.489016,2.135463 -3.648671,2.687006 L 18.863075,13.163795 16.86267,6.1853579 C 17.407142,5.0327738 18.2486,3.8519055 19.535534,2.5649712 Z M 12.464466,29.435029 2.5649712,19.535534 C 3.0033774,19.097128 3.4347125,18.722361 3.8448344,18.38295 l 7.6233186,2.177182 2.171525,7.57382 c -0.354968,0.424264 -0.729735,0.8556 -1.175212,1.301077 z M 14.387797,27.129861 12.280618,19.747666 4.8489261,17.633417 C 8.3420336,15.285822 11.318953,16 16,16 c 0,4.666905 0.707107,7.650895 -1.612203,11.129861 z M 16,15.985858 c -0.0071,-3.330473 -0.360624,-5.805347 0.275772,-8.2095099 l 1.774838,6.2013269 6.137687,1.753624 C 21.784133,16.353553 19.316331,15.992929 16,15.985858 Z"
   id="path7" />
</svg>
