<?xml version="1.0" encoding="UTF-8" standalone="no"?>
<svg
   xmlns:dc="http://purl.org/dc/elements/1.1/"
   xmlns:cc="http://creativecommons.org/ns#"
   xmlns:rdf="http://www.w3.org/1999/02/22-rdf-syntax-ns#"
   xmlns:svg="http://www.w3.org/2000/svg"
   xmlns="http://www.w3.org/2000/svg"
   xmlns:sodipodi="http://sodipodi.sourceforge.net/DTD/sodipodi-0.dtd"
   xmlns:inkscape="http://www.inkscape.org/namespaces/inkscape"
   version="1.1"
   id="266148741_Outlined_2__grid"
   x="0px"
   y="0px"
   width="32px"
   height="32px"
   viewBox="0 0 32 32"
   style="enable-background:new 0 0 32 32;"
   xml:space="preserve"
   sodipodi:docname="hourglass3.svg"
   inkscape:version="1.0.1 (3bc2e813f5, 2020-09-07)"><metadata
   id="metadata14"><rdf:RDF><cc:Work
       rdf:about=""><dc:format>image/svg+xml</dc:format><dc:type
         rdf:resource="http://purl.org/dc/dcmitype/StillImage" /></cc:Work></rdf:RDF></metadata><defs
   id="defs12" /><sodipodi:namedview
   pagecolor="#ffffff"
   bordercolor="#666666"
   borderopacity="1"
   objecttolerance="10"
   gridtolerance="10"
   guidetolerance="10"
   inkscape:pageopacity="0"
   inkscape:pageshadow="2"
   inkscape:window-width="1481"
   inkscape:window-height="930"
   id="namedview10"
   showgrid="false"
   inkscape:zoom="12.96875"
   inkscape:cx="12.756188"
   inkscape:cy="19.789173"
   inkscape:window-x="0"
   inkscape:window-y="0"
   inkscape:window-maximized="0"
   inkscape:current-layer="266148741_Outlined_2__grid" />
<path
   style="fill:#acf0f2"
   d="M 1.8578644,12.464466 12.464466,1.8578644 12.818019,2.2114178 c 3.981012,3.9810111 3.882017,6.993286 3.733524,11.1581452 -0.01485,0.352846 -0.01414,0.721249 -0.02828,1.088944 l -0.0078,0.515481 c -0.0064,0.135057 0.04313,0.269408 0.141421,0.367696 0.099,0.09899 0.233345,0.148492 0.367696,0.141421 l 1.598061,-0.04243 c 3.635236,-0.126573 6.392952,-0.211425 9.673928,2.40487 L 17.845549,28.296587 c -2.623366,-3.288047 -2.518008,-6.037985 -2.397799,-9.679585 0.02899,-0.523966 0.03606,-1.054296 0.0495,-1.59099 0.0071,-0.13435 -0.04243,-0.268701 -0.141421,-0.367696 -0.099,-0.09899 -0.234053,-0.147785 -0.366989,-0.140714 l -0.53033,0.0071 c -0.360624,0.0071 -0.721956,0.01485 -1.074802,0.02829 C 9.2117749,16.694379 6.1924289,16.800445 2.2114178,12.819434 2.0134279,12.62003 1.8437222,12.478608 1.8578644,12.464466 Z"
   id="path2" />
<path
   style="fill:#67dde0"
   d="m 19.535534,30.142136 c 0,0 -0.155564,-0.155564 -0.353553,-0.353554 -0.509117,-0.509117 -0.947524,-1.004091 -1.336432,-1.491995 L 28.296587,17.845549 c 0.480833,0.381837 0.982878,0.827315 1.491995,1.336432 0.19799,0.197989 0.325269,0.353553 0.353554,0.353553 z"
   id="path4" />
<path
   id="266148741_shock_x5F_color_grid"
   class="stshockcolor"
   style="fill:#ff80ed"
   d="m 2.2114178,12.818019 c -0.1979899,-0.197989 -0.1979899,-0.509116 0,-0.707106 L 12.110913,2.2114178 c 0.19799,-0.1979899 0.509117,-0.1979899 0.707106,0 0.381838,0.3818376 0.749534,0.7919596 1.18794,1.3152186 0.0495,0.06364 0.08485,0.1414213 0.106066,0.2192031 0.0071,0.077782 0.0071,0.1626345 -0.01414,0.2404163 l -2.177889,7.6226112 c -0.02121,0.07778 -0.07,0.15627 -0.126572,0.212839 -0.05657,0.05657 -0.135765,0.106066 -0.212839,0.126572 L 4.007469,14.12051 c -0.084853,0.02828 -0.1831407,0.02758 -0.2679935,-7.07e-4 -0.070711,-0.01414 -0.1350574,-0.04879 -0.1979899,-0.09899 C 3.1589409,13.694832 2.6993214,13.305923 2.2114178,12.818019 Z M 16.26163,24.690342 c 0.141421,0 0.267993,-0.05586 0.360624,-0.148492 0.05657,-0.05657 0.106066,-0.13435 0.126572,-0.211425 l 1.67655,-5.876764 5.93899,-1.69635 c 0.07778,-0.02121 0.155564,-0.07071 0.212132,-0.127279 0.09192,-0.09192 0.148493,-0.219203 0.148493,-0.360624 -0.0071,-0.219203 -0.155564,-0.424264 -0.374767,-0.473762 -1.810193,-0.480832 -3.648671,-0.424264 -5.784133,-0.353553 -0.643468,0.02121 -1.336432,0.0495 -2.064752,0.05657 l -0.98995,0.98995 c -0.0064,0.741755 -0.03535,1.449569 -0.05586,2.106471 -0.07071,2.107178 -0.141422,3.917371 0.331633,5.721201 0.05728,0.211425 0.248194,0.374059 0.474469,0.374059 z" />
<path
   style="fill:#4d5152"
   d="m 18.828427,30.142136 -0.707107,0.707106 0.707107,0.707107 12.727922,-12.727922 -0.707107,-0.707107 -0.707106,0.707107 c -4.136575,-4.136575 -7.403408,-4.023437 -11.532912,-3.882016 -0.509117,0.01414 -1.046518,0.02828 -1.598061,0.04243 0.01414,-0.551543 0.02121,-1.081873 0.04243,-1.598061 C 17.19501,9.2612724 17.308148,5.994439 13.171573,1.8578644 L 13.87868,1.1507576 13.171573,0.44365081 0.44365081,13.171573 1.1507576,13.87868 1.8578644,13.171573 c 4.1365746,4.136575 7.403408,4.023437 11.5470536,3.882016 0.516188,-0.02121 1.046518,-0.02828 1.598061,-0.04243 -0.01414,0.537401 -0.02899,1.061367 -0.0495,1.576848 -0.148492,4.136574 -0.268701,7.410479 3.874945,11.554125 z m 10.606602,-10.606602 -9.899495,9.899495 c -1.301077,-1.301077 -2.135463,-2.489016 -2.687006,-3.648671 l 1.987677,-6.923283 6.978437,-2.000405 c 1.152584,0.544472 2.333453,1.38593 3.620387,2.672864 z M 2.5649712,12.464466 12.464466,2.5649712 c 0.438406,0.4384062 0.813173,0.8697413 1.152584,1.2798632 L 11.439868,11.468153 3.8660476,13.639678 C 3.4417836,13.28471 3.0104484,12.909943 2.5649712,12.464466 Z m 2.3051681,1.923331 7.3821947,-2.107179 2.114249,-7.4316919 C 16.714178,8.3420336 16,11.318953 16,16 11.333095,16 8.3491046,16.707107 4.8701393,14.387797 Z M 16.014142,16 c 3.330473,-0.0071 5.805347,-0.360624 8.20951,0.275772 l -6.201327,1.774838 -1.753624,6.137687 C 15.646447,21.784133 16.007071,19.316331 16.014142,16 Z"
   id="path7" />
</svg>
