<?xml version="1.0"?>
<svg xmlns="http://www.w3.org/2000/svg" xmlns:xlink="http://www.w3.org/1999/xlink" version="1.1" id="266247391_Outlined_2__grid" x="0px" y="0px" width="32px" height="32px" viewBox="0 0 32 32" style="enable-background:new 0 0 32 32;" xml:space="preserve">
<path id="266247391_shock_x5F_color_1__grid" class="stshockcolor" style="fill:#AAAAAA;" d="M18.5,26.94c0.01,0.149-0.03,0.29-0.13,0.39c-0.09,0.11-0.23,0.17-0.37,0.17  h-4c-0.14,0-0.28-0.06-0.37-0.17c-0.1-0.1-0.14-0.24-0.13-0.39L13.72,25l0.22-2L15.5,8.94C15.53,8.69,15.75,8.5,16,8.5  s0.47,0.19,0.5,0.44L18.06,23l0.221,2L18.5,26.94z M17.5,6c0-0.827-0.673-1.5-1.5-1.5S14.5,5.173,14.5,6s0.673,1.5,1.5,1.5  S17.5,6.827,17.5,6z"/>
<path style="opacity:0.2;fill:#FFFFFF;" d="M18.28,25h-4.56l0.22-2L15.5,8.94C15.53,8.69,15.75,8.5,16,8.5s0.47,0.19,0.5,0.44  L18.06,23L18.28,25z"/>
<path id="266247391__x3C_Trazado_x3E__grid" style="fill:#FF61E1;" d="M25,16.5c-1.289,0-2.506-0.377-3.519-1.091L20.192,14.5h9.615l-1.289,0.909  C27.506,16.123,26.289,16.5,25,16.5z"/>
<path style="fill:#67DDE0;" d="M7,21.5c-1.291,0-2.507-0.378-3.519-1.092L2.196,19.5h9.608l-1.286,0.908  C9.507,21.122,8.291,21.5,7,21.5z"/>
<path style="fill:#4D5152;" d="M29.95,14.28C29.86,14.11,29.69,14,29.5,14h-0.64l-3.29-8.93c1.18,0.14,1.8,0.36,1.819,0.36  c0.101,0.04,0.2,0.04,0.301,0.02c0.149-0.04,0.279-0.15,0.34-0.31c0.1-0.26-0.03-0.55-0.29-0.64c-0.16-0.06-3.681-1.32-10.36,0.13  c-0.49-0.51-1.229-0.75-1.96-0.55C14.69,4.27,14.17,4.85,14,5.54c-6.52,2.08-8.93,4.93-9.04,5.06c-0.18,0.21-0.15,0.53,0.07,0.7  c0.21,0.18,0.52,0.15,0.7-0.06c0.01-0.01,0.16-0.19,0.49-0.49L3.18,19H2.5c-0.19,0-0.36,0.11-0.45,0.28  c-0.08,0.17-0.06,0.37,0.05,0.52C2.17,19.89,3.79,22,7,22s4.83-2.11,4.9-2.2c0.11-0.149,0.13-0.35,0.05-0.52  C11.86,19.11,11.69,19,11.5,19h-0.64l-3.4-9.23c1.31-0.93,3.42-2.15,6.56-3.19C14.29,7.46,15.1,8.02,15.98,8  c-0.49,0.01-0.91,0.38-0.97,0.87l-2,18L13.02,27H10.5c-0.28,0-0.5,0.22-0.5,0.5s0.22,0.5,0.5,0.5h11c0.28,0,0.5-0.22,0.5-0.5  S21.78,27,21.5,27h-2.52l0.01-0.13l-2-18C16.93,8.38,16.51,8.02,16.02,8c0.15,0,0.29-0.02,0.431-0.06c1.05-0.28,1.67-1.34,1.43-2.39  c2.83-0.59,5.04-0.66,6.62-0.57L21.18,14H20.5c-0.19,0-0.36,0.11-0.45,0.28c-0.08,0.17-0.06,0.37,0.05,0.52  c0.07,0.09,1.69,2.2,4.9,2.2s4.83-2.11,4.9-2.2C30.01,14.65,30.03,14.45,29.95,14.28z M7,21c-1.48,0-2.55-0.52-3.23-1h6.46  C9.55,20.48,8.48,21,7,21z M9.8,19H4.25l2.77-7.53L9.8,19z M18,27h-4l2-18L18,27z M16,7c-0.55,0-1-0.45-1-1s0.45-1,1-1s1,0.45,1,1  S16.55,7,16,7z M25.02,6.47L27.8,14h-5.55L25.02,6.47z M25,16c-1.48,0-2.55-0.52-3.23-1h6.461C27.55,15.48,26.48,16,25,16z"/>
</svg>
