<?xml version="1.0"?>
<svg xmlns="http://www.w3.org/2000/svg" xmlns:xlink="http://www.w3.org/1999/xlink" version="1.1" id="266247394_icon_grid" x="0px" y="0px" width="32px" height="32px" viewBox="0 0 32 32" style="enable-background:new 0 0 32 32;" xml:space="preserve">
<path id="266247394_shock_x5F_color_grid" class="stshockcolor" style="fill:#BF9171;" d="M30.459,12.6l-2.99,13.01c-0.13,0.51-0.61,0.89-1.11,0.89H3.519  c-0.56,0-1-0.44-1-1v-20c0-0.55,0.45-1,1-1h5.81l0.44,0.23l1.62,2.43c0.14,0.21,0.37,0.34,0.62,0.34h12.51c0.56,0,1,0.44,1,1v3h4.06  c0.28,0,0.54,0.12,0.71,0.33C30.459,12.04,30.519,12.32,30.459,12.6z"/>
<path style="opacity:0.2;fill:#FFFFFF;" d="M5.386,26.5c-0.285,0-0.544-0.123-0.711-0.336c-0.168-0.216-0.225-0.502-0.154-0.785  l2.988-12.991C7.615,11.894,8.097,11.5,8.606,11.5h21c0.282,0,0.54,0.119,0.707,0.325c0.17,0.21,0.233,0.494,0.173,0.779  l-2.992,13.008c-0.128,0.51-0.604,0.888-1.107,0.888H5.386z"/>
<rect x="13.333" y="15.5" style="fill:#BFBFBF;" width="9.333" height="7"/>
<path style="fill:#4D5152;" d="M30.709,11.39c-0.27-0.33-0.67-0.39-1.1-0.39H26V8.5C26,7.67,25.33,7,24.5,7H11.99l-0.2-0.11  l-1.561-2.33C10,4.21,9.609,4,9.189,4H3.5C2.67,4,2,4.67,2,5.5v20C2,26.33,2.67,27,3.5,27h22.889c0.74,0,1.432-0.64,1.592-1.38  l2.988-13.09C31.07,12.101,30.969,11.72,30.709,11.39z M3.5,26C3.22,26,3,25.78,3,25.5v-20C3,5.22,3.22,5,3.5,5h5.689l0.21,0.11  l1.551,2.33C11.189,7.79,11.58,8,11.99,8H24.5C24.779,8,25,8.22,25,8.5V11H8.609c-0.739,0-1.42,0.46-1.59,1.19L4.029,25.09  C3.96,25.39,3.99,25.72,4.1,26H3.5z M29.949,12.5l-2.99,13c-0.07,0.28-0.34,0.5-0.619,0.5h-21c-0.271,0-0.45-0.22-0.38-0.5l2.99-13  C8.01,12.22,8.29,12,8.56,12h20.999C29.84,12,30.01,12.22,29.949,12.5z M14,15h-1v1v6v1h1h8h1v-1v-6v-1h-1H14z M21.167,16L14,21.375  V16H21.167z M14.833,22L22,16.625V22H14.833z M22,16L22,16L22,16L22,16z"/>
</svg>
