<?xml version="1.0"?>
<svg xmlns="http://www.w3.org/2000/svg" xmlns:xlink="http://www.w3.org/1999/xlink" version="1.1" id="266247392_icon_grid" x="0px" y="0px" width="32px" height="32px" viewBox="0 0 32 32" style="enable-background:new 0 0 32 32;" xml:space="preserve">
<path style="fill:#C9A287;" d="M25.5,4.5h-19c-0.561,0-1,0.439-1,1v24c0,0.561,0.439,1,1,1h19c0.561,0,1-0.439,1-1v-24  C26.5,4.939,26.061,4.5,25.5,4.5z"/>
<rect id="266247392_shock_x5F_color_grid" class="stshockcolor" x="8.5" y="10.5" style="fill:#FFE4A9;" width="15" height="16"/>
<path style="fill:#BFBFBF;" d="M22.838,7.476L19.5,6.36V5c0-1.93-1.57-3.5-3.5-3.5S12.5,3.07,12.5,5v1.36L9.162,7.476  C7.966,7.874,7.5,8.582,7.5,10v0.5h17V10C24.5,8.582,24.034,7.874,22.838,7.476z"/>
<path style="fill:#4D5152;" d="M15,5c0-0.553,0.447-1,1-1s1,0.447,1,1s-0.447,1-1,1S15,5.553,15,5z M27,5.5v24  c0,0.828-0.672,1.5-1.5,1.5h-19C5.672,31,5,30.328,5,29.5v-24C5,4.672,5.672,4,6.5,4h5.642C12.588,2.277,14.139,1,16,1  s3.412,1.277,3.858,3H25.5C26.328,4,27,4.672,27,5.5z M9.316,7.949C8.332,8.276,8,8.795,8,10h16c0-1.205-0.332-1.724-1.316-2.051  L19,6.721V5c0-1.654-1.346-3-3-3s-3,1.346-3,3v1.721L9.316,7.949z M9,11v15h14V11H9z M26,5.5C26,5.224,25.776,5,25.5,5H20  c0,0.5,0,1,0,1s1.5,0.5,3,1s2,1.5,2,3c0,0.5,0,1,0,1h-1.001l-0.004,15.999L8.001,26.984L8,11H7c0,0,0-0.5,0-1c0-1.5,0.5-2.5,2-3  s3-1,3-1s0-0.5,0-1H6.5C6.224,5,6,5.224,6,5.5v24C6,29.776,6.224,30,6.5,30h19c0.276,0,0.5-0.224,0.5-0.5V5.5z M22,25H10V15h12V25z   M21,22H11v2h10V22z M21,19H11v2h10V19z M21,16H11v2h10V16z M22,12H10v1h12V12z"/>
<path style="opacity:0.3;fill:#4D5152;" d="M24.377,9v1.5H7.5V9H24.377z M10.5,15.5v9h11v-9H10.5z"/>
</svg>
