<?xml version="1.0"?>
<svg xmlns="http://www.w3.org/2000/svg" xmlns:xlink="http://www.w3.org/1999/xlink" version="1.1" id="266247396_icon_grid" x="0px" y="0px" width="32px" height="32px" viewBox="0 0 32 32" style="enable-background:new 0 0 32 32;" xml:space="preserve">
<path id="266247396_shock_x5F_color_grid" class="stshockcolor" style="fill:#BFBFBF;" d="M24.992,2.5H8c-0.916,0-1.476,0.561-1.5,1.512V28  c0,0.915,0.561,1.476,1.512,1.5H25c0.915,0,1.476-0.561,1.5-1.499V4C26.5,3.086,25.941,2.526,24.992,2.5z"/>
<path style="opacity:0.6;fill:#FFFFFF;" d="M24.992,2.5H8c-0.916,0-1.476,0.561-1.5,1.512V28c0,0.915,0.561,1.476,1.512,1.5H25  c0.915,0,1.476-0.561,1.5-1.499V4C26.5,3.086,25.941,2.526,24.992,2.5z M23.5,23.5h-14v-12h14V23.5z"/>
<path style="fill:#4D5152;" d="M17,11h-1h-6H9v1v11v1h1h6h1h6h1v-1V12v-1h-1H17z M10,23V12h6v1.057  c-0.951,0.201-1.701,0.958-1.863,1.953c-0.166,1.023,0.326,2.338,2.205,2.965c1.091,0.363,1.664,1.057,1.534,1.855  C17.782,20.411,17.278,21,16.5,21c-1.411,0-1.497-1.252-1.5-1.503L14.5,19.5H14c0,0.785,0.443,2.19,2,2.446V23H10z M23,23h-6v-1.057  c0.951-0.201,1.701-0.959,1.863-1.953c0.166-1.023-0.326-2.338-2.205-2.965c-1.091-0.363-1.664-1.057-1.534-1.855  C15.218,14.589,15.722,14,16.5,14c1.411,0,1.497,1.252,1.5,1.5h1c0-0.785-0.442-2.191-2-2.447V12h6V23z M16,6H9V5h7V6z M20,5h4v1h-4  V5z M9,9h15v1H9V9z M9,26h15v1H9V26z M25,2H8C6,2,6,4,6,4v24c0,2,2,2,2,2s15,0,17,0s2-2,2-2V4C27,2,25,2,25,2z M26,27.988  C25.988,28.45,25.806,29,25,29H8.012C7.55,28.988,7,28.806,7,28V4.012C7.012,3.55,7.195,3,8,3h16.992C25.453,3.013,26,3.197,26,4  V27.988z"/>
</svg>
