<?xml version="1.0" encoding="utf-8"?>
<!-- Generator: Adobe Illustrator 16.0.0, SVG Export Plug-In . SVG Version: 6.00 Build 0)  -->
<svg xmlns="http://www.w3.org/2000/svg" xmlns:xlink="http://www.w3.org/1999/xlink" version="1.1" id="Outlined_2_" x="0px" y="0px" width="32px" height="32px" viewBox="0 0 32 32" style="enable-background:new 0 0 32 32;" xml:space="preserve">

<path id="2662293543_shock_x5F_color_grid" class="stshockcolor" d="M19.5,23.5c-2.757,0-5-2.243-5-5c0-0.148,0.008-0.298,0.026-0.438l0.07-0.563H4.5v-2.367  L8.29,8.5h13.453l4.757,6.66v2.34h-2.099l0.072,0.563c0.018,0.14,0.026,0.288,0.026,0.437c0,1.432-0.616,2.793-1.69,3.734  l-0.35,0.307l-0.326,0.206C21.353,23.239,20.441,23.5,19.5,23.5z" style="fill:#AAAAAA;;"/>
<path class="st1" d="M19.5,13.5c-2.76,0-5,2.24-5,5s2.24,5,5,5s5-2.24,5-5S22.26,13.5,19.5,13.5z M21.5,20.5h-4v-4h4V20.5z" style="opacity:0.6;fill:#FFFFFF;;"/>
<path class="st2" d="M27,15l-5-7H8l-4,7v3h10.03C14.01,18.16,14,18.33,14,18.5c0,3.04,2.46,5.5,5.5,5.5c1.07,0,2.06-0.3,2.9-0.83  l2.729,3.61l0.74-0.561l-2.73-3.609c1.141-1,1.86-2.471,1.86-4.11c0-0.17-0.01-0.34-0.03-0.5H27V15z M8.58,9h12.91l4.279,6H23.74  c-1-1.22-2.53-2-4.24-2s-3.24,0.78-4.24,2H5.15L8.58,9z M14.21,17H5v-1h9.61C14.44,16.32,14.31,16.65,14.21,17z M19.5,23  c-2.48,0-4.5-2.02-4.5-4.5s2.02-4.5,4.5-4.5s4.5,2.02,4.5,4.5S21.98,23,19.5,23z M26,17h-1.21c-0.1-0.35-0.23-0.68-0.4-1H26V17z   M12,11h-2v-1h2V11z M16,11h-2v-1h2V11z M20,11h-2v-1h2V11z M20,12h2v1h-2V12z M16,12h2v1h-2V12z M12,12h2v1h-2V12z M8,12h2v1H8V12z   M17,21h5v-5h-5V21z M17.93,16.93h3.141v3.141H17.93V16.93z" style="fill:#4D5152;;"/>
</svg>
