<?xml version="1.0" encoding="utf-8"?>
<!-- Generator: Adobe Illustrator 16.0.0, SVG Export Plug-In . SVG Version: 6.00 Build 0)  -->
<svg xmlns="http://www.w3.org/2000/svg" xmlns:xlink="http://www.w3.org/1999/xlink" version="1.1" id="2662894131_Capa_1_grid" x="0px" y="0px" width="32px" height="32px" viewBox="0 0 32 32" style="enable-background:new 0 0 32 32;" xml:space="preserve">

<path id="2662894131_shock_x5F_color_grid" class="stshockcolor" d="M7,27.5c-1.378,0-2.5-1.121-2.5-2.5V7c0-1.378,1.122-2.5,2.5-2.5h18  c1.379,0,2.5,1.122,2.5,2.5v18c0,1.379-1.121,2.5-2.5,2.5H7z" style="fill:#67DDE0;;"/>
<path class="st2" d="M15.5,10.594L21.325,16L15.5,21.406V10.594z M8.5,21.407L14.314,16L8.5,10.592V21.407z" style="opacity:0.6;fill:#FFFFFF;enable-background:new    ;;"/>
<path class="st0" d="M25,4H7C5.34,4,4,5.34,4,7v18c0,1.66,1.34,3,3,3h18c1.66,0,3-1.34,3-3V7C28,5.34,26.66,4,25,4z M27,25  c0,1.1-0.9,2-2,2H7c-1.1,0-2-0.9-2-2V7c0-1.1,0.9-2,2-2h18c1.1,0,2,0.9,2,2V25z M8,9.5v13l7-6.5L8,9.5z M9,11.74L13.58,16L9,20.26  V11.74z M15,9.5v13l7-6.5L15,9.5z M16,11.74L20.59,16L16,20.26V11.74z M23,10v12h1V10H23z" style="fill:#4D5152;;"/>
</svg>
