<?xml version="1.0"?>
<svg xmlns="http://www.w3.org/2000/svg" xmlns:xlink="http://www.w3.org/1999/xlink" version="1.1" id="266148745_Layer_1_grid" x="0px" y="0px" width="32px" height="32px" viewBox="0 0 32 32" style="enable-background:new 0 0 32 32;" xml:space="preserve">
<path style="fill:#67DDE0;" d="M18.5,21.5v5.538c0,1.262-2,2.462-3,2.462c-1.001,0-3-1.2-3-2.462V21.5H18.5z"/>
<path id="266148745_shock_x5F_color_grid" class="stshockcolor" style="fill:#FFD878;" d="M12.809,21.5c0,0-5.309-5.582-5.309-10c0-4.418,3.582-8,8-8  c4.418,0,8,3.582,8,8c0,4.418-5.309,10-5.309,10H12.809z"/>
<circle style="opacity:0.4;fill:#FFFFFF;" cx="15.5" cy="11.5" r="5.5"/>
<path style="fill:#BF9171;" d="M13.5,10.938c-0.829,0-1.5,0.672-1.5,1.5s0.671,1.5,1.5,1.5c0.176,0,0.343-0.036,0.5-0.092V21h1  v-8.563C15,11.609,14.328,10.938,13.5,10.938z M13.5,12.932c-0.273,0-0.494-0.224-0.494-0.5s0.221-0.5,0.494-0.5  s0.494,0.224,0.494,0.5S13.773,12.932,13.5,12.932z M17.5,10.938c-0.828,0-1.5,0.672-1.5,1.5V21h1v-7.154  c0.157,0.056,0.324,0.092,0.5,0.092c0.828,0,1.5-0.672,1.5-1.5S18.328,10.938,17.5,10.938z M17.5,12.932  c-0.272,0-0.494-0.224-0.494-0.5s0.222-0.5,0.494-0.5s0.494,0.224,0.494,0.5S17.772,12.932,17.5,12.932z"/>
<path style="fill:#4D5152;" d="M15.5,2.938c-4.694,0-8.5,3.806-8.5,8.501c0,1.546,0.413,2.995,1.134,4.244  c0.833,1.442,2.541,4.019,3.866,5.983v5.281C12,28.5,14.292,30,15.5,30s3.5-1.5,3.5-3.052v-5.28  c1.325-1.965,3.034-4.543,3.867-5.986C23.588,14.434,24,12.984,24,11.439C24,6.745,20.194,2.938,15.5,2.938 M18,26.948  C18,28,16.333,29,15.5,29c-0.834,0-2.5-1-2.5-2.052V22h5V26.948z M16,21h-1 M12.809,21c-1.2-1.729-2.987-4.348-3.808-5.771  C8.364,14.127,8,12.849,8,11.486c0-4.143,3.358-7.501,7.5-7.501c4.143,0,7.5,3.358,7.5,7.501c0,1.363-0.363,2.641-0.999,3.743  c-0.821,1.424-2.61,4.043-3.81,5.771h-4.274H12.809z"/>
</svg>
