<?xml version="1.0"?>
<svg xmlns="http://www.w3.org/2000/svg" xmlns:xlink="http://www.w3.org/1999/xlink" version="1.1" id="266148746_Layer_1_grid" x="0px" y="0px" width="32px" height="32px" viewBox="0 0 32 32" style="enable-background:new 0 0 32 32;" xml:space="preserve">
<path id="266148746_shock_x5F_color_grid" class="stshockcolor" style="fill:#ACF0F2;" d="M25.5,28.5c0,0.553-0.447,1-1,1h-17c-0.552,0-1-0.447-1-1v-25  c0-0.552,0.448-1,1-1h17c0.553,0,1,0.448,1,1V28.5z"/>
<path style="fill:#FF61E1;" d="M10.5,7.75c-0.414,0-0.75,0.336-0.75,0.75s0.336,0.75,0.75,0.75s0.75-0.336,0.75-0.75  S10.914,7.75,10.5,7.75 M10.5,11.75c-0.414,0-0.75,0.336-0.75,0.75s0.336,0.75,0.75,0.75s0.75-0.336,0.75-0.75  S10.914,11.75,10.5,11.75 M10.5,19.75c-0.414,0-0.75,0.336-0.75,0.75s0.336,0.75,0.75,0.75s0.75-0.336,0.75-0.75  S10.914,19.75,10.5,19.75 M10.5,15.75c-0.414,0-0.75,0.336-0.75,0.75s0.336,0.75,0.75,0.75s0.75-0.336,0.75-0.75  S10.914,15.75,10.5,15.75 M10.5,23.75c-0.414,0-0.75,0.336-0.75,0.75s0.336,0.75,0.75,0.75s0.75-0.336,0.75-0.75  S10.914,23.75,10.5,23.75"/>
<path style="fill:#4D5152;" d="M13,25h9v-1h-9V25z M24.5,2h-17C6.671,2,6,2.672,6,3.5v25C6,29.328,6.671,30,7.5,30h17  c0.828,0,1.5-0.672,1.5-1.5v-25C26,2.672,25.328,2,24.5,2 M25,28.5c0,0.276-0.224,0.5-0.5,0.5h-17C7.224,29,7,28.776,7,28.5v-25  C7,3.224,7.224,3,7.5,3h17C24.776,3,25,3.224,25,3.5V28.5z M13,21h9v-1h-9V21z M13,13h9v-1h-9V13z M13,9h9V8h-9V9z M13,17h9v-1h-9  V17z"/>
</svg>
