<?xml version="1.0"?>
<svg xmlns="http://www.w3.org/2000/svg" xmlns:xlink="http://www.w3.org/1999/xlink" version="1.1" id="266247397_Layer_1_grid" x="0px" y="0px" width="32px" height="32px" viewBox="0 0 32 32" style="enable-background:new 0 0 32 32;" xml:space="preserve">
<rect id="266247397_shock_x5F_color_grid" class="stshockcolor" x="9.5" y="4.5" style="fill:#75EA9C;" width="13" height="23"/>
<path style="opacity:0.4;fill:#FFFFFF;" d="M21,25l-1,1h-8l-1-1V7l1-1h8l1,1V25z M16,12.5c-2.485,0-4.5,1.567-4.5,3.5  c0,1.933,2.015,3.5,4.5,3.5s4.5-1.567,4.5-3.5C20.5,14.067,18.485,12.5,16,12.5z"/>
<path style="fill:#4D5152;" d="M11,16c0,2.209,2.239,4,5,4c2.762,0,5-1.791,5-4s-2.238-4-5-4C13.239,12,11,13.791,11,16 M20,16  c0,1.657-1.791,3-4,3s-4-1.343-4-3s1.791-3,4-3S20,14.343,20,16 M27.5,15.765l-3.157,3.157l0.707,0.707L27,17.68V19  c0,1.657-1.343,3-3,3h-1V10h1c1.657,0,3,1.343,3,3v1h1v-1c0-2.209-1.791-4-4-4h-1V5c0-0.553-0.447-1-1-1H10C9.448,4,9,4.447,9,5v4  H3.695l2.95-2.95L5.938,5.343L1.781,9.5l4.157,4.157l0.707-0.707L3.695,10H9v12H3v1h6v4c0,0.553,0.448,1,1,1h12c0.553,0,1-0.447,1-1  v-4h1c2.209,0,4-1.791,4-4v-1.32l1.95,1.949l0.707-0.707L27.5,15.765z M10,5h2c0,1.104-0.896,2-2,2V5z M10,27v-2  c1.104,0,2,0.896,2,2H10z M22,27h-2c0-1.104,0.896-2,2-2V27z M22,24c-1.657,0-3,1.343-3,3h-6c0-1.657-1.343-3-3-3v-1h12V24z M22,22  H10V8c1.657,0,3-1.343,3-3h6c0,1.657,1.343,3,3,3V22z M22,7c-1.104,0-2-0.896-2-2h2V7z"/>
</svg>
