<?xml version="1.0"?>
<svg xmlns="http://www.w3.org/2000/svg" xmlns:xlink="http://www.w3.org/1999/xlink" version="1.1" id="266247398_Layer_1_grid" x="0px" y="0px" width="32px" height="32px" viewBox="0 0 32 32" style="enable-background:new 0 0 32 32;" xml:space="preserve">
<ellipse style="fill:#ACF0F2;" cx="16" cy="29" rx="7" ry="2"/>
<path id="266247398_shock_x5F_color_grid" class="stshockcolor" style="fill:#EF6565;" d="M16,28.5c-0.25,0-0.463-0.187-0.496-0.434  c-0.865-6.49-3.225-10.729-4.493-13.005l-0.075-0.136c-0.145-0.261-0.273-0.492-0.378-0.693C10.309,13.76,9.5,12.06,9.5,10  c0-3.584,2.93-6.5,6.532-6.5c3.566,0,6.468,2.916,6.468,6.5c0,2.165-0.949,4.026-1.058,4.231c-0.124,0.236-0.276,0.51-0.452,0.827  c-1.269,2.277-3.629,6.515-4.495,13.007C16.463,28.313,16.249,28.5,16,28.5z M15.969,6.5c-1.947,0-3.531,1.57-3.531,3.5  s1.584,3.5,3.531,3.5c1.947,0,3.531-1.57,3.531-3.5S17.916,6.5,15.969,6.5z"/>
<path style="fill:#4D5152;" d="M15.969,6c-2.227,0-4.031,1.791-4.031,4s1.804,4,4.031,4C18.195,14,20,12.209,20,10  S18.195,6,15.969,6 M15.969,13c-1.674,0-3.031-1.343-3.031-3s1.357-3,3.031-3S19,8.343,19,10S17.643,13,15.969,13 M16.032,3  C12.155,3,9,6.141,9,10c0,2.173,0.853,3.967,1.115,4.465c0.125,0.238,0.28,0.516,0.458,0.837c1.252,2.248,3.583,6.432,4.436,12.83  C15.075,28.629,15.499,29,16,29s0.925-0.371,0.991-0.868c0.854-6.398,3.184-10.582,4.436-12.83c0.179-0.321,0.333-0.599,0.458-0.837  C22.24,13.791,23,12.006,23,10C23,6.141,19.908,3,16.032,3 M20.969,14c-1,1.905-4,6.5-5,14c-1-7.5-4-12.095-5-14  C10.469,13.048,10,11.537,10,10c0-3.313,2.669-6,6-6s6,2.687,6,6C22,11.536,21.469,13.048,20.969,14"/>
</svg>
