<?xml version="1.0"?>
<svg xmlns="http://www.w3.org/2000/svg" xmlns:xlink="http://www.w3.org/1999/xlink" version="1.1" id="266148750_Outlined_2__grid" x="0px" y="0px" width="32px" height="32px" viewBox="0 0 32 32" style="enable-background:new 0 0 32 32;" xml:space="preserve">
<path id="266148750_shock_x5F_color_grid" class="stshockcolor" style="fill:#67DDE0;" d="M16,3.12L3.5,10.5v16.05l0.05-0.05h24.94l0.01,0.01V10.5L16,3.12z"/>
<polygon style="opacity:0.4;fill:#FFFFFF;" points="28.5,10.54 28.5,26.51 28.49,26.5 3.55,26.5 3.5,26.55 3.5,10.5 11.5,18.5   20.5,18.5 "/>
<path style="fill:#4D5152;" d="M16,2.5L3,10v17h26V10L16,2.5z M28,25.299l-6.775-6.775L28,11.748V25.299z M16,3.7l11.831,6.803  L20.334,18h-8.626l-7.512-7.512L16,3.7z M4,11.707l6.816,6.817L4,25.34V11.707z M11.754,19h8.533l6.998,6.998H4.756L11.754,19z"/>
</svg>
