<?xml version="1.0"?>
<svg xmlns="http://www.w3.org/2000/svg" xmlns:xlink="http://www.w3.org/1999/xlink" version="1.1" id="266247399_icon_grid" x="0px" y="0px" width="32px" height="32px" viewBox="0 0 32 32" style="enable-background:new 0 0 32 32;" xml:space="preserve">
<path style="fill:#EF6565;" d="M11,7.5c-4.687,0-8.5,3.813-8.5,8.5c0,4.687,3.813,8.5,8.5,8.5s8.5-3.813,8.5-8.5  C19.5,11.313,15.687,7.5,11,7.5z"/>
<path id="266247399_shock_x5F_color_grid" class="stshockcolor" style="opacity:0.8;fill:#FFD878;" d="M21,7.5c-4.687,0-8.5,3.813-8.5,8.5c0,4.687,3.813,8.5,8.5,8.5  c4.688,0,8.5-3.813,8.5-8.5C29.5,11.313,25.688,7.5,21,7.5z"/>
<path id="266247399__x3C_Trazado_x3E__grid" style="fill:#4D5152;" d="M21,7c-1.851,0-3.569,0.56-5,1.518C14.57,7.56,12.851,7,11,7  c-4.971,0-9,4.029-9,9c0,4.971,4.029,9,9,9c1.851,0,3.57-0.56,5-1.518C17.431,24.44,19.149,25,21,25c4.971,0,9-4.029,9-9  S25.971,7,21,7z M11,24c-2.21,0-4.208-0.895-5.657-2.343C3.895,20.207,3,18.211,3,16c0-2.21,0.895-4.208,2.343-5.657  C6.792,8.895,8.79,8,11,8c1.522,0,2.938,0.432,4.149,1.17C13.225,10.82,12,13.265,12,16c0,2.734,1.225,5.18,3.149,6.83  C13.938,23.568,12.522,24,11,24z M16.657,10.343C18.105,11.792,19,13.789,19,16s-0.895,4.207-2.343,5.657  C16.45,21.864,16.229,22.057,16,22.24c-0.229-0.184-0.45-0.376-0.657-0.583C13.895,20.207,13,18.211,13,16  c0-2.21,0.895-4.208,2.343-5.657C15.55,10.136,15.771,9.944,16,9.761C16.229,9.944,16.45,10.136,16.657,10.343z M26.657,21.657  C25.207,23.105,23.211,24,21,24c-1.522,0-2.938-0.432-4.149-1.17C18.775,21.18,20,18.734,20,16c0-2.735-1.225-5.18-3.149-6.83  C18.062,8.432,19.478,8,21,8c2.211,0,4.207,0.895,5.657,2.343C28.105,11.792,29,13.789,29,16S28.105,20.207,26.657,21.657z"/>
</svg>
