<?xml version="1.0"?>
<svg xmlns="http://www.w3.org/2000/svg" xmlns:xlink="http://www.w3.org/1999/xlink" version="1.1" id="266148752_Layer_1_grid" x="0px" y="0px" width="32px" height="32px" viewBox="0 0 32 32" style="enable-background:new 0 0 32 32;" xml:space="preserve">
<polygon style="fill:#AAAAAA;" points="7.451,27.641 4.36,24.549 15.453,11.828 20.172,16.547 "/>
<path id="266148752_shock_x5F_color_grid" class="stshockcolor" style="fill:#67DDE0;" d="M26.6,14.6c-1.869,1.86-4.59,2.35-6.909,1.47l-3.76-3.76  c-0.88-2.32-0.39-5.04,1.47-6.91c2.54-2.53,6.659-2.53,9.199,0C29.13,7.94,29.13,12.06,26.6,14.6z"/>
<path style="opacity:0.4;fill:#FFFFFF;" d="M26.596,5.404c-2.538-2.539-6.653-2.539-9.192,0l9.192,9.192  C29.135,12.058,29.135,7.942,26.596,5.404z"/>
<path style="fill:#4D5152;" d="M22,3c-3.866,0-7,3.134-7,7c0,0.568,0.075,1.118,0.203,1.647c-0.172,0.055-0.334,0.14-0.455,0.278  L4.257,23.847c-0.348,0.396-0.329,0.995,0.044,1.368l0.878,0.878l-2.512,2.512l0.707,0.707L5.886,26.8l0.915,0.915  c0.194,0.194,0.45,0.293,0.707,0.293c0.235,0,0.471-0.083,0.66-0.25L20.09,17.269c0.142-0.125,0.225-0.291,0.278-0.468  C20.893,16.927,21.438,17,22,17c3.866,0,7-3.134,7-7C29,6.134,25.866,3,22,3 M7.508,27.008l-2.5-2.5l10.49-11.922l3.933,3.93  L7.508,27.008z M22,15.995c-0.719,0-1.403-0.133-2.042-0.364l-3.588-3.588c-0.231-0.638-0.365-1.324-0.365-2.043  c0-1.476,0.535-2.825,1.419-3.869l8.445,8.445C24.824,15.46,23.476,15.995,22,15.995 M26.576,13.869l-8.445-8.445  C19.176,4.54,20.524,4.005,22,4.005c3.312,0,5.995,2.683,5.995,5.995C27.995,11.475,27.46,12.825,26.576,13.869"/>
</svg>
