<?xml version="1.0"?>
<svg xmlns="http://www.w3.org/2000/svg" viewBox="0 0 32 32"><title>money_color_line</title><g id="266297739_Outlined_grid" style="isolation:isolate"><rect id="266297739_shock_color_grid" class="stshockcolor" x="2.27" y="6.04" width="26.45" height="15.12" rx="0.94" ry="0.94" fill="#75ea9c"/><path d="M28.5,9.1A2.5,2.5,0,0,1,26,6.6V6.1h2.5a.5.5,0,0,1,.5.5V9.1Zm0,12a.5.5,0,0,0,.5-.5V18.1h-.5A2.5,2.5,0,0,0,26,20.6v.5ZM5,21.1v-.5a2.5,2.5,0,0,0-2.5-2.5H2v2.5a.5.5,0,0,0,.5.5ZM2.5,9.1A2.5,2.5,0,0,0,5,6.6V6.1H2.5a.5.5,0,0,0-.5.5V9.1ZM20,13.6c0-3-2-5.5-4.5-5.5S11,10.57,11,13.6s2,5.5,4.5,5.5S20,16.63,20,13.6Z" fill="#fff" opacity="0.4"/><path d="M15.5,7.6c-2.76,0-5,2.69-5,6s2.24,6,5,6,5-2.69,5-6S18.26,7.6,15.5,7.6Zm0,11c-2.21,0-4-2.24-4-5s1.79-5,4-5,4,2.24,4,5S17.71,18.6,15.5,18.6Zm13-13H2.5a1,1,0,0,0-1,1v14a1,1,0,0,0,1,1h26a1,1,0,0,0,1-1V6.6A1,1,0,0,0,28.5,5.6Zm-26,1h2a2,2,0,0,1-2,2Zm0,14v-2a2,2,0,0,1,2,2Zm26,0h-2a2,2,0,0,1,2-2Zm0-3a3,3,0,0,0-3,3H5.5a3,3,0,0,0-3-3v-8a3,3,0,0,0,3-3h20a3,3,0,0,0,3,3Zm0-9a2,2,0,0,1-2-2h2Z" fill="#4d5152"/><circle id="266297739_aaa_grid" cx="25.2" cy="21.1" r="4.3" fill="#ffd878"/><g opacity="0.4"><circle cx="25.2" cy="21.1" r="3.47" fill="#fff"/></g><path d="M30.5,21.1a5.3,5.3,0,1,1-5.3-5.3A5.3,5.3,0,0,1,30.5,21.1Zm-1,0a4.3,4.3,0,1,0-4.3,4.3A4.3,4.3,0,0,0,29.5,21.1Z" fill="#4d5152"/></g></svg>
