<?xml version="1.0"?>
<svg xmlns="http://www.w3.org/2000/svg" xmlns:xlink="http://www.w3.org/1999/xlink" version="1.1" id="266247401_icon_grid" x="0px" y="0px" width="32px" height="32px" viewBox="0 0 32 32" style="enable-background:new 0 0 32 32;" xml:space="preserve">
<path id="266247401_shock_x5F_color_grid" class="stshockcolor" style="fill:#75EA9C;" d="M23.558,24.228l-0.058-0.11V19c0-3.975-2.569-7.943-5.59-8.5h-0.2l3.433-6  h-9.284l3.432,6l-0.292,0.008C12.069,11.057,9.5,15.025,9.5,19v5.117L7.813,27.5h17.375L23.558,24.228z"/>
<path style="fill:#4D5152;" d="M14.185,17H20l-1,1h-4.971C14.018,18.165,14,18.32,14,18.5c0,0.155,0.007,0.324,0.023,0.5H20l-1,1  h-4.762c0.363,1.032,1.24,2,3.262,2c2,0,2.569-0.707,2.575-0.714l0.82,0.571C20.816,21.975,20.052,23,17.5,23  c-2.268,0-3.783-1.104-4.294-3H11l1-1h1.039C13.026,18.833,13,18.676,13,18.5c0-0.172,0.024-0.334,0.039-0.5H11l1-1h1.219  c0.504-1.75,1.928-3,4.281-3c2.552,0,3.316,1.025,3.396,1.143l-0.415,0.279l-0.405,0.292C20.069,15.707,19.5,15,17.5,15  C15.643,15,14.581,15.597,14.185,17z M26,28H7l2-4c0,0,0-4,0-5c0-3.83,2.34-8.11,5.49-9L11,4h11l-3.49,6C21.65,10.89,24,15.17,24,19  c0,1,0,5,0,5L26,28z M15.58,10h1.84l2.86-5h-7.56L15.58,10z M8.62,27h15.76l-1.27-2.55L23,24.24V19c0-3.71-2.42-7.5-5.09-8h-2.82  C12.42,11.5,10,15.29,10,19v5.24l-0.11,0.21L8.62,27z"/>
<path style="opacity:0.2;fill:#4D5152;" d="M15.29,10.5l-3.432-6h9.284l-3.433,6H15.29z M23.36,24H9.64l-1.333,3.5h16.387L23.36,24z  "/>
</svg>
