<?xml version="1.0"?>
<svg xmlns="http://www.w3.org/2000/svg" xmlns:xlink="http://www.w3.org/1999/xlink" version="1.1" id="266247402_icon_grid" x="0px" y="0px" width="32px" height="32px" viewBox="0 0 32 32" style="enable-background:new 0 0 32 32;" xml:space="preserve">
<path id="266247402_shock_x5F_color_grid" class="stshockcolor" style="fill:#BFBFBF;" d="M23.558,24.228l-0.058-0.11V19c0-3.975-2.569-7.943-5.59-8.5h-0.2l3.433-6  h-9.284l3.432,6l-0.292,0.008C12.069,11.057,9.5,15.025,9.5,19v5.117L7.813,27.5h17.375L23.558,24.228z"/>
<path style="opacity:0.2;fill:#4D5152;" d="M15.29,10.5l-3.432-6h9.284l-3.433,6H15.29z M23.36,24H9.64l-1.333,3.5h16.387L23.36,24z  "/>
<path style="fill:#4D5152;" d="M24,24c0,0,0-4,0-5c0-3.83-2.35-8.11-5.49-9L22,4H11l3.49,6C11.34,10.89,9,15.17,9,19c0,1,0,5,0,5  l-2,4h19L24,24z M12.72,5h7.56l-2.86,5h-1.84L12.72,5z M9.89,24.45L10,24.24V19c0-3.71,2.42-7.5,5.09-8h2.82  c2.67,0.5,5.09,4.29,5.09,8v5.24l0.11,0.21L24.38,27H8.62L9.89,24.45z M19,16.5V17h-1v-0.5c0-0.25-0.09-1.5-1.5-1.5  c-1.25,0-1.5,0.96-1.5,2.5c0,0.08,0,0.25-0.01,0.5H17v1h-2.08c-0.09,0.891-0.27,2.02-0.66,3H19v1h-6c0,0,0,0,0-0.68V22  c0.41-0.84,0.7-2,0.859-3H13v-1h0.98c0.01-0.189,0.02-0.359,0.02-0.5c0-0.96,0-3.5,2.5-3.5C18.48,14,19,15.641,19,16.5z"/>
</svg>
