<?xml version="1.0"?>
<svg xmlns="http://www.w3.org/2000/svg" xmlns:xlink="http://www.w3.org/1999/xlink" version="1.1" id="266247400_Layer_1_grid" x="0px" y="0px" width="32px" height="32px" viewBox="0 0 32 32" style="enable-background:new 0 0 32 32;" xml:space="preserve">
<path id="266247400_shock_x5F_color_grid" class="stshockcolor" style="fill:#75EA9C;" d="M8.618,29.5c-0.173,0-0.334-0.09-0.425-0.237s-0.1-0.331-0.022-0.486  l1.276-2.553C9.482,26.154,9.5,26.077,9.5,26v-7c0-3.83,2.348-7.731,5.127-8.519c0.147-0.042,0.27-0.151,0.327-0.293  c0.059-0.145,0.047-0.304-0.031-0.439l-2.616-4.497c-0.09-0.155-0.09-0.346-0.001-0.501c0.089-0.155,0.255-0.25,0.434-0.25h7.523  c0.179,0,0.344,0.096,0.434,0.25c0.089,0.155,0.089,0.346-0.001,0.501l-2.616,4.497c-0.079,0.134-0.09,0.294-0.032,0.438  c0.059,0.146,0.178,0.252,0.327,0.294C21.152,11.269,23.5,15.17,23.5,19v7c0,0.077,0.019,0.154,0.053,0.224l1.276,2.553  c0.077,0.155,0.069,0.339-0.021,0.486c-0.092,0.147-0.253,0.237-0.426,0.237H8.618z"/>
<path style="fill:#4D5152;" d="M24,26v-7c0-3.83-2.351-8.11-5.49-9L22,4H11l3.49,6C11.351,10.89,9,15.17,9,19v7l-2,4h19L24,26z   M12.72,5h7.561l-2.86,5h-1.84L12.72,5z M10,26.24V19c0-3.71,2.42-7.5,5.09-8h2.82c2.67,0.5,5.09,4.29,5.09,8v7.24L24.38,29H8.62  L10,26.24z M15.121,17.17c-0.13,0.799,0.45,1.49,1.54,1.86c1.88,0.62,2.37,1.938,2.2,2.96c-0.16,0.99-0.91,1.75-1.86,1.95V25h-1  v-1.04c-1.571-0.25-2-1.67-2-2.46h1c0,0.25,0.089,1.5,1.5,1.5c0.78,0,1.28-0.59,1.381-1.17c0.129-0.8-0.451-1.49-1.541-1.861  c-1.879-0.619-2.371-1.938-2.201-2.959c0.16-0.99,0.91-1.75,1.861-1.951V14h1v1.04c1.57,0.25,2,1.67,2,2.46h-1  c0-0.25-0.09-1.5-1.5-1.5C15.719,16,15.219,16.59,15.121,17.17z"/>
</svg>
