<?xml version="1.0"?>
<svg xmlns="http://www.w3.org/2000/svg" xmlns:xlink="http://www.w3.org/1999/xlink" version="1.1" id="266148755_Outlined_2__grid" x="0px" y="0px" width="32px" height="32px" viewBox="0 0 32 32" style="enable-background:new 0 0 32 32;" xml:space="preserve">
<path id="266148755_shock_x5F_color_grid" class="stshockcolor" style="fill:#BFBFBF;" d="M18.5,16c0,1.379-1.121,2.5-2.5,2.5c-1.378,0-2.5-1.121-2.5-2.5  c0-1.378,1.122-2.5,2.5-2.5C17.379,13.5,18.5,14.622,18.5,16z M16,10.5c1.379,0,2.5-1.122,2.5-2.5S17.379,5.5,16,5.5  c-1.378,0-2.5,1.122-2.5,2.5S14.622,10.5,16,10.5z M16,21.5c-1.378,0-2.5,1.121-2.5,2.5s1.122,2.5,2.5,2.5  c1.379,0,2.5-1.121,2.5-2.5S17.379,21.5,16,21.5z"/>
<path style="fill:#4D5152;" d="M16,21c-1.657,0-3,1.344-3,3s1.343,3,3,3c1.657,0,3-1.344,3-3S17.657,21,16,21z M16,26  c-1.103,0-2-0.897-2-2s0.897-2,2-2c1.103,0,2,0.897,2,2S17.103,26,16,26z M16,13c-1.657,0-3,1.343-3,3c0,1.656,1.343,3,3,3  c1.657,0,3-1.344,3-3C19,14.343,17.657,13,16,13z M16,18c-1.103,0-2-0.897-2-2c0-1.103,0.897-2,2-2c1.103,0,2,0.897,2,2  C18,17.103,17.103,18,16,18z M16,11c1.657,0,3-1.343,3-3s-1.343-3-3-3c-1.657,0-3,1.343-3,3S14.343,11,16,11z M16,6  c1.103,0,2,0.897,2,2s-0.897,2-2,2c-1.103,0-2-0.897-2-2S14.897,6,16,6z"/>
</svg>
