<?xml version="1.0"?>
<svg xmlns="http://www.w3.org/2000/svg" xmlns:xlink="http://www.w3.org/1999/xlink" version="1.1" id="266148754_Outlined_2__grid" x="0px" y="0px" width="32px" height="32px" viewBox="0 0 32 32" style="enable-background:new 0 0 32 32;" xml:space="preserve">
<path id="266148754_shock_x5F_color_grid" class="stshockcolor" style="fill:#BFBFBF;" d="M16,18.5c-1.379,0-2.5-1.121-2.5-2.5c0-1.378,1.121-2.5,2.5-2.5  c1.378,0,2.5,1.122,2.5,2.5C18.5,17.379,17.378,18.5,16,18.5z M21.5,16c0,1.379,1.122,2.5,2.5,2.5s2.5-1.121,2.5-2.5  c0-1.378-1.122-2.5-2.5-2.5S21.5,14.622,21.5,16z M10.5,16c0-1.378-1.121-2.5-2.5-2.5S5.5,14.622,5.5,16c0,1.379,1.121,2.5,2.5,2.5  S10.5,17.379,10.5,16z"/>
<path style="fill:#4D5152;" d="M8,13c-1.657,0-3,1.343-3,3c0,1.656,1.343,3,3,3s3-1.344,3-3C11,14.343,9.657,13,8,13z M8,18  c-1.103,0-2-0.897-2-2c0-1.103,0.897-2,2-2s2,0.897,2,2C10,17.103,9.103,18,8,18z M16,13c-1.657,0-3,1.343-3,3c0,1.656,1.343,3,3,3  c1.656,0,3-1.344,3-3C19,14.343,17.656,13,16,13z M16,18c-1.103,0-2-0.897-2-2c0-1.103,0.897-2,2-2c1.103,0,2,0.897,2,2  C18,17.103,17.103,18,16,18z M24,13c-1.656,0-3,1.343-3,3c0,1.656,1.344,3,3,3s3-1.344,3-3C27,14.343,25.656,13,24,13z M24,18  c-1.103,0-2-0.897-2-2c0-1.103,0.897-2,2-2s2,0.897,2,2C26,17.103,25.103,18,24,18z"/>
</svg>
