<?xml version="1.0"?>
<svg xmlns="http://www.w3.org/2000/svg" xmlns:xlink="http://www.w3.org/1999/xlink" version="1.1" id="266148757_Layer_1_grid" x="0px" y="0px" width="32px" height="32px" viewBox="0 0 32 32" style="enable-background:new 0 0 32 32;" xml:space="preserve">
<path id="266148757_shock_x5F_color_grid" class="stshockcolor" style="fill:#FF61E1;" d="M12.332,27.497c-1.376,0-2.858-0.724-2.858-2.313  c0-1.632,1.655-3.226,3.613-3.48l3.413-0.442l0.004,2.864c-0.1,1.597-1.713,3.092-3.599,3.334  C12.713,27.484,12.519,27.497,12.332,27.497z M22.5,10.008V6.049l-6-1.411v3.959L22.5,10.008z"/>
<path style="fill:#4D5152;" d="M16,4.007v16.794c-0.428,0.056-1.283,0.164-3,0.388c-2.209,0.284-4,2.084-4,3.952  c0,1.869,1.791,3.102,4,2.816c2.17-0.281,3.928-2.028,3.988-3.863H17V9.227l6,1.412V5.654L16,4.007z M12.842,26.963  c-0.172,0.022-0.344,0.034-0.51,0.034c-1.136,0-2.358-0.568-2.358-1.813c0-1.37,1.485-2.765,3.178-2.984  c1.511-0.193,2.364-0.305,2.848-0.368v2.263h0.005C15.922,25.428,14.486,26.752,12.842,26.963 M22,9.377l-5-1.176V5.269l5,1.176  V9.377z"/>
</svg>
