<?xml version="1.0"?>
<svg xmlns="http://www.w3.org/2000/svg" xmlns:xlink="http://www.w3.org/1999/xlink" version="1.1" id="266148758_Outlined_2__grid" x="0px" y="0px" width="32px" height="32px" viewBox="0 0 32 32" style="enable-background:new 0 0 32 32;" xml:space="preserve">
<path id="266148758_shock_x5F_color_grid" class="stshockcolor" style="fill:#67DDE0;" d="M25.5,7.5v22H9c-1.38,0-2.5-1.12-2.5-2.5V6.09l0.84,0.76  C7.8,7.27,8.39,7.5,9,7.5H25.5z"/>
<path style="fill:#BFBFBF;" d="M24.5,7.5v-5H9C7.622,2.5,6.5,3.622,6.5,5S7.622,7.5,9,7.5H24.5z"/>
<path style="opacity:0.3;fill:#FFFFFF;" d="M7.34,6.85C7.8,7.27,8.39,7.5,9,7.5v22c-1.38,0-2.5-1.12-2.5-2.5V6.09L7.34,6.85z   M16.5,9.639v3.96l6,1.411v-3.959L16.5,9.639z M13.089,21.705L13.089,21.705c-1.96,0.255-3.615,1.849-3.615,3.48  c0,1.59,1.481,2.313,2.857,2.313c0.188,0,0.381-0.013,0.574-0.038c1.885-0.242,3.499-1.737,3.598-3.334L16.5,21.264L13.089,21.705z"/>
<path style="fill:#4D5152;" d="M26,3V2C26,2,9.843,2,9,2C7.343,2,6,3.343,6,5c0,0,0,19.657,0,22c0,1.657,1.343,3,3,3  c2.393,0,17,0,17,0V7h-1V3H26z M9,3c1.438,0,15,0,15,0v4c0,0-13.896,0-15,0S7,6.104,7,5S7.896,3,9,3z M25,29c0,0-14.896,0-16,0  s-2-0.896-2-2V7.222C7.532,7.7,8.228,8,9,8h16V29z M13,27.959c2.171-0.281,3.928-2.028,3.989-3.863H17v-9.867l6,1.412v-4.984  l-7-1.647v11.794c-0.428,0.055-1.283,0.164-3,0.387c-2.209,0.285-4,2.084-4,3.953S10.791,28.244,13,27.959z M17,10.271l5,1.177  v2.932l-5-1.176V10.271z M13.152,22.201c1.511-0.193,2.363-0.305,2.848-0.368v2.263h0.005c-0.083,1.334-1.519,2.658-3.163,2.869  c-0.172,0.022-0.344,0.034-0.511,0.034c-1.135,0-2.357-0.568-2.357-1.813C9.974,23.814,11.459,22.421,13.152,22.201z"/>
</svg>
