<?xml version="1.0" encoding="utf-8"?>
<!-- Generator: Adobe Illustrator 16.0.0, SVG Export Plug-In . SVG Version: 6.00 Build 0)  -->
<svg xmlns="http://www.w3.org/2000/svg" xmlns:xlink="http://www.w3.org/1999/xlink" version="1.1" id="266185655_Capa_1_grid" x="0px" y="0px" width="32px" height="32px" viewBox="0 0 32 32" style="enable-background:new 0 0 32 32;" xml:space="preserve">

<path id="266185655_shock_x5F_color_grid" class="stshockcolor" d="M6,17.5c-0.827,0-1.5-0.673-1.5-1.5s0.673-1.5,1.5-1.5h20c0.827,0,1.5,0.673,1.5,1.5  s-0.673,1.5-1.5,1.5H6z M26,11.5c0.827,0,1.5-0.673,1.5-1.5S26.827,8.5,26,8.5H6c-0.827,0-1.5,0.673-1.5,1.5s0.673,1.5,1.5,1.5H26z   M26,23.5c0.827,0,1.5-0.673,1.5-1.5s-0.673-1.5-1.5-1.5H6c-0.827,0-1.5,0.673-1.5,1.5s0.673,1.5,1.5,1.5H26z" style="fill:#BFBFBF;;"/>
<path class="st0" d="M26,14H6c-1.1,0-2,0.9-2,2c0,1.1,0.9,2,2,2h20c1.1,0,2-0.9,2-2C28,14.9,27.1,14,26,14z M26,17H6  c-0.55,0-1-0.45-1-1s0.45-1,1-1h20c0.55,0,1,0.45,1,1S26.55,17,26,17z M26,8H6c-1.1,0-2,0.9-2,2s0.9,2,2,2h20c1.1,0,2-0.9,2-2  S27.1,8,26,8z M26,11H6c-0.55,0-1-0.45-1-1s0.45-1,1-1h20c0.55,0,1,0.45,1,1S26.55,11,26,11z M26,20H6c-1.1,0-2,0.9-2,2s0.9,2,2,2  h20c1.1,0,2-0.9,2-2S27.1,20,26,20z M26,23H6c-0.55,0-1-0.45-1-1s0.45-1,1-1h20c0.55,0,1,0.45,1,1S26.55,23,26,23z" style="fill:#4D5152;;"/>
</svg>
