<?xml version="1.0"?>
<svg xmlns="http://www.w3.org/2000/svg" xmlns:xlink="http://www.w3.org/1999/xlink" version="1.1" id="266148759_Layer_1_grid" x="0px" y="0px" width="32px" height="32px" viewBox="0 0 32 32" style="enable-background:new 0 0 32 32;" xml:space="preserve">
<circle id="266148759_shock_x5F_color_grid" class="stshockcolor" style="fill:#67DDE0;" cx="16" cy="16" r="12.5"/>
<path style="fill:#FFFFFF;" d="M7.179,7.885L8.283,8.99C8.108,9.288,8,9.629,8,10c0,1.105,0.896,2,2,2  c0.37,0,0.713-0.107,1.011-0.283l3.272,3.273C14.108,15.288,14,15.629,14,16c0,0.381,0.113,0.734,0.298,1.039l-3.261,3.26  C10.734,20.112,10.382,20,10,20c-1.104,0-2,0.896-2,2c0,0.381,0.113,0.733,0.298,1.038l-1.1,1.099l0.709,0.705l1.11-1.11  C9.308,23.897,9.641,24,10,24c0.497,0,0.952-0.182,1.302-0.481c0.109-0.094,0.208-0.2,0.295-0.316l9.243,3.767l1.185-0.597  L11.97,22.274C11.983,22.184,12,22.095,12,22c0-0.359-0.102-0.691-0.268-0.983l3.285-3.285C15.308,17.897,15.641,18,16,18  c1.105,0,2-0.896,2-2c0-0.359-0.103-0.691-0.269-0.983l3.285-3.285C21.309,11.897,21.641,12,22,12l0.194-0.019l4.168,10.051  l0.6-1.163l-3.825-9.226C23.657,11.282,24,10.682,24,10c0-0.359-0.103-0.691-0.269-0.983l1.11-1.11l-0.705-0.709l-1.1,1.1  C22.733,8.113,22.381,8,22,8c-0.123,0-0.242,0.016-0.358,0.037l-1.339-3.229l-1.248-0.4l1.681,4.054C20.29,8.83,20,9.377,20,10  c0,0.381,0.112,0.734,0.297,1.037l-3.26,3.261C16.733,14.113,16.381,14,16,14c-0.37,0-0.712,0.108-1.009,0.283l-3.273-3.273  C11.893,10.712,12,10.371,12,10c0-1.104-0.895-2-2-2C9.63,8,9.288,8.107,8.991,8.283L7.886,7.178L7.179,7.885z"/>
<path style="fill:#FFD878;" d="M23,10c0,0.553-0.447,1-1,1s-1-0.447-1-1c0-0.552,0.447-1,1-1S23,9.448,23,10 M17,16  c0,0.553-0.447,1-1,1c-0.552,0-1-0.447-1-1c0-0.552,0.448-1,1-1C16.553,15,17,15.448,17,16 M11,10c0,0.553-0.447,1-1,1  c-0.552,0-1-0.447-1-1c0-0.552,0.448-1,1-1C10.553,9,11,9.448,11,10 M11,22c0,0.553-0.447,1-1,1c-0.552,0-1-0.447-1-1s0.448-1,1-1  C10.553,21,11,21.447,11,22"/>
<path style="fill:#4D5152;" d="M29,16c0,7.18-5.82,13-13,13S3,23.18,3,16S8.82,3,16,3S29,8.82,29,16z M16,4C9.373,4,4,9.373,4,16  c0,6.627,5.373,12,12,12c6.627,0,12-5.373,12-12C28,9.373,22.627,4,16,4z"/>
</svg>
