<?xml version="1.0" encoding="utf-8"?>
<!-- Generator: Adobe Illustrator 16.0.0, SVG Export Plug-In . SVG Version: 6.00 Build 0)  -->
<svg xmlns="http://www.w3.org/2000/svg" xmlns:xlink="http://www.w3.org/1999/xlink" version="1.1" id="2662894146_Capa_1_grid" x="0px" y="0px" width="32px" height="32px" viewBox="0 0 32 32" style="enable-background:new 0 0 32 32;" xml:space="preserve">

<path id="2662894146_shock_x5F_color_grid" class="stshockcolor" d="M27.5,7v18c0,1.38-1.12,2.5-2.5,2.5H7c-1.38,0-2.5-1.12-2.5-2.5V7  c0-1.38,1.12-2.5,2.5-2.5h18C26.38,4.5,27.5,5.62,27.5,7z" style="fill:#67DDE0;;"/>
<polygon class="st2" points="10.5,10.482 18.145,16 10.5,21.518 " style="opacity:0.6;fill:#FFFFFF;enable-background:new    ;;"/>
<path class="st0" d="M20,10v12h1V10H20z M25,4H7C5.34,4,4,5.34,4,7v18c0,1.66,1.34,3,3,3h18c1.66,0,3-1.34,3-3V7  C28,5.34,26.66,4,25,4z M10,9.5v13l9-6.5L10,9.5z M11,11.46L17.29,16L11,20.54V11.46z M27,25c0,1.1-0.9,2-2,2H7c-1.1,0-2-0.9-2-2V7  c0-1.1,0.9-2,2-2h18c1.1,0,2,0.9,2,2V25z" style="fill:#4D5152;;"/>
</svg>
