<?xml version="1.0"?>
<svg xmlns="http://www.w3.org/2000/svg" xmlns:xlink="http://www.w3.org/1999/xlink" version="1.1" id="266247404_icon_grid" x="0px" y="0px" width="32px" height="32px" viewBox="0 0 32 32" style="enable-background:new 0 0 32 32;" xml:space="preserve">
<path id="266247404_shock_x5F_color_grid" class="stshockcolor" style="fill:#E88C77;" d="M26.45,27.95c-0.417-4.157-3.262-7.667-7.246-8.942l-0.29-0.093l-2.911,2.912  l-2.911-2.912l-0.29,0.093c-3.984,1.275-6.829,4.785-7.246,8.942L5.5,28.5h21.006L26.45,27.95z"/>
<path style="fill:#FFE4A9;" d="M10.503,11c0,3.033,2.468,5.5,5.5,5.5s5.5-2.467,5.5-5.5V8.5h-11V11z"/>
<path style="fill:#FFD878;" d="M19.003,3.5h-0.5V3.221l-0.237-0.146C17.918,2.86,17.162,2.5,16.003,2.5  c-1.079,0-1.823,0.311-2.258,0.571l-0.242,0.146V3.5h-0.5c-2.432,0-2.5,4.455-2.5,4.5v0.5h11V8C21.503,7.955,21.475,3.5,19.003,3.5z  "/>
<path style="opacity:0.2;fill:#4D5152;" d="M21.5,8.5V11h-11V8.5H14V3h4v5.5H21.5z M5.55,27v1.5H26.5V27H5.55z"/>
<path style="fill:#4D5152;" d="M18.76,18.36L16,21.12l-2.76-2.76C8.5,19.59,5,23.88,5,29h22C27,23.88,23.5,19.59,18.76,18.36z   M12.951,19.484l2.342,2.343L16,22.534l0.707-0.707l2.342-2.343c3.803,1.217,6.506,4.576,6.901,8.516H6.05  C6.445,24.061,9.149,20.701,12.951,19.484z M10,11c0,3.31,2.69,6,6,6c3.311,0,6-2.69,6-6V9h1V8h-1c0,0,0-5-3-5c0,0-1-1-3-1s-3,1-3,1  c-3,0-3,5-3,5H9v1h1V11z M19,4c1.93,0,2,3.96,2,4h-2V4z M14,3.5C14.35,3.29,15.01,3,16,3s1.66,0.29,2,0.5V8h-4V3.5z M13,4v4h-2  C11,7.96,11.09,4,13,4z M11,9h10v2c0,2.76-2.24,5-5,5s-5-2.24-5-5V9z"/>
</svg>
