<?xml version="1.0"?>
<svg xmlns="http://www.w3.org/2000/svg" id="266197737_Layer_1_grid" data-name="Layer 1" viewBox="0 0 32 32"><title>paper_planepaper_plane_color_line</title><path id="266197737_shock_color_grid" class="stshockcolor" d="M22.14,23.12,31.52,10,.8,15.81a.38.38,0,0,0-.05.74l5.41,1.76L6.51,27h0L9,25.36,13.88,22l5.53,2A2.36,2.36,0,0,0,22.14,23.12Z" fill="#67dde0"/><path d="M32,10a.43.43,0,0,0,0-.19l0-.06a0,0,0,0,1,0,0l0,0a.55.55,0,0,0-.2-.17h0a.48.48,0,0,0-.24,0h0L.7,15.31a.87.87,0,0,0-.71.82.85.85,0,0,0,.6.89l5.08,1.66L6,27a.45.45,0,0,0,0,.11v0a.61.61,0,0,0,.07.14v0h0l0,.05s0,0,0,0h0a.4.4,0,0,0,.21.09h.07a.52.52,0,0,0,.29-.09L14,22.55l5.29,1.9a2.9,2.9,0,0,0,3.31-1l9.37-13.14a0,0,0,0,0,0,0A.43.43,0,0,0,32,10Zm-8,1.91L6.16,17.78,1.33,16.21ZM7.52,25.73l0,0,1-3.09.63-1.83,3.63,1.29Zm1.13-6h0a.5.5,0,0,0-.26.29L7.72,22,6.9,24.34l-.23-5.67,16.06-5.28Zm13.08,3.09a1.87,1.87,0,0,1-2.15.68l-5.52-2h0l-3.86-1.38L30,11.2Z" fill="#4d5152"/><path d="M22.73,13.39,8.65,19.74h0a.5.5,0,0,0-.26.29L7.72,22,6.9,24.34l-.23-5.67Z" fill="#231f20" opacity="0.25"/><polygon points="12.79 22.13 7.52 25.73 7.48 25.76 8.53 22.67 9.16 20.84 12.79 22.13" fill="#231f20" opacity="0.4"/></svg>
