<?xml version="1.0" encoding="utf-8"?>
<!-- Generator: Adobe Illustrator 16.0.0, SVG Export Plug-In . SVG Version: 6.00 Build 0)  -->
<svg xmlns="http://www.w3.org/2000/svg" xmlns:xlink="http://www.w3.org/1999/xlink" version="1.1" id="Outlined_2_" x="0px" y="0px" width="32px" height="32px" viewBox="0 0 32 32" style="enable-background:new 0 0 32 32;" xml:space="preserve">

<path id="2664394480_shock_x5F_color_grid" class="stshockcolor" d="M25.5,13.5v15h-11v-4h-8v-19h5V5c0-0.85,0.52-2.47,2.49-2.5C15.98,2.53,16.5,4.15,16.5,5  v0.5h5v8H25.5z" style="fill:#AAAAAA;;"/>
<path class="st3" d="M6.5,24.5v-19h5v1.134L9.852,7.12C8.921,7.424,8.5,8.006,8.5,9v0.5h11V9c0-0.995-0.415-1.573-1.345-1.875  L16.5,6.632V5.5h5v8H15c-0.403,0-0.494,0.275-0.5,0.506V24.5H6.5z" style="opacity:0.4;fill:#FFFFFF;;"/>
<rect x="14.5" y="13.5" class="st2" width="11" height="15" style="opacity:0.8;fill:#FFFFFF;;"/>
<path class="st1" d="M25,13h-3V6c0-1-1-1-1-1h-4c0-1.19-0.79-2.97-2.98-3h-0.04C11.79,2.03,11,3.81,11,5H7C6,5,6,6,6,6v18  c0,1,1,1,1,1h7v3c0,1,1,1,1,1s9,0,10,0s1-1,1-1V14C26,13,25,13,25,13z M12,7V5c0,0,0-1.97,2-2c2,0.03,2,2,2,2v2l2,0.6  c0.67,0.22,1,0.58,1,1.4H9c0-0.82,0.33-1.18,1-1.4L12,7z M14,14v10H7V6h4v0.26L9.71,6.64C8.55,7.02,8,7.79,8,9v1h12V9  c0-1.21-0.55-1.98-1.689-2.35L17,6.26V6h3.98H21v7h-6C14,13,14,14,14,14z M25,28H15V14h9.98H25V28z M13,6c0-0.552,0.448-1,1-1  s1,0.448,1,1s-0.448,1-1,1S13,6.552,13,6z" style="fill:#4D5152;;"/>
</svg>
