<?xml version="1.0"?>
<svg xmlns="http://www.w3.org/2000/svg" xmlns:xlink="http://www.w3.org/1999/xlink" version="1.1" id="266247405_icon_grid" x="0px" y="0px" width="32px" height="32px" viewBox="0 0 32 32" style="enable-background:new 0 0 32 32;" xml:space="preserve">
<rect id="266247405_shock_x5F_color_grid" class="stshockcolor" x="4.5" y="4.5" style="fill:#75EA9C;" width="13" height="23"/>
<g style="opacity:0.4;">
	<path style="fill:#FFFFFF;" d="M7.5,5V4.5h-3v3H5C6.378,7.5,7.5,6.378,7.5,5z"/>
	<path style="fill:#FFFFFF;" d="M5,24.5H4.5v3h3V27C7.5,25.621,6.378,24.5,5,24.5z"/>
	<path style="fill:#FFFFFF;" d="M14.5,4.5V5c0,1.378,1.122,2.5,2.5,2.5h0.5v-3H14.5z"/>
	<path style="fill:#FFFFFF;" d="M14.5,27v0.5h3v-3H17C15.622,24.5,14.5,25.621,14.5,27z"/>
	<path style="fill:#FFFFFF;" d="M15.5,16c0-1.93-2.019-3.5-4.5-3.5S6.5,14.07,6.5,16s2.019,3.5,4.5,3.5S15.5,17.93,15.5,16z"/>
</g>
<path style="fill:#4D5152;" d="M6,16c0,2.209,2.239,4,5,4c2.762,0,5-1.791,5-4s-2.238-4-5-4C8.239,12,6,13.791,6,16z M15,16  c0,1.657-1.791,3-4,3s-4-1.343-4-3s1.791-3,4-3S15,14.343,15,16z M24.031,11.343l-0.707,0.707L26.273,15H18V5c0-0.553-0.447-1-1-1H5  C4.448,4,4,4.447,4,5v22c0,0.553,0.448,1,1,1h12c0.553,0,1-0.447,1-1V16h8.273l-2.949,2.95l0.707,0.707l4.157-4.157L24.031,11.343z   M5,5h2c0,1.104-0.896,2-2,2V5z M5,27v-2c1.104,0,2,0.896,2,2H5z M17,27h-2c0-1.104,0.896-2,2-2V27z M17,24c-1.657,0-3,1.343-3,3H8  c0-1.657-1.343-3-3-3V8c1.657,0,3-1.343,3-3h6c0,1.657,1.343,3,3,3V24z M17,7c-1.104,0-2-0.896-2-2h2V7z"/>
</svg>
