<?xml version="1.0"?>
<svg xmlns="http://www.w3.org/2000/svg" xmlns:xlink="http://www.w3.org/1999/xlink" version="1.1" id="266148764_Outlined_2__grid" x="0px" y="0px" width="32px" height="32px" viewBox="0 0 32 32" style="enable-background:new 0 0 32 32;" xml:space="preserve">
<path id="266148764_shock_x5F_color_grid" class="stshockcolor" style="fill:#E57C5C;" d="M25.5,7.5v22H9c-1.38,0-2.5-1.12-2.5-2.5V6.09l0.84,0.76  C7.8,7.27,8.39,7.5,9,7.5H25.5z"/>
<path style="fill:#BFBFBF;" d="M24.5,7.5v-5H9C7.622,2.5,6.5,3.622,6.5,5S7.622,7.5,9,7.5H24.5z"/>
<path style="opacity:0.2;fill:#FFFFFF;" d="M7.34,6.76C7.8,7.18,8.39,7.41,9,7.41v22c-1.38,0-2.5-1.12-2.5-2.5V6L7.34,6.76z   M19.232,22.52H15.99c-0.403,0-0.494-0.275-0.5-0.5v-6.04c0-0.145,0.049-0.48,0.5-0.48h3.241l0.15-0.189  c1.805-2.276,0.791-4.678,0.003-5.629L19.235,9.5h-2.36c-0.941,0-2.112,0-3.238,1.126c-1.169,1.169-2.137,2.604-2.137,8.393  c0,5.749,0.968,7.185,2.137,8.354c1.126,1.127,2.298,1.127,3.24,1.127h2.347l0.149-0.179c0.793-0.945,1.814-3.334,0.009-5.612  L19.232,22.52z"/>
<path style="fill:#4D5152;" d="M26,3V2C26,2,9.843,2,9,2C7.343,2,6,3.343,6,5c0,0,0,19.657,0,22c0,1.657,1.343,3,3,3  c2.393,0,17,0,17,0V7h-1V3H26z M9,3c1.438,0,15,0,15,0v4c0,0-13.896,0-15,0S7,6.104,7,5S7.896,3,9,3z M16.99,28h-0.113  c-0.962,0-1.924-0.018-2.887-0.98c-1-1-1.99-2.27-1.99-8V19v-0.02c0-5.73,0.99-7,1.99-8c0.961-0.961,1.923-0.98,2.885-0.98h0.115  c1,0,2.01,0,2.01,0s2.02,2.44-0.01,5c0,0-1,0-3,0c-1,0-1,0.98-1,0.98v3V19v0.02v3c0,0,0,1,1,1c2,0,3,0,3,0  c2.029,2.561,0,4.98,0,4.98S17.99,28,16.99,28z M25,29c0,0-2.509,0-5.543,0l0.3-0.357c0.883-1.053,2.022-3.713,0.018-6.244  l-0.301-0.379H18.99h-2.997l-0.004-0.028l0-2.972V16h3h0.483l0.3-0.379c2.004-2.527,0.874-5.199-0.003-6.259L19.471,9H19h-2.01  h-0.058h-0.058c-0.979,0-2.319,0-3.592,1.273C12.034,11.522,11,13.04,11,18.98c0,5.979,1.034,7.497,2.283,8.746  C14.557,29,15.898,29,16.877,29c-3.688,0-7.35,0-7.877,0c-1.104,0-2-0.896-2-2V7.222C7.532,7.7,8.228,8,9,8h16V29z"/>
</svg>
