<?xml version="1.0"?>
<svg xmlns="http://www.w3.org/2000/svg" id="266197735_Layer_1_grid" data-name="Layer 1" viewBox="0 0 32 32"><title>phone_vintage_color_line</title><path id="266197735_shock_color_grid" class="stshockcolor" d="M27.58,19.54v5.1a3.5,3.5,0,0,1-3.5,3.5H7.92a3.5,3.5,0,0,1-3.5-3.5v-5.1A8,8,0,0,1,6,14.69c1.35-.06,2.83-.15,4.08-.3a1,1,0,0,0,.88-1V9.77c0-.76.58-1.24,1.42-1.54v1.2a1.12,1.12,0,0,0,1.11,1.12h4.79a1.12,1.12,0,0,0,1.11-1.12V8.17c.93.3,1.57.79,1.57,1.6V13.4a1,1,0,0,0,.88,1c1.25.15,2.73.24,4.08.3A8,8,0,0,1,27.58,19.54Zm1.08-5.78c-1.45,0-4.46-.09-6.66-.36V9.77c0-2-2-3-6-3s-6,1-6,3V13.4c-2.2.27-5.21.34-6.66.36a23,23,0,0,1-.34-3A3.82,3.82,0,0,1,4,7.63C5.83,5.71,9.77,4.78,16,4.77h.06c6.2,0,10.12.93,12,2.83A3.78,3.78,0,0,1,29,10.73,25.26,25.26,0,0,1,28.66,13.76Z" fill="#ef6565"/><path d="M16,13.26a6.22,6.22,0,1,0,6.22,6.22A6.23,6.23,0,0,0,16,13.26ZM16,24.7a5.22,5.22,0,1,1,5.22-5.22A5.22,5.22,0,0,1,16,24.7Zm0-9.27a4.06,4.06,0,1,0,4.05,4.05A4.06,4.06,0,0,0,16,15.43Zm0,7.11a3.06,3.06,0,1,1,3.05-3.06A3.06,3.06,0,0,1,16,22.54ZM28.76,6.9c-2.08-2.13-6.11-3.13-12.69-3.13H16c-6.62,0-10.67,1-12.77,3.16A4.8,4.8,0,0,0,2,10.76a21.56,21.56,0,0,0,.36,3.16,1,1,0,0,0,1,.84h0l1.44,0a9.18,9.18,0,0,0-1.38,4.81v5.1a4.51,4.51,0,0,0,4.5,4.5H24.08a4.51,4.51,0,0,0,4.5-4.5v-5.1a9,9,0,0,0-1.38-4.81l1.45,0h0a1,1,0,0,0,1-.84A26.37,26.37,0,0,0,30,10.73,4.74,4.74,0,0,0,28.76,6.9ZM27.58,19.54v5.1a3.5,3.5,0,0,1-3.5,3.5H7.92a3.5,3.5,0,0,1-3.5-3.5v-5.1A8,8,0,0,1,6,14.69c1.35-.06,2.83-.15,4.08-.3a1,1,0,0,0,.88-1V9.77c0-.76.58-1.24,1.42-1.54v1.2a1.12,1.12,0,0,0,1.11,1.12h4.79a1.12,1.12,0,0,0,1.11-1.12V8.17c.93.3,1.57.79,1.57,1.6V13.4a1,1,0,0,0,.88,1c1.25.15,2.73.24,4.08.3A8,8,0,0,1,27.58,19.54ZM13.42,8A15.67,15.67,0,0,1,16,7.77a15,15,0,0,1,2.43.17V9.43a.12.12,0,0,1-.11.12H13.53a.12.12,0,0,1-.11-.12Zm15.24,5.8c-1.45,0-4.46-.09-6.66-.36V9.77c0-2-2-3-6-3s-6,1-6,3V13.4c-2.2.27-5.21.34-6.66.36a23,23,0,0,1-.34-3A3.82,3.82,0,0,1,4,7.63C5.83,5.71,9.77,4.78,16,4.77h.06c6.2,0,10.12.93,12,2.83A3.78,3.78,0,0,1,29,10.73,25.26,25.26,0,0,1,28.66,13.76Z" fill="#4d5152"/><path d="M16,14.26a5.22,5.22,0,1,0,5.22,5.22A5.22,5.22,0,0,0,16,14.26Zm0,9.27a4.05,4.05,0,1,1,4.05-4.05A4.06,4.06,0,0,1,16,23.53Z" fill="#fff" opacity="0.5"/></svg>
