<?xml version="1.0"?>
<svg xmlns="http://www.w3.org/2000/svg" xmlns:xlink="http://www.w3.org/1999/xlink" version="1.1" id="266247407_Layer_1_grid" x="0px" y="0px" width="32px" height="32px" viewBox="0 0 32 32" style="enable-background:new 0 0 32 32;" xml:space="preserve">
<path id="266247407_shock_x5F_color_grid" class="stshockcolor" style="fill:#E88C77;" d="M23,26.5c-0.915,0-1.476-0.561-1.5-1.499v-0.89l-0.598,0.119  c-0.9,0.179-1.876,0.27-2.902,0.27c-1.366,0-2.671-0.153-3.879-0.454L13.5,23.892V25c-0.024,0.931-0.599,1.5-1.5,1.5  c-0.916,0-1.476-0.561-1.5-1.499v-2.333l-0.255-0.144c-2.616-1.468-4.763-3.183-5.565-3.852L4.5,18.523V14.5h2.891l0.094-0.38  c0.233-0.942,0.628-1.846,1.174-2.688l0.269-0.415L5.684,8.855l0.622-0.417c0.621-0.416,1.317-0.626,2.07-0.626  c0.751,0,1.559,0.214,2.401,0.635l0.428,0.227l0.25-0.173c0.539-0.373,1.067-0.675,1.614-0.925C14.551,6.863,16.214,6.5,18,6.5h1  c0.061,0,6.093,0.043,8.205,3.776l0.172,0.305l0.345-0.058C27.815,10.507,27.907,10.5,28,10.5c0.827,0,1.5,0.673,1.5,1.5  c0,0.587-0.331,1.108-0.864,1.359L28.3,13.517l0.055,0.369C28.451,14.523,28.5,15.235,28.5,16c0,4.585-3.566,6.472-3.719,6.55  L24.5,22.69V25C24.476,25.931,23.901,26.5,23,26.5z"/>
<path style="fill:#67DDE0;" d="M20.86,17.99c-0.16,0.99-0.91,1.75-1.86,1.95V21h-1v-1.04c-1.57-0.25-2-1.67-2-2.46h1  c0,0.25,0.09,1.5,1.5,1.5c0.78,0,1.28-0.59,1.381-1.17c0.129-0.8-0.451-1.49-1.541-1.861c-1.879-0.619-2.369-1.939-2.199-2.958  c0.158-0.991,0.909-1.75,1.859-1.95V10h1v1.04c1.57,0.25,2,1.67,2,2.46h-1c0-0.25-0.09-1.5-1.5-1.5c-0.78,0-1.28,0.59-1.38,1.17  c-0.13,0.8,0.45,1.49,1.54,1.86C20.54,15.65,21.03,16.969,20.86,17.99"/>
<path style="fill:#4D5152;" d="M19,7c0.038,0,5.8,0.041,7.77,3.522l0.344,0.61l0.69-0.115L28,11c0.552,0,1,0.449,1,1  c0,0.386-0.226,0.741-0.575,0.905l-0.675,0.318l0.11,0.736C27.953,14.574,28,15.262,28,16c0,4.354-3.457,6.101-3.555,6.168  L24,22.465v2.523C23.988,25.45,23.806,26,23,26s-0.988-0.55-1-1v-1.499l-1.195,0.239C19.939,23.912,18.996,24,18,24  c-1.324,0-2.588-0.147-3.758-0.439L13,23.252v1.736C12.988,25.45,12.805,26,12,26s-0.988-0.55-1-1v-2.624l-0.51-0.287  C7.914,20.644,5.446,18.773,5,18.146V15h2.783l0.188-0.76c0.219-0.887,0.592-1.74,1.108-2.535l0.538-0.828l-0.822-0.549L6.584,8.854  c0.422-0.282,1.019-0.541,1.791-0.541c0.673,0,1.405,0.196,2.181,0.583l0.101,0.053l0.552,0.33l0.53-0.367  c0.512-0.353,1.015-0.642,1.553-0.89C14.706,7.344,16.29,7,18,7H19z M19,6h-1c-1.93,0-3.66,0.41-5.14,1.121  C12.25,7.4,11.69,7.73,11.17,8.09L11,8c-1-0.5-1.875-0.688-2.625-0.688C6.125,7.312,5,9,5,9l3.24,2.16C7.65,12.07,7.24,13.03,7,14H4  v4.75c0,0,2.58,2.291,6,4.211V25c0,0,0,2,2,2s2-2,2-2v-0.469C15.2,24.83,16.54,25,18,25c1.1,0,2.1-0.1,3-0.279V25c0,0,0,2,2,2  s2-2,2-2v-2c0,0,4-2,4-7c0-0.789-0.05-1.52-0.15-2.189C29.53,13.49,30,12.801,30,12c0-1.1-0.9-2-2-2c-0.12,0-0.24,0.01-0.36,0.03  C25.36,6,19,6,19,6 M13,16c0-1.303-0.671-2-1.5-2S10,14.697,10,16H13z"/>
<path style="opacity:0.4;fill:#4D5152;" d="M16,8.186C16.641,8.064,17.308,8,18,8h1c0.019,0,0.878,0.015,2,0.222V7.205  C19.855,7.007,19.015,7,19,7h-1c-0.69,0-1.354,0.071-2,0.183V8.186z"/>
</svg>
