<?xml version="1.0"?>
<svg xmlns="http://www.w3.org/2000/svg" xmlns:xlink="http://www.w3.org/1999/xlink" version="1.1" id="266247408_Layer_1_grid" x="0px" y="0px" width="32px" height="32px" viewBox="0 0 32 32" style="enable-background:new 0 0 32 32;" xml:space="preserve">
<path id="266247408_shock_x5F_color_grid" class="stshockcolor" style="fill:#BFBFBF;" d="M22.86,30.49c-0.035,0-0.071-0.004-0.107-0.012  c-0.363-0.08-0.973-0.368-1.173-0.702c-0.059-0.099-0.082-0.215-0.065-0.328l0.671-4.645l-0.416-0.226  c-2.141-1.27-4.779-3.453-6.003-4.545l-0.416-0.376l-0.324,0.454c-2.076,2.884-6.635,8.811-7.828,10.115  C7.102,30.334,6.967,30.39,6.83,30.39c-0.087,0-0.174-0.022-0.253-0.068c-0.477-0.28-1.137-1.079-1.137-1.852  c0.072-0.807,1.554-6.116,3.871-13.902l0.09-0.305l-4.416-3.971c-1.371-1.37-3.538-5.833-2.041-7.344  C3.292,2.615,3.799,2.45,4.46,2.45c1.997,0,4.752,1.465,5.771,2.474l4.031,4.477l0.306-0.09c7.932-2.36,13.104-3.803,13.834-3.859  c0.001,0,0.002,0,0.003,0c0.844,0,1.662,0.664,1.92,1.123c0.113,0.201,0.074,0.453-0.094,0.61c-1.171,1.098-7.12,5.68-10.119,7.841  l-0.455,0.325l0.374,0.413c1.101,1.234,3.288,3.873,4.519,5.951l0.088,0.172l0.164,0.299l4.628-0.661  c0.023-0.003,0.047-0.005,0.07-0.005c0.085,0,0.169,0.021,0.244,0.063c0.367,0.205,0.654,0.817,0.733,1.167  c0.044,0.193-0.03,0.395-0.19,0.513c-0.715,0.527-3.437,1.794-4.55,2.162l-0.228,0.077l-0.073,0.23  c-0.386,1.136-1.637,3.815-2.172,4.552C23.17,30.415,23.019,30.49,22.86,30.49z"/>
<path style="fill:#4D5152;" d="M29.508,21.007l-4.433,0.633L25,21.5c-1.241-2.095-3.408-4.745-4.598-6.068  c3.026-2.174,9.355-7.054,10.296-7.995c0.122-0.122,0.246-0.275,0.246-0.492c0-0.826-1.292-2-2.5-2  c-0.844,0-9.583,2.567-14.02,3.887l-3.802-4.221C9.164,3.153,4.396,0.8,2.597,2.597C0.776,4.42,3.18,9.191,4.611,10.622l4.221,3.802  c-1.32,4.437-3.887,13.176-3.888,14.021c0.001,1.207,1.175,2.5,2.001,2.5c0.216,0,0.37-0.125,0.492-0.247  c0.941-0.94,5.82-7.27,7.995-10.296c1.324,1.189,3.974,3.355,6.068,4.598l0.141,0.076l-0.634,4.432c0,0.865,1.315,1.5,2.001,1.5  c0.174,0,0.339-0.075,0.484-0.223h0.001c0.579-0.579,2.027-3.757,2.409-4.884c1.126-0.381,4.304-1.83,4.883-2.408  c0.147-0.146,0.223-0.312,0.223-0.486C31.007,22.322,30.373,21.007,29.508,21.007 M25.35,25.033l-0.195,0.12l-0.121,0.195  c-0.556,1.667-1.82,4.125-2.177,4.641c-0.337-0.074-0.797-0.349-0.85-0.481l0.758-4.927c-2.793-1.815-6.295-4.516-7.368-5.588  l-0.122-0.11c-2.204,3.103-7.472,9.893-8.452,11.009c-0.316-0.186-0.878-0.807-0.879-1.443c0.028-0.714,2.322-8.624,4.027-14.343  l-4.652-4.19C3.404,8,2.227,4.555,3.392,3.39c1.144-1.143,4.595,0,6.523,1.928l4.19,4.653c5.72-1.705,13.628-3.999,14.339-4.027  c0.643,0,1.267,0.569,1.449,0.877c-1.11,0.977-7.905,6.248-11.01,8.453l0.109,0.122c1.072,1.073,3.772,4.574,5.587,7.368l4.901-0.76  c0.157,0.055,0.434,0.516,0.508,0.854C29.476,23.212,27.017,24.477,25.35,25.033"/>
<path style="fill:#67DDE0;" d="M5.659,5.659c-0.879,0.879-0.879,2.303,0,3.182C6.537,9.72,6.75,9.931,6.75,9.931l0.707-0.707  l-1.091-1.09c-0.488-0.489-0.488-1.28,0-1.768s1.279-0.488,1.768,0c0.488,0.488,1.091,1.091,1.091,1.091L9.932,6.75  c0,0-0.732-0.733-1.091-1.091C7.962,4.78,6.537,4.78,5.659,5.659"/>
</svg>
