<?xml version="1.0"?>
<svg xmlns="http://www.w3.org/2000/svg" xmlns:xlink="http://www.w3.org/1999/xlink" version="1.1" id="266148765_Outlined_2__grid" x="0px" y="0px" width="32px" height="32px" viewBox="0 0 32 32" style="enable-background:new 0 0 32 32;" xml:space="preserve">
<path id="266148765_shock_x5F_color_grid" class="stshockcolor" style="fill:#67DDE0;" d="M20.502,11.493c0.797,0,1.572,0.155,2.306,0.46l0.692,0.288V5.5  c0-0.551-0.448-1-1-1h-15c-0.551,0-1,0.449-1,1v21c0,0.552,0.449,1,1,1h15c0.552,0,1-0.448,1-1v-3.743l-0.691,0.287  c-0.735,0.306-1.512,0.46-2.307,0.46c-3.312,0-6.006-2.694-6.006-6.006C14.496,14.187,17.19,11.493,20.502,11.493z"/>
<path style="opacity:0.7;fill:#FFFFFF;" d="M20.502,11.493c0.797,0,1.572,0.155,2.306,0.46l0.692,0.288V5.5c0-0.551-0.448-1-1-1h-15  c-0.551,0-1,0.449-1,1v21c0,0.552,0.449,1,1,1h15c0.552,0,1-0.448,1-1v-3.743l-0.691,0.287c-0.735,0.306-1.512,0.46-2.307,0.46  c-3.312,0-6.006-2.694-6.006-6.006C14.496,14.187,17.19,11.493,20.502,11.493z"/>
<path style="fill:#67DDE0;" d="M20.502,11.502c-3.306,0-5.996,2.69-5.996,5.996c0,3.306,2.69,5.995,5.996,5.995  c3.307,0,5.996-2.689,5.996-5.995C26.498,14.192,23.809,11.502,20.502,11.502z"/>
<path style="fill:#4D5152;" d="M25.43,21.723c0.979-1.137,1.579-2.606,1.579-4.225c0-2.304-1.201-4.323-3.009-5.479V5.5  C24,4.672,23.328,4,22.5,4h-15C6.671,4,6,4.672,6,5.5v21C6,27.328,6.671,28,7.5,28h15c0.828,0,1.5-0.672,1.5-1.5v-3.521  c0.256-0.164,0.496-0.349,0.726-0.546l4.441,4.441l0.707-0.707L25.43,21.723z M23,26.5c0,0.276-0.224,0.5-0.5,0.5h-15  C7.224,27,7,26.776,7,26.5v-21C7,5.224,7.224,5,7.5,5h15C22.776,5,23,5.224,23,5.5v5.992c-0.77-0.32-1.612-0.499-2.498-0.499  c-3.593,0-6.506,2.912-6.506,6.505c0,3.594,2.913,6.506,6.506,6.506c0.886,0,1.729-0.179,2.498-0.498V26.5z M20.502,22.993  c-3.035,0-5.496-2.46-5.496-5.495s2.46-5.496,5.496-5.496s5.496,2.461,5.496,5.496S23.537,22.993,20.502,22.993z"/>
<g>
	<g>
		<path style="fill:#FFFFFF;" d="M17,18c-0.276,0-0.5-0.224-0.5-0.5c0-1.506,0.833-2.87,2.173-3.56    c0.245-0.125,0.548-0.029,0.673,0.216c0.127,0.246,0.03,0.547-0.216,0.673c-1.005,0.517-1.63,1.54-1.63,2.67    C17.5,17.776,17.276,18,17,18z"/>
	</g>
	<circle style="fill:#FFFFFF;" cx="20.46" cy="14" r="0.5"/>
</g>
</svg>
