<?xml version="1.0"?>
<svg xmlns="http://www.w3.org/2000/svg" xmlns:xlink="http://www.w3.org/1999/xlink" version="1.1" id="266148767_Outlined_2__grid" x="0px" y="0px" width="32px" height="32px" viewBox="0 0 32 32" style="enable-background:new 0 0 32 32;" xml:space="preserve">
<path id="266148767_shock_x5F_color_grid" class="stshockcolor" style="fill:#AAAAAA;" d="M26,10.5H6c-1.378,0-2.5,1.122-2.5,2.5v10.5h6v-3h13v3h6V13  C28.5,11.622,27.379,10.5,26,10.5z"/>
<path style="fill:#FFFFFF;" d="M22.5,4.5v6h-13v-6H22.5z M9.5,28.5h4.033l0.112-0.345C13.847,27.537,14.422,26.5,16,26.5  s2.152,1.037,2.354,1.655l0.113,0.345H22.5v-8h-13V28.5z"/>
<path style="opacity:0.4;fill:#4D5152;" d="M28.5,16v7.5h-6v-3h-13v3h-6V16H28.5z"/>
<path style="fill:#4D5152;" d="M11,13h2v2h-2V13z M5,15h2v-2H5V15z M8,15h2v-2H8V15z M29,13v10c0,0.55-0.45,1-1,1h-5v5h-5  c0,0,0-2-2-2s-2,2-2,2H9v-5H4c-0.55,0-1-0.45-1-1V13c0-1.66,1.34-3,3-3h3V4h14v6h3C27.66,10,29,11.34,29,13z M10,10h12V5H10V10z   M22,21H10v7h3.17c0.33-1.01,1.19-2,2.83-2c1.64,0,2.5,0.99,2.83,2H22V21z M28,13c0-1.1-0.9-2-2-2H6c-1.1,0-2,0.9-2,2  c0,1.5,0,10,0,10h5v-2H8v-1h16v1h-1v2h5C28,23,28,14,28,13z"/>
</svg>
