<?xml version="1.0"?>
<svg xmlns="http://www.w3.org/2000/svg" xmlns:xlink="http://www.w3.org/1999/xlink" version="1.1" id="266247409_icon_grid" x="0px" y="0px" width="32px" height="32px" viewBox="0 0 32 32" style="enable-background:new 0 0 32 32;" xml:space="preserve">
<rect id="266247409_shock_x5F_color_grid" class="stshockcolor" x="6.5" y="7.5" style="fill:#E57C5C;" width="19" height="17"/>
<path style="fill:#BFBFBF;" d="M22.5,12c0,1.101-0.897,1.5-1.5,1.5H11c-0.603,0-1.5-0.399-1.5-1.5c0-0.603,0.399-1.5,1.5-1.5h10  C21.603,10.5,22.5,10.899,22.5,12z M6.5,25c0,1.978,1.635,2.5,2.5,2.5h14c1.978,0,2.5-1.636,2.5-2.5v-0.5h-19V25z M25.5,7v0.5h-19V7  c0-0.865,0.522-2.5,2.5-2.5h14C23.864,4.5,25.5,5.022,25.5,7z"/>
<path style="opacity:0.3;fill:#4D5152;" d="M25.5,23v3h-19v-3H25.5z M6.5,6v3h19V6H6.5z"/>
<path style="fill:#4D5152;" d="M23,4H9C6.799,4,6,5.794,6,7v1v16v1c0,2.201,1.794,3,3,3h14c2.201,0,3-1.794,3-3v-1V8V7  C26,4.799,24.206,4,23,4z M9,5c2,0,14,0,14,0s2,0,2,2H7C7,7,7,5,9,5z M23,27c-2,0-14,0-14,0s-2,0-2-2h18C25,25,25,27,23,27z M25,24  H7c0-3.373,0-12.89,0-16h18C25,11.373,25,20.891,25,24z M11,14h10c0.97,0,2-0.701,2-2s-1.03-2-2-2H11c-1.299,0-2,1.03-2,2  C9,13.299,10.03,14,11,14z M11,11c1,0,10,0,10,0s1,0,1,1s-1,1-1,1H11c0,0-1,0-1-1C10,12,10,11,11,11z"/>
</svg>
