<?xml version="1.0"?>
<svg xmlns="http://www.w3.org/2000/svg" xmlns:xlink="http://www.w3.org/1999/xlink" version="1.1" id="266247412_Layer_1_grid" x="0px" y="0px" width="32px" height="32px" viewBox="0 0 32 32" style="enable-background:new 0 0 32 32;" xml:space="preserve">
<path id="266247412_shock_x5F_color_grid" class="stshockcolor" style="fill:#FF61E1;" d="M26.5,24.98c0,1.02,0,2.52-2.5,2.52H8c-2.5,0-2.5-1.5-2.5-2.5  c0.01-0.19,0.09-0.54,0.23-1c0.53-1.75,1.86-5.05,2.72-6.78c0.63-1.26,1.23-1.6,1.45-1.69l0.09-0.03h12.02l0.09,0.03  c0.23,0.09,0.82,0.43,1.45,1.69c0.87,1.73,2.19,5.04,2.73,6.78C26.41,24.45,26.49,24.8,26.5,24.98z"/>
<path style="opacity:0.2;fill:#FFFFFF;" d="M26.28,24H5.73c0.53-1.75,1.86-5.05,2.72-6.78c0.63-1.26,1.23-1.6,1.45-1.69l0.09-0.03  h2.51c0,0,0,2.12,0,3.5s1.57,2.5,3.5,2.5c1.93,0,3.5-1.12,3.5-2.5s0-3.5,0-3.5h2.51l0.09,0.03c0.23,0.09,0.82,0.43,1.45,1.69  C24.42,18.95,25.74,22.26,26.28,24z"/>
<path style="fill:#4D5152;" d="M15,19c0-0.55,0.45-1,1-1s1,0.45,1,1s-0.45,1-1,1S15,19.55,15,19z M27,25c0,1,0,3-3,3H8c-3,0-3-2-3-3  s2-6,3-8s2-2,2-2V8c0,0,0-5,6-5s6,5,6,5v7c0,0,1,0,2,2S27,24,27,25z M11,15h10V8c0,0,0-4-5-4s-5,4-5,4V15z M13,19c0,0,0,2,3,2  s3-2,3-2v-3h-6V19z M26,25c0-0.753-1.921-5.606-2.895-7.553c-0.577-1.155-1.076-1.404-1.188-1.447H20v3c0,0,0,3-4,3s-4-3-4-3v-3  h-1.918c-0.112,0.043-0.61,0.292-1.187,1.447C7.921,19.394,6,24.247,6,25c0,1.028,0,2,2,2h16C26,27,26,26.028,26,25z"/>
</svg>
