<?xml version="1.0"?>
<svg xmlns="http://www.w3.org/2000/svg" xmlns:xlink="http://www.w3.org/1999/xlink" version="1.1" id="266148768_Outlined_2__grid" x="0px" y="0px" width="32px" height="32px" viewBox="0 0 32 32" style="enable-background:new 0 0 32 32;" xml:space="preserve">
<path id="266148768_shock_x5F_color_grid" class="stshockcolor" style="fill:#67DDE0;" d="M28.341,25.597L16.512,5.881c-0.231-0.386-0.792-0.386-1.023,0L7.917,18.5h0  l-4.258,7.097C3.42,25.994,3.707,26.5,4.17,26.5h23.659C28.293,26.5,28.579,25.994,28.341,25.597z"/>
<path style="opacity:0.4;fill:#FFFFFF;" d="M24.083,18.5H7.917l2.4-4h11.367L24.083,18.5z M15.599,5.697L12.717,10.5h6.566  l-2.882-4.803C16.22,5.394,15.781,5.394,15.599,5.697z M26.483,22.5H5.517L3.67,25.578C3.427,25.983,3.719,26.5,4.193,26.5h23.615  c0.473,0,0.766-0.517,0.521-0.922L26.483,22.5z"/>
<path style="fill:#4D5152;" d="M28.86,25.49l-12-20C16.68,5.18,16.35,5,16,5c-0.35,0-0.68,0.18-0.86,0.49l-12,20  c-0.18,0.3-0.19,0.689-0.01,1C3.31,26.81,3.64,27,4,27h24c0.36,0,0.69-0.19,0.87-0.51C29.05,26.18,29.04,25.79,28.86,25.49z M16,6  l2.4,4h-4.8L16,6z M13,11h6l1.8,3h-9.6L13,11z M10.6,15h10.8l1.8,3H8.8L10.6,15z M8.2,19h15.6l1.8,3H6.4L8.2,19z M4,26l1.8-3h20.4  l1.8,3H4z"/>
</svg>
