<?xml version="1.0"?>
<svg xmlns="http://www.w3.org/2000/svg" xmlns:xlink="http://www.w3.org/1999/xlink" version="1.1" id="266148770_Outlined_2__grid" x="0px" y="0px" width="32px" height="32px" viewBox="0 0 32 32" style="enable-background:new 0 0 32 32;" xml:space="preserve">
<path id="266148770_shock_x5F_color_grid" class="stshockcolor" style="fill:#AAAAAA;" d="M16,3.5C9.107,3.5,3.5,9.107,3.5,16S9.107,28.5,16,28.5S28.5,22.893,28.5,16  S22.893,3.5,16,3.5z"/>
<path style="fill:#4D5152;" d="M16,3C8.819,3,3,8.82,3,16c0,7.181,5.819,13,13,13c7.18,0,13-5.819,13-13C29,8.82,23.18,3,16,3z   M16,28C9.383,28,4,22.617,4,16C4,9.383,9.383,4,16,4c6.617,0,12,5.383,12,12C28,22.617,22.617,28,16,28z"/>
</svg>
