<?xml version="1.0" encoding="UTF-8" standalone="no"?>
<svg
   xmlns:dc="http://purl.org/dc/elements/1.1/"
   xmlns:cc="http://creativecommons.org/ns#"
   xmlns:rdf="http://www.w3.org/1999/02/22-rdf-syntax-ns#"
   xmlns:svg="http://www.w3.org/2000/svg"
   xmlns="http://www.w3.org/2000/svg"
   xmlns:sodipodi="http://sodipodi.sourceforge.net/DTD/sodipodi-0.dtd"
   xmlns:inkscape="http://www.inkscape.org/namespaces/inkscape"
   version="1.1"
   id="266789708_Outlined_2__grid"
   x="0px"
   y="0px"
   width="32px"
   height="32px"
   viewBox="0 0 32 32"
   style="enable-background:new 0 0 32 32;"
   xml:space="preserve"
   sodipodi:docname="radio_microphone_color.svg"
   inkscape:version="1.0.1 (3bc2e813f5, 2020-09-07)"><metadata
   id="metadata12"><rdf:RDF><cc:Work
       rdf:about=""><dc:format>image/svg+xml</dc:format><dc:type
         rdf:resource="http://purl.org/dc/dcmitype/StillImage" /><dc:title></dc:title></cc:Work></rdf:RDF></metadata><defs
   id="defs10" /><sodipodi:namedview
   pagecolor="#ffffff"
   bordercolor="#666666"
   borderopacity="1"
   objecttolerance="10"
   gridtolerance="10"
   guidetolerance="10"
   inkscape:pageopacity="0"
   inkscape:pageshadow="2"
   inkscape:window-width="1195"
   inkscape:window-height="963"
   id="namedview8"
   showgrid="false"
   inkscape:zoom="25.9375"
   inkscape:cx="16"
   inkscape:cy="16"
   inkscape:window-x="0"
   inkscape:window-y="0"
   inkscape:window-maximized="0"
   inkscape:current-layer="266789708_Outlined_2__grid" />

<path
   id="266789708_shock_x5F_color_grid"
   class="stshockcolor"
   d="M20.5,9v7c0,0.18-0.06,4.5-4,4.5c-3.95,0-4-4.32-4-4.5V9c0-4.45,3.84-4.5,4-4.5  S20.5,4.57,20.5,9z"
   style="fill-rule:evenodd;clip-rule:evenodd;fill:#67dde0;fill-opacity:1" />
<path
   class="st1"
   d="m 20.5,9 v 3.5 h -8 V 9 c 0,-4.45 3.84,-4.5 4,-4.5 0.16,0 4,0.07 4,4.5 z"
   style="clip-rule:evenodd;opacity:0.4;mix-blend-mode:overlay;fill:#a4ebec;fill-opacity:1;fill-rule:evenodd"
   id="path3" />
<path
   class="st2"
   d="M16.5,21c4.5,0,4.5-5,4.5-5s0-1.049,0-3c0-0.312,0-0.642,0-1c0-0.869,0-1.872,0-3c0-5-4.5-5-4.5-5S12,4,12,9  c0,1.128,0,2.131,0,3c0,0.358,0,0.688,0,1c0,1.951,0,3,0,3S12,21,16.5,21z M13,9c0-3.838,3.136-3.995,3.504-4  C16.882,5.001,20,5.127,20,9v3h-7V9z M13,13h7v3c0,0.163-0.04,4-3.5,4c-3.374,0-3.497-3.594-3.5-4V13z M23,12v4.5  c-0.001,0.031-0.001,0.917-0.338,2.042c-0.336,1.121-1.019,2.503-2.416,3.437C19.42,22.53,18.338,22.892,17,22.968V27h2v1h-5v-1h2  v-4.032c-1.338-0.076-2.42-0.438-3.246-0.989c-0.931-0.62-1.547-1.446-1.951-2.255c-0.806-1.62-0.8-3.182-0.803-3.224V12h1v4.5  l0,0.026l0.004,0.096c0.004,0.087,0.013,0.215,0.032,0.374c0.037,0.32,0.111,0.767,0.259,1.259c0.296,0.988,0.88,2.138,2.013,2.892  C14.067,21.65,15.083,21.999,16.5,22c1.329-0.001,2.305-0.308,3.046-0.761c0.74-0.454,1.255-1.063,1.619-1.705  c0.73-1.281,0.827-2.698,0.834-2.983L22,16.5V12H23z"
   style="fill-rule:evenodd;clip-rule:evenodd;fill:#4D5152;;"
   id="path5" />
</svg>
