<?xml version="1.0" encoding="UTF-8" standalone="no"?>
<svg
   xmlns:dc="http://purl.org/dc/elements/1.1/"
   xmlns:cc="http://creativecommons.org/ns#"
   xmlns:rdf="http://www.w3.org/1999/02/22-rdf-syntax-ns#"
   xmlns:svg="http://www.w3.org/2000/svg"
   xmlns="http://www.w3.org/2000/svg"
   xmlns:sodipodi="http://sodipodi.sourceforge.net/DTD/sodipodi-0.dtd"
   xmlns:inkscape="http://www.inkscape.org/namespaces/inkscape"
   version="1.1"
   id="266789708_Outlined_2__grid"
   x="0px"
   y="0px"
   width="32px"
   height="32px"
   viewBox="0 0 32 32"
   style="enable-background:new 0 0 32 32;"
   xml:space="preserve"
   sodipodi:docname="radio_microphone_off.svg"
   inkscape:version="1.0.1 (3bc2e813f5, 2020-09-07)"><metadata
   id="metadata12"><rdf:RDF><cc:Work
       rdf:about=""><dc:format>image/svg+xml</dc:format><dc:type
         rdf:resource="http://purl.org/dc/dcmitype/StillImage" /></cc:Work></rdf:RDF></metadata><defs
   id="defs10" /><sodipodi:namedview
   pagecolor="#ffffff"
   bordercolor="#666666"
   borderopacity="1"
   objecttolerance="10"
   gridtolerance="10"
   guidetolerance="10"
   inkscape:pageopacity="0"
   inkscape:pageshadow="2"
   inkscape:window-width="1381"
   inkscape:window-height="991"
   id="namedview8"
   showgrid="false"
   inkscape:zoom="12.96875"
   inkscape:cx="30.43565"
   inkscape:cy="17.252297"
   inkscape:window-x="0"
   inkscape:window-y="0"
   inkscape:window-maximized="0"
   inkscape:current-layer="266789708_Outlined_2__grid" />

<path
   id="266789708_shock_x5F_color_grid"
   class="stshockcolor"
   d="m 13.251807,9.0771084 v 6.9999996 c 0,0.18 -0.06,4.5 -3.9999998,4.5 -3.95,0 -4,-4.32 -4,-4.5 V 9.0771084 c 0,-4.45 3.84,-4.5 4,-4.5 0.16,0 3.9999998,0.07 3.9999998,4.5 z"
   style="clip-rule:evenodd;fill:#aaaaaa;fill-rule:evenodd" />
<path
   class="st1"
   d="M 13.251807,9.0771084 V 12.577108 H 5.2518072 V 9.0771084 c 0,-4.45 3.84,-4.5 4,-4.5 0.16,0 3.9999998,0.07 3.9999998,4.5 z"
   style="clip-rule:evenodd;opacity:0.4;fill:#ffffff;fill-rule:evenodd"
   id="path3" />
<path
   class="st2"
   d="m 9.2518072,21.077108 c 4.4999998,0 4.4999998,-5 4.4999998,-5 0,0 0,-1.049 0,-3 0,-0.312 0,-0.642 0,-1 0,-0.869 0,-1.872 0,-2.9999996 0,-5 -4.4999998,-5 -4.4999998,-5 0,0 -4.5,0 -4.5,5 0,1.1279996 0,2.1309996 0,2.9999996 0,0.358 0,0.688 0,1 0,1.951 0,3 0,3 0,0 0,5 4.5,5 z m -3.5,-11.9999996 c 0,-3.838 3.136,-3.995 3.504,-4 0.378,10e-4 3.4959998,0.127 3.4959998,4 V 12.077108 H 5.7518072 Z m 0,3.9999996 h 6.9999998 v 3 c 0,0.163 -0.04,4 -3.4999998,4 -3.374,0 -3.497,-3.594 -3.5,-4 z m 9.9999998,-1 v 4.5 c -10e-4,0.031 -10e-4,0.917 -0.338,2.042 -0.336,1.121 -1.019,2.503 -2.416,3.437 -0.826,0.551 -1.908,0.913 -3.2459998,0.989 v 4.032 h 1.9999998 v 1 H 6.7518072 v -1 h 2 v -4.032 c -1.338,-0.076 -2.42,-0.438 -3.246,-0.989 -0.931,-0.62 -1.547,-1.446 -1.951,-2.255 -0.806,-1.62 -0.8,-3.182 -0.803,-3.224 v -4.5 h 1 v 4.5 0.026 l 0.004,0.096 c 0.004,0.087 0.013,0.215 0.032,0.374 0.037,0.32 0.111,0.767 0.259,1.259 0.296,0.988 0.88,2.138 2.013,2.892 0.759,0.503 1.775,0.852 3.192,0.853 1.3289998,-10e-4 2.3049998,-0.308 3.0459998,-0.761 0.74,-0.454 1.255,-1.063 1.619,-1.705 0.73,-1.281 0.827,-2.698 0.834,-2.983 l 10e-4,-0.051 v -4.5 z"
   style="clip-rule:evenodd;fill:#4d5152;fill-rule:evenodd"
   id="path5" />
<path
   style="fill:#4d5152"
   d="m 25.16915,15.422891 3.536,3.536 -0.707,0.707 -3.536,-3.535 -3.535,3.535 -0.706999,-0.708 3.534999,-3.536 -3.534999,-3.535 0.706999,-0.707 3.535,3.536 3.536,-3.536 0.707,0.707 z"
   id="path7"
   sodipodi:nodetypes="ccccccccccccc" /></svg>
