<?xml version="1.0"?>
<svg xmlns="http://www.w3.org/2000/svg" xmlns:xlink="http://www.w3.org/1999/xlink" version="1.1" id="266247413_icon_grid" x="0px" y="0px" width="32px" height="32px" viewBox="0 0 32 32" style="enable-background:new 0 0 32 32;" xml:space="preserve">
<path id="266247413__x3C_Trazado_compuesto_x3E__grid" style="fill:#C9A287;" d="M23.66,24.366l-0.226-0.208l0.085-0.297  c0.111-0.391,0.29-0.828,0.514-1.377C24.652,20.972,25.5,18.9,25.5,16c0-2.9-0.848-4.972-1.488-6.538  c-0.205-0.502-0.381-0.935-0.492-1.325l-0.085-0.296l0.225-0.208c0.416-0.383,0.651-0.852,0.763-1.521l0.108-0.65l-0.655,0.071  c-0.667,0.072-1.022,0.322-1.521,0.821L22.13,6.577l-0.297-0.105C20.713,6.075,17.99,5.5,16,5.5c-1.989,0-4.712,0.575-5.833,0.972  L9.87,6.577L9.646,6.354C9.148,5.854,8.793,5.604,8.125,5.532L7.47,5.461l0.108,0.65C7.69,6.781,7.925,7.25,8.34,7.633l0.226,0.209  L8.481,8.137C8.364,8.544,8.18,8.994,7.967,9.514C7.348,11.027,6.5,13.101,6.5,16s0.848,4.973,1.469,6.491  c0.213,0.521,0.397,0.97,0.512,1.371l0.084,0.295l-0.226,0.209c-0.415,0.385-0.65,0.854-0.761,1.523L7.47,26.539l0.655-0.07  c0.666-0.072,1.021-0.322,1.521-0.822l0.223-0.223l0.297,0.105C11.288,25.926,14.011,26.5,16,26.5s4.712-0.574,5.833-0.971  l0.298-0.105l0.223,0.223c0.501,0.5,0.856,0.751,1.521,0.822l0.655,0.07l-0.108-0.649C24.311,25.22,24.075,24.75,23.66,24.366z"/>
<path style="opacity:0.2;fill:#4D5152;" d="M23.66,24.366l-0.226-0.208l0.085-0.297c0.111-0.391,0.29-0.828,0.514-1.377  C24.652,20.972,25.5,18.9,25.5,16h-19c0,2.899,0.848,4.973,1.469,6.491c0.213,0.521,0.397,0.97,0.512,1.371l0.084,0.295  l-0.226,0.209c-0.415,0.385-0.65,0.854-0.761,1.523L7.47,26.539l0.655-0.07c0.666-0.072,1.021-0.322,1.521-0.822l0.223-0.223  l0.297,0.105C11.288,25.926,14.011,26.5,16,26.5s4.712-0.574,5.833-0.971l0.298-0.105l0.223,0.223  c0.501,0.5,0.856,0.751,1.521,0.822l0.655,0.07l-0.108-0.649C24.311,25.22,24.075,24.75,23.66,24.366z"/>
<path id="266247413_shock_x5F_color_1__grid" class="stshockcolor" style="fill:#FFD878;" d="M21.5,11v-0.5H21c-0.158,0-3.487,0.03-5,2.354  c-1.513-2.324-4.842-2.354-5-2.354h-0.5V11c0,3.026,1.074,4.388,2.032,5c-0.958,0.612-2.032,1.974-2.032,5v0.5H11  c0.158,0,3.487-0.03,5-2.354c1.513,2.323,4.842,2.354,5,2.354h0.5V21c0-3.026-1.073-4.388-2.031-5  C20.427,15.388,21.5,14.026,21.5,11z"/>
<path style="opacity:0.3;fill:#FFFFFF;" d="M21,10.5c-0.158,0-3.487,0.03-5,2.354c-1.513-2.324-4.842-2.354-5-2.354h-0.5V11  c0,3.026,1.074,4.388,2.032,5c-0.958,0.612-2.032,1.974-2.032,5v0.5l11-11H21z"/>
<path style="fill:#4D5152;" d="M26,16c0-4-1.57-6.5-2-8c0.67-0.62,1-1.46,1-3c-1.45,0-2,0-3,1c-1.13-0.4-3.88-1-6-1s-4.87,0.6-6,1  C9,5,8.45,5,7,5c0,1.54,0.33,2.38,1,3c-0.43,1.5-2,4-2,8s1.57,6.5,2,8c-0.67,0.62-1,1.46-1,3c1.45,0,2,0,3-1c1.13,0.4,3.88,1,6,1  s4.87-0.6,6-1c1,1,1.55,1,3,1c0-1.54-0.33-2.38-1-3C24.43,22.5,26,20,26,16z M22.707,25.293l-0.446-0.446l-0.595,0.211  C20.579,25.442,17.936,26,16,26s-4.579-0.558-5.666-0.942l-0.595-0.211l-0.446,0.446c-0.464,0.464-0.715,0.624-1.222,0.679  c0.106-0.639,0.324-0.976,0.608-1.238l0.452-0.418l-0.169-0.591c-0.123-0.429-0.313-0.892-0.532-1.428C7.826,20.821,7,18.801,7,16  s0.826-4.821,1.43-6.297c0.219-0.535,0.409-0.999,0.532-1.428l0.169-0.592L8.679,7.266C8.396,7.004,8.178,6.667,8.071,6.029  c0.507,0.055,0.757,0.213,1.222,0.678l0.446,0.446l0.595-0.21C11.422,6.558,14.066,6,16,6s4.578,0.558,5.666,0.943l0.595,0.21  l0.446-0.446c0.465-0.465,0.715-0.623,1.222-0.678c-0.106,0.638-0.324,0.975-0.608,1.236l-0.451,0.418l0.17,0.592  c0.122,0.43,0.313,0.893,0.531,1.43C24.174,11.18,25,13.201,25,16c0,2.8-0.826,4.82-1.43,6.295c-0.219,0.537-0.409,1.001-0.531,1.43  l-0.17,0.592l0.451,0.417c0.284,0.263,0.502,0.6,0.608,1.238C23.422,25.917,23.172,25.757,22.707,25.293z M16,12.029  C14.224,10.027,11.158,10,11,10h-1v1c0,2.697,0.819,4.183,1.716,5C10.819,16.817,10,18.302,10,21v1h1c0.158,0,3.224-0.027,5-2.03  c1.776,2.003,4.843,2.03,5,2.03h1v-1c0-2.698-0.819-4.183-1.716-5C21.181,15.183,22,13.697,22,11v-1h-1  C20.843,10,17.776,10.027,16,12.029z M18,16c0,0,3,0,3,5c0,0-4,0-5-3c-1,3-5,3-5,3c0-5,3-5,3-5s-3,0-3-5c0,0,4,0,5,3c1-3,5-3,5-3  C21,16,18,16,18,16z"/>
</svg>
