<?xml version="1.0"?>
<svg xmlns="http://www.w3.org/2000/svg" xmlns:xlink="http://www.w3.org/1999/xlink" version="1.1" id="266148771_Outlined_2__grid" x="0px" y="0px" width="32px" height="32px" viewBox="0 0 32 32" style="enable-background:new 0 0 32 32;" xml:space="preserve">
<circle id="266148771_shock_x5F_color_grid" class="stshockcolor" style="fill:#75EA9C;" cx="16" cy="16" r="12.5"/>
<circle style="opacity:0.4;fill:#FFFFFF;" cx="16" cy="16" r="8"/>
<path style="fill:#4D5152;" d="M16,3.01C8.82,3.01,3.01,8.82,3.01,16c0,7.18,5.81,12.99,12.99,12.99c7.18,0,12.99-5.811,12.99-12.99  C28.99,8.82,23.18,3.01,16,3.01z M16,28C9.37,28,4,22.63,4,16S9.37,4,16,4c3.31,0,6.3,1.34,8.47,3.5h0.03l-0.01,0.01  C26.66,9.69,28,12.69,28,16C28,22.63,22.63,28,16,28z M21.66,10.34C23.1,11.79,24,13.79,24,16c0,4.42-3.58,8-8,8h-0.33l2.48,2.48  l-0.71,0.71L13.76,23.51l3.67-3.689l0.71,0.71l-2.45,2.45L15.71,23H16c3.86,0,7-3.14,7-7c0-1.93-0.78-3.68-2.05-4.95L21.66,10.34z   M9,16c0,1.93,0.78,3.68,2.05,4.95l-0.71,0.71C8.9,20.21,8,18.21,8,16c0-4.42,3.58-8,8-8c0.11,0,0.23,0,0.34,0.01l-2.49-2.49  l0.71-0.71l3.68,3.68l-3.67,3.69l-0.71-0.71l2.45-2.45L16.3,9.01C16.2,9,16.1,9,16,9C12.14,9,9,12.14,9,16z"/>
</svg>
