<?xml version="1.0"?>
<svg xmlns="http://www.w3.org/2000/svg" xmlns:xlink="http://www.w3.org/1999/xlink" version="1.1" id="266148772_Layer_1_grid" x="0px" y="0px" width="32px" height="32px" viewBox="0 0 32 32" style="enable-background:new 0 0 32 32;" xml:space="preserve">
<circle id="266148772_shock_x5F_color_grid" class="stshockcolor" style="fill:#75EA9C;" cx="16" cy="16" r="12.5"/>
<circle style="opacity:0.4;fill:#FFFFFF;" cx="16" cy="16" r="8"/>
<path style="fill:#4D5152;" d="M16,3.006C8.823,3.006,3.005,8.823,3.005,16c0,7.177,5.818,12.994,12.995,12.994  S28.994,23.177,28.994,16C28.994,8.823,23.177,3.006,16,3.006 M16,28C9.372,28,4,22.628,4,16C4,9.372,9.372,4,16,4  c3.307,0,6.299,1.338,8.47,3.5h0.03l-0.015,0.015C26.657,9.686,28,12.686,28,16C28,22.628,22.628,28,16,28 M20.949,11.051  c1.267,1.267,2.05,3.017,2.05,4.949c0,3.865-3.134,6.999-6.999,6.999c-3.866,0-7-3.134-7-6.999s3.134-6.999,7-6.999  c0.104,0,0.204,0.013,0.307,0.017l-2.447,2.454l0.708,0.706l3.677-3.687l-3.687-3.677l-0.706,0.708l2.502,2.496  C16.235,8.012,16.119,8,16,8c-4.419,0-8,3.582-8,8s3.581,8,8,8c4.418,0,8-3.582,8-8c0-2.209-0.896-4.209-2.344-5.657L20.949,11.051z  "/>
</svg>
