<?xml version="1.0" encoding="utf-8"?>
<!-- Generator: Adobe Illustrator 16.0.0, SVG Export Plug-In . SVG Version: 6.00 Build 0)  -->
<svg xmlns="http://www.w3.org/2000/svg" xmlns:xlink="http://www.w3.org/1999/xlink" version="1.1" id="266789712_Layer_1_grid" x="0px" y="0px" width="32px" height="32px" viewBox="0 0 32 32" style="enable-background:new 0 0 32 32;" xml:space="preserve">

<path id="266789712_shock_x5F_color_grid" class="stshockcolor" d="M27.5,25c0,1.381-1.119,2.5-2.5,2.5H7c-1.381,0-2.5-1.119-2.5-2.5V7  c0-1.381,1.119-2.5,2.5-2.5h18c1.381,0,2.5,1.119,2.5,2.5V25z" style="fill:#67DDE0;;"/>
<path class="st1" d="M8.75,16l5.75-5.5v11L8.75,16z M21.5,21.5v-11L15.75,16L21.5,21.5z" style="fill:#FFFFFF;;"/>
<path class="st0" d="M15,22.5v-13L8,16L15,22.5z M14,20.258L9.415,16L14,11.742V20.258z M25,4H7C5.343,4,4,5.343,4,7v18  c0,1.657,1.343,3,3,3h18c1.657,0,3-1.343,3-3V7C28,5.343,26.657,4,25,4 M27,25c0,1.104-0.896,2-2,2H7c-1.104,0-2-0.896-2-2V7  c0-1.104,0.896-2,2-2h18c1.104,0,2,0.896,2,2V25z M22,22.5v-13L15,16L22,22.5z M21,20.258L16.414,16L21,11.742V20.258z" style="fill:#4D5152;;"/>
</svg>
