<?xml version="1.0"?>
<svg xmlns="http://www.w3.org/2000/svg" xmlns:xlink="http://www.w3.org/1999/xlink" version="1.1" id="266148773_Layer_1_grid" x="0px" y="0px" width="32px" height="32px" viewBox="0 0 32 32" style="enable-background:new 0 0 32 32;" xml:space="preserve">
<path id="266148773_shock_x5F_color_grid" class="stshockcolor" style="fill:#75EA9C;" d="M25.5,16c0,5.247-4.253,9.5-9.5,9.5c-5.247,0-9.5-4.253-9.5-9.5  c0-5.247,4.253-9.5,9.5-9.5C21.247,6.5,25.5,10.753,25.5,16z M16,11.5c-2.485,0-4.5,2.015-4.5,4.5s2.015,4.5,4.5,4.5  s4.5-2.015,4.5-4.5S18.485,11.5,16,11.5z"/>
<path style="fill:#4D5152;" d="M15.998,5.999C10.476,5.999,6,10.474,6,15.996c0,5.521,4.476,9.998,9.998,9.998  c5.521,0,9.998-4.477,9.998-9.998C25.996,10.474,21.52,5.999,15.998,5.999 M15.956,24.994c-4.974-0.024-8.985-4.073-8.96-9.043  s4.076-8.978,9.05-8.953c4.973,0.025,8.984,4.074,8.959,9.042C24.98,21.011,20.929,25.02,15.956,24.994 M16.001,10.951  c-2.775,0-5.025,2.258-5.025,5.042c0,2.785,2.25,5.042,5.025,5.042c2.776,0,5.026-2.257,5.026-5.042  C21.027,13.209,18.777,10.951,16.001,10.951 M16.001,19.987c-2.207,0-3.997-1.788-3.997-3.994S13.794,12,16.001,12  s3.997,1.788,3.997,3.994S18.208,19.987,16.001,19.987"/>
</svg>
