<?xml version="1.0"?>
<svg xmlns="http://www.w3.org/2000/svg" xmlns:xlink="http://www.w3.org/1999/xlink" version="1.1" id="266247415_icon_grid" x="0px" y="0px" width="32px" height="32px" viewBox="0 0 32 32" style="enable-background:new 0 0 32 32;" xml:space="preserve">
<path id="266247415_shock_x5F_color_grid" class="stshockcolor" style="fill:#BFBFBF;" d="M5.5,6.853v18.294c0,0.747,0.605,1.353,1.353,1.353h18.294  c0.747,0,1.353-0.605,1.353-1.353V6.853c0-0.748-0.605-1.353-1.353-1.353H6.853C6.105,5.5,5.5,6.105,5.5,6.853z"/>
<path style="fill-rule:evenodd;clip-rule:evenodd;fill:#4D5152;" d="M25,5H7C5,5,5,7,5,7v18c0,2,2,2,2,2h1v2h1v-2h14v2h1v-2h1  c2,0,2-2,2-2V7C27,5,25,5,25,5z M26,24.988C25.988,25.45,25.806,26,25,26H7.012C6.55,25.988,6,25.806,6,25V7.012  C6.012,6.55,6.195,6,7,6h17.992C25.453,6.013,26,6.197,26,7V24.988z M22,8H10c-2,0-2,2-2,2s0,10,0,12s2,2,2,2s10,0,12,0s2-2,2-2V10  C24,8,22,8,22,8z M23,21.988C22.988,22.45,22.806,23,22,23H10.012C9.55,22.988,9,22.806,9,22V10.012C9.012,9.55,9.195,9,10,9h11.992  C22.453,9.013,23,9.197,23,10V21.988z M19.5,14c-1.379,0-2.5,1.122-2.5,2.5c0,1.208,0.86,2.217,2,2.449V21h1v-2.051  c1.14-0.232,2-1.241,2-2.449C22,15.122,20.879,14,19.5,14z M19.5,18c-0.828,0-1.5-0.672-1.5-1.5s0.672-1.5,1.5-1.5  s1.5,0.672,1.5,1.5S20.328,18,19.5,18z"/>
<path style="opacity:0.4;fill:#4D5152;" d="M22.457,8.588H9.543c-0.528,0-0.955,0.427-0.955,0.955v12.914  c0,0.527,0.427,0.955,0.955,0.955h12.914c0.527,0,0.955-0.428,0.955-0.955V9.543C23.412,9.016,22.984,8.588,22.457,8.588z   M19.5,18.412c-1.056,0-1.912-0.856-1.912-1.912s0.856-1.912,1.912-1.912s1.912,0.856,1.912,1.912S20.556,18.412,19.5,18.412z"/>
</svg>
