<?xml version="1.0"?>
<svg xmlns="http://www.w3.org/2000/svg" xmlns:xlink="http://www.w3.org/1999/xlink" version="1.1" id="266247417_icon_grid" x="0px" y="0px" width="32px" height="32px" viewBox="0 0 32 32" style="enable-background:new 0 0 32 32;" xml:space="preserve">
<path id="266247417_shock_x5F_color_grid" class="stshockcolor" style="fill:#75EA9C;" d="M4.5,6.5v18c0,0.553,0.448,1,1,1h21c0.553,0,1-0.447,1-1v-18H4.5z"/>
<path style="opacity:0.3;fill:#4D5152;" d="M4.5,22.5V24c0,0.827,0.673,1.5,1.5,1.5h20c0.827,0,1.5-0.673,1.5-1.5v-1.5H4.5z"/>
<path style="opacity:0.4;fill:#FFFFFF;" d="M27,9.5c-1.379,0-2.5-1.122-2.5-2.5V6.5h-17V7c0,1.378-1.122,2.5-2.5,2.5H4.5v7H5  c1.378,0,2.5,1.121,2.5,2.5v0.5h17V19c0-1.379,1.121-2.5,2.5-2.5h0.5v-7H27z M16,17.5c-1.93,0-3.5-2.019-3.5-4.5s1.57-4.5,3.5-4.5  s3.5,2.019,3.5,4.5S17.93,17.5,16,17.5z"/>
<path style="fill:#4D5152;" d="M16,8c-2.21,0-4,2.24-4,5s1.79,5,4,5s4-2.24,4-5S18.21,8,16,8z M16,17c-1.66,0-3-1.79-3-4s1.34-4,3-4  s3,1.79,3,4S17.66,17,16,17z M27,6H5C4.45,6,4,6.45,4,7v17c0,2,2,2,2,2h20c2,0,2-2,2-2V7C28,6.45,27.55,6,27,6z M5,7h2  c0,1.1-0.9,2-2,2V7z M5,17c1.1,0,2,0.9,2,2H5V17z M27,24c-0.01,0.46-0.2,1-1,1H6.01C5.55,24.99,5,24.81,5,24v-1h22V24z M27,20.99  C26.99,21.45,26.81,22,26,22H6.01C5.55,21.99,5,21.81,5,21v-1h22V20.99z M27,19h-2c0-1.1,0.9-2,2-2V19z M27,16c-1.66,0-3,1.34-3,3H8  c0-1.66-1.34-3-3-3v-6c1.66,0,3-1.34,3-3h16c0,1.66,1.34,3,3,3V16z M27,9c-1.1,0-2-0.9-2-2h2V9z"/>
</svg>
