<?xml version="1.0" encoding="utf-8"?>
<!-- Generator: Adobe Illustrator 16.0.0, SVG Export Plug-In . SVG Version: 6.00 Build 0)  -->
<svg xmlns="http://www.w3.org/2000/svg" xmlns:xlink="http://www.w3.org/1999/xlink" version="1.1" id="2662894187_Capa_1_grid" x="0px" y="0px" width="32px" height="32px" viewBox="0 0 32 32" style="enable-background:new 0 0 32 32;" xml:space="preserve">

<path id="2662894187_shock_x5F_color_grid" class="stshockcolor" d="M27.5,9v15c0,1.41-1.25,1.5-1.5,1.5H7c-1.41,0-1.5-1.25-1.5-1.5V9  c0-0.25,0.09-1.5,1.5-1.5h19C26.25,7.5,27.5,7.59,27.5,9z" style="fill-rule:evenodd;clip-rule:evenodd;fill:#AAAAAA;;"/>
<path class="st1" d="M27.5,9v4.5h-22V9c0-0.25,0.09-1.5,1.5-1.5h19C26.25,7.5,27.5,7.59,27.5,9z" style="opacity:0.4;fill-rule:evenodd;clip-rule:evenodd;fill:#FFFFFF;;"/>
<path class="st2" d="M26,7H7C5,7,5,9,5,9v15c0,0,0,2,2,2h19c0,0,2,0,2-2V9C28,7,26,7,26,7z M20.3,8l2,2h-3.6l-2-2H20.3z M18.7,11  h3.6l-2,2h-3.6L18.7,11z M15.3,13h-3.6l2-2h3.6L15.3,13z M15.3,8l2,2h-3.6l-2-2H15.3z M6,9.01C6.01,8.55,6.19,8,7,8h3.3l2,2H6V9.01z   M6,11h6.3l-2,2H6V11z M27,24c0,0.81-0.55,0.99-1,1H7c-0.81,0-0.99-0.55-1-1V14h21V24z M27,13h-5.3l2-2H27V13z M27,10h-3.3l-2-2  h4.29C26.45,8.01,27,8.2,27,9V10z M25,20H8v1h17V20z M10,23h13v-1H10V23z" style="fill-rule:evenodd;clip-rule:evenodd;fill:#4D5152;;"/>
</svg>
