<?xml version="1.0"?>
<svg xmlns="http://www.w3.org/2000/svg" xmlns:xlink="http://www.w3.org/1999/xlink" version="1.1" id="266148774_Layer_1_grid" x="0px" y="0px" width="32px" height="32px" viewBox="0 0 32 32" style="enable-background:new 0 0 32 32;" xml:space="preserve">
<path id="266148774_shock_x5F_color_grid" class="stshockcolor" style="fill-rule:evenodd;clip-rule:evenodd;fill:#AAAAAA;" d="M16.5,14.5V18  c0,5.91-0.69,9.54-2.13,10.82c-0.09,0.08-0.21,0.12-0.33,0.12c-0.07,0-0.14-0.011-0.21-0.04c-0.17-0.08-0.29-0.261-0.29-0.46V18.51  L6.36,25.73c-0.09,0.1-0.22,0.149-0.35,0.149c-0.06,0-0.12-0.01-0.18-0.03C5.65,25.78,5.52,25.61,5.51,25.41  c-0.12-1.9,2.11-5.24,6.27-9.38c0.16-0.17,1.56-1.58,2.17-2.2L16.5,14.5z"/>
<path style="opacity:0.4;fill-rule:evenodd;clip-rule:evenodd;fill:#FFFFFF;" d="M16.5,14.5v1.03l-2.96,2.98L6.36,25.73  c-0.09,0.1-0.22,0.149-0.35,0.149c-0.06,0-0.12-0.01-0.18-0.03C5.65,25.78,5.52,25.61,5.51,25.41c-0.12-1.9,2.11-5.24,6.27-9.38  c0.16-0.17,1.56-1.58,2.17-2.2L16.5,14.5z"/>
<path style="fill-rule:evenodd;clip-rule:evenodd;fill:#4D5152;" d="M10.539,8.5c-3.224,0-3.224-5,0-5S13.763,8.5,10.539,8.5   M26.268,13.55c-2.278,2.281-5.814-1.256-3.535-3.536C25.012,7.734,28.548,11.271,26.268,13.55  C25.292,14.527,27.244,12.573,26.268,13.55 M26.97,9.31c-1.56-1.57-3.779-1.17-5.229,0.28c-0.28,0.28-0.561,0.56-0.84,0.84  c-0.971,0.97-1.891,2.1-2.971,2.95c-1.55,1.23-3.91,0.08-3.89-1.9V9.09c0-0.69,0.02-1.37,0.02-2.06c0-0.34-0.01-0.69-0.02-1.03  c0-2.22-2.14-3.92-4.3-3.41C7.58,3.1,6.42,5.55,7.39,7.54c1.05,2.13,3.98,2.61,5.65,0.9v5.6c0,0.3-1.18,1.19-1.41,1.42  c-0.68,0.68-1.36,1.38-2.02,2.09c-1.89,2.07-6.16,6.49-4.06,9.641l7.49-7.48V30c1.5-0.3,2.39-1.56,2.91-2.92  c1.069-2.83,1.09-6.09,1.09-9.08v-2.29c1.32-1.32,2.64-2.64,3.96-3.97c-0.03,2.47,2.54,4.21,4.82,3.29  C28.1,14.1,28.71,11.05,26.97,9.31z M16.04,18c0,6.47-0.89,9.46-2,10.44v-9.73l2-2V18z M6.01,25.38c-0.09-1.47,1.54-4.43,6.12-9  c0.5-0.51,1.01-1.01,1.51-1.52l0.68-0.68c0,0.16,1.911,0.72,2.121,0.72L6.01,25.38z"/>
</svg>
