<?xml version="1.0"?>
<svg xmlns="http://www.w3.org/2000/svg" xmlns:xlink="http://www.w3.org/1999/xlink" version="1.1" id="266148775_Outlined_2__grid" x="0px" y="0px" width="32px" height="32px" viewBox="0 0 32 32" style="enable-background:new 0 0 32 32;" xml:space="preserve">
<path id="266148775_shock_x5F_color_grid" class="stshockcolor" style="fill:#E88C77;" d="M25.491,19.141l-5.19-3.904l0.646-0.646l-2.115-2.129l-6.368,6.369l2.115,2.115  l0.657-0.648l3.95,5.245c0.926,0.935,1.96,1.408,3.075,1.408c1.855,0,3.21-1.332,3.284-1.406c0.058-0.058,1.405-1.428,1.404-3.289  C26.947,21.146,26.475,20.114,25.491,19.141z"/>
<polygon style="fill:#AAAAAA;" points="11.55,9.433 11.55,7.937 7.432,5.471 5.471,7.432 7.937,11.55 9.433,11.55 14.59,16.707   16.707,14.59 "/>
<polygon style="opacity:0.2;fill:#FFFFFF;" points="18.831,12.461 12.463,18.83 14.578,20.945 15.29,19.54 19.54,15.29   20.946,14.591 "/>
<path style="fill:#4D5152;" d="M25.9,18.83l-0.051-0.05l-0.06-0.04l-4.73-3.55l0.601-0.6l-0.71-0.71l-1.41-1.42l-0.71-0.7l-0.71,0.7  l-1.41,1.42l-4.66-4.66V7.66l-0.49-0.3L8.03,5.24l-0.67-0.4L6.81,5.39L5.39,6.81L4.84,7.36l0.4,0.67l2.12,3.53l0.3,0.49h1.56  l4.66,4.66l-1.42,1.41l-0.7,0.71l0.7,0.71l1.42,1.41l0.7,0.71l0.6-0.601l3.56,4.73l0.04,0.06l0.05,0.051  c1.03,1.029,2.18,1.55,3.43,1.55c2.07,0,3.58-1.49,3.641-1.55C27.12,24.68,28.7,21.62,25.9,18.83z M9.64,11.05H8.22L6.1,7.51  L7.51,6.1l3.54,2.12v1.42L16,14.59L14.59,16L9.64,11.05z M25.19,25.19c0,0-1.25,1.26-2.931,1.26c-0.84,0-1.779-0.311-2.72-1.26  l-4.25-5.65l-0.71,0.7l-1.41-1.41l5.66-5.66l1.41,1.42l-0.7,0.7l5.65,4.25C28.02,22.36,25.19,25.19,25.19,25.19z"/>
</svg>
