<?xml version="1.0"?>
<svg xmlns="http://www.w3.org/2000/svg" xmlns:xlink="http://www.w3.org/1999/xlink" version="1.1" id="266247418_icon_grid" x="0px" y="0px" width="32px" height="32px" viewBox="0 0 32 32" style="enable-background:new 0 0 32 32;" xml:space="preserve">
<path id="266247418_shock_x5F_color_grid" class="stshockcolor" style="fill:#FFD878;" d="M28.99,10.5H10.5v8h20V12C30.5,11.094,29.926,10.52,28.99,10.5z"/>
<path style="fill:#BFBFBF;" d="M30.5,23c0,1.379-1.121,2.5-2.5,2.5s-2.5-1.121-2.5-2.5c0-0.442,0.117-0.875,0.338-1.253  C26.295,20.967,27.103,20.5,28,20.5s1.705,0.467,2.162,1.248C30.383,22.125,30.5,22.558,30.5,23z M6,20.5  c-0.897,0-1.706,0.467-2.162,1.247C3.617,22.125,3.5,22.559,3.5,23c0,1.379,1.122,2.5,2.5,2.5s2.5-1.121,2.5-2.5  c0-0.441-0.117-0.875-0.338-1.252C7.706,20.967,6.897,20.5,6,20.5z M14,20.5c-0.897,0-1.706,0.467-2.162,1.247  C11.617,22.125,11.5,22.559,11.5,23c0,1.379,1.122,2.5,2.5,2.5s2.5-1.121,2.5-2.5c0-0.441-0.117-0.875-0.338-1.252  C15.706,20.967,14.897,20.5,14,20.5z M21,20.5c-0.897,0-1.705,0.467-2.162,1.247C18.617,22.125,18.5,22.558,18.5,23  c0,1.379,1.121,2.5,2.5,2.5s2.5-1.121,2.5-2.5c0-0.442-0.117-0.875-0.338-1.252C22.705,20.967,21.897,20.5,21,20.5z"/>
<path style="fill:#E57C5C;" d="M10.5,18.5V9.396L9.743,9.851C9.116,10.228,8.72,10.78,8.579,11L8.5,11.124V12.5h-1v4H3.112  L1.5,17.313V21c0,0.919,0.561,1.479,1.51,1.5h0.528l0.116-0.338C3.993,21.168,4.936,20.5,6,20.5s2.007,0.668,2.347,1.662L8.462,22.5  h3.075l0.116-0.338C11.993,21.168,12.936,20.5,14,20.5s2.007,0.668,2.348,1.662l0.115,0.338h2.074l0.115-0.338  C18.993,21.168,19.937,20.5,21,20.5s2.007,0.668,2.348,1.662l0.115,0.338h2.074l0.115-0.338C25.993,21.168,26.937,20.5,28,20.5  c0.617,0,1.208,0.228,1.665,0.641l0.835,0.755V18.5H10.5z"/>
<path style="fill:#FFFFFF;" d="M4,14.01C4.01,13.55,4.19,13,5,13h2v3H4V14.01z"/>
<path style="fill:#4D5152;" d="M29,10H11V9c-0.37,0-0.7,0.07-1,0.17C8.67,9.67,8,11,8,11v1H7H5c-2,0-2,2-2,2v2l-2,1v4c0,2,2,2,2,2  c0,1.66,1.34,3,3,3s3-1.34,3-3h2c0,1.66,1.34,3,3,3s3-1.34,3-3h1c0,1.66,1.34,3,3,3s3-1.34,3-3h1c0,1.66,1.34,3,3,3s3-1.34,3-3v-4  v-1v-6C31,10,29,10,29,10z M4,14.01C4.01,13.55,4.19,13,5,13h2v3H4V14.01z M6,25c-1.1,0-2-0.9-2-2c0-0.36,0.1-0.71,0.27-1  c0.35-0.6,0.99-1,1.73-1s1.38,0.4,1.73,1C7.9,22.29,8,22.64,8,23C8,24.1,7.1,25,6,25z M14,25c-1.1,0-2-0.9-2-2  c0-0.36,0.1-0.71,0.27-1c0.35-0.6,0.99-1,1.73-1s1.38,0.4,1.73,1C15.9,22.29,16,22.64,16,23C16,24.1,15.1,25,14,25z M21,25  c-1.1,0-2-0.9-2-2c0-0.36,0.1-0.71,0.27-1c0.351-0.6,0.99-1,1.73-1s1.38,0.4,1.73,1C22.9,22.29,23,22.64,23,23  C23,24.1,22.1,25,21,25z M28,25c-1.1,0-2-0.9-2-2c0-0.36,0.1-0.71,0.27-1c0.351-0.6,0.99-1,1.73-1s1.38,0.4,1.73,1  C29.9,22.29,30,22.64,30,23C30,24.1,29.1,25,28,25z M30,20.77C29.47,20.29,28.77,20,28,20c-1.31,0-2.42,0.83-2.82,2H23.82  c-0.4-1.17-1.511-2-2.82-2s-2.42,0.83-2.82,2H16.82c-0.4-1.17-1.51-2-2.82-2s-2.42,0.83-2.82,2H8.82c-0.4-1.17-1.51-2-2.82-2  s-2.42,0.83-2.82,2H3.01C2.55,21.99,2,21.81,2,21v-3.38L3.231,17H8v-1v-3h1v-1.73c0.16-0.25,0.5-0.69,1-0.99V19h20V20.77z M30,18H11  v-7h17.99c0.46,0.01,1.01,0.2,1.01,1V18z"/>
</svg>
