<?xml version="1.0"?>
<svg xmlns="http://www.w3.org/2000/svg" xmlns:xlink="http://www.w3.org/1999/xlink" version="1.1" id="266247419_icon_grid" x="0px" y="0px" width="32px" height="32px" viewBox="0 0 32 32" style="enable-background:new 0 0 32 32;" xml:space="preserve">
<path id="266247419_shock_x5F_color_grid" class="stshockcolor" style="fill:#C9A287;" d="M27.5,9V4.5H23V7H9V4.5H4.5V9H7v14H4.5v4.5H9V25h14v2.5h4.5V23H25V9H27.5z"/>
<rect id="266247419__x3C_Trazado_compuesto_x3E__grid" x="9" y="9" style="opacity:0.3;fill:#4D5152;" width="14" height="14"/>
<path style="fill:#4D5152;" d="M28,10V4h-6v2H10V4H4v6h2v12H4v6h6v-2h12v2h6v-6h-2V10H28z M26,23h1v4h-4v-1v-1h-1H10H9v1v1H5v-4h1h1  v-1V10V9H6H5V5h4v1v1h1h12h1V6V5h4v4h-1h-1v1v12v1H26z M20.5,9.06l2.69,2.68l-0.7,0.71L21,10.97V15h-1v-4.02l-1.48,1.46l-0.699-0.7  L20.5,9.06z M11.5,9.06l2.69,2.68l-0.7,0.71L12,10.97V15h-1v-4.02l-1.48,1.46l-0.7-0.7L11.5,9.06z"/>
<path style="display:none;fill:#4D5152;" d="M27.5,9V4.5H23V7H9V4.5H4.5V9H7v14H4.5v4.5H9V25h14v2.5h4.5V23H25V9H27.5z M23,23H9V9  h14V23z"/>
</svg>
