<?xml version="1.0"?>
<svg xmlns="http://www.w3.org/2000/svg" xmlns:xlink="http://www.w3.org/1999/xlink" version="1.1" id="266247420_icon_grid" x="0px" y="0px" width="32px" height="32px" viewBox="0 0 32 32" style="enable-background:new 0 0 32 32;" xml:space="preserve">
<path id="266247420_shock_x5F_color_grid" class="stshockcolor" style="fill:#FFD878;" d="M25.5,7.5h-19c-0.551,0-1,0.449-1,1v18c0,0.552,0.449,1,1,1h19  c0.552,0,1-0.448,1-1v-18C26.5,7.949,26.052,7.5,25.5,7.5z"/>
<path style="fill:#4D5152;" d="M27,7.5v19c0,0.828-0.672,1.5-1.5,1.5h-19C5.671,28,5,27.328,5,26.5v-19  c0-0.107,0.029-0.188,0.08-0.254l0.182-0.199l8.661-5c0.239-0.138,0.545-0.056,0.683,0.184c0.138,0.239,0.056,0.545-0.183,0.683  L7.343,7h17.33l-7.079-4.087c-0.239-0.138-0.321-0.443-0.183-0.683c0.138-0.239,0.443-0.321,0.683-0.184l8.66,5  c0.156,0.091,0.237,0.254,0.241,0.422L27,7.5z M26,8.5C26,8.224,25.776,8,25.5,8h-19C6.224,8,6,8.224,6,8.5v18  C6,26.776,6.224,27,6.5,27h19c0.276,0,0.5-0.224,0.5-0.5V8.5z"/>
<path style="opacity:0.4;fill:#4D5152;" d="M10.504,9.063l2.689,2.675l-0.705,0.709L11,10.968V15h-1v-4.023l-1.484,1.46  l-0.698-0.695L10.504,9.063z M18.818,11.741l0.697,0.695L21,10.977V15h1v-4.032l1.487,1.479l0.706-0.709l-2.689-2.675L18.818,11.741  z"/>
</svg>
