<?xml version="1.0"?>
<svg xmlns="http://www.w3.org/2000/svg" xmlns:xlink="http://www.w3.org/1999/xlink" version="1.1" id="266247423_icon_grid" x="0px" y="0px" width="32px" height="32px" viewBox="0 0 32 32" style="enable-background:new 0 0 32 32;" xml:space="preserve">
<rect id="266247423_shock_x5F_color_grid" class="stshockcolor" x="5.5" y="5.5" style="fill:#C9A287;" width="21" height="21"/>
<path style="opacity:0.3;fill:#4D5152;" d="M8.5,8.5h3v15h-3V8.5z M14.5,23.5h3v-15h-3V23.5z M20.5,8.5v15h3v-15H20.5z"/>
<path style="fill:#4D5152;" d="M5,5v22h22V5H5z M26,26H6V6h20V26z M18,8h-4v16h4V8z M17,23h-2V9h2V23z M24,8h-4v16h4V8z M23,23h-2V9  h2V23z M12,8H8v16h4V8z M11,23H9V9h2V23z"/>
</svg>
