<?xml version="1.0"?>
<svg xmlns="http://www.w3.org/2000/svg" xmlns:xlink="http://www.w3.org/1999/xlink" version="1.1" id="266148776_Outlined_2__grid" x="0px" y="0px" width="32px" height="32px" viewBox="0 0 32 32" style="enable-background:new 0 0 32 32;" xml:space="preserve">
<path id="266148776_shock_x5F_color_grid" class="stshockcolor" style="fill:#75EA9C;" d="M4.5,4.809v7.776l15.592,2.908c0.236,0.044,0.408,0.25,0.408,0.49  c0,0.241-0.171,0.447-0.407,0.492L4.5,19.414v7.776L26.882,16L4.5,4.809z"/>
<g style="opacity:0.5;">
	<path style="fill:#FFFFFF;" d="M20.093,15.524L4.5,12.586V4.81L26.882,16h-6.385C20.489,15.766,20.323,15.568,20.093,15.524z"/>
</g>
<path style="fill:#4D5152;" d="M4,4v9l16,2.984L4,19v9l24-12L4,4z M5,19.829l15.186-2.862C20.658,16.878,21,16.465,21,15.983  c0-0.481-0.344-0.894-0.816-0.982L5,12.169V5.618L25.764,16L5,26.382V19.829z"/>
</svg>
