<?xml version="1.0"?>
<svg xmlns="http://www.w3.org/2000/svg" xmlns:xlink="http://www.w3.org/1999/xlink" version="1.1" id="266148777_Outlined_2__grid" x="0px" y="0px" width="32px" height="32px" viewBox="0 0 32 32" style="enable-background:new 0 0 32 32;" xml:space="preserve">
<path id="266148777_shock_x5F_color_grid" class="stshockcolor" style="fill:#FF80ED;" d="M9,27.5c-2.481,0-4.5-2.019-4.5-4.5s2.019-4.5,4.5-4.5  c1.038,0,2.027,0.365,2.861,1.056l0.249,0.205l6.197-3.1l0.203-0.204l0.01-0.217c0-0.061-0.006-0.12-0.014-0.181V15.94  c0.008-0.06,0.014-0.121,0.014-0.181v-0.207l-0.203-0.204l-0.083-0.046l-6.101-3.056l-0.271,0.198C11.027,13.135,10.038,13.5,9,13.5  c-2.481,0-4.5-2.019-4.5-4.5S6.519,4.5,9,4.5s4.5,2.019,4.5,4.5c-0.014,0.119-0.02,0.18-0.02,0.24v0.214l0.209,0.199l0.077,0.043  l6.101,3.056l0.271-0.198C20.974,11.865,21.963,11.5,23,11.5c2.481,0,4.5,2.019,4.5,4.5s-2.019,4.5-4.5,4.5  c-1.037,0-2.026-0.365-2.861-1.056l-0.245-0.203l-0.288,0.138l-5.906,2.958l-0.209,0.199l-0.01,0.224  c0,0.061,0.006,0.121,0.014,0.183C13.5,25.481,11.481,27.5,9,27.5z"/>
<path style="fill:#4D5152;" d="M23,11c-1.212,0-2.311,0.451-3.177,1.172L19.8,12.16l-5.81-2.91l-0.015-0.007  C13.979,9.161,14,9.083,14,9c0-2.757-2.243-5-5-5S4,6.243,4,9s2.243,5,5,5c1.212,0,2.311-0.451,3.177-1.172L12.2,12.84l5.81,2.91  l0.015,0.007C18.021,15.839,18,15.917,18,16c0,0.083,0.021,0.161,0.024,0.243L18.01,16.25l-5.81,2.91l-0.023,0.012  C11.311,18.451,10.212,18,9,18c-2.757,0-5,2.243-5,5s2.243,5,5,5s5-2.243,5-5c0-0.083-0.021-0.161-0.024-0.243l0.015-0.007  l5.81-2.91l0.023-0.012C20.689,20.549,21.788,21,23,21c2.757,0,5-2.243,5-5S25.757,11,23,11z M5,9c0-2.206,1.794-4,4-4s4,1.794,4,4  s-1.794,4-4,4S5,11.206,5,9z M18.17,14.7l-5.24-2.62c0.03-0.038,0.049-0.083,0.078-0.121c0.11-0.148,0.206-0.303,0.298-0.463  c0.08-0.135,0.159-0.27,0.225-0.413c0.068-0.148,0.121-0.302,0.175-0.457c0.038-0.111,0.093-0.212,0.125-0.327l5.255,2.628  c-0.411,0.522-0.718,1.123-0.896,1.783L18.17,14.7z M9,27c-2.206,0-4-1.794-4-4s1.794-4,4-4s4,1.794,4,4S11.206,27,9,27z   M13.83,21.7c-0.031-0.114-0.086-0.216-0.125-0.326c-0.054-0.155-0.106-0.31-0.175-0.458c-0.065-0.143-0.145-0.276-0.224-0.412  c-0.093-0.159-0.189-0.315-0.299-0.464c-0.029-0.038-0.047-0.083-0.078-0.12l5.24-2.62l0.02-0.011  c0.178,0.66,0.484,1.261,0.896,1.783L13.83,21.7z M23,20c-2.206,0-4-1.794-4-4c0-2.206,1.794-4,4-4s4,1.794,4,4  C27,18.206,25.206,20,23,20z"/>
</svg>
