<?xml version="1.0"?>
<svg xmlns="http://www.w3.org/2000/svg" xmlns:xlink="http://www.w3.org/1999/xlink" version="1.1" id="266247427_icon_grid" x="0px" y="0px" width="32px" height="32px" viewBox="0 0 32 32" style="enable-background:new 0 0 32 32;" xml:space="preserve">
<polygon id="266247427_shock_x5F_color_grid" class="stshockcolor" style="fill:#E57C5C;" points="5.5,15.5 5.5,17.502 6.775,19.399 10,21.602 13,19.601 16,21.601   19,19.601 22,21.601 25.001,19.6 26.5,20.59 26.5,15.5 "/>
<path style="fill:#ACF0F2;" d="M27,20.567v5.766L25,25l-3,2l-3-2l-3,2l-3-2l-3,2l-3-2l-0.761,0.508L6.24,25.51l-0.851,0.564  L5,26.333v-5.766l2-0.967l3,2l3-2l3,2l3-2l3,2l3-2L27,20.567z M21.5,10.5h-5h-2.997L11.5,12.503V15.5h5h5h5v-5H21.5z"/>
<polygon style="opacity:0.4;fill:#FFFFFF;" points="21.5,10.5 16.5,15.5 5.5,15.5 5.5,18 26.5,18 26.5,15.5 26.5,10.5 "/>
<path style="fill:#4D5152;" d="M27,20.33l0.085,0.056L27,20.33L27,20.33z M27,8v12.33l-1-0.67V16H6v1.35l1.19,1.771L7,19  l-0.761,0.508L5,17.65V15h6v-2.71L13.29,10H26V8H27z M16,11h-2.29L12,12.71V15h4V11z M21,11h-4v4h4V11z M26,11h-4v4h4V11z"/>
<path style="fill:#67DDE0;" d="M25,21.799l3.277,2.185l-0.555,0.832L25,23l-3,2l-3-2l-3,2l-3-2l-3,2l-3-2l-2.723,1.815l-0.555-0.832  L7,21.799l3,2l3-2l3,2l3-2l3,2L25,21.799z M22,21l-3-2l-3,2l-3-2l-3,2l-3-2l-0.761,0.508L6.24,19.51l-0.851,0.564l-1.666,1.11  L4.28,22.02L7,20.2l3,2l3-2l3,2l3-2l3,2l3-2l2.72,1.819l0.558-0.835L25,19L22,21z"/>
</svg>
