<?xml version="1.0"?>
<svg xmlns="http://www.w3.org/2000/svg" xmlns:xlink="http://www.w3.org/1999/xlink" version="1.1" id="266247429_icon_grid" x="0px" y="0px" width="32px" height="32px" viewBox="0 0 32 32" style="enable-background:new 0 0 32 32;" xml:space="preserve">
<path id="266247429_shock_x5F_color_grid" class="stshockcolor" style="fill:#AAAAAA;" d="M25.533,11.18C25.429,10.886,24.837,9.5,23,9.5H9  c-1.889,0-2.464,1.482-2.52,1.642C5.651,13.354,3.5,19.438,3.5,21c0,0.915,0.561,1.476,1.512,1.5H16h11.013  c0.918-0.024,1.487-0.599,1.487-1.5C28.5,19.434,26.36,13.384,25.533,11.18z"/>
<polygon style="opacity:0.4;fill:#FFFFFF;" points="13.501,9.5 9.543,22.5 16,22.5 17.543,22.5 21.501,9.5 "/>
<path style="opacity:0.2;fill:#4D5152;" d="M10,21l3.501-11.5H9c-1.889,0-2.464,1.482-2.52,1.642C5.651,13.354,3.5,19.438,3.5,21  c0,0.915,0.561,1.476,1.512,1.5h4.532H16h11.013c0.918-0.024,1.487-0.599,1.487-1.5H10z"/>
<path style="fill:#4D5152;" d="M26,11c0,0-0.64-2-3-2H9c-2.36,0-3,2-3,2s-3,8-3,10s2,2,2,2s9,0,11,0s11,0,11,0s2,0,2-2S26,11,26,11z   M27,22H16H5.012C4.55,21.988,4,21.806,4,21c0-1.324,1.801-6.621,2.948-9.683C6.996,11.182,7.454,10,9,10h14  c1.547,0,2.004,1.182,2.063,1.351C26.199,14.379,28,19.676,28,21C28,21.806,27.45,21.988,27,22z M11.939,11l-1.92,8h1.03l0.479-2  h1.941l0.479,2h1.03l-1.92-8H11.939z M11.77,16l0.73-3.061L13.23,16H11.77z M20,13.512C19.581,13.195,19.065,13,18.5,13  c-1.38,0-2.5,1.12-2.5,2.5s1.12,2.5,2.5,2.5c0.565,0,1.081-0.195,1.5-0.512v1.009C19.997,18.748,19.911,20,18.5,20  s-1.497-1.252-1.5-1.503L16.5,18.5H16c0,0.864,0.522,2.5,2.5,2.5s2.5-1.636,2.5-2.5V13h-1V13.512z M18.5,17  c-0.83,0-1.5-0.67-1.5-1.5s0.67-1.5,1.5-1.5s1.5,0.67,1.5,1.5S19.33,17,18.5,17z"/>
</svg>
