<?xml version="1.0" encoding="utf-8"?>
<!-- Generator: Adobe Illustrator 16.0.0, SVG Export Plug-In . SVG Version: 6.00 Build 0)  -->
<svg xmlns="http://www.w3.org/2000/svg" xmlns:xlink="http://www.w3.org/1999/xlink" version="1.1" id="266789718_Outlined_2__grid" x="0px" y="0px" width="32px" height="32px" viewBox="0 0 32 32" style="enable-background:new 0 0 32 32;" xml:space="preserve">

<path class="st0" d="M4,25.5c-0.248-0.003-1.5-0.089-1.5-1.5V8C2.503,7.752,2.589,6.5,4,6.5h24c0.248,0.003,1.5,0.088,1.5,1.5v16  c0,1.41-1.249,1.497-1.502,1.5H4z" style="fill:#AAAAAA;;"/>
<path id="266789718_shock_x5F_color_1__grid" class="stshockcolor" d="M26,10.5c-1.229,0-2.195-0.334-2.869-0.993c-0.265-0.263-0.413-0.515-0.502-0.683  l-0.091-0.213C22.514,8.55,22.5,8.485,22.5,8.42V8.01C22.521,7.061,23.081,6.5,24,6.5h3.99C28.926,6.52,29.5,7.094,29.5,8v0.42  c0,0.059-0.01,0.116-0.029,0.171c-0.133,0.362-0.38,0.718-0.695,1.001C28.1,10.203,27.191,10.5,26,10.5z M28,25.5  c0.689,0,1.201-0.338,1.402-0.93c0.045-0.131,0.033-0.273-0.031-0.396c-0.089-0.167-0.238-0.42-0.502-0.683  C28.193,22.834,27.229,22.5,26,22.5c-1.193,0-2.102,0.298-2.771,0.906c-0.254,0.226-0.451,0.482-0.604,0.789  c-0.063,0.123-0.068,0.264-0.021,0.393c0.197,0.561,0.707,0.895,1.41,0.912H28z M18,25.5c0.689,0,1.201-0.338,1.402-0.93  c0.045-0.131,0.033-0.273-0.031-0.396c-0.089-0.167-0.238-0.42-0.502-0.683C18.193,22.834,17.229,22.5,16,22.5  c-1.193,0-2.128,0.309-2.771,0.906c-0.254,0.226-0.453,0.482-0.605,0.789c-0.061,0.123-0.068,0.264-0.023,0.393  c0.199,0.561,0.709,0.895,1.41,0.912H18z M18.773,9.593c0.315-0.284,0.563-0.64,0.694-1.001C19.49,8.536,19.5,8.479,19.5,8.42V8  c0-0.906-0.574-1.48-1.51-1.5H14c-0.919,0-1.48,0.561-1.5,1.51v0.41c0,0.065,0.014,0.13,0.038,0.19l0.091,0.215  c0.088,0.166,0.236,0.417,0.502,0.683C13.807,10.166,14.771,10.5,16,10.5C17.191,10.5,18.1,10.203,18.773,9.593z M8.773,9.593  c0.428-0.383,0.62-0.792,0.696-1.001C9.49,8.536,9.5,8.479,9.5,8.42V8c0-0.906-0.574-1.48-1.51-1.5H4c-0.919,0-1.48,0.561-1.5,1.51  v0.41c0,0.065,0.014,0.13,0.038,0.19l0.091,0.215c0.088,0.166,0.236,0.417,0.502,0.683C3.807,10.166,4.771,10.5,6,10.5  C7.191,10.5,8.127,10.193,8.773,9.593z M8,25.5c0.943,0,1.284-0.581,1.402-0.927c0.046-0.132,0.035-0.275-0.03-0.398  c-0.089-0.166-0.237-0.417-0.503-0.684C8.193,22.834,7.229,22.5,6,22.5c-1.193,0-2.128,0.309-2.771,0.906  c-0.254,0.226-0.453,0.482-0.605,0.789c-0.061,0.123-0.068,0.264-0.023,0.393C2.8,25.148,3.31,25.482,4.011,25.5H8z" style="fill:#EF6565;;"/>
<path class="st3" d="M29.5,10.04v12.92c0,0.2-0.109,0.37-0.29,0.45c-0.069,0.029-0.14,0.05-0.21,0.05c-0.12,0-0.23-0.04-0.32-0.12  c-0.66-0.561-1.56-0.84-2.68-0.84s-2.02,0.279-2.68,0.84c-0.09,0.08-0.2,0.12-0.32,0.12c-0.07,0-0.141-0.01-0.21-0.05  c-0.181-0.08-0.29-0.25-0.29-0.45V10.04c0-0.19,0.109-0.37,0.29-0.45c0.069-0.029,0.14-0.05,0.21-0.05c0.12,0,0.23,0.04,0.32,0.12  c0.66,0.56,1.56,0.84,2.68,0.84s2.02-0.28,2.68-0.84c0.09-0.08,0.2-0.12,0.32-0.12c0.07,0,0.141,0.021,0.21,0.05  C29.391,9.67,29.5,9.85,29.5,10.04z M19.21,9.59C19.141,9.561,19.07,9.54,19,9.54c-0.12,0-0.23,0.04-0.32,0.12  c-0.66,0.56-1.56,0.84-2.68,0.84c-1.4,0-2.23-0.46-2.68-0.84c-0.09-0.08-0.2-0.12-0.32-0.12c-0.07,0-0.141,0.021-0.21,0.05  c-0.181,0.08-0.29,0.26-0.29,0.45v12.92c0,0.2,0.109,0.37,0.29,0.45c0.069,0.04,0.14,0.05,0.21,0.05c0.12,0,0.23-0.04,0.32-0.12  c0.45-0.38,1.28-0.84,2.68-0.84c1.12,0,2.02,0.279,2.68,0.84c0.09,0.08,0.2,0.12,0.32,0.12c0.07,0,0.141-0.021,0.21-0.05  c0.181-0.08,0.29-0.25,0.29-0.45V10.04C19.5,9.85,19.391,9.67,19.21,9.59z M9.21,9.59C9.141,9.561,9.07,9.54,9,9.54  c-0.12,0-0.23,0.04-0.32,0.12C8.23,10.04,7.4,10.5,6,10.5s-2.23-0.46-2.68-0.84C3.23,9.58,3.12,9.54,3,9.54  c-0.07,0-0.141,0.021-0.21,0.05C2.609,9.67,2.5,9.85,2.5,10.04v12.92c0,0.2,0.109,0.37,0.29,0.45c0.069,0.04,0.14,0.05,0.21,0.05  c0.12,0,0.23-0.04,0.32-0.12C3.77,22.96,4.6,22.5,6,22.5s2.23,0.46,2.68,0.84c0.09,0.08,0.2,0.12,0.32,0.12  c0.07,0,0.141-0.01,0.21-0.05c0.181-0.08,0.29-0.25,0.29-0.45V10.04C9.5,9.85,9.391,9.67,9.21,9.59z" style="fill:#FFFFFF;;"/>
<path class="st1" d="M4,13v2h1v-1h1.43C5.02,16.01,5,18.391,5,18.5V19h1v-0.5c0-0.029,0.02-2.66,1.71-4.5l0.14-0.15L8,13.7V13H4z   M30,24V8c0-2-2-2-2-2H4C2,6,2,8,2,8v16c0,2,2,2,2,2h24C28,26,30,26,30,24z M8,25H4.01c-0.36-0.01-0.78-0.13-0.94-0.58  c0.08-0.16,0.22-0.4,0.49-0.641C3.98,23.391,4.7,23,6,23c1.391,0,2.109,0.45,2.52,0.85c0.211,0.211,0.33,0.41,0.41,0.563  C8.82,24.73,8.561,25,8,25z M9,22.96C8.391,22.439,7.43,22,6,22s-2.391,0.439-3,0.96V10.04C3.609,10.561,4.57,11,6,11  s2.391-0.439,3-0.96V22.96z M9,8.42c-0.04,0.11-0.18,0.46-0.561,0.8C8.02,9.609,7.3,10,6,10c-1.391,0-2.109-0.45-2.52-0.85  C3.27,8.94,3.15,8.74,3.07,8.59L3,8.42V8.01C3.01,7.55,3.189,7,4,7h3.99C8.45,7.01,9,7.2,9,8V8.42z M12.04,24.3  c-0.011,0.03-0.021,0.07-0.021,0.08l0.03,0.011C12.09,24.62,12.15,24.83,12.24,25H9.75c0.109-0.221,0.17-0.43,0.2-0.609l0.03-0.011  c0-0.01-0.01-0.04-0.01-0.06C10,24.13,10,24,10,24V8c0-0.42-0.1-0.74-0.24-1h2.49C12,7.5,12,8,12,8v16  C12,24.109,12.029,24.2,12.04,24.3z M18,25h-3.99c-0.359-0.01-0.779-0.13-0.939-0.58c0.08-0.16,0.22-0.4,0.49-0.641  C13.98,23.391,14.7,23,16,23c1.391,0,2.109,0.45,2.52,0.85c0.211,0.211,0.33,0.41,0.41,0.563C18.82,24.73,18.561,25,18,25z   M19,22.96C18.391,22.439,17.439,22,16,22c-1.43,0-2.391,0.439-3,0.96V10.04c0.609,0.521,1.57,0.96,3,0.96  c1.439,0,2.391-0.439,3-0.96V22.96z M19,8.42c-0.04,0.11-0.18,0.46-0.561,0.8C18.01,9.609,17.3,10,16,10  c-1.391,0-2.109-0.45-2.52-0.85c-0.211-0.21-0.33-0.41-0.41-0.56L13,8.42V8.01C13.01,7.55,13.189,7,14,7h3.99  C18.45,7.01,19,7.2,19,8V8.42z M22.04,24.3c-0.011,0.03-0.021,0.07-0.03,0.08l0.04,0.011C22.09,24.62,22.15,24.83,22.24,25h-2.49  c0.109-0.221,0.17-0.43,0.2-0.609l0.04-0.011c-0.01-0.01-0.021-0.04-0.021-0.06C20,24.13,20,24,20,24V8c0-0.42-0.1-0.74-0.24-1h2.49  C22,7.5,22,8,22,8v16C22,24.109,22.029,24.2,22.04,24.3z M28,25h-3.99c-0.359-0.01-0.779-0.13-0.939-0.58  c0.08-0.16,0.222-0.4,0.49-0.641C23.99,23.391,24.7,23,26,23c1.391,0,2.109,0.45,2.52,0.85c0.211,0.211,0.33,0.41,0.41,0.563  C28.82,24.73,28.561,25,28,25z M29,22.96C28.391,22.439,27.439,22,26,22s-2.391,0.439-3,0.96V10.04c0.609,0.521,1.561,0.96,3,0.96  s2.391-0.439,3-0.96V22.96z M29,8.42c-0.04,0.11-0.18,0.46-0.561,0.8C28.01,9.609,27.3,10,26,10c-1.391,0-2.109-0.45-2.52-0.85  c-0.211-0.21-0.33-0.41-0.41-0.56L23,8.42V8.01C23.01,7.55,23.189,7,24,7h3.99C28.45,7.01,29,7.2,29,8V8.42z M14,13v2h1v-1h1.43  C15.02,16.01,15,18.391,15,18.5V19h1v-0.5c0-0.029,0.02-2.66,1.71-4.5l0.14-0.15L18,13.7V13H14z M24,13v2h1v-1h1.43  C25.02,16.01,25,18.391,25,18.5V19h1v-0.5c0-0.029,0.02-2.66,1.71-4.5l0.14-0.15L28,13.7V13H24z" style="fill:#4D5152;;"/>
</svg>
