<?xml version="1.0"?>
<svg xmlns="http://www.w3.org/2000/svg" id="Layer_1" data-name="Layer 1" viewBox="0 0 32 32"><title>social_care_color_line</title><path d="M21.76,14.05,19,16.82l-2.76-2.77a11.08,11.08,0,0,0-5.08,3L11,17a5,5,0,0,0-3.68,1.6c-.71.71-.91.71-1.29.71H2v9H6.84c1.25.41,9.22,3,12.16,3s5.6-1.26,8.79-2.85l.5-.26A2.73,2.73,0,0,0,30,25.76h0V24.69A11,11,0,0,0,21.76,14.05ZM16,15.17l3,3,3-3A10,10,0,0,1,29,23.67a2,2,0,0,0-1.1-.36,9.43,9.43,0,0,0-3.31,1,12,12,0,0,1-4.21,1.21,3.26,3.26,0,0,1-1-.15c-1.87-.63-2.45-.82-2.88-2,.37,0,1,0,1.47,0H18c3,0,5,0,5-2.5s-3.61-2.5-6-2.5a9,9,0,0,1-2.71-.61c-.6-.19-1.21-.38-1.84-.52A10,10,0,0,1,16,15.17ZM5,27.31H3v-7H5Zm22.85,0c-3.39,1.69-5.85,3-8.85,3s-12-3-12-3H6v-7c.52,0,1,0,2-1A4,4,0,0,1,11,18c2,0,4,1.31,6,1.31s5,0,5,1.5-1,1.5-4,1.5h-.1c-1.93,0-2.86,0-2.5,1.12.6,1.88,1.57,2.2,3.6,2.88a4.25,4.25,0,0,0,1.33.2c2.73,0,5.8-2.2,7.52-2.2C28.85,24.31,29.85,26.31,27.85,27.31ZM19,12.69a6,6,0,1,0-6-6A6,6,0,0,0,19,12.69Zm0-11a5,5,0,1,1-5,5A5,5,0,0,1,19,1.69Z" fill="#4d5152"/><path id="shock_color" d="M16,15.17l3,3,3-3A10,10,0,0,1,29,23.67a2,2,0,0,0-1.1-.36,9.43,9.43,0,0,0-3.31,1,12,12,0,0,1-4.21,1.21,3.26,3.26,0,0,1-1-.15c-1.87-.63-2.45-.82-2.88-2,.37,0,1,0,1.47,0H18c3,0,5,0,5-2.5s-3.61-2.5-6-2.5a9,9,0,0,1-2.71-.61c-.6-.19-1.21-.38-1.84-.52A10,10,0,0,1,16,15.17ZM5,27.31H3v-7H5Zm22.85,0c-3.39,1.69-5.85,3-8.85,3s-12-3-12-3H6v-7c.52,0,1,0,2-1A4,4,0,0,1,11,18c2,0,4,1.31,6,1.31s5,0,5,1.5-1,1.5-4,1.5h-.1c-1.93,0-2.86,0-2.5,1.12.6,1.88,1.57,2.2,3.6,2.88a4.25,4.25,0,0,0,1.33.2c2.73,0,5.8-2.2,7.52-2.2C28.85,24.31,29.85,26.31,27.85,27.31ZM19,1.69a5,5,0,1,1-5,5A5,5,0,0,1,19,1.69Z" fill="#c3d686"/><path d="M16,15.17l3,3,3-3A10,10,0,0,1,29,23.67a2,2,0,0,0-1.1-.36,9.43,9.43,0,0,0-3.31,1,12,12,0,0,1-4.21,1.21,3.26,3.26,0,0,1-1-.15c-1.87-.63-2.45-.82-2.88-2,.37,0,1,0,1.47,0H18c3,0,5,0,5-2.5s-3.61-2.5-6-2.5a9,9,0,0,1-2.71-.61c-.6-.19-1.21-.38-1.84-.52A10,10,0,0,1,16,15.17ZM5,27.31H3v-7H5Zm22.85,0c-3.39,1.69-5.85,3-8.85,3s-12-3-12-3H6v-7c.52,0,1,0,2-1A4,4,0,0,1,11,18c2,0,4,1.31,6,1.31s5,0,5,1.5-1,1.5-4,1.5h-.1c-1.93,0-2.86,0-2.5,1.12.6,1.88,1.57,2.2,3.6,2.88a4.25,4.25,0,0,0,1.33.2c2.73,0,5.8-2.2,7.52-2.2C28.85,24.31,29.85,26.31,27.85,27.31ZM19,1.69a5,5,0,1,1-5,5A5,5,0,0,1,19,1.69Z" fill="#fff" opacity="0.2"/><path d="M3,20.31H5v7H3Zm19-5.14-3,3-3-3a10,10,0,0,0-3.53,2c.63.14,1.24.33,1.84.52a9,9,0,0,0,2.71.61c2.39,0,6,0,6,2.5s-2,2.5-5,2.5h-.1c-.51,0-1.1,0-1.47,0,.43,1.2,1,1.39,2.88,2a3.26,3.26,0,0,0,1,.15,12,12,0,0,0,4.21-1.21,9.43,9.43,0,0,1,3.31-1,2,2,0,0,1,1.1.36A10,10,0,0,0,22,15.17Z" fill="#8ea5de"/></svg>
