<?xml version="1.0"?>
<svg xmlns="http://www.w3.org/2000/svg" xmlns:xlink="http://www.w3.org/1999/xlink" version="1.1" id="266148780_Outlined_2__grid" x="0px" y="0px" width="32px" height="32px" viewBox="0 0 32 32" style="enable-background:new 0 0 32 32;" xml:space="preserve">
<circle id="266148780_shock_x5F_color_grid" class="stshockcolor" style="fill:#67DDE0;" cx="15.5" cy="16.5" r="12"/>
<path style="opacity:0.3;fill:#4D5152;" d="M12.887,27.321c-0.994-1.661-1.685-3.812-2.052-6.392l-0.062-0.43H10  c-2.048,0-3.791-0.209-5.177-0.62L3.877,19.6l0.333,0.929c1.318,3.682,4.352,6.497,8.116,7.532l1.201,0.33L12.887,27.321z"/>
<path style="opacity:0.3;fill:#FFFFFF;" d="M15.5,4.5c-0.666,0-1.348,0.063-2.083,0.193l-0.196,0.034l-0.118,0.16  C11.916,6.482,10.5,9.705,10.5,16c0,1.399,0.072,2.761,0.213,4.045l0.049,0.45l0.453-0.005c7.362-0.072,12.721-0.851,15.927-2.313  l0.26-0.119l0.029-0.284c0.044-0.418,0.069-0.843,0.069-1.273C27.5,9.883,22.117,4.5,15.5,4.5z"/>
<path style="fill:#4D5152;" d="M27.98,17.17c-0.005,0.003-0.01,0.006-0.015,0.009C27.978,16.952,28,16.729,28,16.5  C28,9.597,22.403,4,15.5,4c-0.306,0-0.606,0.024-0.907,0.046c0.002-0.002,0.004-0.004,0.007-0.006  c-0.041,0.002-0.081,0.009-0.122,0.012c-0.152,0.012-0.303,0.025-0.454,0.043c-0.367,0.041-0.729,0.093-1.084,0.165  c-0.001,0.002-0.003,0.004-0.004,0.006C7.263,5.449,3,10.476,3,16.5c0,0.73,0.076,1.442,0.196,2.139  c-0.005-0.003-0.011-0.006-0.016-0.009c0.018,0.101,0.041,0.199,0.06,0.299c0.011,0.056,0.022,0.112,0.034,0.168  c0.058,0.277,0.123,0.554,0.206,0.823c0.002,0.001,0.004,0.002,0.006,0.003c1.295,4.551,5.097,8.036,9.823,8.873  c0.003,0.005,0.007,0.01,0.01,0.014c0.281,0.05,0.563,0.088,0.849,0.118c0.074,0.008,0.15,0.01,0.225,0.017  c0.161,0.014,0.32,0.03,0.486,0.036c-0.004-0.004-0.009-0.009-0.014-0.013C15.078,28.979,15.286,29,15.5,29  c6.256,0,11.424-4.602,12.341-10.601c0.006-0.003,0.014-0.007,0.02-0.01c0.017-0.11,0.02-0.226,0.033-0.337  c0.024-0.193,0.042-0.389,0.058-0.585C27.959,17.367,27.976,17.272,27.98,17.17z M27,16.5c0,0.413-0.024,0.82-0.066,1.222  c-2.377,1.085-6.94,2.183-15.724,2.269C11.08,18.81,11,17.48,11,16c0-6.037,1.291-9.185,2.504-10.814C14.153,5.071,14.818,5,15.5,5  C21.841,5,27,10.159,27,16.5z M4,16.5c0-5.151,3.404-9.521,8.08-10.98C10.964,7.483,10,10.712,10,16c0,1.48,0.08,2.81,0.21,4H10  c-2.613,0-4.42-0.348-5.672-0.822C4.121,18.317,4,17.423,4,16.5z M4.681,20.359C5.994,20.749,7.724,21,10,21h0.34  c0.434,3.047,1.261,5.146,2.118,6.578C8.839,26.583,5.936,23.865,4.681,20.359z M15.5,28c-0.552,0-1.091-0.053-1.623-0.128  c-0.937-1.255-1.995-3.373-2.527-6.882c8.032-0.096,12.689-1.026,15.396-2.101C25.643,24.087,21.021,28,15.5,28z"/>
</svg>
