<?xml version="1.0"?>
<svg xmlns="http://www.w3.org/2000/svg" xmlns:xlink="http://www.w3.org/1999/xlink" version="1.1" id="266247431_icon_grid" x="0px" y="0px" width="32px" height="32px" viewBox="0 0 32 32" style="enable-background:new 0 0 32 32;" xml:space="preserve">
<path id="266247431_shock_x5F_color_grid" class="stshockcolor" style="fill:#67DDE0;" d="M24.992,2.5H8c-0.916,0-1.476,0.561-1.5,1.512V28  c0,0.915,0.561,1.476,1.512,1.5H25c0.915,0,1.476-0.561,1.5-1.512V4C26.5,3.086,25.941,2.526,24.992,2.5z"/>
<path style="opacity:0.7;fill:#FFFFFF;" d="M24.992,2.5H8c-0.916,0-1.476,0.561-1.5,1.512V28c0,0.915,0.561,1.476,1.512,1.5H25  c0.915,0,1.476-0.561,1.5-1.512V4C26.5,3.086,25.941,2.526,24.992,2.5z M21,27.5c-1.93,0-3.5-1.57-3.5-3.5s1.57-3.5,3.5-3.5  s3.5,1.57,3.5,3.5S22.93,27.5,21,27.5z"/>
<path style="fill:#F27C7C;" d="M21,20.5c-1.93,0-3.5,1.57-3.5,3.5s1.57,3.5,3.5,3.5s3.5-1.57,3.5-3.5S22.93,20.5,21,20.5z"/>
<path style="fill:#4D5152;" d="M21,7h-9V6h9V7z M24,9H9v1h15V9z M24,12H9v1h15V12z M24,15H9v1h15V15z M27,4v24c0,0,0,2-2,2  S8,30,8,30s-2,0-2-2V4c0,0,0-2,2-2h17C25,2,27,2,27,4z M26,4c0-0.803-0.547-0.987-1.008-1H8C7.195,3,7.012,3.551,7,4.012V28  c0,0.806,0.55,0.988,1.012,1H25c0.806,0,0.988-0.55,1-1.012V4z M25,24c0,2.21-1.79,4-4,4s-4-1.79-4-4s1.79-4,4-4S25,21.79,25,24z   M24,24c0-1.654-1.346-3-3-3s-3,1.346-3,3s1.346,3,3,3S24,25.654,24,24z M23,24c0,1.103-0.897,2-2,2s-2-0.897-2-2s0.897-2,2-2  S23,22.897,23,24z M22,24c0-0.553-0.447-1-1-1s-1,0.447-1,1s0.447,1,1,1S22,24.553,22,24z M9,27h6v-1H9V27z"/>
</svg>
