<?xml version="1.0"?>
<svg xmlns="http://www.w3.org/2000/svg" xmlns:xlink="http://www.w3.org/1999/xlink" version="1.1" id="266247430_icon_grid" x="0px" y="0px" width="32px" height="32px" viewBox="0 0 32 32" style="enable-background:new 0 0 32 32;" xml:space="preserve">
<path id="266247430_shock_x5F_color_grid" class="stshockcolor" style="fill:#EF6565;" d="M24.992,20.5h-7.458V17c0-0.221,0.059-2.24,2.084-5.277  c1.016-1.523,1.164-3.634,0.361-5.135C19.249,5.222,17.885,4.5,16.034,4.5c-1.85,0-3.214,0.722-3.945,2.088  c-0.802,1.5-0.654,3.612,0.361,5.135c2.06,3.091,2.084,5.189,2.084,5.277v3.5H7c-0.916,0-1.476,0.561-1.5,1.512V24.5h21V22  C26.5,21.087,25.941,20.526,24.992,20.5z"/>
<path style="fill:#AAAAAA;" d="M7.5,24.5v1.513C7.524,26.931,8.099,27.5,9,27.5h14.013c0.918-0.024,1.487-0.599,1.487-1.5v-1.5H7.5z  "/>
<path style="opacity:0.3;fill:#4D5152;" d="M26.5,23v1h-2v2h-17v-2h-2v-1H26.5z M17.5,19h-3v1.5h3V19z"/>
<path style="fill:#4D5152;" d="M27,22c0-2-2-2-2-2h-6.966v-3c0,0,0-2,2-5s1-8-4-8s-6,5-4,8s2,5,2,5v3H7c-2,0-2,2-2,2v3h2v1  c0,0,0,2,2,2h14c0,0,2,0,2-2v-1h2V22z M12.866,11.445c-0.917-1.376-1.056-3.277-0.336-4.622C13.168,5.631,14.38,5,16.034,5  c1.654,0,2.866,0.631,3.504,1.824c0.72,1.345,0.582,3.245-0.336,4.622c-2.107,3.161-2.168,5.319-2.168,5.555v3h-2v-3  C15.034,16.765,14.973,14.606,12.866,11.445z M24,26c0,0.806-0.55,0.988-1,1H9c-0.805,0-0.988-0.55-1-1v-1h16V26z M26,24h-1H7H6  v-1.988C6.012,21.55,6.195,21,7,21h7.034h4h6.958C25.453,21.013,26,21.197,26,22V24z"/>
</svg>
