<?xml version="1.0"?>
<svg xmlns="http://www.w3.org/2000/svg" xmlns:xlink="http://www.w3.org/1999/xlink" version="1.1" id="266247432_Layer_1_grid" x="0px" y="0px" width="32px" height="32px" viewBox="0 0 32 32" style="enable-background:new 0 0 32 32;" xml:space="preserve">
<path style="fill:#BFBFBF;" d="M19.5,18.14v3.351L5.43,19.42l0.601-4.623L19.5,18.14z M27.542,23.5H4.458l-0.958,1v1h25v-1  L27.542,23.5z"/>
<polygon style="fill:#AAAAAA;" points="25.5,19.62 25.5,24 19.5,24 19.5,18.14 "/>
<path id="266247432_shock_x5F_color_grid" class="stshockcolor" style="fill:#E57C5C;" d="M28.5,20.359L4.503,14.43C4.568,10.36,6.238,8.5,7.761,8.5  s3.313,0.334,4.621,0.916l14.348,6.281c1.258,0.55,1.771,1.455,1.771,2.087V20.359z"/>
<path style="fill:#4D5152;" d="M26.697,15.041L12.953,9.146C11.315,8.432,10.042,8,8.134,8C5.943,8,4,9.804,4,14.5  c0,0.229,0.156,0.429,0.379,0.485l1.095,0.274l-0.471,4.186c-0.03,0.269,0.159,0.513,0.426,0.551L19,21.934V23H5  c-0.969,0-2,0.701-2,1.999L3,26h26v-1c0-0.97-0.701-2-2-2h-1v-2.609l2.379,0.595c0.149,0.036,0.307,0.003,0.429-0.091  C28.929,20.8,29,20.654,29,20.5v-3C29,16.027,27.444,15.361,26.697,15.041z M6.051,19.073l0.401-3.57L19,18.641v2.283L6.051,19.073z   M27,24c1,0,1,1,1,1H4c0-1,1-1,1-1h15v-5.109l5,1.25V24H27z M28,19.859L5.003,14.11C5.066,10.384,6.666,9,8.125,9  s3.175,0.517,4.429,1.063l13.749,5.897C27.509,16.477,28,16.922,28,17.5V19.859z"/>
</svg>
