<?xml version="1.0"?>
<svg xmlns="http://www.w3.org/2000/svg" xmlns:xlink="http://www.w3.org/1999/xlink" version="1.1" id="266148781_Layer_1_grid" x="0px" y="0px" width="32px" height="32px" viewBox="0 0 32 32" style="enable-background:new 0 0 32 32;" xml:space="preserve">
<path id="266148781_shock_x5F_color_grid" class="stshockcolor" style="fill:#FFD878;" d="M8.65,27.35c-0.104,0-0.208-0.032-0.295-0.097  c-0.174-0.127-0.247-0.353-0.18-0.559l2.675-8.211L3.762,13.4c-0.176-0.126-0.251-0.353-0.185-0.559  c0.066-0.207,0.259-0.347,0.476-0.347h8.747l2.681-8.225c0.067-0.206,0.258-0.345,0.475-0.345c0,0,0,0,0,0  c0.216,0,0.408,0.138,0.475,0.343l2.718,8.227l8.796,0c0.217,0,0.409,0.14,0.476,0.347s-0.008,0.433-0.184,0.56l-7.103,5.101  l2.704,8.187c0.068,0.206-0.004,0.432-0.179,0.561c-0.088,0.064-0.191,0.097-0.296,0.097c-0.103,0-0.204-0.031-0.291-0.094  l-7.066-5.068l-7.065,5.073C8.854,27.318,8.752,27.35,8.65,27.35z"/>
<polygon style="opacity:0.4;fill:#FFFFFF;" points="13.793,17.519 10.273,14.994 14.616,14.994 15.97,10.839 17.343,14.994   21.731,14.994 18.184,17.541 19.538,21.64 16.005,19.105 12.443,21.663 "/>
<path style="fill:#4D5152;" d="M28.897,12.688c-0.133-0.413-0.518-0.694-0.952-0.694h-8.435l-2.604-7.848  c-0.136-0.41-0.519-0.652-0.949-0.652h-0.002c-0.433,0-0.815,0.245-0.949,0.656l-2.568,7.844H4.054  c-0.434,0-0.818,0.281-0.951,0.694c-0.134,0.414,0.016,0.866,0.369,1.119l6.789,4.869L7.699,26.54  c-0.134,0.411,0.011,0.861,0.36,1.117c0.176,0.128,0.383,0.192,0.591,0.192c0.204,0,0.408-0.063,0.583-0.188l6.774-4.864  l6.774,4.859c0.174,0.125,0.379,0.188,0.583,0.188c0.208,0,0.417-0.064,0.592-0.194c0.349-0.256,0.493-0.708,0.357-1.119  l-2.589-7.839l6.806-4.886C28.882,13.553,29.031,13.101,28.897,12.688 M20.843,18.095c-0.178,0.127-0.252,0.354-0.184,0.562  l2.705,8.188l-7.066-5.068c-0.087-0.063-0.189-0.094-0.291-0.094c-0.102,0-0.205,0.031-0.292,0.094L8.65,26.85l2.675-8.211  c0.068-0.208-0.007-0.435-0.184-0.562l-7.087-5.083h8.747c0.217,0,0.409-0.139,0.476-0.345l2.68-8.225l2.718,8.227  c0.067,0.205,0.259,0.343,0.475,0.343h8.796L20.843,18.095z"/>
</svg>
