<?xml version="1.0"?>
<svg xmlns="http://www.w3.org/2000/svg" xmlns:xlink="http://www.w3.org/1999/xlink" version="1.1" id="266148782_Outlined_2__grid" x="0px" y="0px" width="32px" height="32px" viewBox="0 0 32 32" style="enable-background:new 0 0 32 32;" xml:space="preserve">
<path id="266148782_shock_x5F_color_grid" class="stshockcolor" style="fill:#E57C5C;" d="M27.387,14.39c-0.314-3.375-2.021-6.462-4.686-8.47l-0.419-0.315L15.497,15.5  L15.5,3.498l-0.522,0.023C8.817,3.79,3.789,8.823,3.53,14.979L3.508,15.5l0.022,0.521C3.804,22.458,9.062,27.5,15.5,27.5  c2.987,0,5.862-1.123,8.097-3.161l0.387-0.353l0.355-0.39C26.591,21.126,27.702,17.771,27.387,14.39z"/>
<path style="opacity:0.3;fill:#4D5152;" d="M14.978,3.521C8.817,3.79,3.789,8.823,3.53,14.979L3.508,15.5H15.5V3.498L14.978,3.521z"/>
<path style="fill:#FFFFFF;" d="M21.836,5.336C20.075,4.235,18.064,3.61,16.02,3.53L15.5,3.51v12.042l6.776-9.939L21.836,5.336z"/>
<path style="opacity:0.4;fill:#FFFFFF;" d="M27.387,14.39c-0.314-3.375-2.021-6.462-4.686-8.47l-0.419-0.315l-6.759,9.916  l8.463,8.463l0.353-0.387C26.591,21.126,27.702,17.771,27.387,14.39z"/>
<path style="fill:#4D5152;" d="M15.5,3C8.6,3,3,8.6,3,15.5C3,22.4,8.6,28,15.5,28C22.4,28,28,22.4,28,15.5C28,8.6,22.4,3,15.5,3z   M16,4.03c2.04,0.08,3.94,0.71,5.57,1.73L16,13.93V4.03z M15,4.02V15H4.03C4.28,9.05,9.05,4.28,15,4.02z M15.5,27  C9.32,27,4.29,22.12,4.03,16h11.26l7.97,7.97C21.21,25.84,18.5,27,15.5,27z M23.97,23.26l-7.8-7.8l6.23-9.14  C27.76,10.36,28.49,18.3,23.97,23.26z"/>
</svg>
