<?xml version="1.0"?>
<svg xmlns="http://www.w3.org/2000/svg" id="266197753_Layer_1_grid" data-name="Layer 1" viewBox="0 0 32 32"><title>support_color_line</title><path id="266197753_shock_color_grid" class="stshockcolor" d="M5.5,27.5l0-.55a10.52,10.52,0,0,1,7.27-9l.29-.09L16,20.79l2.89-2.89.29.09a10.52,10.52,0,0,1,7.27,9l.05.55ZM21.5,10A5.5,5.5,0,1,0,16,15.5,5.51,5.51,0,0,0,21.5,10Z" fill="#aaa"/><path d="M16,16a6,6,0,0,0,4.9-2.54H22A1.4,1.4,0,0,0,23.06,13a1.55,1.55,0,0,0,.4-1V8.48H21.8A6,6,0,1,0,16,16Zm6.46-4a.54.54,0,0,1-.12.34.46.46,0,0,1-.34.11h-.53a7.46,7.46,0,0,0,.33-.94h.66ZM16,5a5,5,0,0,1,4.33,7.46h-4v1H19.6A5,5,0,1,1,16,5Zm2.76,12.36L16,20.12l-2.76-2.76A11,11,0,0,0,5,28H27A11,11,0,0,0,18.76,17.36ZM13,18.47l3,3,3-3A10,10,0,0,1,26,27H6.05A10,10,0,0,1,13,18.47Z" fill="#4d5152"/></svg>
