<?xml version="1.0"?>
<svg xmlns="http://www.w3.org/2000/svg" xmlns:xlink="http://www.w3.org/1999/xlink" version="1.1" id="266148783_Outlined_2__grid" x="0px" y="0px" width="32px" height="32px" viewBox="0 0 32 32" style="enable-background:new 0 0 32 32;" xml:space="preserve">
<path id="266148783_shock_x5F_color_grid" class="stshockcolor" style="fill:#67DDE0;" d="M18.5,2.5h-11c-0.551,0-1,0.449-1,1v25c0,0.561,0.439,1,1,1h17  c0.561,0,1-0.439,1-1v-19L18.5,2.5z"/>
<path style="opacity:0.7;fill:#FFFFFF;" d="M25.207,9.5H19.5c-0.561,0-1-0.439-1-1V2.793V2.5h-11c-0.551,0-1,0.449-1,1v25  c0,0.561,0.439,1,1,1h17c0.561,0,1-0.439,1-1v-19H25.207z"/>
<path style="fill:#AAAAAA;" d="M21.172,20.855l0.107-0.355H23.5v-3h-2.221l-0.107-0.355c-0.052-0.17-0.12-0.331-0.204-0.492  l-0.172-0.325l1.567-1.567l-2.123-2.123l-1.566,1.566l-0.325-0.17c-0.162-0.084-0.322-0.153-0.492-0.204L17.5,13.722V11.5h-3v2.222  l-0.356,0.107c-0.17,0.051-0.33,0.119-0.492,0.204l-0.326,0.17l-1.566-1.566L9.637,14.76l1.567,1.567l-0.171,0.325  c-0.084,0.161-0.153,0.322-0.204,0.492L10.721,17.5H8.5v3h2.221l0.107,0.355c0.052,0.17,0.12,0.331,0.205,0.493l0.17,0.325  L9.637,23.24l2.123,2.123l1.566-1.566l0.326,0.17c0.162,0.085,0.323,0.153,0.493,0.205l0.355,0.107V26.5h3v-2.221l0.355-0.107  c0.17-0.052,0.331-0.12,0.493-0.205l0.325-0.17l1.566,1.566l2.123-2.123l-1.566-1.566l0.17-0.325  C21.052,21.187,21.12,21.025,21.172,20.855z M16,20.5c-0.829,0-1.5-0.672-1.5-1.5s0.671-1.5,1.5-1.5c0.828,0,1.5,0.672,1.5,1.5  S16.828,20.5,16,20.5z"/>
<path style="fill:#4D5152;" d="M25.41,9L19,2.59C18.65,2.23,18.62,2,18,2H7.5C6.67,2,6,2.67,6,3.5v25C6,29.33,6.67,30,7.5,30h17  c0.83,0,1.5-0.67,1.5-1.5V10C26,9.37,25.77,9.35,25.41,9z M19,4l5,5h-3c-0.86,0-1.5,0-1.5,0C19.22,9,19,8.78,19,8.5V4z M25,28.5  c0,0.28-0.22,0.5-0.5,0.5h-17C7.22,29,7,28.78,7,28.5v-25C7,3.22,7.22,3,7.5,3C8.5,3,18,3,18,3v5.5c0,0.83,0.67,1.5,1.5,1.5H25  C25,10,25,28,25,28.5z M16,17c-1.103,0-2,0.897-2,2s0.897,2,2,2c1.103,0,2-0.897,2-2S17.103,17,16,17z M16,20c-0.55,0-1-0.45-1-1  s0.45-1,1-1s1,0.45,1,1S16.55,20,16,20z M18,13.35V11h-4v2.35c-0.2,0.06-0.39,0.14-0.58,0.24l-1.66-1.66l-2.83,2.83l1.66,1.66  c-0.1,0.189-0.18,0.38-0.24,0.58H8v4h2.35c0.061,0.2,0.141,0.39,0.24,0.58l-1.66,1.66l2.83,2.83l1.66-1.66  c0.19,0.1,0.38,0.18,0.58,0.24V27h4v-2.35c0.2-0.061,0.39-0.141,0.58-0.24l1.66,1.66l2.83-2.83l-1.66-1.66  c0.1-0.19,0.18-0.38,0.24-0.58H24v-4h-2.35c-0.061-0.2-0.141-0.391-0.24-0.58l1.66-1.66l-2.83-2.83l-1.66,1.66  C18.39,13.49,18.2,13.41,18,13.35z M19.287,14.297l0.953-0.953l1.416,1.416l-0.953,0.953l-0.521,0.521l0.343,0.652  c0.072,0.138,0.127,0.271,0.168,0.403L20.908,18h0.742H23v2h-1.35h-0.742l-0.215,0.711c-0.04,0.132-0.096,0.265-0.169,0.405  l-0.341,0.651l0.52,0.52l0.953,0.953l-1.416,1.416l-0.953-0.953l-0.52-0.52l-0.651,0.341c-0.141,0.073-0.273,0.129-0.405,0.169  L17,23.908v0.742V26h-2v-1.35v-0.742l-0.71-0.215c-0.132-0.04-0.265-0.096-0.406-0.169l-0.651-0.341l-0.52,0.52l-0.953,0.953  l-1.416-1.416l0.953-0.953l0.52-0.52l-0.34-0.651c-0.074-0.141-0.129-0.273-0.169-0.405L11.092,20H10.35H9v-2h1.35h0.742  l0.215-0.711c0.041-0.133,0.096-0.266,0.168-0.403l0.343-0.652l-0.521-0.521l-0.953-0.953l1.416-1.416l0.953,0.953l0.52,0.52  l0.651-0.34c0.142-0.074,0.273-0.129,0.404-0.168L15,14.094V13.35V12h2v1.35v0.744l0.713,0.214c0.13,0.039,0.263,0.094,0.403,0.168  l0.651,0.34L19.287,14.297z"/>
</svg>
