<?xml version="1.0" encoding="utf-8"?>
<!-- Generator: Adobe Illustrator 17.0.0, SVG Export Plug-In . SVG Version: 6.00 Build 0)  -->
<svg xmlns="http://www.w3.org/2000/svg" xmlns:xlink="http://www.w3.org/1999/xlink" version="1.1" id="Capa_1" x="0px" y="0px" width="32px" height="32px" viewBox="0 0 32 32" style="enable-background:new 0 0 32 32;" xml:space="preserve">

<path id="2666694741_shock_x5F_color_grid" class="stshockcolor" d="M10.62,22.38c-0.702-0.449-1.43-1.029-2.197-1.788c-3.639-3.605-5.916-9.093-1.474-13.584  c4.442-4.491,9.949-2.268,13.588,1.337c1.027,1.017,1.861,2.258,1.861,2.258L10.62,22.38z" style="fill:#EF6565;;"/>
<path class="st1" d="M22.398,10.602c2.352,3.382,0.73,6.429-2.27,9.461c-3.042,3.076-5.91,4.749-9.508,2.317L22.398,10.602z" style="fill:#C9A287;;"/>
<path class="st2" d="M21.521,18.521C22,21,27.5,24.5,27.5,24.5l-3,3c0,0-3.5-5.5-5.97-5.97L21.521,18.521z" style="fill:#BF9171;;"/>
<path class="st3" d="M27.769,24.078c-1.427-0.908-5.112-3.59-5.695-5.447c1.75-2.231,2.837-4.932,0.957-7.955l0.012-0.012  l-0.229-0.341c-0.007-0.01-0.053-0.078-0.119-0.171l-0.227-0.326l-0.005,0.005c-0.347-0.468-0.919-1.194-1.573-1.841  C19.385,6.5,16.303,4,12.561,4c-2.216,0-4.224,0.894-5.967,2.656c-4.73,4.782-2.16,10.688,1.478,14.291  c0.594,0.589,1.184,1.066,1.782,1.493l-0.015,0.015l0.502,0.339c0.002,0.001,0.003,0.002,0.005,0.003  c0.002,0.001,0.004,0.003,0.006,0.004l0.339,0.217l0.01-0.01c1.115,0.684,2.201,1.036,3.302,1.036h0c1.731,0,3.277-0.853,4.65-1.958  c1.849,0.589,4.52,4.259,5.426,5.683l0.335,0.525l3.881-3.881L27.769,24.078z M10.556,21.736c-0.597-0.414-1.183-0.907-1.781-1.5  C5.306,16.8,3.098,11.612,7.305,7.359C8.854,5.794,10.622,5,12.561,5c2.472,0,5.251,1.349,7.625,3.7  c0.662,0.656,1.248,1.419,1.56,1.846L10.556,21.736z M14.002,23.044c-0.85,0-1.7-0.248-2.584-0.755l10.893-10.893  c1.467,2.536,0.684,5.059-2.538,8.316C17.462,22.048,15.736,23.044,14.002,23.044L14.002,23.044z M24.58,26.713  c-0.86-1.275-3.056-4.316-5.079-5.356c0.338-0.31,0.669-0.625,0.983-0.942c0.292-0.295,0.583-0.603,0.867-0.921  c1.045,2.029,4.087,4.226,5.363,5.086L24.58,26.713z" style="fill:#4D5152;;"/>
</svg>
