<?xml version="1.0"?>
<svg xmlns="http://www.w3.org/2000/svg" xmlns:xlink="http://www.w3.org/1999/xlink" version="1.1" id="266247433_icon_grid" x="0px" y="0px" width="32px" height="32px" viewBox="0 0 32 32" style="enable-background:new 0 0 32 32;" xml:space="preserve">
<path id="266247433_shock_x5F_color_grid" class="stshockcolor" style="fill:#75EA9C;" d="M4.5,7.5v18c0,0.553,0.448,1,1,1h21c0.553,0,1-0.447,1-1v-18H4.5z"/>
<path style="opacity:0.3;fill:#4D5152;" d="M4.5,23.5V25c0,0.827,0.673,1.5,1.5,1.5h20c0.827,0,1.5-0.673,1.5-1.5v-1.5H4.5z"/>
<path style="opacity:0.4;fill:#FFFFFF;" d="M27,10.5c-1.379,0-2.5-1.122-2.5-2.5V7.5h-17V8c0,1.378-1.122,2.5-2.5,2.5H4.5v7H5  c1.378,0,2.5,1.121,2.5,2.5v0.5h17V20c0-1.379,1.121-2.5,2.5-2.5h0.5v-7H27z M16,18.5c-1.93,0-3.5-2.019-3.5-4.5s1.57-4.5,3.5-4.5  s3.5,2.019,3.5,4.5S17.93,18.5,16,18.5z"/>
<path style="fill:#4D5152;" d="M27,7h-5V4l1.49,1.45l0.689-0.71L21.5,2.06l-2.68,2.68l0.699,0.7L21,4v3H10V4l1.49,1.45l0.69-0.71  L9.5,2.06L6.82,4.74l0.7,0.7L9,4v3H5C4.45,7,4,7.45,4,8v17c0,2,2,2,2,2h20c2,0,2-2,2-2V8C28,7.45,27.55,7,27,7z M5,8h2  c0,1.1-0.9,2-2,2V8z M5,18c1.1,0,2,0.9,2,2H5V18z M27,25c-0.01,0.46-0.2,1-1,1H6.01C5.55,25.99,5,25.81,5,25v-1h22V25z M27,21.99  C26.99,22.45,26.81,23,26,23H6.01C5.55,22.99,5,22.81,5,22v-1h22V21.99z M27,20h-2c0-1.1,0.9-2,2-2V20z M27,17c-1.66,0-3,1.34-3,3H8  c0-1.66-1.34-3-3-3v-6c1.66,0,3-1.34,3-3h1v2h1V8h11v2h1V8h2c0,1.66,1.34,3,3,3V17z M27,10c-1.1,0-2-0.9-2-2h2V10z M16,9  c-2.21,0-4,2.24-4,5s1.79,5,4,5s4-2.24,4-5S18.21,9,16,9z M16,18c-1.66,0-3-1.79-3-4s1.34-4,3-4s3,1.79,3,4S17.66,18,16,18z"/>
</svg>
