<?xml version="1.0"?>
<svg xmlns="http://www.w3.org/2000/svg" xmlns:xlink="http://www.w3.org/1999/xlink" version="1.1" id="266247435_Layer_1_grid" x="0px" y="0px" width="32px" height="32px" viewBox="0 0 32 32" style="enable-background:new 0 0 32 32;" xml:space="preserve">
<circle style="fill:#FFE4A9;" cx="15.5" cy="15.5" r="12"/>
<path id="266247435_shock_x5F_color_grid" class="stshockcolor" style="fill:#EF6565;" d="M25,15.5c0,5.25-4.25,9.5-9.5,9.5c-2.22,0-4.27-0.77-5.88-2.05l1.23-1.57  C12.13,22.39,13.74,23,15.5,23c4.14,0,7.5-3.36,7.5-7.5c0-3.79-2.81-6.92-6.46-7.42C16.27,8.34,15.91,8.5,15.5,8.5  C14.67,8.5,14,7.83,14,7s0.67-1.5,1.5-1.5c0.48,0,0.91,0.23,1.17,0.58C21.37,6.65,25,10.65,25,15.5z"/>
<path style="opacity:0.2;fill:#FFFFFF;" d="M25,15.5c0,5.25-4.25,9.5-9.5,9.5c-2.22,0-4.27-0.77-5.88-2.05l1.23-1.57  C12.13,22.39,13.74,23,15.5,23c4.14,0,7.5-3.36,7.5-7.5c0-3.79-2.81-6.92-6.46-7.42C16.82,7.81,17,7.42,17,7  c0-0.35-0.12-0.67-0.33-0.92C21.37,6.65,25,10.65,25,15.5z"/>
<path style="fill:#4D5152;" d="M15.526,14.608l-6.453,7.918l0.774,0.633l6.453-7.918L15.526,14.608z M15.5,3C8.597,3,3,8.597,3,15.5  C3,22.403,8.597,28,15.5,28C22.403,28,28,22.403,28,15.5C28,8.597,22.403,3,15.5,3 M15.5,27C9.149,27,4,21.852,4,15.5  C4,9.148,9.149,4,15.5,4C21.852,4,27,9.148,27,15.5C27,21.852,21.852,27,15.5,27"/>
</svg>
