<?xml version="1.0"?>
<svg xmlns="http://www.w3.org/2000/svg" xmlns:xlink="http://www.w3.org/1999/xlink" version="1.1" id="266148785_Outlined_2__grid" x="0px" y="0px" width="32px" height="32px" viewBox="0 0 32 32" style="enable-background:new 0 0 32 32;" xml:space="preserve">
<circle id="266148785_shock_x5F_color_grid" class="stshockcolor" style="fill:#75EA9C;" cx="21" cy="16" r="8"/>
<path style="opacity:0.5;fill:#FFFFFF;" d="M21,10.5c-3.032,0-5.5,2.467-5.5,5.5c0,3.032,2.468,5.5,5.5,5.5s5.5-2.468,5.5-5.5  C26.5,12.967,24.032,10.5,21,10.5z"/>
<path style="fill:#AAAAAA;" d="M16.91,19.664C16.001,18.66,15.5,17.359,15.5,16c0-1.358,0.501-2.66,1.411-3.665l0.756-0.835H10  c-1.671,0-4.5,0.948-4.5,4.5c0,3.56,2.943,4.5,4.5,4.5h7.668L16.91,19.664z"/>
<path id="266148785__x3C_Trazado_x3E__grid" style="fill:#4D5152;" d="M21,10c-1.22,0-2.36,0.36-3.31,1H10c0,0-5,0-5,5s5,5,5,5h7.69  c0.949,0.64,2.09,1,3.31,1c3.31,0,6-2.69,6-6C27,12.69,24.31,10,21,10z M10,20c-0.16,0-4-0.05-4-4c0-3.85,3.59-4,4-4h6.54  C15.58,13.06,15,14.46,15,16s0.58,2.94,1.54,4H10z M21,21c-2.76,0-5-2.24-5-5s2.24-5,5-5s5,2.24,5,5S23.76,21,21,21z"/>
</svg>
