<?xml version="1.0"?>
<svg xmlns="http://www.w3.org/2000/svg" xmlns:xlink="http://www.w3.org/1999/xlink" version="1.1" id="266148784_Outlined_2__grid" x="0px" y="0px" width="32px" height="32px" viewBox="0 0 32 32" style="enable-background:new 0 0 32 32;" xml:space="preserve">
<path id="266148784_shock_x5F_color_grid" class="stshockcolor" style="fill:#EF6565;" d="M10,11.5c-2.481,0-4.5,2.019-4.5,4.5s2.019,4.5,4.5,4.5s4.5-2.019,4.5-4.5  S12.481,11.5,10,11.5z"/>
<path style="fill:#AAAAAA;" d="M22,11.5H11.464l1.209,0.901C13.834,13.265,14.5,14.577,14.5,16c0,1.424-0.666,2.735-1.826,3.599  L11.463,20.5H22c1.671,0,4.5-0.948,4.5-4.5C26.5,12.44,23.557,11.5,22,11.5z"/>
<path style="fill:#4D5152;" d="M22,11H10c-2.762,0-5,2.239-5,5c0,2.762,2.238,5,5,5h12c0,0,5,0,5-5S22,11,22,11z M6,16  c0-2.206,1.794-4,4-4s4,1.794,4,4c0,2.206-1.794,4-4,4S6,18.206,6,16z M22,20h-9.027C14.197,19.089,15,17.644,15,16  c0-1.643-0.803-3.088-2.027-4H22c0.16,0,4,0.05,4,4C26,19.85,22.41,20,22,20z"/>
</svg>
