<?xml version="1.0"?>
<svg xmlns="http://www.w3.org/2000/svg" id="266197738_Layer_1_grid" data-name="Layer 1" viewBox="0 0 32 32"><title>tools_equipement_line_color</title><path d="M21.92,18.52l-3.25-3.25,4.68-4.68h2.82L29.55,4.5l-2-2L21.43,5.85V8.68l-4.67,4.67L13.36,10s1.71-3.43-.86-6-6-.85-6-.85L9.08,5.68V9.1H5.65L3.08,6.53s-1.71,3.43.86,6,6,.85,6,.85L18.5,22s-1.71,3.42.85,6,6,.86,6,.86l-2.57-2.57V22.8H26.2l2.57,2.57s1.71-3.42-.85-6S21.92,18.52,21.92,18.52Z" fill="#acf0f2"/><path id="266197738_shock_color_grid" class="stshockcolor" d="M3.29,24.91,11.8,16.4,11,15.6l1.91-1.91,5.41,5.41L16.42,21l-.79-.8L7.11,28.73a2.67,2.67,0,0,1-1.91.8,2.7,2.7,0,0,1-1.91-4.62Z" fill="#ff61e1"/><path d="M13.71,22.14,9.89,18.31,11.8,16.4l3.83,3.82Z" fill="#4d5152" opacity="0.25"/><path d="M22,17.93l-2.67-2.66,4.18-4.18h2.91l3.71-6.68L27.61,1.85,20.93,5.56V8.47l-4.18,4.18L14,9.84a5.79,5.79,0,0,0-1.09-6.23c-2.79-2.79-6.54-1-6.57-.95L5.67,3,8.58,5.88V8.6H5.86L3,5.69l-.31.62s-1.85,3.78.95,6.57A5.77,5.77,0,0,0,9.82,14l1.06,1-.58.58.79.8L2.94,24.55A3.2,3.2,0,0,0,5.2,30a3.22,3.22,0,0,0,2.27-.94l8.16-8.16.79.79.58-.58.91.92A5.77,5.77,0,0,0,19,28.29a5.18,5.18,0,0,0,3.78,1.55,7,7,0,0,0,2.79-.6l.62-.31L23.28,26V23.3H26l2.91,2.91.31-.62s1.84-3.77-.95-6.57A5.79,5.79,0,0,0,22,17.93Zm-.11-9V6.15l5.51-3.06,1.49,1.5-3.05,5.5H23.14l-6.55,6.56-1.21-1.21ZM10,12.78l-.32.15c-.13.07-3.14,1.52-5.42-.76a4.61,4.61,0,0,1-1-4.74L5.45,9.6H9.58V5.47L7.41,3.3a4.59,4.59,0,0,1,4.74,1c2.28,2.27.82,5.29.76,5.42l-.16.32L16,13.36l-1.37,1.37L12.92,13l-1.33,1.33Zm4.89,7.45L6.76,28.38A2.19,2.19,0,0,1,5.2,29,2.21,2.21,0,0,1,3,26.82a2.19,2.19,0,0,1,.65-1.56l8.16-8.15,3.12,3.11Zm.71-.71L12.51,16.4l-.71-.71-.09-.09,1.21-1.2,1,1,.71.71,1.21,1.21.7.7,1,1-1.2,1.21-.09-.09Zm12.95,4.95L26.41,22.3H22.28v4.13l2.17,2.17a4.64,4.64,0,0,1-4.74-1c-2.28-2.27-.83-5.28-.76-5.41l.16-.32L17.7,20.44,19,19.1l-1.75-1.75L18.66,16l3.16,3.15.32-.16c.13-.06,3.15-1.51,5.42.76A4.59,4.59,0,0,1,28.58,24.47Z" fill="#4d5152"/></svg>
