<?xml version="1.0"?>
<svg xmlns="http://www.w3.org/2000/svg" xmlns:xlink="http://www.w3.org/1999/xlink" version="1.1" id="266148786_Outlined_2__grid" x="0px" y="0px" width="32px" height="32px" viewBox="0 0 32 32" style="enable-background:new 0 0 32 32;" xml:space="preserve">
<path id="266148786_shock_x5F_color_grid" class="stshockcolor" style="fill:#AAAAAA;" d="M20.001,5.5H17.5V4.987C17.476,4.07,16.901,3.5,16,3.5  c-0.916,0-1.476,0.561-1.5,1.499l-0.013,0.494L12,5.5c-0.916,0-1.476,0.561-1.5,1.512V25c0,0.915,0.561,1.476,1.512,1.5H14.5v0.513  c0.024,0.918,0.599,1.487,1.5,1.487c0.915,0,1.476-0.561,1.5-1.499l0.013-0.494L20,26.5c0.915,0,1.476-0.561,1.5-1.512V7  C21.5,6.084,20.939,5.524,20.001,5.5z"/>
<path style="opacity:0.6;fill:#4D5152;" d="M20.001,5.5H17.5V4.987C17.476,4.07,16.901,3.5,16,3.5c-0.916,0-1.476,0.561-1.5,1.499  l-0.013,0.494L12,5.5c-0.916,0-1.476,0.561-1.5,1.512V25c0,0.915,0.561,1.476,1.512,1.5H14.5v0.513  c0.024,0.918,0.599,1.487,1.5,1.487c0.915,0,1.476-0.561,1.5-1.499l0.013-0.494L20,26.5c0.915,0,1.476-0.561,1.5-1.512V7  C21.5,6.084,20.939,5.524,20.001,5.5z"/>
<circle style="fill:#EF6565;" cx="16" cy="10" r="2.5"/>
<circle style="fill:#FFD878;" cx="16" cy="16" r="2.5"/>
<circle style="fill:#75EA9C;" cx="16" cy="22" r="2.5"/>
<path style="fill:#4D5152;" d="M20,5h-2c0,0,0-2-2-2s-2,2-2,2h-2c-2,0-2,2-2,2v18c0,2,2,2,2,2h2c0,0,0,2,2,2s2-2,2-2h2c2,0,2-2,2-2  V7C22,5,20,5,20,5z M21,24.988C20.988,25.45,20.806,26,20,26h-2l-0.976,0.014L17,26.988C16.988,27.45,16.806,28,16,28  c-0.805,0-0.988-0.55-1-1v-1h-1h-1.988C11.55,25.988,11,25.806,11,25V7.012C11.012,6.55,11.195,6,12,6h2l0.975-0.014L15,5.012  C15.012,4.55,15.195,4,16,4c0.806,0,0.988,0.55,1,1v1h1h1.988C20.45,6.012,21,6.195,21,7V24.988z M19,10c0-1.654-1.346-3-3-3  s-3,1.346-3,3s1.346,3,3,3S19,11.654,19,10z M16,12c-1.104,0-2-0.896-2-2s0.896-2,2-2s2,0.896,2,2S17.104,12,16,12z M13,16  c0,1.654,1.346,3,3,3s3-1.346,3-3s-1.346-3-3-3S13,14.346,13,16z M16,14c1.104,0,2,0.896,2,2s-0.896,2-2,2s-2-0.896-2-2  S14.896,14,16,14z M13,22c0,1.654,1.346,3,3,3s3-1.346,3-3s-1.346-3-3-3S13,20.346,13,22z M16,20c1.104,0,2,0.896,2,2s-0.896,2-2,2  s-2-0.896-2-2S14.896,20,16,20z"/>
</svg>
