<?xml version="1.0"?>
<svg xmlns="http://www.w3.org/2000/svg" xmlns:xlink="http://www.w3.org/1999/xlink" version="1.1" id="266247436_icon_grid" x="0px" y="0px" width="32px" height="32px" viewBox="0 0 32 32" style="enable-background:new 0 0 32 32;" xml:space="preserve">
<path id="266247436_shock_x5F_color_grid" class="stshockcolor" style="fill:#BF9171;" d="M23,7.5H8c-2.531,0-3.467,1.808-3.5,3.51v4.49v7.511  C4.52,23.93,5.095,24.5,6,24.5h19.011C25.93,24.479,26.5,23.905,26.5,23v-7.5V11C26.5,8.467,24.62,7.532,23,7.5z M19.561,18.257  l-4.061,2.32l-4.061-2.32l0.55-2.757h0l0.6-3h5.82l0.6,3L19.561,18.257z"/>
<polygon style="fill:#FFD878;" points="18.41,12.5 12.59,12.5 11.439,18.255 15.5,20.576 19.561,18.255 "/>
<path style="opacity:0.3;fill:#FFFFFF;" d="M26.5,11H4.501C4.537,9.301,5.474,7.5,8,7.5h15C24.62,7.532,26.5,8.467,26.5,11z"/>
<path style="opacity:0.3;fill:#4D5152;" d="M26.5,15.5V23c0,0.905-0.57,1.479-1.489,1.5H6c-0.905,0-1.48-0.57-1.5-1.489V15.5h7.49  l-0.55,2.757l4.061,2.32l4.061-2.32L19.01,15.5H26.5z M15.5,16.5c0.552,0,1-0.447,1-1c0-0.552-0.448-1-1-1c-0.553,0-1,0.448-1,1  C14.5,16.053,14.947,16.5,15.5,16.5z"/>
<path style="fill:#4D5152;" d="M23,7H8c-4,0-4,4-4,4v12c0,0,0,2,2,2h19c0,0,2,0,2-2V11C27,7,23,7,23,7z M26,23c0,0.81-0.55,0.99-1,1  H6c-0.81,0-0.99-0.55-1-1v-7h6.38l-0.36,1.8l-0.14,0.71l0.62,0.36l3.5,2l0.5,0.28l0.5-0.28l3.5-2l0.62-0.36l-0.14-0.71L19.62,16H26  V23z M12,18l1-5h5l1,5l-3.5,2L12,18z M26,15h-6.58l-0.439-2.2L18.82,12h-6.64l-0.16,0.8L11.58,15H5v-3.99C5.01,10.5,5.18,8,8,8h15  c0.5,0.01,3,0.181,3,3V15z M16,18v-1.09c0.58-0.2,1-0.76,1-1.41c0-0.83-0.67-1.5-1.5-1.5S14,14.67,14,15.5c0,0.65,0.42,1.21,1,1.41  V18H16z M15.5,15c0.28,0,0.5,0.22,0.5,0.5S15.78,16,15.5,16S15,15.78,15,15.5S15.22,15,15.5,15z"/>
</svg>
