<?xml version="1.0"?>
<svg xmlns="http://www.w3.org/2000/svg" xmlns:xlink="http://www.w3.org/1999/xlink" version="1.1" id="266148791_Layer_1_grid" x="0px" y="0px" width="32px" height="32px" viewBox="0 0 32 32" style="enable-background:new 0 0 32 32;" xml:space="preserve">
<path id="266148791_shock_x5F_color_grid" class="stshockcolor" style="fill:#75EA9C;" d="M31,20.48c0,2.489-2.03,4.521-4.52,4.521H6.5c-3.03,0-5.5-2.471-5.5-5.5  c0-2.581,1.79-4.75,4.19-5.34C5.07,13.629,5,13.069,5,12.5C5,8.359,8.36,5,12.5,5c3.69,0,6.77,2.689,7.38,6.209  C20.31,11.081,20.75,11,21.22,11c2.62,0,4.761,2.129,4.78,4.75c0.67,0.14,1.27,0.269,1.62,0.36C29.61,16.62,31,18.42,31,20.48"/>
<path style="opacity:0.8;fill:#FFFFFF;" d="M8.5,23h-2C3.731,23,3,20.711,3,19.5c0-0.275,0.223-0.498,0.498-0.499  c0,0,0.001,0,0.001,0c0.275,0,0.499,0.223,0.5,0.497C4.002,19.754,4.088,22,6.5,22h2C8.776,22,9,22.224,9,22.5S8.776,23,8.5,23z   M8,12.5c0-4.208,4.341-4.491,4.526-4.5c0.275-0.015,0.487-0.25,0.473-0.525C12.984,7.199,12.75,6.98,12.475,7  C12.42,7.003,7,7.334,7,12.5C7,12.776,7.224,13,7.5,13S8,12.776,8,12.5z"/>
<path style="fill:#4D5152;" d="M27.619,16.107c-0.35-0.091-0.95-0.219-1.622-0.356C25.98,13.129,23.845,11,21.219,11  c-0.467,0-0.912,0.081-1.338,0.207C19.266,7.687,16.194,5,12.5,5C8.364,5,5,8.364,5,12.5c0,0.572,0.07,1.128,0.192,1.664  C2.791,14.753,1,16.919,1,19.5C1,22.532,3.467,25,6.5,25h19.981C28.974,25,31,22.974,31,20.481  C31,18.422,29.609,16.624,27.619,16.107 M26.481,24H6.5C4.014,24,2,21.985,2,19.5S4.014,15,6.5,15C6.178,14.23,6,13.386,6,12.5  C6,8.91,8.91,6,12.5,6C16.09,6,19,8.91,19,12.5l-0.013,0.242C19.614,12.281,20.381,12,21.219,12C23.307,12,25,13.693,25,15.781  c0,0.266-0.028,0.525-0.081,0.775c0.992,0.194,1.971,0.396,2.448,0.52C28.882,17.469,30,18.845,30,20.481  C30,22.425,28.425,24,26.481,24 M20.139,14.15l0.707,0.707l-6.363,6.364l-2.829-2.829l0.707-0.707l2.122,2.121L20.139,14.15z"/>
</svg>
