<?xml version="1.0"?>
<svg xmlns="http://www.w3.org/2000/svg" xmlns:xlink="http://www.w3.org/1999/xlink" version="1.1" id="266148789_Layer_1_grid" x="0px" y="0px" width="32px" height="32px" viewBox="0 0 32 32" style="enable-background:new 0 0 32 32;" xml:space="preserve">
<path id="266148789_shock_x5F_color_grid" class="stshockcolor" style="fill:#67DDE0;" d="M6.5,22.5c-2.757,0-5-2.243-5-5c0-2.304,1.567-4.3,3.81-4.855l0.477-0.116  l-0.105-0.482C5.562,11.522,5.5,11,5.5,10.5c0-3.86,3.14-7,7-7c3.407,0,6.301,2.437,6.882,5.794l0.101,0.558l0.545-0.162  C20.46,9.563,20.85,9.5,21.22,9.5c2.338,0,4.258,1.909,4.28,4.255l0.005,0.401l0.642,0.138c0.564,0.12,1.051,0.223,1.352,0.302  c1.767,0.456,3.002,2.053,3.002,3.884c0,2.217-1.803,4.02-4.02,4.02H6.5z"/>
<path style="fill:#4D5152;" d="M27.619,14.107c-0.35-0.091-0.95-0.219-1.622-0.356C25.98,11.129,23.845,9,21.219,9  c-0.467,0-0.912,0.081-1.338,0.207C19.266,5.687,16.194,3,12.5,3C8.364,3,5,6.364,5,10.5c0,0.572,0.07,1.128,0.192,1.664  C2.791,12.753,1,14.919,1,17.5C1,20.532,3.467,23,6.5,23h19.981C28.974,23,31,20.974,31,18.481  C31,16.422,29.609,14.624,27.619,14.107 M26.481,22H6.5C4.014,22,2,19.985,2,17.5S4.014,13,6.5,13C6.178,12.23,6,11.386,6,10.5  C6,6.91,8.91,4,12.5,4C16.09,4,19,6.91,19,10.5l-0.013,0.242C19.614,10.281,20.381,10,21.219,10C23.307,10,25,11.693,25,13.781  c0,0.266-0.028,0.525-0.081,0.775c0.992,0.194,1.971,0.396,2.448,0.52C28.882,15.469,30,16.845,30,18.481  C30,20.425,28.425,22,26.481,22"/>
<path style="opacity:0.8;fill:#FFFFFF;" d="M8.5,21h-2C3.731,21,3,18.711,3,17.5c0-0.275,0.223-0.498,0.498-0.499  c0,0,0.001,0,0.001,0c0.275,0,0.499,0.223,0.5,0.497C4.002,17.754,4.088,20,6.5,20h2C8.776,20,9,20.224,9,20.5S8.776,21,8.5,21z   M8,10.5c0-4.208,4.341-4.491,4.526-4.5c0.275-0.015,0.487-0.25,0.473-0.525C12.984,5.199,12.75,4.98,12.475,5  C12.42,5.003,7,5.334,7,10.5C7,10.776,7.224,11,7.5,11S8,10.776,8,10.5z"/>
<polygon style="fill:#BF9171;" points="11.343,18.063 12.05,18.77 15,15.82 15,28 16,28 16,15.82 18.95,18.77 19.657,18.063   15.5,13.905 "/>
</svg>
