<?xml version="1.0"?>
<svg xmlns="http://www.w3.org/2000/svg" xmlns:xlink="http://www.w3.org/1999/xlink" version="1.1" id="266148793_Outlined_2__grid" x="0px" y="0px" width="32px" height="32px" viewBox="0 0 32 32" style="enable-background:new 0 0 32 32;" xml:space="preserve">
<path id="266148793_shock_x5F_color_grid" class="stshockcolor" style="fill:#67DDE0;" d="M26.446,26.95c-0.413-4.167-3.267-7.681-7.27-8.952l-0.29-0.092L16,20.793  l-2.887-2.887l-0.29,0.092c-4.002,1.271-6.856,4.785-7.271,8.952L5.498,27.5h21.003L26.446,26.95z"/>
<path style="fill:#FFE4A9;" d="M16,7.5c-3.033,0-5.5,2.467-5.5,5.5c0,3.032,2.467,5.5,5.5,5.5c3.032,0,5.5-2.468,5.5-5.5  C21.5,9.967,19.032,7.5,16,7.5z"/>
<path style="fill:#BF9171;" d="M16,7.5c-3.033,0-5.5,2.467-5.5,5.5c0,0.161,0.011,0.319,0.024,0.476  C10.681,13.489,10.839,13.5,11,13.5c2.219,0,4.132-1.324,5-3.222c0.868,1.898,2.78,3.222,5,3.222c0.16,0,0.318-0.011,0.476-0.024  C21.489,13.319,21.5,13.161,21.5,13C21.5,9.967,19.032,7.5,16,7.5z"/>
<path style="fill:#4D5152;" d="M19.754,17.674C21.122,16.574,22,14.889,22,13c0-3.31-2.69-6-6-6c-3.31,0-6,2.69-6,6  c0,1.889,0.878,3.574,2.246,4.674C8.02,19.212,5,23.246,5,28h22C27,23.246,23.98,19.211,19.754,17.674z M11,13c0-2.76,2.24-5,5-5  s5,2.24,5,5s-2.24,5-5,5S11,15.76,11,13z M16,19c0.431,0,0.85-0.048,1.254-0.134L16,20.12l-1.254-1.254  C15.151,18.952,15.57,19,16,19z M12.97,18.47L16,21.5l3.03-3.03c3.729,1.19,6.52,4.511,6.92,8.53H6.05  C6.45,22.98,9.24,19.66,12.97,18.47z M15,15h-3v-1h3V15z M20,15h-3v-1h3V15z"/>
</svg>
