<?xml version="1.0"?>
<svg xmlns="http://www.w3.org/2000/svg" xmlns:xlink="http://www.w3.org/1999/xlink" version="1.1" id="266148795_Layer_1_grid" x="0px" y="0px" width="32px" height="32px" viewBox="0 0 32 32" style="enable-background:new 0 0 32 32;" xml:space="preserve">
<path id="266148795_shock_x5F_color_grid" class="stshockcolor" style="fill:#67DDE0;" d="M6.503,27.5l0.048-0.544c0.359-4.044,2.843-7.522,6.329-8.863l0.304-0.116  L16,20.793l2.816-2.816l0.304,0.116c3.48,1.339,5.968,4.817,6.338,8.861l0.05,0.546H6.503z"/>
<path style="fill:#FFE4A9;" d="M23.5,7.583C23.166,12.168,19.525,15.5,16,15.5c-3.037,0-5.5-2.463-5.5-5.5s2.463-5.5,5.5-5.5  C19.959,4.5,19.665,7.583,23.5,7.583z"/>
<path style="fill:#E88C77;" d="M12.737,5.58c0.916,3.962,4.46,6.92,8.7,6.92c0.06,0,0.119-0.009,0.178-0.01  c1.033-1.323,1.746-3.003,1.885-4.906c-3.835,0-3.541-3.083-7.5-3.083C14.777,4.5,13.651,4.904,12.737,5.58z"/>
<path style="fill:#4D5152;" d="M18.71,17.42L16,20.12l-2.71-2.7C9.09,18.72,6,22.96,6,28h20C26,22.96,22.91,18.72,18.71,17.42z   M13.06,18.56L16,21.5l2.94-2.94c3.25,1.25,5.659,4.5,6.02,8.44H7.05C7.4,23.06,9.81,19.81,13.06,18.56z M20.24,5.76  C19.16,4.67,17.66,4,16,4c-3.31,0-6,2.69-6,6s2.69,6,6,6c4.65,0,8-4.3,8-8.99C22.34,7.01,21.33,6.84,20.24,5.76z M16,15  c-2.75,0-5-2.24-5-5s2.25-5,5-5c1.34,0,2.59,0.52,3.54,1.46c1.07,1.07,1.92,1.25,3.4,1.47C22.48,11.63,19.82,15,16,15z"/>
</svg>
