<?xml version="1.0"?>
<svg xmlns="http://www.w3.org/2000/svg" xmlns:xlink="http://www.w3.org/1999/xlink" version="1.1" id="266148794_Outlined_2__grid" x="0px" y="0px" width="32px" height="32px" viewBox="0 0 32 32" style="enable-background:new 0 0 32 32;" xml:space="preserve">
<path id="266148794_shock_x5F_color_grid" class="stshockcolor" style="fill:#67DDE0;" d="M26.446,26.95c-0.413-4.167-3.267-7.681-7.27-8.952l-0.29-0.092L16,20.793  l-2.887-2.887l-0.29,0.092c-4.002,1.271-6.856,4.785-7.271,8.952L5.498,27.5h21.003L26.446,26.95z"/>
<path style="fill:#FFE4A9;" d="M16,4.5c-3.033,0-5.5,2.467-5.5,5.5s2.467,5.5,5.5,5.5c3.032,0,5.5-2.467,5.5-5.5S19.032,4.5,16,4.5z  "/>
<path style="fill:#BF9171;" d="M16,4.5c-3.033,0-5.5,2.467-5.5,5.5c0,0.161,0.011,0.319,0.024,0.476  C10.681,10.489,10.839,10.5,11,10.5c2.219,0,4.132-1.324,5-3.222c0.868,1.898,2.78,3.222,5,3.222c0.16,0,0.318-0.011,0.476-0.024  C21.489,10.319,21.5,10.161,21.5,10C21.5,6.967,19.032,4.5,16,4.5z"/>
<path style="fill:#4D5152;" d="M18.762,17.363L16,20.125l-2.762-2.762C8.502,18.59,5,22.881,5,28h22  C27,22.881,23.497,18.59,18.762,17.363z M12.975,18.475L16,21.5l3.025-3.025c3.736,1.187,6.524,4.502,6.924,8.525H6.05  C6.45,22.977,9.238,19.661,12.975,18.475z M16,16c3.313,0,6-2.687,6-6s-2.687-6-6-6s-6,2.687-6,6S12.687,16,16,16z M16,5  c2.762,0,5,2.238,5,5s-2.238,5-5,5c-2.761,0-5-2.238-5-5S13.239,5,16,5z M13.5,12c-0.829,0-1.5-0.671-1.5-1.5S12.671,9,13.5,9  S15,9.671,15,10.5S14.329,12,13.5,12z M17,10.5C17,9.671,17.672,9,18.5,9S20,9.671,20,10.5S19.328,12,18.5,12S17,11.329,17,10.5z"/>
</svg>
