<?xml version="1.0" encoding="utf-8"?>
<!-- Generator: Adobe Illustrator 16.0.0, SVG Export Plug-In . SVG Version: 6.00 Build 0)  -->
<svg xmlns="http://www.w3.org/2000/svg" xmlns:xlink="http://www.w3.org/1999/xlink" version="1.1" id="266185659_Capa_1_grid" x="0px" y="0px" width="32px" height="32px" viewBox="0 0 32 32" style="enable-background:new 0 0 32 32;" xml:space="preserve">

<path id="266185659_shock_x5F_color_grid" class="stshockcolor" d="M3.5,29.5v-7h7v7H3.5z M10.5,20.5v-7h-7v7H10.5z M10.5,11.5v-7h-7v7H10.5z" style="fill:#FF61E1;;"/>
<rect x="3.5" y="13.5" class="st1" width="7" height="7" style="opacity:0.2;fill:#FFFFFF;;"/>
<path class="st0" d="M21,29v1h8v-1H21z M12,29v1h8v-1H12z M3,22v8h8v-8H3z M10,29H4v-6h6V29z M21,20v1h8v-1H21z M12,20v1h8v-1H12z   M3,13v8h8v-8H3z M10,20H4v-6h6V20z M21,11v1h8v-1H21z M12,11v1h8v-1H12z M3,4v8h8V4H3z M10,11H4V5h6V11z" style="fill:#4D5152;;"/>
</svg>
