<?xml version="1.0"?>
<svg xmlns="http://www.w3.org/2000/svg" xmlns:xlink="http://www.w3.org/1999/xlink" version="1.1" id="266247438_Layer_1_grid" x="0px" y="0px" width="32px" height="32px" viewBox="0 0 32 32" style="enable-background:new 0 0 32 32;" xml:space="preserve">
<path id="266247438_shock_x5F_color_grid" class="stshockcolor" style="fill:#BF9171;" d="M28.5,11.5v15h-22c-1.1,0-2-0.9-2-2v-15c0-1.1,0.9-2,2-2h21v4H28.5z"/>
<rect x="12.5" y="16.5" style="opacity:0.2;fill:#FFFFFF;" width="16" height="5"/>
<path style="fill:#4D5152;" d="M29,8V7H6.5C5.12,7,4,8.12,4,9.5v15C4,25.88,5.12,27,6.5,27H29V11h-1V8H29z M6.5,8H27v3H6.5  C5.67,11,5,10.33,5,9.5S5.67,8,6.5,8z M28,21H13v-4h15V21z M28,16H12v6h16v4H6.5C5.67,26,5,25.33,5,24.5V11.49  C5.42,11.81,5.94,12,6.5,12H28V16z"/>
<path style="opacity:0.2;fill:#4D5152;" d="M6.5,11.5c-1.103,0-2-0.897-2-2s0.897-2,2-2h21v4H6.5z"/>
</svg>
