<?xml version="1.0"?>
<svg xmlns="http://www.w3.org/2000/svg" xmlns:xlink="http://www.w3.org/1999/xlink" version="1.1" id="266247440_icon_grid" x="0px" y="0px" width="32px" height="32px" viewBox="0 0 32 32" style="enable-background:new 0 0 32 32;" xml:space="preserve">
<path id="266247440_shock_x5F_color_grid" class="stshockcolor" style="fill:#67DDE0;" d="M22.432,4.986L21.326,7.5H10.674L9.568,4.986L10.311,3.5h11.377L22.432,4.986z   M26.447,26.947c-0.405-3.852-2.985-6.674-7.265-7.946l-0.278-0.083L16,21.697l-2.904-2.779l-0.278,0.083  c-4.217,1.257-6.865,4.153-7.265,7.946L5.494,27.5h8.692l1.686-3.335L14.707,23L16,21.707L17.293,23l-1.164,1.164l1.686,3.336h8.691  L26.447,26.947z"/>
<path style="fill:#FFE4A9;" d="M20.773,10.414C19.801,10.91,18.183,11.5,16,11.5s-3.8-0.59-4.773-1.086l-0.727-0.37V11  c0,0.326,0.026,0.638,0.076,0.917c0.098,0.63,0.321,1.245,0.661,1.822C12.214,15.442,14.04,16.5,16,16.5  c1.963,0,3.784-1.055,4.75-2.744c0.349-0.586,0.575-1.205,0.672-1.827C21.474,11.643,21.5,11.33,21.5,11v-0.956L20.773,10.414z"/>
<path style="fill:#AAAAAA;" d="M21.5,7.5v2.502l-0.241,0.146C20.237,10.765,18.496,11.5,16,11.5c-2.496,0-4.237-0.735-5.258-1.352  L10.5,10.002V7.5H21.5z M17.809,27.5l-1.67-3.342L17.297,23L16,21.703L14.703,23l1.159,1.158L14.191,27.5H17.809z"/>
<path style="fill:#4D5152;" d="M18.76,18.36L16,21l-2.76-2.64C8.5,19.59,5,22.88,5,28h22C27,22.88,23.5,19.59,18.76,18.36z   M16,22.41L16.59,23L16,23.59L15.41,23L16,22.41z M13.88,27H6.05c0.38-3.61,2.85-6.31,6.91-7.52l2.33,2.229L14,23l1.26,1.26  l-0.15,0.29l-1,2L13.88,27z M15,27l1-2l1,2H15z M17.89,26.55l-1-2l-0.149-0.29L18,23l-1.29-1.29l2.33-2.229  c4.07,1.21,6.53,3.909,6.91,7.52h-7.83L17.89,26.55z M10,11c0,0.34,0.03,0.68,0.08,1c0.12,0.72,0.37,1.39,0.73,2  c1.03,1.79,2.97,3,5.19,3c2.22,0,4.16-1.21,5.19-3c0.359-0.61,0.609-1.28,0.729-2c0.05-0.32,0.08-0.66,0.08-1V7l1-2l-1-2H10L9,5l1,2  V11z M21,11c0,0.27-0.02,0.56-0.07,0.84c-0.09,0.58-0.3,1.14-0.609,1.66C19.44,15.04,17.78,16,16,16c-1.78,0-3.44-0.96-4.33-2.51  c-0.3-0.51-0.51-1.07-0.6-1.65C11.02,11.56,11,11.27,11,11v-0.14c1.12,0.57,2.79,1.14,5,1.14s3.88-0.57,5-1.14V11z M21,9.72  C20.04,10.3,18.37,11,16,11s-4.04-0.7-5-1.28V8h10V9.72z M10.62,4h10.76l0.5,1L21,7H11l-0.88-2L10.62,4z"/>
<path style="opacity:0.3;fill:#4D5152;" d="M10.674,7.5L9.568,4.986L10.311,3.5h11.377l0.743,1.486L21.326,7.5H21.5v2v0.502v1.5  l-0.241,0.146C20.237,12.265,18.496,13,16,13c-2.496,0-4.237-0.735-5.258-1.352L10.5,11.502v-1.5V9.5v-2H10.674z M26.447,26.947  c-0.405-3.852-2.985-6.674-7.265-7.946l-0.278-0.083L16,21.697l-2.904-2.779l-0.278,0.083c-4.217,1.257-6.865,4.153-7.265,7.946  L5.494,27.5H16h10.506L26.447,26.947z"/>
</svg>
