<?xml version="1.0"?>
<svg xmlns="http://www.w3.org/2000/svg" xmlns:xlink="http://www.w3.org/1999/xlink" version="1.1" id="266247441_Layer_1_grid" x="0px" y="0px" width="32px" height="32px" viewBox="0 0 32 32" style="enable-background:new 0 0 32 32;" xml:space="preserve">
<polygon id="266247441_shock_x5F_color_grid" class="stshockcolor" style="fill:#AAAAAA;" points="22.265,8.5 8.735,8.5 2.938,27.5 28.063,27.5 "/>
<path style="fill:#4D5152;" d="M28.431,27.264l-5.752-18.91C22.614,8.143,22.42,8,22.199,8H16V5.95c1.142-0.232,2-1.24,2-2.449  C18,2.12,16.881,1,15.5,1S13,2.12,13,3.5c0,1.209,0.859,2.217,2,2.449V8H8.76C8.54,8,8.345,8.143,8.281,8.354l-5.78,19  c-0.046,0.152-0.018,0.316,0.077,0.443C2.672,27.924,2.821,28,2.979,28h25h0.011c0.276,0,0.5-0.225,0.5-0.5L28.431,27.264z M14,3.5  C14,2.671,14.671,2,15.5,2C16.328,2,17,2.671,17,3.5C17,4.329,16.328,5,15.5,5C14.671,5,14,4.329,14,3.5 M3.654,27L9.13,9h12.699  l5.476,18H3.654z M16,21.271V12h-1v9.271l-3.146-3.146l-0.708,0.706l4.354,4.354l4.354-4.354l-0.707-0.706L16,21.271z"/>
</svg>
