<?xml version="1.0"?>
<svg xmlns="http://www.w3.org/2000/svg" xmlns:xlink="http://www.w3.org/1999/xlink" version="1.1" id="266247444_icon_grid" x="0px" y="0px" width="32px" height="32px" viewBox="0 0 32 32" style="enable-background:new 0 0 32 32;" xml:space="preserve">
<path id="266247444_shock_x5F_color_grid" class="stshockcolor" style="fill:#AAAAAA;" d="M9.5,11.063v13.875c0,0.863,0.7,1.563,1.563,1.563h8.875  c0.863,0,1.563-0.699,1.563-1.563V11.063c0-0.863-0.699-1.563-1.563-1.563h-8.875C10.2,9.5,9.5,10.2,9.5,11.063z"/>
<path style="opacity:0.3;fill:#4D5152;" d="M11.063,26.5h8.875c0.863,0,1.563-0.699,1.563-1.563V11.063L11.063,26.5z"/>
<path style="fill:#4D5152;" d="M20,9h-4V6.95c1.14-0.229,2-1.24,2-2.45C18,3.12,16.88,2,15.5,2S13,3.12,13,4.5  c0,1.21,0.86,2.221,2,2.45V9h-4c0,0-2,0-2,2v14c0,0,0,2,2,2h9c2,0,2-2,2-2V11C22,9,20,9,20,9z M14,4.5C14,3.67,14.67,3,15.5,3  S17,3.67,17,4.5S16.33,6,15.5,6S14,5.33,14,4.5z M21,24.988C20.988,25.45,20.806,26,20,26h-9c-0.805,0-0.988-0.55-1-1V11  c0-0.805,0.55-0.988,1-1h8.992C20.453,10.013,21,10.197,21,11V24.988z M13.5,15c-1.381,0-2.5,1.119-2.5,2.5s1.119,2.5,2.5,2.5  s2.5-1.119,2.5-2.5S14.881,15,13.5,15z M13.5,19c-0.827,0-1.5-0.673-1.5-1.5s0.673-1.5,1.5-1.5s1.5,0.673,1.5,1.5S14.327,19,13.5,19  z M16,15h4v0.5L17.47,19H20v1h-4v-0.5l2.53-3.5H16V15z"/>
</svg>
