<?xml version="1.0"?>
<svg xmlns="http://www.w3.org/2000/svg" xmlns:xlink="http://www.w3.org/1999/xlink" version="1.1" id="266247443_icon_grid" x="0px" y="0px" width="32px" height="32px" viewBox="0 0 32 32" style="enable-background:new 0 0 32 32;" xml:space="preserve">
<polygon id="266247443_shock_x5F_color_grid" class="stshockcolor" style="fill:#AAAAAA;" points="22.201,8.5 8.759,8.5 2.975,27.5 27.975,27.5 "/>
<polygon style="opacity:0.3;fill:#FFFFFF;" points="8.759,8.5 2.975,27.5 10.975,27.5 16.76,8.5 "/>
<path style="fill:#4D5152;" d="M28.43,27.26L22.68,8.35C22.61,8.14,22.42,8,22.2,8H16V5.95c1.14-0.23,2-1.24,2-2.45  C18,2.12,16.88,1,15.5,1S13,2.12,13,3.5c0,1.21,0.86,2.22,2,2.45V8H8.76C8.54,8,8.35,8.14,8.28,8.35l-5.78,19  c-0.04,0.16-0.02,0.32,0.08,0.45c0.09,0.12,0.24,0.2,0.4,0.2h25.01c0.279,0,0.5-0.22,0.5-0.5L28.43,27.26z M14,3.5  C14,2.67,14.67,2,15.5,2S17,2.67,17,3.5S16.33,5,15.5,5S14,4.33,14,3.5z M3.65,27L9.13,9h12.7l5.47,18H3.65z M15.127,13  l-2.305,4.008L15.117,21h-1.152L12,17.582V21h-1v-8h1v3.434L13.973,13H15.127z M20,16.5c-0.41-0.31-0.94-0.5-1.5-0.5  c-1.38,0-2.5,1.12-2.5,2.5s1.12,2.5,2.5,2.5c0.56,0,1.09-0.19,1.5-0.5v1c0,0.25-0.09,1.5-1.5,1.5S17,21.75,17,21.5h-1  c0,0.86,0.52,2.5,2.5,2.5s2.5-1.64,2.5-2.5V16h-1V16.5z M18.5,20c-0.83,0-1.5-0.67-1.5-1.5s0.67-1.5,1.5-1.5s1.5,0.67,1.5,1.5  S19.33,20,18.5,20z"/>
</svg>
