<?xml version="1.0"?>
<svg xmlns="http://www.w3.org/2000/svg" xmlns:xlink="http://www.w3.org/1999/xlink" version="1.1" id="266247447_icon_grid" x="0px" y="0px" width="32px" height="32px" viewBox="0 0 32 32" style="enable-background:new 0 0 32 32;" xml:space="preserve">
<path id="266247447_shock_x5F_color_grid" class="stshockcolor" style="fill:#AAAAAA;" d="M30.459,12.6l-2.99,13.01c-0.13,0.51-0.61,0.89-1.11,0.89H3.519  c-0.56,0-1-0.44-1-1v-20c0-0.55,0.45-1,1-1h5.81l0.44,0.23l1.62,2.43c0.14,0.21,0.37,0.34,0.62,0.34h12.51c0.56,0,1,0.44,1,1v3h4.06  c0.28,0,0.54,0.12,0.71,0.33C30.459,12.04,30.519,12.32,30.459,12.6z"/>
<path style="opacity:0.2;fill:#FFFFFF;" d="M5.386,26.5c-0.285,0-0.544-0.123-0.711-0.336c-0.168-0.216-0.225-0.502-0.154-0.785  l2.988-12.991C7.615,11.894,8.097,11.5,8.606,11.5h21c0.282,0,0.54,0.119,0.707,0.325c0.17,0.21,0.233,0.494,0.173,0.779  l-2.992,13.008c-0.128,0.51-0.604,0.888-1.107,0.888H5.386z"/>
<path style="fill:#4D5152;" d="M22.139,15.088l0.707,0.707l-6.363,6.364l-2.828-2.829l0.707-0.707l2.121,2.121L22.139,15.088z   M30.974,12.53l-2.996,13.095C27.816,26.355,27.134,27,26.391,27H3.5C2.672,27,2,26.328,2,25.5v-20C2,4.672,2.672,4,3.5,4h5.693  c0.42,0,0.809,0.21,1.041,0.559l1.551,2.329L11.994,7H24.5C25.328,7,26,7.672,26,8.5V11h3.609c0.435,0,0.834,0.063,1.098,0.392  C30.973,11.723,31.069,12.099,30.974,12.53z M4.1,26c-0.107-0.284-0.139-0.609-0.072-0.905l2.994-12.907  C7.186,11.457,7.867,11,8.609,11H25V8.5C25,8.224,24.776,8,24.5,8H11.994c-0.419,0-0.809-0.208-1.041-0.558L9.402,5.113L9.193,5H3.5  C3.224,5,3,5.224,3,5.5v20C3,25.776,3.224,26,3.5,26H4.1z M29.563,12h-21c-0.276,0-0.551,0.224-0.612,0.5l-2.994,13  C4.895,25.776,5.067,26,5.344,26h21c0.276,0,0.55-0.224,0.612-0.5l2.994-13C30.013,12.224,29.839,12,29.563,12z"/>
</svg>
