<?xml version="1.0"?>
<svg xmlns="http://www.w3.org/2000/svg" xmlns:xlink="http://www.w3.org/1999/xlink" version="1.1" id="266148798_Layer_1_grid" x="0px" y="0px" width="32px" height="32px" viewBox="0 0 32 32" style="enable-background:new 0 0 32 32;" xml:space="preserve">
<path style="fill:#AAAAAA;" d="M29.5,6v14c0,0.83-0.67,1.5-1.5,1.5H8c-0.83,0-1.5-0.67-1.5-1.5V6c0-0.83,0.67-1.5,1.5-1.5h20  C28.83,4.5,29.5,5.17,29.5,6z"/>
<path style="opacity:0.4;fill:#FFFFFF;" d="M6.5,8.5V20c0,0.828,0.671,1.5,1.5,1.5h20c0.828,0,1.5-0.672,1.5-1.5V8.5H6.5z"/>
<path id="266148798_shock_x5F_color_grid" class="stshockcolor" style="fill:#67DDE0;" d="M25.5,12v14c0,0.83-0.67,1.5-1.5,1.5H4c-0.83,0-1.5-0.67-1.5-1.5V12  c0-0.83,0.67-1.5,1.5-1.5h20C24.83,10.5,25.5,11.17,25.5,12z"/>
<path style="opacity:0.4;fill:#FFFFFF;" d="M2.5,14.5V26c0,0.828,0.671,1.5,1.5,1.5h20c0.828,0,1.5-0.672,1.5-1.5V14.5H2.5z"/>
<path style="fill:#4D5152;" d="M18,12h1v1h-1V12z M30,5.687v14.625C30,21.244,29.244,22,28.313,22H26v4.313  C26,27.244,25.244,28,24.313,28H3.688C2.755,28,2,27.244,2,26.313V11.687C2,10.756,2.755,10,3.688,10H6V5.687  C6,4.756,6.755,4,7.688,4h20.625C29.244,4,30,4.756,30,5.687z M25,15H3v11c0,0.553,0.448,1,1,1h20c0.553,0,1-0.447,1-1V15z M25,12  c0-0.553-0.447-1-1-1H4c-0.552,0-1,0.447-1,1v2h22V12z M29,9H7v1h17.314C25.244,10,26,10.756,26,11.687V21h2c0.625,0,1-0.375,1-1V9z   M29,6c0-0.553-0.447-1-1-1H8C7.448,5,7,5.447,7,6v2h22V6z M22,7h1V6h-1V7z M20,13h1v-1h-1V13z M22,13h1v-1h-1V13z M26,7h1V6h-1V7z   M24,7h1V6h-1V7z"/>
</svg>
