<?xml version="1.0"?>
<svg xmlns="http://www.w3.org/2000/svg" xmlns:xlink="http://www.w3.org/1999/xlink" version="1.1" id="266148799_Layer_1_grid" x="0px" y="0px" width="32px" height="32px" viewBox="0 0 32 32" style="enable-background:new 0 0 32 32;" xml:space="preserve">
<path id="266148799_shock_x5F_color_grid" class="stshockcolor" style="fill:#FFE4A9;" d="M21,11.5c0,5.247-4.253,9.5-9.5,9.5C6.253,21,2,16.747,2,11.5  C2,6.253,6.253,2,11.5,2C16.747,2,21,6.253,21,11.5z M25,10c-1.657,0-3,1.345-3,3s1.343,3,3,3c1.654,0,3-1.345,3-3S26.654,10,25,10z   M26,18c-1.104,0-2,0.896-2,2s0.896,2,2,2c1.104,0,2-0.896,2-2S27.104,18,26,18z M18,21c-1.104,0-2,0.896-2,2s0.896,2,2,2  c1.104,0,2-0.896,2-2S19.104,21,18,21z"/>
<path style="fill:#FFD878;" d="M12.76,19.27c-0.186,0-0.359-0.104-0.445-0.273l-2.204-4.323l-4.81,0.791  C5.274,15.468,5.247,15.47,5.22,15.47c-0.186,0-0.358-0.103-0.445-0.272c-0.099-0.193-0.062-0.429,0.092-0.582l3.453-3.444  L6.124,6.836C6.026,6.644,6.063,6.41,6.215,6.257C6.312,6.161,6.44,6.11,6.57,6.11c0.076,0,0.152,0.017,0.224,0.053l4.358,2.179  l3.485-3.476c0.096-0.096,0.224-0.146,0.353-0.146c0.078,0,0.156,0.018,0.229,0.056c0.193,0.099,0.3,0.312,0.264,0.526l-0.8,4.827  l4.32,2.165c0.194,0.097,0.304,0.308,0.271,0.522c-0.032,0.214-0.199,0.383-0.413,0.418l-4.816,0.792l-0.792,4.826  c-0.035,0.213-0.203,0.38-0.417,0.413C12.811,19.268,12.785,19.27,12.76,19.27z"/>
<path style="fill:#4D5152;" d="M15.11,14.4l4.081-0.67c0.199-0.03,0.39-0.13,0.529-0.27c0.15-0.14,0.25-0.33,0.28-0.55  c0.06-0.42-0.15-0.83-0.53-1.02L15.3,9.8l0.771-4.67c0.069-0.42-0.15-0.84-0.521-1.03c-0.38-0.2-0.85-0.12-1.15,0.18l-3.37,3.37  L6.81,5.54C6.43,5.35,5.97,5.42,5.67,5.72C5.48,5.91,5.38,6.16,5.38,6.41c0,0.16,0.04,0.31,0.11,0.45l2.13,4.19l-3.34,3.33  c-0.3,0.3-0.37,0.77-0.18,1.14c0.2,0.38,0.61,0.59,1.03,0.52l4.65-0.76l2.13,4.19c0.19,0.38,0.61,0.59,1.03,0.521  c0.21-0.03,0.4-0.13,0.54-0.271c0.14-0.149,0.24-0.33,0.28-0.54l0.66-4.05l12.72,12.72l0.71-0.71L15.11,14.4z M13.61,13.59  l-0.85,5.18l-2.37-4.649l-5.17,0.85l3.71-3.7L6.57,6.61l4.68,2.34l3.74-3.73l-0.86,5.19l4.65,2.33L13.61,13.59z"/>
</svg>
