<?xml version="1.0" encoding="utf-8"?>
<!-- Generator: Adobe Illustrator 16.0.0, SVG Export Plug-In . SVG Version: 6.00 Build 0)  -->
<svg xmlns="http://www.w3.org/2000/svg" xmlns:xlink="http://www.w3.org/1999/xlink" version="1.1" id="Outlined_2_" x="0px" y="0px" width="32px" height="32px" viewBox="0 0 32 32" style="enable-background:new 0 0 32 32;" xml:space="preserve">

<rect id="2664394523_shock_x5F_color_grid" x="4.5" y="8.5" class="stshockcolor" width="23" height="15" style="fill:#AAAAAA;;"/>
<path class="st1" d="M4,8v16h24V8H4z M27,23H5V9h22V23z M10,12v0.01l-2,2l0.72,0.7L10,13.43V20h1v-8H10z M14.83,18.09  C16.34,15.86,17,14.97,17,14c0-1.1-0.9-2-2-2s-2,0.9-2,2h1c0-0.55,0.45-1,1-1s1,0.45,1,1c0,0.68-0.68,1.59-2,3.53  c-0.3,0.438-0.63,0.92-1,1.47v1h4v-1h-2.79C14.43,18.68,14.64,18.37,14.83,18.09z M23,12h-3.5L19,13h2.689l-1.59,1.89l0.69,0.73  C21.37,16.14,22,16.85,22,17.5c0,0.99-0.5,1.5-1.12,1.5c-0.43,0-0.8-0.24-0.989-0.71L19,18.85c0.3,0.76,0.91,1.15,1.891,1.15  C22.35,20,23,19.16,23,17.5c0-1.14-0.689-1.97-1.54-2.67L23,13V12z" style="fill:#4D5152;;"/>
</svg>
