<?xml version="1.0" encoding="utf-8"?>
<!-- Generator: Adobe Illustrator 16.0.0, SVG Export Plug-In . SVG Version: 6.00 Build 0)  -->
<svg xmlns="http://www.w3.org/2000/svg" xmlns:xlink="http://www.w3.org/1999/xlink" version="1.1" id="266185665_Outlined_2__grid" x="0px" y="0px" width="32px" height="32px" viewBox="0 0 32 32" style="enable-background:new 0 0 32 32;" xml:space="preserve">

<path id="266185665_shock_x5F_color_grid" class="stshockcolor" d="M18,25.6c-1.036,0-1.5-0.753-1.5-1.5v-4.5c0-0.413-0.362-0.85-0.745-1.311  C15.18,17.584,14.5,16.752,14.5,15.6c0-0.411,0.164-0.643,0.371-0.938c0.284-0.407,0.629-0.901,0.629-2.063  c0-1.035-0.273-1.138-0.816-1.342c-0.494-0.189-1.231-0.472-2.183-1.654c-0.677-0.848-2.01-1.363-3.081-1.777  C8.571,7.504,8.08,7.284,7.83,7.114L7.282,6.743l0.506-0.426C9.951,4.5,12.689,3.5,15.5,3.5c3.03,0,5.933,1.148,8.171,3.234  l0.93,0.866H20.5c-0.986,0-1.494-0.498-1.985-0.979C17.996,6.104,17.493,5.6,16.5,5.6c-1.977,0-2,1.918-2,2  c0,0.392,0.439,0.625,1.11,0.937c0.888,0.421,1.89,0.896,1.89,2.063c0,1.413,2.524,2.041,4.367,2.499l0.223,0.055  c0.823,0.205,1.206,0.309,1.417,0.449c0.914,0.609,0.568,2.181,0.06,3.788l-0.072,0.218c-0.179,0.61-0.938,1.242-1.739,1.91  l-0.114,0.095c-0.352,0.282-0.791,0.644-1.137,0.989C19.711,21.39,19.5,23.171,19.5,24.1C19.5,25.136,18.747,25.6,18,25.6z" style="fill:#75EA9C;;"/>
<path class="st0" d="M15.5,27.5c-6.617,0-12-5.383-12-12c0-3.207,1.252-6.22,3.527-8.484l0.339-0.338l0.352,0.325  C8.03,7.29,8.68,7.539,9.368,7.803l0.108,0.042c1.112,0.437,2.372,0.931,3.026,1.754c0.942,1.188,1.658,1.462,2.181,1.662  C15.4,11.531,15.5,11.789,15.5,12.6c0,1.103-0.288,1.588-0.636,2.065c-0.2,0.295-0.364,0.537-0.364,0.935  c0,1.176,0.696,2.016,1.255,2.691C16.204,18.827,16.5,19.21,16.5,19.6v4.5c0,0.519,0.313,1.5,1.5,1.5c0.519,0,1.5-0.313,1.5-1.5  c0-0.103,0.012-2.521,0.998-3.495c0.358-0.356,0.797-0.719,1.139-0.994c0.814-0.664,1.658-1.352,1.867-2.011l0.055-0.196  c0.351-1.115,0.982-3.126-0.062-3.804c-0.23-0.154-0.771-0.287-1.588-0.489c-2.248-0.563-4.409-1.212-4.409-2.51  c0-1.073-0.843-1.562-1.86-2.047c-0.705-0.338-0.993-0.499-1.102-0.761L14.5,7.7V7.6c0-0.743,0.421-2,2-2  c0.986,0,1.494,0.498,1.985,0.978C19.004,7.097,19.507,7.6,20.5,7.6h4.022l0.149,0.177c1.824,2.158,2.828,4.9,2.828,7.723  C27.5,22.117,22.117,27.5,15.5,27.5z" style="fill:#ACF0F2;;"/>
<path class="st1" d="M15.5,3C8.61,3,3,8.61,3,15.5C3,22.39,8.61,28,15.5,28C22.39,28,28,22.39,28,15.5C28,8.61,22.39,3,15.5,3z   M15.5,4c3.03,0,5.77,1.18,7.83,3.1H20.5c-0.79,0-1.17-0.38-1.65-0.85C18.34,5.74,17.71,5.1,16.5,5.1c-1.98,0-2.5,1.63-2.5,2.5  c0,0.73,0.71,1.07,1.4,1.39C16.37,9.45,17,9.81,17,10.6c0,1.81,2.76,2.49,4.77,2.99c0.601,0.15,1.28,0.31,1.461,0.43  c0.72,0.48,0.119,2.4-0.141,3.22l-0.07,0.21c-0.149,0.51-0.979,1.18-1.699,1.78c-0.41,0.329-0.83,0.68-1.17,1.02  C19.03,21.36,19,23.82,19,24.1c0,0.91-0.77,1-1,1c-0.91,0-1-0.77-1-1v-4.5c0-0.59-0.42-1.1-0.86-1.63C15.61,17.32,15,16.59,15,15.6  c0-0.25,0.09-0.38,0.28-0.65c0.3-0.43,0.72-1.02,0.72-2.35c0-1.29-0.45-1.55-1.14-1.81c-0.47-0.18-1.1-0.42-1.97-1.5  c-0.75-0.94-2.1-1.47-3.29-1.93C9.1,7.17,8.39,6.89,8.11,6.7C10.11,5.02,12.69,4,15.5,4z M15.5,27C9.16,27,4,21.84,4,15.5  c0-3.17,1.29-6.05,3.38-8.13c0.39,0.36,1.08,0.62,1.86,0.92c1.07,0.42,2.29,0.89,2.87,1.62c1.03,1.3,1.85,1.61,2.4,1.82  C14.96,11.9,15,11.91,15,12.6c0,1.01-0.27,1.4-0.54,1.77C14.25,14.68,14,15.03,14,15.6c0,1.35,0.79,2.31,1.37,3.01  C15.68,18.98,16,19.37,16,19.6v4.5c0,0.801,0.53,2,2,2c0.8,0,2-0.529,2-2c0-0.64,0.15-2.449,0.85-3.14  c0.311-0.31,0.69-0.63,1.101-0.96c0.92-0.75,1.78-1.46,2.03-2.25l0.06-0.21c0.38-1.21,1.1-3.47-0.271-4.36  c-0.3-0.2-0.829-0.33-1.76-0.56c-1.399-0.35-4.01-1-4.01-2.02c0-1.49-1.31-2.1-2.17-2.51C15.54,7.95,15.05,7.72,15,7.6  c0-0.25,0.09-1.5,1.5-1.5c0.79,0,1.17,0.38,1.65,0.85c0.51,0.51,1.14,1.15,2.35,1.15h3.79c1.69,2,2.71,4.58,2.71,7.4  C27,21.84,21.84,27,15.5,27z" style="fill:#4D5152;;"/>
</svg>
