<?xml version="1.0" encoding="utf-8"?>
<!-- Generator: Adobe Illustrator 16.0.0, SVG Export Plug-In . SVG Version: 6.00 Build 0)  -->
<svg xmlns="http://www.w3.org/2000/svg" xmlns:xlink="http://www.w3.org/1999/xlink" version="1.1" id="266185664_Outlined_2__grid" x="0px" y="0px" width="32px" height="32px" viewBox="0 0 32 32" style="enable-background:new 0 0 32 32;" xml:space="preserve">

<path class="st0" d="M23.905,23.007C21.657,22.449,19.5,21.805,19.5,20.5c0-1.082-0.851-1.57-1.877-2.055  c-0.708-0.342-0.977-0.492-1.085-0.754L16.5,17.6v-0.1c0-0.743,0.421-2,2-2c0.985,0,1.493,0.497,1.984,0.977  c0.482,0.492,1.003,1.023,2.016,1.023c0.184,0,0.456-0.061,0.668-0.23c0.224-0.179,0.332-0.431,0.332-0.77  c0-0.465-0.416-0.709-1.004-1.003C21.983,15.241,21.5,14.999,21.5,14.5c0-0.846,0.694-1.333,1.573-1.949  c0.851-0.583,1.81-1.241,2.215-2.388l0.39-1.101l0.528,1.042C27.064,11.8,27.5,13.615,27.5,15.5c0,2.729-0.902,5.307-2.608,7.451  l-0.201,0.252L23.905,23.007z M15.879,27.48l0.621-0.041V25.5c0-0.405,0.168-0.645,0.367-0.93c0.297-0.417,0.633-0.889,0.633-2.07  c0-0.812-0.1-1.068-0.835-1.346c-0.52-0.198-1.232-0.471-2.166-1.659c-0.595-0.736-1.5-1.013-2.385-1.284  c-1.017-0.304-2.069-0.618-2.616-1.714c-0.144-0.29-0.409-0.495-0.751-0.76C8.191,15.328,7.5,14.818,7.5,13.5  c0-1.046-0.566-1.277-1.232-1.547c-0.409-0.156-0.841-0.339-1.232-0.714L4.48,10.708L4.22,11.431C3.742,12.754,3.5,14.124,3.5,15.5  c0,6.617,5.383,12,12,12C15.629,27.5,15.753,27.49,15.879,27.48z" style="fill:#ACF0F2;;"/>
<path id="266185664_shock_x5F_color_grid" class="stshockcolor" d="M16.5,25.5c0-0.392,0.159-0.626,0.361-0.923c0.294-0.422,0.639-0.916,0.639-2.077  c0-1.034-0.29-1.144-0.816-1.342c-0.486-0.177-1.23-0.446-2.186-1.658c-0.595-0.75-1.458-1.013-2.373-1.291  c-1.021-0.304-2.079-0.619-2.622-1.705c-0.152-0.305-0.418-0.508-0.727-0.744C8.166,15.31,7.5,14.819,7.5,13.5  c0-1.044-0.567-1.275-1.225-1.541c-0.543-0.211-1.106-0.469-1.555-1.113l-0.167-0.239l0.125-0.263C6.667,6.187,10.914,3.5,15.5,3.5  c3.96,0,7.662,1.958,9.903,5.238l0.094,0.138L25.49,9.042c-0.083,1.916-1.372,2.8-2.407,3.511C22.127,13.208,21.5,13.697,21.5,14.5  c0,0.465,0.416,0.709,1.004,1.003c0.513,0.256,0.996,0.498,0.996,0.997c0,0.598-0.402,1-1,1c-0.985,0-1.493-0.497-1.984-0.977  c-0.519-0.52-1.022-1.023-2.016-1.023c-1.978,0-2,1.918-2,2c0,0.39,0.444,0.628,1.123,0.948c0.836,0.391,1.877,0.878,1.877,2.052  c0,1.421,2.531,2.047,4.38,2.505l0.846,0.209l-0.607,0.625c-1.881,1.934-4.386,3.193-7.053,3.547L16.5,27.46V25.5z" style="fill:#75EA9C;;"/>
<path class="st1" d="M15.5,3C8.61,3,3,8.61,3,15.5C3,22.39,8.61,28,15.5,28C22.39,28,28,22.39,28,15.5C28,8.61,22.39,3,15.5,3z   M16,25.5v1.47C15.83,26.98,15.67,27,15.5,27C9.16,27,4,21.84,4,15.5c0-1.37,0.25-2.68,0.69-3.9c0.47,0.45,0.98,0.66,1.4,0.82  C6.73,12.68,7,12.79,7,13.5c0,1.56,0.84,2.19,1.45,2.64c0.27,0.21,0.5,0.38,0.6,0.58c0.64,1.28,1.85,1.65,2.92,1.971  c0.85,0.26,1.64,0.5,2.14,1.119c1.03,1.311,1.85,1.61,2.4,1.82C16.96,21.8,17,21.81,17,22.5c0,1.02-0.27,1.4-0.54,1.78  C16.25,24.58,16,24.93,16,25.5z M17,26.89V25.5c0-0.24,0.09-0.37,0.28-0.65c0.3-0.43,0.72-1.02,0.72-2.35  c0-1.28-0.45-1.55-1.14-1.81c-0.471-0.171-1.11-0.41-1.97-1.5c-0.69-0.87-1.67-1.171-2.62-1.46c-1.01-0.301-1.88-0.57-2.32-1.45  c-0.21-0.42-0.56-0.68-0.9-0.94C8.48,14.92,8,14.56,8,13.5c0-1.39-0.86-1.73-1.55-2.01c-0.49-0.19-0.95-0.4-1.32-0.93  C6.98,6.69,10.93,4,15.5,4c3.94,0,7.42,1.99,9.49,5.02c-0.07,1.64-1.141,2.4-2.19,3.12c-0.89,0.61-1.8,1.24-1.8,2.36  c0,0.81,0.74,1.18,1.28,1.45C22.7,16.16,23,16.32,23,16.5c0,0.4-0.27,0.5-0.5,0.5c-0.79,0-1.17-0.38-1.65-0.85  C20.34,15.64,19.71,15,18.5,15c-1.98,0-2.5,1.64-2.5,2.5c0,0.73,0.71,1.07,1.41,1.4C18.37,19.35,19,19.71,19,20.5  c0,1.81,2.74,2.49,4.76,2.99C21.99,25.31,19.64,26.54,17,26.89z M24.02,22.52C22.61,22.17,20,21.53,20,20.5  c0-1.49-1.3-2.1-2.17-2.51c-0.29-0.141-0.78-0.37-0.83-0.49c0-0.25,0.09-1.5,1.5-1.5c0.79,0,1.17,0.38,1.65,0.85  C20.66,17.37,21.29,18,22.5,18c0.3,0,0.68-0.1,0.98-0.34c0.3-0.24,0.52-0.61,0.52-1.16c0-0.81-0.74-1.18-1.28-1.45  C22.3,14.84,22,14.68,22,14.5c0-0.57,0.52-0.95,1.36-1.54c0.89-0.61,1.939-1.33,2.399-2.63C26.55,11.89,27,13.64,27,15.5  c0,2.7-0.94,5.18-2.5,7.14C24.34,22.6,24.19,22.56,24.02,22.52z" style="fill:#4D5152;;"/>
</svg>
