<?xml version="1.0"?>
<svg xmlns="http://www.w3.org/2000/svg" xmlns:xlink="http://www.w3.org/1999/xlink" version="1.1" id="266148801_Layer_1_grid" x="0px" y="0px" width="32px" height="32px" viewBox="0 0 32 32" style="enable-background:new 0 0 32 32;" xml:space="preserve">
<path id="266148801_shock_x5F_color_grid" class="stshockcolor" style="fill:#67DDE0;" d="M27.5,15.5c0,6.632-5.368,12-12,12c-6.632,0-12-5.368-12-12  c0-6.632,5.368-12,12-12C22.132,3.5,27.5,8.868,27.5,15.5z"/>
<path style="opacity:0.4;fill:#FFFFFF;" d="M3.5,15.5c0,1.218,0.184,2.393,0.521,3.5h22.958c0.337-1.107,0.521-2.282,0.521-3.5  c0-1.218-0.185-2.393-0.521-3.5H4.021C3.684,13.107,3.5,14.282,3.5,15.5z"/>
<polygon style="fill:#EF6565;" points="3.525,16 21.422,16 19.436,17.995 20.145,18.701 23.319,15.512 20.142,12.326 19.446,13.023   21.397,15 3.525,15 "/>
<path style="fill:#4D5152;" d="M15.5,3C8.596,3,3,8.597,3,15.5C3,22.403,8.596,28,15.5,28S28,22.403,28,15.5  C28,8.597,22.403,3,15.5,3z M24.199,8h-3.087c-1.055-1.795-2.367-3.004-3.46-3.787C20.252,4.706,22.537,6.074,24.199,8z M16,4.209  C17.124,4.892,18.674,6.092,19.918,8H16V4.209z M13.346,4.214C12.254,4.995,10.941,6.203,9.886,8H6.801  C8.462,6.075,10.747,4.707,13.346,4.214z M15,4.209V8h-3.918C12.326,6.092,13.876,4.892,15,4.209z M6.801,23h3.085  c1.055,1.797,2.367,3.005,3.459,3.786C10.746,26.293,8.462,24.925,6.801,23z M15,26.791c-1.124-0.683-2.674-1.883-3.918-3.791H15  V26.791z M17.652,26.787c1.093-0.782,2.405-1.992,3.46-3.787h3.087C22.537,24.926,20.252,26.294,17.652,26.787z M16,26.791V23h3.918  C18.674,24.908,17.124,26.108,16,26.791z M21.638,22c0.415-0.879,0.76-1.878,1.001-3h-1.031c-0.267,1.131-0.651,2.127-1.107,3H16v-3  h-1v3h-4.5c-0.456-0.873-0.84-1.869-1.107-3H8.361c0.241,1.122,0.585,2.119,1,2.998L9.362,22h0H6.022  c-1.271-1.85-2.018-4.087-2.018-6.5c0-2.414,0.747-4.651,2.018-6.5h3.339h0.001L9.359,9.007C8.945,9.885,8.601,10.88,8.361,12h1.032  c0.266-1.13,0.651-2.127,1.107-3H15v3h1V9h4.5c0.456,0.873,0.841,1.87,1.107,3h1.031c-0.241-1.123-0.586-2.121-1.002-3h3.341  c1.271,1.849,2.018,4.086,2.018,6.5c0,2.413-0.747,4.65-2.018,6.5H21.638z"/>
</svg>
