<?xml version="1.0" encoding="utf-8"?>
<!-- Generator: Adobe Illustrator 16.0.0, SVG Export Plug-In . SVG Version: 6.00 Build 0)  -->
<svg xmlns="http://www.w3.org/2000/svg" xmlns:xlink="http://www.w3.org/1999/xlink" version="1.1" id="266185663_Outlined_2__grid" x="0px" y="0px" width="32px" height="32px" viewBox="0 0 32 32" style="enable-background:new 0 0 32 32;" xml:space="preserve">

<path class="st0" d="M15.5,27.5c-1.939,0-3.797-0.456-5.521-1.356L9.71,26.003V25.99c-3.632-2.004-5.991-5.783-6.18-9.938  l-0.067-1.49l0.952,1.148C6.266,17.944,8.581,19.5,9.5,19.5c0.391,0,0.772-0.44,1.31-1.112c0.673-0.841,1.51-1.888,2.69-1.888  c1,0,2.017,0.763,3,1.5c0.98,0.738,1.993,1.5,3,1.5c0.988,0,1-0.99,1-1c0-0.688-1.007-2-2.004-2.996  c-0.255-0.256-0.396-0.466-0.428-0.642c-0.009-0.249,0.059-0.367,0.104-0.446l0.016-0.036l0.041-0.068  c0.114-0.181,0.271-0.429,0.271-0.813v-1.129l0.719,0.35c0.329,0.161,0.762,0.426,1.286,0.789c0.772,0.506,1.512,0.991,1.995,0.991  c1.013,0,1.966-1.591,2.685-4.48l0.317-1.275l0.61,1.164c0.921,1.754,1.388,3.635,1.388,5.592c0,1.227-0.193,2.455-0.573,3.651  l-0.09,0.282l-0.291,0.057c-2.406,0.478-3.582,1.432-4.44,2.129c-0.757,0.604-1.353,1.081-2.351,1.081  c-0.365,0-0.773-0.065-1.251-0.199c-0.092-0.025-0.181-0.039-0.262-0.039c-0.173,0-0.286,0.059-0.352,0.107  C17.519,22.841,17.5,23.493,17.5,23.5c0,0.333,0.125,1.155,0.96,2.929l0.263,0.557l-0.566,0.211  c-0.125,0.03-0.397,0.086-0.397,0.086c-0.036,0.007-0.402,0.072-0.402,0.072C16.733,27.451,16.108,27.5,15.5,27.5z" style="fill:#ACF0F2;;"/>
<path id="266185663_shock_x5F_color_grid" class="stshockcolor" d="M18.503,26.504c-0.01-0.021-1.003-2.018-1.003-2.994c0-0.007,0.011-0.662,0.387-0.935  l0.131-0.095l0.235-0.02c0.11,0,0.206,0.025,0.268,0.046c0.451,0.128,0.865,0.193,1.242,0.193c0.994,0,1.584-0.473,2.331-1.069  c0.722-0.592,1.797-1.474,3.802-1.985l0.998-0.255l-0.417,0.941c-1.388,3.136-4.046,5.536-7.293,6.584l-0.408,0.132L18.503,26.504z   M20.5,18.5c0-0.974-1.913-2.919-1.996-3.003c-0.619-0.619-0.483-0.84-0.269-1.19c0.118-0.192,0.265-0.432,0.265-0.807v-1  c0.483,0,1.223,0.485,2.001,0.995C21.376,14.083,22.03,14.5,22.5,14.5c1.658,0,2.639-4.203,2.9-5.49l0.043-0.211l-0.124-0.176  C23.065,5.415,19.395,3.5,15.5,3.5C9.37,3.5,4.126,8.272,3.562,14.364l-0.017,0.18l0.103,0.149C5.569,17.481,8.477,19.5,9.5,19.5  c0.331,0,0.6-0.229,1.335-1.148c0.708-0.868,1.509-1.852,2.665-1.852c0.98,0,1.975,0.738,3,1.499c0.982,0.738,1.999,1.501,3,1.501  C20.082,19.5,20.475,19.116,20.5,18.5z" style="fill:#75EA9C;;"/>
<path class="st1" d="M15.5,3C8.61,3,3,8.61,3,15.5c0,4.84,2.76,9.04,6.8,11.12C11.51,27.5,13.45,28,15.5,28  c0.66,0,1.31-0.05,1.94-0.15C23.41,26.91,28,21.73,28,15.5C28,8.61,22.39,3,15.5,3z M15.5,4c3.89,0,7.33,1.95,9.41,4.91  C24.3,11.92,23.32,14,22.5,14c-0.35,0-1.11-0.51-1.72-0.92C19.94,12.53,19.15,12,18.5,12c-0.13,0-0.26,0.05-0.35,0.15  C18.05,12.24,18,12.37,18,12.5v1c0,0.24-0.09,0.38-0.2,0.56c-0.35,0.57-0.399,1.04,0.351,1.79c0.89,0.9,1.85,2.16,1.85,2.65  c-0.01,0.23-0.1,0.5-0.5,0.5c-0.83,0-1.78-0.71-2.7-1.4c-1.05-0.779-2.13-1.6-3.3-1.6c-1.41,0-2.33,1.15-3.08,2.07  C10.14,18.42,9.67,19,9.5,19c-0.72,0-3.47-1.73-5.44-4.59C4.6,8.58,9.53,4,15.5,4z M19.03,26.44l-0.08-0.16  C18.58,25.54,18,24.14,18,23.51c0-0.14,0.07-0.45,0.18-0.529c0.04-0.03,0.12-0.021,0.181,0c2.109,0.6,3.01-0.131,4.06-0.971  c0.78-0.64,1.76-1.41,3.6-1.88C24.7,23.11,22.16,25.43,19.03,26.44z M26.4,19.01c-2.471,0.49-3.71,1.49-4.61,2.221  c-1,0.8-1.55,1.239-3.15,0.789c-0.5-0.14-0.85,0-1.05,0.15C17.04,22.57,17,23.39,17,23.5c0,1.07,0.92,2.95,1.04,3.21  c-0.25,0.06-0.5,0.11-0.76,0.14v0.011C16.7,26.95,16.1,27,15.5,27c-1.91,0-3.7-0.47-5.29-1.3v-0.01c-3.53-1.83-5.99-5.46-6.18-9.66  C5.92,18.31,8.37,20,9.5,20c0.65,0,1.14-0.6,1.7-1.3c0.64-0.8,1.37-1.7,2.3-1.7c0.83,0,1.78,0.71,2.7,1.4  c1.05,0.79,2.13,1.6,3.3,1.6c1.1,0,1.5-0.9,1.5-1.5c0-1.15-1.79-2.99-2.15-3.35c-0.27-0.27-0.29-0.38-0.29-0.38  c0-0.04,0.061-0.12,0.091-0.19C18.79,14.36,19,14.02,19,13.5v-0.33c0.37,0.18,0.83,0.48,1.22,0.75C21.06,14.47,21.85,15,22.5,15  c1.64,0,2.62-2.65,3.17-4.86c0.84,1.6,1.33,3.42,1.33,5.36c0,1.22-0.2,2.4-0.55,3.5L26.4,19.01z" style="fill:#4D5152;;"/>
</svg>
