<?xml version="1.0" encoding="utf-8"?>
<!-- Generator: Adobe Illustrator 16.0.0, SVG Export Plug-In . SVG Version: 6.00 Build 0)  -->
<svg xmlns="http://www.w3.org/2000/svg" xmlns:xlink="http://www.w3.org/1999/xlink" version="1.1" id="266185662_Outlined_2__grid" x="0px" y="0px" width="32px" height="32px" viewBox="0 0 32 32" style="enable-background:new 0 0 32 32;" xml:space="preserve">

<path id="266185662_shock_x5F_color_grid" class="stshockcolor" d="M16.5,24.5c-0.994,0-2-1.03-2-3c0-1.9-0.409-3-2.5-3c-1.978,0-2.5-1.962-2.5-3  c0-1.383,0.836-4,4-4c2.86,0,2.994-1.803,3-2.009c0-0.001-0.012-0.991-1-0.991c-0.42,0-1.009,0.171-1.69,0.37  C12.923,9.135,11.704,9.5,10.5,9.5c-0.589,0-1.154-0.337-1.343-0.802c-0.093-0.231-0.171-0.692,0.34-1.202  c0.248-0.237,0.539-0.478,0.842-0.718c0.833-0.68,1.784-1.456,2.065-2.589l0.073-0.295l0.296-0.07C13.675,3.609,14.592,3.5,15.5,3.5  c5.849,0,10.94,4.36,11.844,10.143l0.069,0.444l-0.434,0.116C26.245,14.4,25.411,14.5,24.5,14.5c-2.482,0-3.047-0.373-3.411-0.755  C20.961,13.618,20.843,13.5,20.5,13.5c-0.789,0-1,1.257-1,2c0,0.004,0.003,0.446,0.294,0.736c0.175,0.175,0.412,0.264,0.706,0.264  c0.582,0,0.975,0.384,1,0.979c0,0.041-0.022,2.032-1.996,3.019C17.5,21.499,17.5,22.517,17.5,23.5c0,0.581-0.384,0.973-0.978,0.999  L16.511,24.5H16.5z" style="fill:#75EA9C;;"/>
<path class="st0" d="M15.5,27.5c-6.617,0-12-5.383-12-12c0-5.064,3.216-9.605,8.003-11.301l1.263-0.447l-0.661,1.165  c-0.413,0.727-1.045,1.273-1.77,1.862c-0.33,0.268-0.614,0.498-0.825,0.718C9.277,7.726,8.935,8.172,9.152,8.699  C9.345,9.163,9.912,9.5,10.5,9.5c1.182,0,2.361-0.349,3.308-0.629C14.579,8.646,15.112,8.5,15.5,8.5c0.581,0,0.974,0.38,0.999,0.968  C16.5,9.572,16.466,11.5,13.5,11.5c-2.067,0-3.046,1.089-3.503,2.003C9.507,14.492,9.5,15.49,9.5,15.5  c0,0.031,0.003,0.768,0.311,1.496C10.223,17.98,10.979,18.5,12,18.5c2.091,0,2.5,1.1,2.5,3c0,2.062,1.037,3,2,3c0.01,0,1-0.012,1-1  c0-0.983,0-2,1.996-2.997c1.977-0.992,2.004-2.922,2.004-3.003c0-0.01-0.012-1-1-1c-0.581,0-0.974-0.384-0.999-0.978  C19.5,15.48,19.512,13.5,20.5,13.5c0.29,0,0.412,0.075,0.593,0.255C21.407,14.07,21.837,14.5,24.5,14.5  c0.876,0,1.662-0.086,2.339-0.255l0.573-0.144l0.046,0.589c0.021,0.273,0.042,0.536,0.042,0.809C27.5,22.117,22.117,27.5,15.5,27.5z  " style="fill:#ACF0F2;;"/>
<path class="st1" d="M15.5,3C8.61,3,3,8.61,3,15.5C3,22.39,8.61,28,15.5,28C22.39,28,28,22.39,28,15.5C28,8.61,22.39,3,15.5,3z   M15.5,4c5.73,0,10.49,4.22,11.35,9.72C26.18,13.9,25.4,14,24.5,14c-2.46,0-2.83-0.37-3.05-0.6c-0.17-0.17-0.41-0.4-0.95-0.4  c-1.11,0-1.5,1.35-1.5,2.5c0,0.06,0.01,0.66,0.44,1.09C19.63,16.78,19.96,17,20.5,17c0.4,0,0.49,0.27,0.5,0.5  c0,0.02-0.02,1.7-1.72,2.55C17,21.19,17,22.47,17,23.5c0,0.4-0.28,0.49-0.5,0.5c-0.75,0-1.5-0.86-1.5-2.5c0-1.82-0.36-3.5-3-3.5  c-1.97,0-2-2.4-2-2.5c0-0.14,0.06-3.5,3.5-3.5c3.46,0,3.5-2.48,3.5-2.5C17,8.9,16.6,8,15.5,8c-0.49,0-1.11,0.18-1.83,0.39  C12.7,8.68,11.6,9,10.5,9c-0.38,0-0.77-0.22-0.88-0.49c-0.08-0.2-0.01-0.42,0.23-0.66c0.23-0.22,0.51-0.45,0.8-0.68  c0.87-0.71,1.92-1.57,2.24-2.86C13.73,4.11,14.6,4,15.5,4z M15.5,27C9.16,27,4,21.84,4,15.5c0-5,3.21-9.25,7.67-10.83  c-0.38,0.67-1.01,1.2-1.65,1.72C9.7,6.65,9.39,6.9,9.15,7.15c-0.53,0.52-0.7,1.16-0.46,1.74C8.96,9.54,9.71,10,10.5,10  c1.24,0,2.47-0.36,3.45-0.65C14.57,9.17,15.16,9,15.5,9c0.4,0,0.49,0.27,0.5,0.49C16,9.65,15.89,11,13.5,11  c-2.32,0-3.43,1.24-3.95,2.28C9.01,14.37,9,15.45,9,15.5c0,0.03,0,0.86,0.35,1.69C9.84,18.36,10.78,19,12,19c1.55,0,2,0.56,2,2.5  c0,2.4,1.29,3.5,2.5,3.5c0.6,0,1.5-0.4,1.5-1.5c0-0.95,0-1.69,1.72-2.55C21.97,19.82,22,17.59,22,17.5c0-0.6-0.4-1.5-1.5-1.5  c-0.4,0-0.49-0.28-0.5-0.5c0-0.6,0.2-1.5,0.5-1.5c0.13,0,0.13,0,0.24,0.11c0.47,0.47,1.1,0.89,3.76,0.89c0.92,0,1.74-0.09,2.46-0.27  C26.98,14.99,27,15.24,27,15.5C27,21.84,21.84,27,15.5,27z" style="fill:#4D5152;;"/>
</svg>
