<?xml version="1.0"?>
<svg xmlns="http://www.w3.org/2000/svg" xmlns:xlink="http://www.w3.org/1999/xlink" version="1.1" id="266148800_Outlined_2__grid" x="0px" y="0px" width="32px" height="32px" viewBox="0 0 32 32" style="enable-background:new 0 0 32 32;" xml:space="preserve">
<circle id="266148800_shock_x5F_color_grid" class="stshockcolor" style="fill:#67DDE0;" cx="15.5" cy="15.5" r="11.875"/>
<path style="opacity:0.3;fill:#4D5152;" d="M21.62,22c0.752-1.595,1.29-3.564,1.356-6h3.993h0.38c0.007-0.167,0.025-0.331,0.025-0.5  s-0.019-0.333-0.025-0.5h-0.38h-3.993c-0.066-2.436-0.604-4.405-1.356-6h3.357h0.454c-0.227-0.346-0.468-0.681-0.729-1h-0.504  h-3.105c-1.051-1.793-2.357-3.004-3.446-3.787L15.5,3.625l-2.14,0.586C12.272,4.993,10.962,6.204,9.908,8H6.801H6.296  c-0.26,0.319-0.501,0.654-0.728,1h0.454h3.358c-0.752,1.594-1.29,3.563-1.357,6H4.03H3.65c-0.007,0.167-0.025,0.331-0.025,0.5  S3.643,15.833,3.65,16h0.38h3.994c0.067,2.437,0.604,4.406,1.357,6H6.022H5.568c0.227,0.346,0.468,0.681,0.728,1h0.504h3.107  c1.054,1.797,2.365,3.007,3.453,3.789l2.143,0.586h0.001l2.143-0.588c1.089-0.782,2.396-1.994,3.446-3.787h3.105h0.504  c0.261-0.319,0.502-0.654,0.729-1h-0.454H21.62z M15,26.786C13.882,26.102,12.343,24.9,11.105,23H15V26.786z M15,22h-4.482  c-0.823-1.575-1.419-3.546-1.493-6H15V22z M15,15H9.025c0.074-2.455,0.67-4.425,1.493-6H15V15z M15,8h-3.896  C12.343,6.1,13.882,4.898,15,4.214V8z M16,4.209C17.121,4.891,18.662,6.094,19.9,8H16V4.209z M16,9h4.486  c0.82,1.576,1.415,3.547,1.488,6H16V9z M16,26.791V23h3.9C18.662,24.906,17.121,26.109,16,26.791z M20.486,22H16v-6h5.975  C21.901,18.453,21.307,20.425,20.486,22z"/>
<path style="fill:#4D5152;" d="M15.5,4C21.852,4,27,9.149,27,15.5C27,21.852,21.852,27,15.5,27C9.149,27,4,21.852,4,15.5  C4,9.149,9.149,4,15.5,4 M15.5,3C8.607,3,3,8.607,3,15.5S8.607,28,15.5,28S28,22.393,28,15.5S22.393,3,15.5,3L15.5,3z"/>
</svg>
