<?xml version="1.0"?>
<svg xmlns="http://www.w3.org/2000/svg" xmlns:xlink="http://www.w3.org/1999/xlink" version="1.1" id="266148802_Layer_1_grid" x="0px" y="0px" width="32px" height="32px" viewBox="0 0 32 32" style="enable-background:new 0 0 32 32;" xml:space="preserve">
<path id="266148802_shock_x5F_color_grid" class="stshockcolor" style="fill:#AAAAAA;" d="M28.5,9c0,3.04-2.46,5.5-5.5,5.5c-0.37,0-0.73-0.04-1.08-0.11  c-0.05-0.01-0.09-0.02-0.14-0.03c-0.3-0.06-0.601-0.16-0.88-0.28c-0.07-0.03-0.15-0.06-0.221-0.1c-0.04-0.01-0.069-0.03-0.109-0.05  l-6.64,6.64c0.02,0.04,0.04,0.069,0.05,0.109c0.04,0.07,0.07,0.15,0.1,0.221c0.11,0.25,0.19,0.51,0.26,0.779  c0.02,0.08,0.04,0.16,0.05,0.24c0.07,0.35,0.11,0.71,0.11,1.08c0,3.04-2.46,5.5-5.5,5.5c-0.19,0-0.37-0.01-0.55-0.03  c-0.11-0.01-0.22-0.02-0.33-0.05c-0.1-0.01-0.19-0.03-0.29-0.05c-0.12-0.021-0.25-0.05-0.37-0.09l3.41-3.41l-0.79-2.95l-2.95-0.79  l-3.41,3.41c-0.04-0.12-0.07-0.25-0.09-0.37c-0.03-0.11-0.05-0.22-0.06-0.33c-0.02-0.09-0.03-0.189-0.04-0.29  C3.51,23.37,3.5,23.19,3.5,23c0-3.04,2.46-5.5,5.5-5.5c0.57,0,1.12,0.09,1.64,0.25c0.15,0.04,0.29,0.1,0.43,0.15  c0.12,0.05,0.24,0.109,0.36,0.17l6.64-6.64c-0.13-0.26-0.24-0.52-0.32-0.79c-0.06-0.17-0.1-0.35-0.14-0.53  C17.54,9.75,17.5,9.38,17.5,9c0-3.04,2.46-5.5,5.5-5.5c0.3,0,0.6,0.02,0.88,0.08c0.101,0.01,0.19,0.03,0.29,0.05  c0.12,0.02,0.25,0.05,0.37,0.09l-3.41,3.41l0.79,2.95l2.95,0.79l3.41-3.41c0.04,0.12,0.069,0.25,0.09,0.37  c0.02,0.07,0.04,0.15,0.05,0.23C28.47,8.36,28.5,8.68,28.5,9z"/>
<path style="opacity:0.4;fill:#FFFFFF;" d="M14.5,23c0,3.037-2.462,5.5-5.5,5.5c-0.535,0-1.051-0.08-1.54-0.223l3.409-3.409  l-0.79-2.949l-2.949-0.79l-3.408,3.409C3.58,24.049,3.5,23.534,3.5,23c0-3.037,2.462-5.5,5.5-5.5c0.763,0,2.167,0.973,2.528,1.185  c0.755,0.444,1.384,1.081,1.818,1.842C13.549,20.882,14.5,22.258,14.5,23z M28.277,7.462l-3.408,3.409l-2.949-0.79l-0.789-2.949  l3.408-3.409C24.051,3.58,23.535,3.5,23,3.5c-3.037,0-5.5,2.463-5.5,5.5c0,0.758,0.99,2.142,1.201,2.512  c0.434,0.761,1.063,1.397,1.818,1.842C20.87,13.56,22.256,14.5,23,14.5c3.037,0,5.5-2.463,5.5-5.5  C28.5,8.466,28.42,7.951,28.277,7.462z"/>
<path style="fill:#4D5152;" d="M28.856,7.719c-0.131-0.598-0.845-0.715-1.263-0.296c-0.394,0.391-2.881,2.881-2.881,2.881  l-2.379-0.638l0.002,0.007l-0.009-0.009l0.007,0.002l-0.638-2.378c0,0,2.489-2.488,2.881-2.882c0.419-0.417,0.303-1.131-0.296-1.263  c-0.412-0.089-0.838-0.138-1.276-0.138c-3.313,0-6,2.686-6,6c0,0.824,0.166,1.609,0.466,2.323l-6.143,6.143  c-0.714-0.3-1.499-0.466-2.323-0.466c-3.314,0-6,2.687-6,6c0,0.438,0.048,0.864,0.138,1.276c0.132,0.598,0.845,0.715,1.264,0.296  c0.392-0.392,2.88-2.881,2.88-2.881l2.378,0.638l-0.002-0.007l0.01,0.009l-0.008-0.002l0.638,2.378c0,0-2.488,2.488-2.881,2.882  c-0.418,0.417-0.302,1.13,0.297,1.263c0.411,0.09,0.838,0.139,1.276,0.139c3.313,0,6-2.688,6-6c0-0.802-0.16-1.563-0.444-2.262  l6.182-6.181c0.698,0.283,1.461,0.443,2.262,0.443c3.313,0,6-2.687,6-6C28.995,8.557,28.947,8.131,28.856,7.719 M22.995,13.995  c-0.897,0-1.728-0.254-2.454-0.667l-7.213,7.213c0.413,0.728,0.667,1.557,0.667,2.454c0,2.761-2.239,5-5,5  c-0.177,0-0.351-0.01-0.523-0.028l2.956-2.956L10.49,21.51l-3.502-0.938l-2.955,2.956c-0.018-0.172-0.028-0.346-0.028-0.522  c0-2.762,2.239-5,5-5c0.919,0,1.768,0.265,2.507,0.696l7.189-7.189c-0.432-0.739-0.696-1.588-0.696-2.507c0-2.761,2.239-5,5-5  c0.177,0,0.352,0.01,0.522,0.028l-2.956,2.956l0.939,3.501l3.501,0.939l2.956-2.956c0.018,0.171,0.027,0.345,0.027,0.522  C27.995,11.757,25.757,13.995,22.995,13.995"/>
</svg>
