<?xml version="1.0"?>
<svg xmlns="http://www.w3.org/2000/svg" xmlns:xlink="http://www.w3.org/1999/xlink" version="1.1" id="266148804_Layer_1_grid" x="0px" y="0px" width="32px" height="32px" viewBox="0 0 32 32" style="enable-background:new 0 0 32 32;" xml:space="preserve">
<circle id="266148804_shock_x5F_color_grid" class="stshockcolor" style="fill:#67DDE0;" cx="15.5" cy="15.5" r="10"/>
<path style="fill:#BF9171;" d="M28.5,29.5c-0.269,0-0.528-0.112-0.713-0.307c-0.099-0.098-5.968-5.957-5.968-5.957l0.4-0.353  c0.234-0.205,0.459-0.43,0.664-0.664l0.353-0.4c0,0,5.859,5.869,5.969,5.979c0.183,0.173,0.295,0.433,0.295,0.701  s-0.112,0.528-0.307,0.713C29.028,29.388,28.769,29.5,28.5,29.5z"/>
<circle style="opacity:0.4;fill:#FFFFFF;" cx="15.5" cy="15.5" r="7.5"/>
<path style="opacity:0.8;fill:#FFFFFF;" d="M9.645,19.837c-0.163,0-0.322-0.079-0.418-0.226c-0.16-0.243-0.306-0.496-0.437-0.758  c-0.124-0.247-0.023-0.547,0.224-0.671c0.248-0.124,0.547-0.022,0.671,0.224c0.113,0.227,0.24,0.446,0.378,0.656  c0.151,0.23,0.087,0.541-0.144,0.692C9.834,19.811,9.739,19.837,9.645,19.837z M8.5,16C8.224,16,8,15.776,8,15.5  C8,11.364,11.364,8,15.5,8C15.776,8,16,8.224,16,8.5S15.776,9,15.5,9C11.916,9,9,11.916,9,15.5C9,15.776,8.776,16,8.5,16z"/>
<path style="fill:#4D5152;" d="M29.561,27.439c-0.308-0.307-3.679-3.678-5.66-5.659c1.313-1.753,2.1-3.922,2.1-6.28  C26,9.701,21.299,5,15.5,5S5,9.701,5,15.5S9.701,26,15.5,26c2.357,0,4.526-0.787,6.279-2.099c1.981,1.981,5.353,5.353,5.66,5.66  c0.586,0.585,1.535,0.585,2.121,0C30.146,28.976,30.146,28.025,29.561,27.439z M15.5,25C10.253,25,6,20.747,6,15.5  C6,10.253,10.253,6,15.5,6c5.247,0,9.5,4.253,9.5,9.5C25,20.747,20.747,25,15.5,25z M28.854,28.854  c-0.195,0.196-0.512,0.196-0.707,0c-0.111-0.111-3.553-3.553-5.593-5.592c0.247-0.225,0.482-0.46,0.707-0.707  c2.04,2.04,5.481,5.48,5.593,5.592C29.049,28.343,29.049,28.658,28.854,28.854z M16,15h3v1h-3v3h-1v-3h-3v-1h3v-3h1V15z"/>
</svg>
