<?xml version="1.0"?>
<svg xmlns="http://www.w3.org/2000/svg" xmlns:xlink="http://www.w3.org/1999/xlink" version="1.1" id="266148803_Layer_1_grid" x="0px" y="0px" width="32px" height="32px" viewBox="0 0 32 32" style="enable-background:new 0 0 32 32;" xml:space="preserve">
<circle id="266148803_shock_x5F_color_grid" class="stshockcolor" style="fill:#67DDE0;" cx="15.5" cy="15.5" r="10"/>
<path style="fill:#BF9171;" d="M28.5,29.5c-0.269,0-0.528-0.112-0.713-0.307c-0.099-0.098-5.968-5.957-5.968-5.957l0.4-0.353  c0.234-0.205,0.459-0.43,0.664-0.664l0.353-0.4c0,0,5.859,5.869,5.969,5.979c0.183,0.173,0.295,0.433,0.295,0.701  s-0.112,0.528-0.307,0.713C29.028,29.388,28.769,29.5,28.5,29.5z"/>
<circle style="opacity:0.4;fill:#FFFFFF;" cx="15.5" cy="15.5" r="7.5"/>
<path style="opacity:0.8;fill:#FFFFFF;" d="M9.645,19.837c-0.163,0-0.322-0.079-0.418-0.226c-0.16-0.243-0.306-0.496-0.437-0.758  c-0.124-0.247-0.023-0.547,0.224-0.671c0.248-0.124,0.547-0.022,0.671,0.224c0.113,0.227,0.24,0.446,0.378,0.656  c0.151,0.23,0.087,0.541-0.144,0.692C9.834,19.811,9.739,19.837,9.645,19.837z M8.5,16C8.224,16,8,15.776,8,15.5  C8,11.364,11.364,8,15.5,8C15.776,8,16,8.224,16,8.5S15.776,9,15.5,9C11.916,9,9,11.916,9,15.5C9,15.776,8.776,16,8.5,16z"/>
<path style="fill:#4D5152;" d="M15.5,25C10.253,25,6,20.747,6,15.5C6,10.253,10.253,6,15.5,6c5.247,0,9.5,4.253,9.5,9.5  C25,20.747,20.747,25,15.5,25z M29.56,27.44c-0.31-0.311-3.68-3.681-5.659-5.66c1.31-1.75,2.1-3.92,2.1-6.28C26,9.7,21.3,5,15.5,5  S5,9.7,5,15.5S9.7,26,15.5,26c2.36,0,4.53-0.79,6.28-2.1c1.979,1.979,5.35,5.35,5.66,5.659c0.59,0.591,1.529,0.591,2.119,0  C30.15,28.98,30.15,28.03,29.56,27.44z M28.85,28.85c-0.189,0.2-0.51,0.2-0.699,0c-0.11-0.109-3.561-3.55-5.601-5.59  c0.25-0.22,0.49-0.46,0.71-0.71c2.04,2.04,5.48,5.49,5.59,5.601C29.05,28.34,29.05,28.66,28.85,28.85z"/>
</svg>
