<?xml version="1.0"?>
<svg xmlns="http://www.w3.org/2000/svg" xmlns:xlink="http://www.w3.org/1999/xlink" version="1.1" id="266247319_icon_grid" x="0px" y="0px" width="32px" height="32px" viewBox="0 0 32 32" style="enable-background:new 0 0 32 32;" xml:space="preserve">
<path id="266247319_shock_x5F_color_grid" class="stshockcolor" style="fill:#EF6565;" d="M20.5,16.5c-0.561,0-1-0.439-1-1s0.439-1,1-1s1,0.439,1,1  S21.061,16.5,20.5,16.5z M20.5,15.496V15.5C20.5,15.497,20.5,15.496,20.5,15.496z M16.5,16.5c-0.561,0-1-0.439-1-1s0.439-1,1-1  s1,0.439,1,1S17.061,16.5,16.5,16.5z M16.5,15.496V15.5C16.5,15.497,16.5,15.496,16.5,15.496z M12.5,16.5c-0.551,0-1-0.448-1-1  c0-0.551,0.449-1,1-1s1,0.449,1,1C13.5,16.052,13.051,16.5,12.5,16.5z M12.5,15.496l0,0.004C12.5,15.497,12.5,15.496,12.5,15.496z   M8.5,16.5c-0.551,0-1-0.448-1-1c0-0.551,0.449-1,1-1s1,0.449,1,1C9.5,16.052,9.051,16.5,8.5,16.5z M8.5,15.496l0,0.004  C8.5,15.497,8.5,15.496,8.5,15.496z M22.5,11.5c-0.561,0-1-0.439-1-1s0.439-1,1-1s1,0.439,1,1S23.061,11.5,22.5,11.5z M22.5,10.496  V10.5C22.5,10.497,22.5,10.496,22.5,10.496z M16.5,11.5c-0.561,0-1-0.439-1-1s0.439-1,1-1s1,0.439,1,1S17.061,11.5,16.5,11.5z   M16.5,10.496V10.5C16.5,10.497,16.5,10.496,16.5,10.496z M12.5,11.5c-0.551,0-1-0.449-1-1s0.449-1,1-1s1,0.449,1,1  S13.051,11.5,12.5,11.5z M12.5,10.496l0,0.004C12.5,10.497,12.5,10.496,12.5,10.496z M8.5,11.5c-0.551,0-1-0.449-1-1s0.449-1,1-1  s1,0.449,1,1S9.051,11.5,8.5,11.5z M8.5,10.496l0,0.004C8.5,10.497,8.5,10.496,8.5,10.496z M20.5,21.5c-0.561,0-1-0.439-1-1  s0.439-1,1-1s1,0.439,1,1S21.061,21.5,20.5,21.5z M20.5,20.495V20.5C20.5,20.497,20.5,20.495,20.5,20.495z M16.5,21.5  c-0.561,0-1-0.439-1-1s0.439-1,1-1s1,0.439,1,1S17.061,21.5,16.5,21.5z M16.5,20.495V20.5C16.5,20.497,16.5,20.495,16.5,20.495z   M12.5,21.5c-0.561,0-1-0.439-1-1s0.439-1,1-1s1,0.439,1,1S13.061,21.5,12.5,21.5z M12.5,20.496l0,0.004  C12.5,20.497,12.5,20.496,12.5,20.496z M8.5,21.5c-0.561,0-1-0.439-1-1s0.439-1,1-1s1,0.439,1,1S9.061,21.5,8.5,21.5z M8.5,20.496  l0,0.004C8.5,20.497,8.5,20.496,8.5,20.496z"/>
<path style="opacity:0.4;fill:#4D5152;" d="M20.5,21.5c-0.561,0-1-0.439-1-1s0.439-1,1-1s1,0.439,1,1S21.061,21.5,20.5,21.5z   M20.5,20.495V20.5C20.5,20.497,20.5,20.495,20.5,20.495z M16.5,21.5c-0.561,0-1-0.439-1-1s0.439-1,1-1s1,0.439,1,1  S17.061,21.5,16.5,21.5z M16.5,20.495V20.5C16.5,20.497,16.5,20.495,16.5,20.495z M12.5,21.5c-0.561,0-1-0.439-1-1s0.439-1,1-1  s1,0.439,1,1S13.061,21.5,12.5,21.5z M12.5,20.496l0,0.004C12.5,20.497,12.5,20.496,12.5,20.496z M8.5,21.5c-0.561,0-1-0.439-1-1  s0.439-1,1-1s1,0.439,1,1S9.061,21.5,8.5,21.5z M8.5,20.496l0,0.004C8.5,20.497,8.5,20.496,8.5,20.496z"/>
<path style="opacity:0.4;fill:#FFFFFF;" d="M22.5,11.5c-0.561,0-1-0.439-1-1s0.439-1,1-1s1,0.439,1,1S23.061,11.5,22.5,11.5z   M22.5,10.496V10.5C22.5,10.497,22.5,10.496,22.5,10.496z M16.5,11.5c-0.561,0-1-0.439-1-1s0.439-1,1-1s1,0.439,1,1  S17.061,11.5,16.5,11.5z M16.5,10.496V10.5C16.5,10.497,16.5,10.496,16.5,10.496z M12.5,11.5c-0.551,0-1-0.449-1-1s0.449-1,1-1  s1,0.449,1,1S13.051,11.5,12.5,11.5z M12.5,10.496l0,0.004C12.5,10.497,12.5,10.496,12.5,10.496z M8.5,11.5c-0.551,0-1-0.449-1-1  s0.449-1,1-1s1,0.449,1,1S9.051,11.5,8.5,11.5z M8.5,10.496l0,0.004C8.5,10.497,8.5,10.496,8.5,10.496z"/>
<path style="fill:#4D5152;" d="M22.5,11c0.28,0,0.5-0.22,0.5-0.5S22.78,10,22.5,10S22,10.22,22,10.5S22.22,11,22.5,11z M20.5,21  c0.28,0,0.5-0.22,0.5-0.5S20.78,20,20.5,20S20,20.22,20,20.5S20.22,21,20.5,21z M20.5,16c0.28,0,0.5-0.22,0.5-0.5S20.78,15,20.5,15  S20,15.22,20,15.5S20.22,16,20.5,16z M16.5,21c0.28,0,0.5-0.22,0.5-0.5S16.78,20,16.5,20S16,20.22,16,20.5S16.22,21,16.5,21z   M16.5,16c0.28,0,0.5-0.22,0.5-0.5S16.78,15,16.5,15S16,15.22,16,15.5S16.22,16,16.5,16z M16.5,11c0.28,0,0.5-0.22,0.5-0.5  S16.78,10,16.5,10S16,10.22,16,10.5S16.22,11,16.5,11z M12.5,21c0.28,0,0.5-0.22,0.5-0.5S12.78,20,12.5,20S12,20.22,12,20.5  S12.22,21,12.5,21z M12.5,16c0.28,0,0.5-0.22,0.5-0.5S12.78,15,12.5,15S12,15.22,12,15.5S12.22,16,12.5,16z M12.5,11  c0.28,0,0.5-0.22,0.5-0.5S12.78,10,12.5,10S12,10.22,12,10.5S12.22,11,12.5,11z M26,27H6c0,0-2,0-2-2V7c0,0,0-2,2-2h20c0,0,2,0,2,2  v18C28,25,28,27,26,27z M8.5,22c-0.65,0-1.21-0.42-1.41-1H5v4c0,0.81,0.55,0.99,1.01,1H26c0.81,0,0.99-0.55,1-1.01V21h-5.09  c-0.2,0.58-0.76,1-1.41,1s-1.21-0.42-1.41-1h-1.18c-0.2,0.58-0.76,1-1.41,1c-0.65,0-1.21-0.42-1.41-1h-1.18c-0.2,0.58-0.76,1-1.41,1  s-1.21-0.42-1.41-1H9.91C9.71,21.58,9.15,22,8.5,22z M8.5,17c-0.65,0-1.21-0.42-1.41-1H5v4h2.09c0.2-0.58,0.76-1,1.41-1  s1.21,0.42,1.41,1h1.18c0.2-0.58,0.76-1,1.41-1s1.21,0.42,1.41,1h1.18c0.2-0.58,0.76-1,1.41-1c0.65,0,1.21,0.42,1.41,1h1.18  c0.2-0.58,0.76-1,1.41-1s1.21,0.42,1.41,1H27v-4h-5.09c-0.2,0.58-0.76,1-1.41,1s-1.21-0.42-1.41-1h-1.18c-0.2,0.58-0.76,1-1.41,1  c-0.65,0-1.21-0.42-1.41-1h-1.18c-0.2,0.58-0.76,1-1.41,1s-1.21-0.42-1.41-1H9.91C9.71,16.58,9.15,17,8.5,17z M8.5,12  c-0.65,0-1.21-0.42-1.41-1H5v4h2.09c0.2-0.58,0.76-1,1.41-1s1.21,0.42,1.41,1h1.18c0.2-0.58,0.76-1,1.41-1s1.21,0.42,1.41,1h1.18  c0.2-0.58,0.76-1,1.41-1c0.65,0,1.21,0.42,1.41,1h1.18c0.2-0.58,0.76-1,1.41-1s1.21,0.42,1.41,1H27v-4h-3.09  c-0.2,0.58-0.76,1-1.41,1s-1.21-0.42-1.41-1h-3.18c-0.2,0.58-0.76,1-1.41,1c-0.65,0-1.21-0.42-1.41-1h-1.18c-0.2,0.58-0.76,1-1.41,1  s-1.21-0.42-1.41-1H9.91C9.71,11.58,9.15,12,8.5,12z M7.09,10c0.2-0.58,0.76-1,1.41-1s1.21,0.42,1.41,1h1.18c0.2-0.58,0.76-1,1.41-1  s1.21,0.42,1.41,1h1.18c0.2-0.58,0.76-1,1.41-1c0.65,0,1.21,0.42,1.41,1h3.18c0.2-0.58,0.76-1,1.41-1s1.21,0.42,1.41,1H27V7  c0-0.8-0.55-0.99-1.01-1H6C5.19,6,5.01,6.55,5,7.01V10H7.09z M8.5,20C8.22,20,8,20.22,8,20.5S8.22,21,8.5,21S9,20.78,9,20.5  S8.78,20,8.5,20z M8.5,15C8.22,15,8,15.22,8,15.5S8.22,16,8.5,16S9,15.78,9,15.5S8.78,15,8.5,15z M8.5,10C8.22,10,8,10.22,8,10.5  S8.22,11,8.5,11S9,10.78,9,10.5S8.78,10,8.5,10z"/>
</svg>
