<?xml version="1.0"?>
<svg xmlns="http://www.w3.org/2000/svg" xmlns:xlink="http://www.w3.org/1999/xlink" version="1.1" id="266148670_Outlined_2__grid" x="0px" y="0px" width="32px" height="32px" viewBox="0 0 32 32" style="enable-background:new 0 0 32 32;" xml:space="preserve">
<path id="266148670_shock_x5F_color_grid" class="stshockcolor" style="fill:#67DDE0;" d="M15.5,27.5c-6.617,0-12-5.383-12-12c0-6.617,5.383-12,12-12  c6.617,0,12,5.383,12,12C27.5,22.117,22.117,27.5,15.5,27.5z"/>
<path style="fill:#4D5152;" d="M15.5,3C8.597,3,3,8.597,3,15.5S8.597,28,15.5,28S28,22.403,28,15.5S22.403,3,15.5,3z M15.5,27  C9.149,27,4,21.852,4,15.5S9.149,4,15.5,4C21.852,4,27,9.148,27,15.5S21.852,27,15.5,27z M25,15.5l-4.61,4.61l-0.706-0.705  L23.089,16H7.911l3.405,3.405l-0.705,0.705L6,15.5l4.61-4.61l0.705,0.705L7.911,15h15.178l-3.405-3.405l0.706-0.705L25,15.5z"/>
</svg>
