<?xml version="1.0"?>
<svg xmlns="http://www.w3.org/2000/svg" xmlns:xlink="http://www.w3.org/1999/xlink" version="1.1" id="266148672_Outlined_2__grid" x="0px" y="0px" width="32px" height="32px" viewBox="0 0 32 32" style="enable-background:new 0 0 32 32;" xml:space="preserve">
<path id="266148672_shock_x5F_color_grid" class="stshockcolor" style="fill:#67DDE0;" d="M15.5,27.5c-6.617,0-12-5.383-12-12c0-6.617,5.383-12,12-12  c6.617,0,12,5.383,12,12C27.5,22.117,22.117,27.5,15.5,27.5z"/>
<path style="fill:#4D5152;" d="M15.5,3C8.6,3,3,8.6,3,15.5S8.6,28,15.5,28C22.4,28,28,22.4,28,15.5S22.4,3,15.5,3z M15.5,27  C9.15,27,4,21.85,4,15.5S9.15,4,15.5,4C21.85,4,27,9.15,27,15.5S21.85,27,15.5,27z M22.81,15.27l0.7,0.82L15.48,24l-7.97-7.98  l0.71-0.709L15,22.108V7h1v15.07L22.81,15.27z"/>
</svg>
