<?xml version="1.0"?>
<svg xmlns="http://www.w3.org/2000/svg" xmlns:xlink="http://www.w3.org/1999/xlink" version="1.1" id="266148677_Outlined_2__grid" x="0px" y="0px" width="32px" height="32px" viewBox="0 0 32 32" style="enable-background:new 0 0 32 32;" xml:space="preserve">
<path id="266148677_shock_x5F_color_grid" class="stshockcolor" style="fill:#67DDE0;" d="M15.5,27.5c-6.617,0-12-5.383-12-12c0-6.617,5.383-12,12-12  c6.617,0,12,5.383,12,12C27.5,22.117,22.117,27.5,15.5,27.5z"/>
<path style="fill:#4D5152;" d="M15.5,3C8.596,3,3,8.597,3,15.5S8.596,28,15.5,28C22.403,28,28,22.403,28,15.5S22.403,3,15.5,3z   M15.5,26.995c-6.349,0-11.495-5.146-11.495-11.495S9.151,4.005,15.5,4.005S26.995,9.151,26.995,15.5S21.849,26.995,15.5,26.995z   M7.509,18.053l0.708,0.706l7.268-7.275l7.323,7.314l0.706-0.817l-8.031-7.912L7.509,18.053z"/>
</svg>
