<?xml version="1.0"?>
<svg xmlns="http://www.w3.org/2000/svg" xmlns:xlink="http://www.w3.org/1999/xlink" version="1.1" id="266148679_Outlined_2__grid" x="0px" y="0px" width="32px" height="32px" viewBox="0 0 32 32" style="enable-background:new 0 0 32 32;" xml:space="preserve">
<path id="266148679_shock_x5F_color_grid" class="stshockcolor" style="fill:#FFD878;" d="M24,3.5H7.989C7.071,3.52,6.5,4.095,6.5,5v0.5H11c0.102,0,2.5,0.034,2.5,3  c0,2.891-2.246,2.998-2.5,3H6.5v15.511C6.52,27.93,7.095,28.5,8,28.5h16.011C24.93,28.479,25.5,27.905,25.5,27V4.989  C25.479,4.071,24.905,3.5,24,3.5z"/>
<path style="opacity:0.6;fill:#FFFFFF;" d="M24,3.5H7.989C7.071,3.52,6.5,4.095,6.5,5v0.5H11c0.102,0,2.5,0.034,2.5,3  c0,2.891-2.246,2.998-2.5,3H6.5v15.511C6.52,27.93,7.095,28.5,8,28.5h16.011C24.93,28.479,25.5,27.905,25.5,27V4.989  C25.479,4.071,24.905,3.5,24,3.5z"/>
<path style="fill:#BFBFBF;" d="M11,5.5H4.5v6H5h6.011c0.416-0.009,2.489-0.195,2.489-3C13.5,6.132,11.929,5.5,11,5.5z"/>
<path style="fill:#4D5152;" d="M24,3H8c0,0-2,0-2,2H4v7h2v15c0,0,0,2,2,2h16c0,0,2,0,2-2V5C26,5,26,3,24,3z M5,11V6h6  c0.21,0,2,0.07,2,2.5c0,2.28-1.54,2.49-2,2.5H5z M25,27c0,0.81-0.55,0.99-1,1H8c-0.81,0-0.99-0.55-1-1V12h4c0,0,3,0,3-3.5S11,5,11,5  H7c0-0.81,0.55-0.99,1-1h16c0.81,0,0.99,0.55,1,1V27z M10.5,10H6V9h4.5C11,8.98,11,8.67,11,8.5C11,8.38,11,8,10.5,8H6V7h4.5  c0,0,1.5,0,1.5,1.5S10.5,10,10.5,10z"/>
</svg>
