<?xml version="1.0" encoding="utf-8"?>
<!-- Generator: Adobe Illustrator 16.0.0, SVG Export Plug-In . SVG Version: 6.00 Build 0)  -->
<svg xmlns="http://www.w3.org/2000/svg" xmlns:xlink="http://www.w3.org/1999/xlink" version="1.1" id="266789648_Outlined_2__grid" x="0px" y="0px" width="32px" height="32px" viewBox="0 0 32 32" style="enable-background:new 0 0 32 32;" xml:space="preserve">

<path class="st0" d="M12,1.5h8l-4,5.333L12,1.5z M20,29.5l-4-5.333L12,29.5H20z" style="fill:#AAAAAA;;"/>
<path id="266789648_shock_x5F_color_grid" class="stshockcolor" d="M13.5,11.496l7-0.992v2l-7,0.992V11.496z M19.628,19.202  c0.269-0.17,0.472-0.398,0.589-0.649c0.271-0.486,0.283-1.047,0.283-1.053v-2h-2c-0.466,0-0.84,0.1-1.128,0.297  c-0.269,0.17-0.472,0.399-0.589,0.65c-0.275,0.494-0.283,1.047-0.281,1.116l0.011,0.12c0.012,0.11,0.037,0.271,0.092,0.46  c0.15,0.47,0.4,0.821,0.742,1.045C17.672,19.4,18.039,19.5,18.5,19.5C18.966,19.5,19.34,19.399,19.628,19.202z M11.542,20.5  l0.142-0.013c0.111-0.012,0.271-0.037,0.459-0.092c0.47-0.15,0.822-0.4,1.046-0.743c0.212-0.327,0.311-0.693,0.311-1.152v-2  l-2.064,0.002l-0.119,0.011c-0.111,0.012-0.271,0.037-0.459,0.092c-0.47,0.15-0.822,0.4-1.046,0.743  C9.599,17.675,9.5,18.041,9.5,18.5c0,0.467,0.101,0.841,0.297,1.127c0.17,0.269,0.398,0.473,0.649,0.59  c0.495,0.275,1.048,0.283,1.053,0.283H11.542z" style="fill:#67DDE0;;"/>
<path class="st1" d="M16,23.33L11,30h10L16,23.33z M16,25l3,4h-6L16,25z M11,1l5,6.67L21,1H11z M13,2h6l-3,4L13,2z M5,22v1h22v-1H5z   M5,8v1h22V8H5z M13,11.07V16h-1.5c-0.04,0-0.6,0-1.22,0.3c-0.31,0.16-0.64,0.4-0.88,0.771C9.15,17.43,9,17.92,9,18.5  s0.15,1.07,0.4,1.43c0.37,0.561,0.91,0.82,1.32,0.94C11.15,21,11.47,21,11.5,21c0.04,0,0.6,0,1.22-0.3  c0.31-0.16,0.64-0.4,0.88-0.771c0.25-0.359,0.4-0.85,0.4-1.43v-4.57l6-0.85V15h-1.5c-0.58,0-1.07,0.15-1.43,0.4  c-0.561,0.37-0.82,0.91-0.94,1.32C16,17.15,16,17.47,16,17.5c0,0.04,0,0.6,0.3,1.22c0.16,0.311,0.4,0.641,0.771,0.88  c0.359,0.25,0.85,0.4,1.43,0.4s1.07-0.15,1.43-0.4c0.561-0.369,0.82-0.909,0.94-1.319C21,17.85,21,17.53,21,17.5V9.92L13,11.07z   M13,18.5c0,0.42-0.1,0.68-0.23,0.88c-0.19,0.29-0.5,0.45-0.78,0.54c-0.14,0.04-0.27,0.061-0.36,0.07L11.52,20H11.5  c-0.02,0-0.45-0.02-0.81-0.22c-0.19-0.09-0.35-0.23-0.47-0.42C10.09,19.17,10,18.9,10,18.5c0-0.42,0.1-0.68,0.23-0.88  c0.19-0.29,0.5-0.45,0.78-0.54c0.14-0.04,0.27-0.061,0.36-0.07L11.48,17H13V18.5z M20,17.5c0,0.01-0.02,0.45-0.22,0.81  c-0.09,0.19-0.23,0.351-0.42,0.471C19.17,18.91,18.9,19,18.5,19c-0.42,0-0.68-0.1-0.88-0.23c-0.29-0.189-0.45-0.5-0.54-0.779  c-0.04-0.141-0.061-0.271-0.07-0.36L17,17.52V17.5c0-0.02,0.02-0.45,0.22-0.81c0.09-0.19,0.23-0.351,0.42-0.471  C17.83,16.09,18.1,16,18.5,16H20V17.5z M20,12.07l-6,0.85v-0.99l6-0.85V12.07z" style="fill:#4D5152;;"/>
</svg>
