<?xml version="1.0"?>
<svg xmlns="http://www.w3.org/2000/svg" xmlns:xlink="http://www.w3.org/1999/xlink" version="1.1" id="266148694_Outlined_2__grid" x="0px" y="0px" width="32px" height="32px" viewBox="0 0 32 32" style="enable-background:new 0 0 32 32;" xml:space="preserve">
<path id="266148694_shock_x5F_color_grid" class="stshockcolor" style="fill:#67DDE0;" d="M16,4.5c-6.903,0-12.5,4.477-12.5,10c0,3.941,2.858,7.341,7,8.97v4.655  l3.279-3.792C14.501,24.438,15.241,24.5,16,24.5c6.903,0,12.5-4.478,12.5-10C28.5,8.977,22.903,4.5,16,4.5z"/>
<path style="opacity:0.8;fill:#FFFFFF;" d="M22.81,21.089c-0.163,0-0.323-0.08-0.419-0.228c-0.15-0.231-0.085-0.541,0.146-0.691  c0.455-0.296,0.876-0.623,1.253-0.975c0.203-0.188,0.518-0.177,0.707,0.025c0.188,0.202,0.177,0.519-0.025,0.707  c-0.419,0.39-0.887,0.753-1.39,1.08C22.998,21.063,22.903,21.089,22.81,21.089z M25.698,18.07c-0.081,0-0.164-0.02-0.24-0.062  c-0.242-0.132-0.331-0.436-0.198-0.679C25.751,16.432,26,15.479,26,14.5c0-4.01-4.181-7.301-9.518-7.492  C16.206,6.999,15.99,6.767,16,6.491c0.01-0.275,0.262-0.497,0.518-0.481C22.396,6.219,27,9.949,27,14.5  c0,1.148-0.29,2.263-0.863,3.311C26.046,17.977,25.875,18.07,25.698,18.07z"/>
<path style="fill:#4D5152;" d="M16,3.996c-7.176,0-12.994,4.703-12.994,10.505c0,4.046,2.833,7.552,6.978,9.307l0.024,5.597  l4.173-4.514c0.595,0.068,1.2,0.115,1.819,0.115c7.177,0,12.994-4.703,12.994-10.505S23.177,3.996,16,3.996 M16,24  c-0.751,0-1.484-0.062-2.197-0.166l-2.805,2.958l-0.001-3.664c-4.129-1.502-7.001-4.796-7.001-8.627  C3.996,9.255,9.37,5.002,16,5.002s12.005,4.253,12.005,9.499S22.63,24,16,24 M18,13c-0.554-0.001-1-0.447-1-1s0.446-1.001,1-1  c0.552,0,1,0.448,1,1C19,12.553,18.552,13,18,13z M13,13c-0.553-0.001-1-0.448-1-1c0-0.552,0.447-1,1-1c0.552,0,1,0.447,1,1  C14,12.551,13.551,13,13,13z M15.5,18c-4.311,0-5.429-3.206-5.474-3.342c-0.087-0.262,0.054-0.545,0.316-0.632  c0.264-0.087,0.543,0.054,0.632,0.313l0,0C11.011,14.448,11.931,17,15.5,17c3.598,0,4.517-2.631,4.525-2.658  c0.089-0.262,0.372-0.403,0.633-0.316c0.262,0.087,0.403,0.37,0.316,0.632C20.929,14.794,19.811,18,15.5,18z"/>
</svg>
