<?xml version="1.0"?>
<svg xmlns="http://www.w3.org/2000/svg" xmlns:xlink="http://www.w3.org/1999/xlink" version="1.1" id="266148702_Outlined_2__grid" x="0px" y="0px" width="32px" height="32px" viewBox="0 0 32 32" style="enable-background:new 0 0 32 32;" xml:space="preserve">
<path id="266148702_shock_x5F_color_grid" class="stshockcolor" style="fill:#BF9171;" d="M6.5,30.5c-0.551,0-1-0.448-1-1v-24c0-0.551,0.449-1,1-1h6.026l0.098-0.374  C13.028,2.58,14.417,1.5,16,1.5c1.583,0,2.972,1.08,3.377,2.626L19.475,4.5H25.5c0.552,0,1,0.449,1,1v24c0,0.552-0.448,1-1,1H6.5z"/>
<rect x="8.5" y="10.5" style="fill:#FFFFFF;" width="15" height="16"/>
<path style="fill:#BFBFBF;" d="M8,10.5c-0.276,0-0.5-0.224-0.5-0.5c0-1.418,0.466-2.126,1.662-2.524L12.5,6.36V5  c0-1.93,1.57-3.5,3.5-3.5s3.5,1.57,3.5,3.5v1.36l3.339,1.116C24.034,7.875,24.5,8.582,24.5,10c0,0.276-0.225,0.5-0.5,0.5H8z"/>
<path style="fill:#4D5152;" d="M25.5,4h-5.642C19.412,2.278,17.861,1,16,1s-3.412,1.278-3.858,3H6.5C5.671,4,5,4.672,5,5.5v24  C5,30.328,5.671,31,6.5,31h19c0.828,0,1.5-0.672,1.5-1.5v-24C27,4.672,26.328,4,25.5,4z M13,6.721V5c0-1.654,1.346-3,3-3  s3,1.346,3,3v1.721l3.684,1.229C23.668,8.276,24,8.795,24,10H8c0-1.205,0.332-1.724,1.316-2.051L13,6.721z M23,11v15H9V11H23z   M26,29.5c0,0.276-0.224,0.5-0.5,0.5h-19C6.224,30,6,29.776,6,29.5v-24C6,5.224,6.224,5,6.5,5H12c0,0.5,0,1,0,1s-1.5,0.5-3,1  s-2,1.5-2,3c0,0.5,0,1,0,1h1l0.001,15.984l15.994,0.015L23.999,11H25c0,0,0-0.5,0-1c0-1.5-0.5-2.5-2-3s-3-1-3-1s0-0.5,0-1h5.5  C25.776,5,26,5.224,26,5.5V29.5z M16,6c0.553,0,1-0.447,1-1s-0.447-1-1-1c-0.552,0-1,0.447-1,1S15.448,6,16,6z"/>
</svg>
