<?xml version="1.0"?>
<svg xmlns="http://www.w3.org/2000/svg" xmlns:xlink="http://www.w3.org/1999/xlink" version="1.1" id="266148704_Outlined_2__grid" x="0px" y="0px" width="32px" height="32px" viewBox="0 0 32 32" style="enable-background:new 0 0 32 32;" xml:space="preserve">
<path id="266148704_shock_x5F_color_grid" class="stshockcolor" style="fill:#EF6565;" d="M15.5,27.5c-6.617,0-12-5.383-12-12c0-6.617,5.383-12,12-12  c6.617,0,12,5.383,12,12C27.5,22.117,22.117,27.5,15.5,27.5z"/>
<path style="fill:#4D5152;" d="M15.5,3C8.596,3,3,8.597,3,15.5S8.596,28,15.5,28C22.403,28,28,22.403,28,15.5S22.403,3,15.5,3z   M15.5,27.001c-6.352,0-11.501-5.149-11.501-11.501S9.148,3.999,15.5,3.999c6.352,0,11.501,5.149,11.501,11.501  S21.852,27.001,15.5,27.001z M22.552,9.18l-6.322,6.322l6.322,6.322l-0.733,0.733l-6.322-6.322l-6.322,6.322l-0.733-0.733  l6.322-6.322L8.441,9.18l0.733-0.732l6.322,6.322l6.322-6.322L22.552,9.18z"/>
</svg>
