<?xml version="1.0"?>
<svg xmlns="http://www.w3.org/2000/svg" xmlns:xlink="http://www.w3.org/1999/xlink" version="1.1" id="266247339_Outlined_2__grid" x="0px" y="0px" width="32px" height="32px" viewBox="0 0 32 32" style="enable-background:new 0 0 32 32;" xml:space="preserve">
<path id="266247339_shock_x5F_color_grid" class="stshockcolor" style="fill:#FFD878;" d="M15.5,28.5c-7.168,0-13-5.832-13-13c0-7.168,5.832-13,13-13  c7.168,0,13,5.832,13,13C28.5,22.668,22.668,28.5,15.5,28.5z"/>
<g style="opacity:0.4;">
	<path style="fill:#FFFFFF;" d="M15.5,26C9.71,26,5,21.29,5,15.5C5,9.71,9.71,5,15.5,5C21.29,5,26,9.71,26,15.5   C26,21.29,21.29,26,15.5,26z"/>
</g>
<path style="fill:#4D5152;" d="M15.5,3C22.393,3,28,8.607,28,15.5S22.393,28,15.5,28S3,22.393,3,15.5S8.607,3,15.5,3 M15.5,2  C8.044,2,2,8.044,2,15.5S8.044,29,15.5,29S29,22.956,29,15.5S22.956,2,15.5,2L15.5,2z M19,8h-5c0,8.75-4,11-4,11v3h1v-2h8v2h1v-3h-1  V8z M18,19h-6.625c0,0,3.625-3,3.625-10h3V19z"/>
</svg>
