<?xml version="1.0"?>
<svg xmlns="http://www.w3.org/2000/svg" xmlns:xlink="http://www.w3.org/1999/xlink" version="1.1" id="266247342_Outlined_2__grid" x="0px" y="0px" width="32px" height="32px" viewBox="0 0 32 32" style="enable-background:new 0 0 32 32;" xml:space="preserve">
<g>
	<path id="266247342_shock_x5F_color_grid" class="stshockcolor" style="fill:#FFD878;" d="M15.5,27.5c-6.617,0-12-5.384-12-12c0-6.617,5.383-12,12-12   c6.616,0,12,5.383,12,12C27.5,22.116,22.116,27.5,15.5,27.5z"/>
	<g style="opacity:0.4;">
		<path style="fill:#FFFFFF;" d="M15.5,25.192c-5.344,0-9.692-4.348-9.692-9.692c0-5.344,4.348-9.692,9.692-9.692    c5.345,0,9.692,4.348,9.692,9.692C25.192,20.845,20.845,25.192,15.5,25.192z"/>
	</g>
</g>
<path style="fill:#4D5152;" d="M20.002,18.343c-0.041,0.951-0.441,2.989-3.002,3.523V24h-1v-2.016C15.88,21.99,15.765,22,15.637,22  c-0.218,0-0.43-0.013-0.637-0.037V24h-1v-2.272c-1.044-0.359-1.928-1.078-2.63-2.167l0.84-0.542C13.07,20.352,14.191,21,15.637,21  c2.685,0,3.312-1.469,3.366-2.701c0.061-1.408-0.877-2.164-3.391-2.608c-1.56-0.271-3.619-0.913-3.619-3.349  c0-1.162,0.557-2.47,2.007-3.043V7h1v2.061C15.228,9.03,15.457,9,15.715,9C15.817,9,15.903,9.016,16,9.021V7h1v2.164  c1.482,0.375,2.182,1.318,2.385,1.659l-0.859,0.512C18.393,11.111,17.634,10,15.715,10c-2.526,0-2.722,1.793-2.722,2.342  c0,0.974,0.324,1.935,2.792,2.363C17.104,14.938,20.125,15.484,20.002,18.343z M28,15.5C28,22.403,22.403,28,15.5,28  S3,22.403,3,15.5S8.597,3,15.5,3S28,8.597,28,15.5z M27,15.5C27,9.148,21.852,4,15.5,4C9.149,4,4,9.148,4,15.5S9.149,27,15.5,27  C21.852,27,27,21.852,27,15.5z"/>
</svg>
