<?xml version="1.0"?>
<svg xmlns="http://www.w3.org/2000/svg" xmlns:xlink="http://www.w3.org/1999/xlink" version="1.1" id="266247337_Outlined_2__grid" x="0px" y="0px" width="32px" height="32px" viewBox="0 0 32 32" style="enable-background:new 0 0 32 32;" xml:space="preserve">
<path id="266247337_shock_x5F_color_grid" class="stshockcolor" style="fill:#FFD878;" d="M15.5,28.5c-7.168,0-13-5.832-13-13c0-7.168,5.832-13,13-13  c7.168,0,13,5.832,13,13C28.5,22.668,22.668,28.5,15.5,28.5z"/>
<g style="opacity:0.4;">
	<path style="fill:#FFFFFF;" d="M15.5,26C9.71,26,5,21.29,5,15.5C5,9.71,9.71,5,15.5,5C21.29,5,26,9.71,26,15.5   C26,21.29,21.29,26,15.5,26z"/>
</g>
<path style="fill:#4D5152;" d="M15.5,3C22.393,3,28,8.607,28,15.5S22.393,28,15.5,28S3,22.393,3,15.5S8.607,3,15.5,3 M15.5,2  C8.044,2,2,8.044,2,15.5S8.044,29,15.5,29S29,22.956,29,15.5S22.956,2,15.5,2L15.5,2z M18.449,14.412  C19.283,13.935,20,13.18,20,12.189c0-1.592-1-2.614-3-3.005V7h-1v2.047C15.662,9.019,15.309,9,14.927,9  C14.614,9,14.305,9.01,14,9.024V7h-1v2c-1,0-2,0-2,0v13h2v2h1v-2h1h1v2h1v-2.139c2.651-0.366,4-1.557,4-3.924  C21,16.039,19.687,14.945,18.449,14.412z M12,10h3c2.088,0,4,0.379,4,2.163C19,13.411,17.073,14,16.464,14C16.143,14,12,14,12,14V10  z M15,21h-3v-6h4.708C17.334,15,20,15.769,20,17.944C20,20.993,17.146,21,15,21z"/>
</svg>
