<?xml version="1.0"?>
<svg xmlns="http://www.w3.org/2000/svg" xmlns:xlink="http://www.w3.org/1999/xlink" version="1.1" id="266247347_Outlined_2__grid" x="0px" y="0px" width="32px" height="32px" viewBox="0 0 32 32" style="enable-background:new 0 0 32 32;" xml:space="preserve">
<path id="266247347_shock_x5F_color_grid" class="stshockcolor" style="fill:#FFD878;" d="M15.5,28.5c-7.168,0-13-5.832-13-13c0-7.168,5.832-13,13-13  c7.168,0,13,5.832,13,13C28.5,22.668,22.668,28.5,15.5,28.5z"/>
<g style="opacity:0.4;">
	<path style="fill:#FFFFFF;" d="M15.5,26C9.71,26,5,21.29,5,15.5C5,9.71,9.71,5,15.5,5C21.29,5,26,9.71,26,15.5   C26,21.29,21.29,26,15.5,26z"/>
</g>
<path style="fill:#4D5152;" d="M15.5,2C8.044,2,2,8.044,2,15.5S8.044,29,15.5,29S29,22.956,29,15.5S22.956,2,15.5,2z M15.5,28  C8.607,28,3,22.393,3,15.5S8.607,3,15.5,3S28,8.607,28,15.5S22.393,28,15.5,28z M13,7h1v10.5c0,1.557-0.731,4.5-3.5,4.5  c-0.696,0-1.259-0.271-1.629-0.784c-1.198-1.663,0.013-5.448,0.155-5.874l0.949,0.316c-0.474,1.423-0.971,4.032-0.292,4.973  C9.864,20.883,10.124,21,10.5,21c2.461,0,2.5-3.357,2.5-3.501V7z M17.5,16c-1.978,0-2.5-1.635-2.5-2.5L15.004,7l1,0.001L16,13.5  c0.003,0.248,0.089,1.5,1.5,1.5c0.571,0,0.979-0.167,1.247-0.508c0.609-0.779,0.399-2.336,0.268-2.871l0.971-0.242  c0.024,0.097,0.585,2.402-0.449,3.727C19.072,15.699,18.388,16,17.5,16z M21,14h1v4c0.001,0.216-0.024,2.145-1.122,3.247  C20.38,21.747,19.748,22,19,22c-2.364,0-2.996-1.634-3-2.498l0.5-0.002l0.5-0.007C17.004,19.647,17.089,21,19,21  c0.479,0,0.861-0.15,1.169-0.459c0.662-0.664,0.833-1.95,0.831-2.538V14z M16,18v-1h1v1H16z M18,18v-1h1v1H18z"/>
</svg>
