<?xml version="1.0"?>
<svg xmlns="http://www.w3.org/2000/svg" xmlns:xlink="http://www.w3.org/1999/xlink" version="1.1" id="266247341_Outlined_2__grid" x="0px" y="0px" width="32px" height="32px" viewBox="0 0 32 32" style="enable-background:new 0 0 32 32;" xml:space="preserve">
<path id="266247341_shock_x5F_color_grid" class="stshockcolor" style="fill:#AAAAAA;" d="M15.5,28.5c-7.168,0-13-5.832-13-13c0-7.168,5.832-13,13-13  c7.168,0,13,5.832,13,13C28.5,22.668,22.668,28.5,15.5,28.5z"/>
<g style="opacity:0.4;">
	<path style="fill:#FFFFFF;" d="M15.5,26C9.71,26,5,21.29,5,15.5C5,9.71,9.71,5,15.5,5C21.29,5,26,9.71,26,15.5   C26,21.29,21.29,26,15.5,26z"/>
</g>
<path style="fill:#4D5152;" d="M15.5,2C8.044,2,2,8.044,2,15.5S8.044,29,15.5,29S29,22.956,29,15.5S22.956,2,15.5,2z M15.5,28  C8.607,28,3,22.393,3,15.5S8.607,3,15.5,3S28,8.607,28,15.5S22.393,28,15.5,28z M20.002,18.343  c-0.046,1.063-0.544,3.479-4.002,3.642V24h-1v-2.037c-1.494-0.176-2.713-0.98-3.63-2.402l0.84-0.542  C13.07,20.352,14.191,21,15.637,21c2.685,0,3.312-1.469,3.366-2.701c0.061-1.408-0.877-2.164-3.391-2.608  c-1.56-0.271-3.619-0.913-3.619-3.349c0-1.396,0.814-2.99,3.007-3.281V7h1v2.021c2.185,0.11,3.141,1.393,3.385,1.803l-0.859,0.512  C18.393,11.111,17.634,10,15.715,10c-2.526,0-2.722,1.793-2.722,2.342c0,0.974,0.324,1.935,2.792,2.363  C17.104,14.938,20.125,15.484,20.002,18.343z"/>
</svg>
