<?xml version="1.0"?>
<svg xmlns="http://www.w3.org/2000/svg" xmlns:xlink="http://www.w3.org/1999/xlink" version="1.1" id="266247358_Outlined_2__grid" x="0px" y="0px" width="32px" height="32px" viewBox="0 0 32 32" style="enable-background:new 0 0 32 32;" xml:space="preserve">
<path id="266247358_shock_x5F_color_grid" class="stshockcolor" style="fill:#75EA9C;" d="M5,24.5c-0.827,0-1.5-0.673-1.5-1.5V9c0-0.827,0.673-1.5,1.5-1.5h22  c0.827,0,1.5,0.673,1.5,1.5v14c0,0.827-0.673,1.5-1.5,1.5H5z"/>
<rect x="3.5" y="10.5" style="fill:#AAAAAA;" width="25" height="4"/>
<path style="fill:#4D5152;" d="M10,18.5c0-0.276,0.224-0.5,0.5-0.5h11c0.276,0,0.5,0.224,0.5,0.5S21.776,19,21.5,19h-11  C10.224,19,10,18.776,10,18.5z M19.5,20h-7c-0.276,0-0.5,0.224-0.5,0.5s0.224,0.5,0.5,0.5h7c0.276,0,0.5-0.224,0.5-0.5  S19.776,20,19.5,20z M29,9v14c0,1.104-0.896,2-2,2H5c-1.104,0-2-0.896-2-2V9c0-1.104,0.896-2,2-2h22C28.104,7,29,7.896,29,9z M28,15  H4v8c0,0.553,0.448,1,1,1h22c0.553,0,1-0.447,1-1V15z M28,11H4v3h24V11z M28,9c0-0.553-0.447-1-1-1H5C4.448,8,4,8.447,4,9v1h24V9z"/>
</svg>
