<?xml version="1.0"?>
<svg xmlns="http://www.w3.org/2000/svg" xmlns:xlink="http://www.w3.org/1999/xlink" version="1.1" id="266247367_Layer_1_grid" x="0px" y="0px" width="32px" height="32px" viewBox="0 0 32 32" style="enable-background:new 0 0 32 32;" xml:space="preserve">
<path style="fill:#FFD878;" d="M24.822,6.471l-3.736,3.978c-4.95,4.95-3.809,7.566-8.758,12.516l-3.321,3.982  C11.027,28.24,13.423,29,16,29c7.18,0,13-5.82,13-13C29,12.23,27.386,8.846,24.822,6.471z"/>
<path id="266247367_shock_x5F_color_grid" class="stshockcolor" style="fill:#75EA9C;" d="M7.178,25.528l3.736-3.978c4.95-4.95,3.808-7.566,8.758-12.516l3.323-3.98  C20.974,3.76,18.578,3,16,3C8.82,3,3,8.82,3,16C3,19.77,4.614,23.154,7.178,25.528z"/>
<path style="fill:#4D5152;" d="M21.5,16c1.048,0,1.982,0.465,2.621,1.197l0.403-1.008C23.725,15.457,22.669,15,21.5,15  c-1.957,0-3.604,1.256-4.225,3h-1.113l-0.376,1h1.266C17.032,19.166,17,19.329,17,19.5s0.032,0.334,0.052,0.5h-0.89l-0.376,1h1.489  c0.62,1.744,2.268,3,4.225,3c0.927,0,1.785-0.281,2.5-0.76v-1.296C23.364,22.594,22.48,23,21.5,23c-1.394,0-2.587-0.821-3.15-2h4.25  l0.4-1h-4.948C18.026,19.835,18,19.671,18,19.5s0.026-0.335,0.052-0.5H23.4l0.4-1H18.35C18.913,16.821,20.106,16,21.5,16 M16,4  c2.103,0,4.068,0.556,5.786,1.508l-2.821,2.82l0.707,0.707L23,5.707V1h-1v3.484C20.204,3.542,18.168,3,16,3C8.82,3,3,8.821,3,16  c0,3.77,1.614,7.155,4.177,9.53l0.708-0.707C5.502,22.629,4,19.493,4,16C4,9.373,9.372,4,16,4 M10,18h1v-1.049  c2.134-0.237,2.471-1.831,2.501-2.529c0.085-1.964-2.08-2.531-2.798-2.659c-1.342-0.232-1.707-0.959-1.707-1.488  C8.996,9.976,9.119,9,10.493,9c1.044,0,1.519,0.605,1.592,0.727l0.991-0.474C12.919,8.988,12.325,8.187,11,8.033V7h-1v1.047  c-1.462,0.221-2.004,1.303-2.004,2.25c0,1.674,1.473,2.291,2.409,2.453c1.508,0.268,2.133,0.783,2.097,1.628  c-0.033,0.74-0.409,1.621-2.02,1.621c-0.868,0-1.431-0.435-1.947-1.235l-1.03,0.517C8.134,16.27,8.98,16.809,10,16.941V18z   M24.822,6.471l-0.707,0.708C26.498,9.371,28,12.507,28,16c0,6.627-5.373,12-12,12c-2.102,0-4.069-0.556-5.786-1.507l2.821-2.821  l-0.707-0.707L9,26.293V31h1v-3.483C11.796,28.458,13.833,29,16,29c7.18,0,13-5.82,13-13C29,12.229,27.386,8.846,24.822,6.471"/>
</svg>
