<?xml version="1.0"?>
<svg xmlns="http://www.w3.org/2000/svg" xmlns:xlink="http://www.w3.org/1999/xlink" version="1.1" id="266247372_Outlined_2__grid" x="0px" y="0px" width="32px" height="32px" viewBox="0 0 32 32" style="enable-background:new 0 0 32 32;" xml:space="preserve">
<path id="266247372_shock_x5F_color_grid" class="stshockcolor" style="fill:#BFBFBF;" d="M19.854,29L6.413,14.999h7.103c4.55,0,5.926-1.34,6.334-2.999H6.719l0.75-3  h12.38c-0.406-1.653-1.774-2.991-6.29-3h-6.84l0.75-3h19.062l-0.75,3h-4.037c0.632,0.833,1.042,1.834,1.228,3h3.56l-0.75,3h-2.807  c-0.478,2.927-2.611,5.999-9.459,5.999h-0.064L24.014,29H19.854z"/>
<path style="fill:#4D5152;" d="M22.072,10h3.178L25,11h-2.923c-0.217,4.031-3.067,5.999-8.562,5.999h-2.41L21.667,28H20.28  L8.759,15.999h4.756c4.951,0,7.278-1.55,7.48-4.999H8l0.25-1h12.746c-0.201-3.439-2.516-4.99-7.435-5H8l0.25-1h5.266V3.999L13.556,4  H25.25L25,5h-6.065C20.901,5.959,21.943,7.622,22.072,10z"/>
</svg>
