<?xml version="1.0"?>
<svg xmlns="http://www.w3.org/2000/svg" xmlns:xlink="http://www.w3.org/1999/xlink" version="1.1" id="266247376_Outlined_2__grid" x="0px" y="0px" width="32px" height="32px" viewBox="0 0 32 32" style="enable-background:new 0 0 32 32;" xml:space="preserve">
<path id="266247376_shock_x5F_color_grid" class="stshockcolor" style="fill:#C9A287;" d="M16.995,29V14h-2v8.5c0,4.769-3.588,6.5-6,6.5h-1v-3h1c0.123,0,3-0.04,3-3.5V14  h-4v-3h16v3h-4v11.995c2.211-0.016,2.274-0.112,2.752-0.827l0.555-0.832L25.798,26l-0.555,0.832C23.798,29,22.568,29,18.495,29  H16.995z M9.995,7V4h12v3H9.995z"/>
<path style="fill:#4D5152;" d="M20.995,6h-10V5h10V6z M23.579,25.723c-0.785,1.177-0.992,1.271-4.584,1.276V13h4v-1h-14v1h4v9.5  c0,3.56-2.616,4.5-4,4.5v1c1.729,0,5-1.149,5-5.5V13h4v15h0.5c4.04,0,4.768,0,5.916-1.723L23.579,25.723z"/>
</svg>
