<?xml version="1.0"?>
<svg xmlns="http://www.w3.org/2000/svg" xmlns:xlink="http://www.w3.org/1999/xlink" version="1.1" id="266148710_Outlined_2__grid" x="0px" y="0px" width="32px" height="32px" viewBox="0 0 32 32" style="enable-background:new 0 0 32 32;" xml:space="preserve">
<path id="266148710_shock_x5F_color_grid" class="stshockcolor" style="fill:#E57C5C;" d="M24.5,7.5v22H8c-1.38,0-2.5-1.12-2.5-2.5V6.09l0.84,0.76  C6.8,7.27,7.39,7.5,8,7.5H24.5z"/>
<path style="opacity:0.2;fill:#FFFFFF;" d="M5.5,6v20.91c0,1.38,1.12,2.5,2.5,2.5v-22c-0.61,0-1.2-0.23-1.66-0.65L5.5,6z"/>
<path style="fill:#FFD878;" d="M25,10.44h-0.5v3.06h-5.723l-4.446,4.937l4.442,5.063H24c1.978,0,2.5-1.674,2.5-2.56v-9  C26.5,10.839,25.603,10.44,25,10.44z"/>
<path style="fill:#BFBFBF;" d="M23.5,7.5v-5H8C6.622,2.5,5.5,3.622,5.5,5S6.622,7.5,8,7.5H23.5z"/>
<path style="fill:#4D5152;" d="M21.5,15.94c-0.83,0-1.5,0.67-1.5,1.5c0,0.65,0.42,1.21,1,1.41v2.09h1v-2.09c0.58-0.2,1-0.76,1-1.41  C23,16.61,22.33,15.94,21.5,15.94z M21.5,17.94c-0.28,0-0.5-0.22-0.5-0.5s0.22-0.5,0.5-0.5s0.5,0.22,0.5,0.5S21.78,17.94,21.5,17.94  z M25,9.94V7h-1V3h1V2C25,2,8.84,2,8,2C6.34,2,5,3.34,5,5c0,0,0,19.66,0,22c0,1.66,1.34,3,3,3c2.39,0,17,0,17,0v-6.21  c1.45-0.439,2-1.84,2-2.85v-9C27,10.64,25.97,9.94,25,9.94z M8,3c1.44,0,15,0,15,0v4C23,7,9.1,7,8,7S6,6.1,6,5C6,3.89,6.9,3,8,3z   M24,29.001c0,0-14.9,0-16,0S6,28.101,6,27V7.22C6.53,7.7,7.23,8,8,8h16v5h-5.45l-0.3,0.28l-4,4.5l-0.59,0.66l0.59,0.66l4,4.5  l0.3,0.34H24V29.001z M26,20.94c0,0,0,2.06-2,2.06h-5l-4-4.56L19,14h6v-3.06c0,0,1,0,1,1V20.94z"/>
</svg>
