<?xml version="1.0"?>
<svg xmlns="http://www.w3.org/2000/svg" id="266197736_Layer_1_grid" data-name="Layer 1" viewBox="0 0 32 32"><title>dish_color_line</title><path id="266197736_shock_color_grid" class="stshockcolor" d="M31.48,6.08v8.71A1.21,1.21,0,0,1,30.27,16h.21v9.18a.86.86,0,0,1-.86.86h-.24a.86.86,0,0,1-.86-.86V4.88h1.75A1.21,1.21,0,0,1,31.48,6.08ZM6.56,4.87H.65v6.21a1.21,1.21,0,0,0,1.2,1.21h.77V25.18a.86.86,0,0,0,.87.86h.23a.85.85,0,0,0,.86-.86V12.29h.77a1.21,1.21,0,0,0,1.21-1.21ZM17,5.5A10.5,10.5,0,1,0,27.5,16,10.5,10.5,0,0,0,17,5.5Z" fill="#67dde0"/><path d="M31.48,6.08v8.71A1.21,1.21,0,0,1,30.27,16h.21v9.18a.86.86,0,0,1-.86.86h-.24a.86.86,0,0,1-.86-.86V4.88h1.75A1.21,1.21,0,0,1,31.48,6.08Zm-30.83,5a1.21,1.21,0,0,0,1.2,1.21h.77V25.18a.86.86,0,0,0,.87.86h.23a.85.85,0,0,0,.86-.86V12.29h.77a1.21,1.21,0,0,0,1.21-1.21V4.87H.65Z" fill="#fff" opacity="0.5"/><path d="M17,5A11,11,0,0,0,7,11.38a1.53,1.53,0,0,0,0-.3V4.88h-1v6.2a.71.71,0,0,1-.71.71H1.85a.7.7,0,0,1-.7-.71V4.88h-1v6.2a1.7,1.7,0,0,0,1.7,1.71h.27V25.18a1.36,1.36,0,0,0,1.37,1.36h.23a1.36,1.36,0,0,0,1.36-1.36V12.79h.27a1.7,1.7,0,0,0,1.38-.71A11,11,0,1,0,17,5ZM4.08,25.18a.36.36,0,0,1-.36.36H3.49a.37.37,0,0,1-.37-.36V12.79h1ZM17,26A10,10,0,1,1,27,16,10,10,0,0,1,17,26ZM17,8.46A7.54,7.54,0,1,0,24.54,16,7.55,7.55,0,0,0,17,8.46Zm0,14.08A6.54,6.54,0,1,1,23.54,16,6.54,6.54,0,0,1,17,22.54ZM30.27,4.38H28v20.8a1.36,1.36,0,0,0,1.36,1.36h.24A1.36,1.36,0,0,0,31,25.18V16.34a1.7,1.7,0,0,0,1-1.55V6.08A1.71,1.71,0,0,0,30.27,4.38ZM30,25.18a.36.36,0,0,1-.36.36h-.24a.36.36,0,0,1-.36-.36V16.5h1Zm1-10.39a.71.71,0,0,1-.71.71H29V5.38h1.25a.7.7,0,0,1,.71.7ZM3.12,10.4h-1V4.88h1Zm2,0h-1V4.88h1Z" fill="#4d5152"/></svg>
