<?xml version="1.0"?>
<svg xmlns="http://www.w3.org/2000/svg" xmlns:xlink="http://www.w3.org/1999/xlink" version="1.1" id="266148715_Layer_1_grid" x="0px" y="0px" width="32px" height="32px" viewBox="0 0 32 32" style="enable-background:new 0 0 32 32;" xml:space="preserve">
<path style="fill:#AAAAAA;" d="M6,26.5c-1.378,0-2.5-1.121-2.5-2.5v-4c0-1.379,1.122-2.5,2.5-2.5h19c1.379,0,2.5,1.121,2.5,2.5v4  c0,1.379-1.121,2.5-2.5,2.5H6z"/>
<path style="opacity:0.4;fill:#FFFFFF;" d="M3.5,22v-2c0-1.379,1.122-2.5,2.5-2.5h19c1.379,0,2.5,1.121,2.5,2.5v2H3.5z"/>
<circle style="fill:#75EA9C;" cx="23" cy="22" r="1.5"/>
<path style="fill:#4D5152;" d="M6,17c-1.657,0-3,1.343-3,3v4c0,1.657,1.343,3,3,3h19c1.657,0,3-1.343,3-3v-4c0-1.657-1.343-3-3-3H6z   M25,18c1.104,0,2,0.896,2,2v4c0,1.104-0.896,2-2,2H6c-1.104,0-2-0.896-2-2v-4c0-1.104,0.896-2,2-2H25z M25,22c0-1.104-0.896-2-2-2  s-2,0.896-2,2s0.896,2,2,2S25,23.104,25,22 M22,22c0-0.553,0.447-1,1-1s1,0.447,1,1s-0.447,1-1,1S22,22.553,22,22"/>
<polygon id="266148715_shock_x5F_color_grid" class="stshockcolor" style="fill:#75EA9C;" points="21.157,12.562 20.45,11.855 16,16.305 16,2 15,2 15,16.305   10.55,11.855 9.843,12.562 15.5,18.22 "/>
</svg>
