<?xml version="1.0"?>
<svg xmlns="http://www.w3.org/2000/svg" xmlns:xlink="http://www.w3.org/1999/xlink" version="1.1" id="266148719_Outlined_2__grid" x="0px" y="0px" width="32px" height="32px" viewBox="0 0 32 32" style="enable-background:new 0 0 32 32;" xml:space="preserve">
<path id="266148719_shock_x5F_color_grid" class="stshockcolor" style="fill:#FF61E1;" d="M2.5,26.5v-18c0-0.551,0.449-1,1-1h21c0.561,0,1,0.439,1,1v3h4.06  c0.281,0,0.54,0.12,0.71,0.33c0.169,0.209,0.231,0.491,0.17,0.772L27.45,25.61c-0.129,0.504-0.615,0.89-1.11,0.89H2.5z"/>
<path style="opacity:0.2;fill:#FFFFFF;" d="M5.34,26.5c-0.285,0-0.544-0.123-0.711-0.336c-0.168-0.216-0.225-0.502-0.154-0.785  l2.988-12.991C7.568,11.894,8.051,11.5,8.56,11.5h21c0.282,0,0.54,0.119,0.707,0.325c0.17,0.21,0.233,0.494,0.173,0.779  l-2.992,13.008c-0.128,0.51-0.604,0.888-1.107,0.888H5.34z"/>
<path style="fill:#ACF0F2;" d="M6.5,12.5v-8h17v7H8.61c-0.539,0-1,0.527-1.11,1H6.5z"/>
<path style="fill:#4D5152;" d="M30.71,11.39c-0.27-0.33-0.67-0.39-1.1-0.39H26V8.5C26,7.67,25.33,7,24.5,7H24V4H6v3H3.5  C2.67,7,2,7.67,2,8.5v17C2,26.33,2.67,27,3.5,27h22.89c0.74,0,1.431-0.64,1.591-1.38l2.989-13.09  C31.07,12.1,30.97,11.72,30.71,11.39z M24,8h0.5C24.78,8,25,8.22,25,8.5V11h-1V8z M7,5h16v6H8.61c-0.74,0-1.42,0.46-1.59,1.19  L7,12.28V5z M3.5,26C3.22,26,3,25.78,3,25.5v-17C3,8.22,3.22,8,3.5,8H6v8.59l-1.97,8.5C3.96,25.39,3.99,25.72,4.1,26H3.5z   M29.95,12.5l-2.99,13c-0.07,0.28-0.34,0.5-0.62,0.5h-21c-0.27,0-0.45-0.22-0.38-0.5l2.99-13C8.01,12.22,8.29,12,8.56,12h21  C29.84,12,30.01,12.22,29.95,12.5z"/>
</svg>
