<?xml version="1.0"?>
<svg xmlns="http://www.w3.org/2000/svg" xmlns:xlink="http://www.w3.org/1999/xlink" version="1.1" id="266247385_icon_grid" x="0px" y="0px" width="32px" height="32px" viewBox="0 0 32 32" style="enable-background:new 0 0 32 32;" xml:space="preserve">
<path id="266247385_shock_x5F_color_grid" class="stshockcolor" style="fill:#4D5152;" d="M26,11.44c-0.015-0.66-0.164-2.389-1.215-4.198  c-0.731-1.255-1.74-2.257-2.997-2.974C20.318,3.426,18.54,3,16.497,3c-2.038,0-3.815,0.426-5.284,1.267  C9.012,5.523,7.984,7.414,7.509,8.777C7.067,10.043,7.006,11.078,7,11.5V28h8.494H15.5h9H26V11.44z"/>
<path style="opacity:0.3;fill:#FFFFFF;" d="M23,11.5V13h-3v-1h2v-0.5C21.999,11.318,21.909,7,16.5,7c-4.373,0-5.27,2.822-5.453,4H13  v1h-3v-0.5c0-0.055,0.074-5.5,6.5-5.5S23,11.445,23,11.5z M20,22h1.953c-0.184,1.179-1.08,4-5.453,4c-5.41,0-5.499-4.317-5.5-4.5V21  h2v-1h-3v1.5c0,0.055,0.074,5.5,6.5,5.5s6.5-5.445,6.5-5.5V21h-3V22z M23,17.5V19h-1v-1.5c0-0.25-0.09-1.5-1.5-1.5H19v3.5  c0,0.86-0.52,2.5-2.5,2.5c-1.98,0-2.5-1.64-2.5-2.5V18h-1.5c-1.98,0-2.5-1.64-2.5-2.5V14h1v1.5c0,0.25,0.09,1.5,1.5,1.5H14v-3.5  c0-0.86,0.52-2.5,2.5-2.5c1.98,0,2.5,1.64,2.5,2.5V15h1.5C22.48,15,23,16.64,23,17.5z M18,13.5c0-0.25-0.09-1.5-1.5-1.5  S15,13.25,15,13.5v6c0,0.25,0.09,1.5,1.5,1.5s1.5-1.25,1.5-1.5V13.5z"/>
</svg>
