<?xml version="1.0"?>
<svg xmlns="http://www.w3.org/2000/svg" xmlns:xlink="http://www.w3.org/1999/xlink" version="1.1" id="266148720_Outlined_2__grid" x="0px" y="0px" width="32px" height="32px" viewBox="0 0 32 32" style="enable-background:new 0 0 32 32;" xml:space="preserve">
<path id="266148720_shock_x5F_color_grid" class="stshockcolor" style="fill:#BF9171;" d="M30.44,12.6l-2.99,13.01c-0.13,0.51-0.61,0.89-1.11,0.89H3.5  c-0.56,0-1-0.44-1-1v-20c0-0.55,0.45-1,1-1h5.81l0.44,0.23l1.62,2.43c0.14,0.21,0.37,0.34,0.62,0.34H24.5c0.56,0,1,0.44,1,1v3h4.06  c0.28,0,0.54,0.12,0.71,0.33C30.44,12.04,30.5,12.32,30.44,12.6z"/>
<path style="opacity:0.2;fill:#FFFFFF;" d="M5.34,26.5c-0.285,0-0.544-0.123-0.711-0.336c-0.168-0.216-0.225-0.502-0.154-0.785  l2.988-12.991C7.568,11.894,8.051,11.5,8.56,11.5h21c0.282,0,0.54,0.119,0.707,0.325c0.17,0.21,0.233,0.494,0.173,0.779  l-2.992,13.008c-0.128,0.51-0.604,0.888-1.107,0.888H5.34z"/>
<path style="fill:#4D5152;" d="M30.707,11.392C30.443,11.063,30.044,11,29.609,11H26V8.5C26,7.672,25.328,7,24.5,7H11.994  l-0.208-0.112l-1.552-2.329C10.002,4.21,9.613,4,9.194,4H3.5C2.671,4,2,4.672,2,5.5v20C2,26.328,2.671,27,3.5,27h22.891  c0.743,0,1.426-0.645,1.587-1.375l2.996-13.095C31.069,12.099,30.973,11.723,30.707,11.392z M3.5,26C3.224,26,3,25.776,3,25.5v-20  C3,5.224,3.224,5,3.5,5h5.694l0.208,0.113l1.552,2.329C11.186,7.792,11.575,8,11.994,8H24.5C24.776,8,25,8.224,25,8.5V11H8.609  c-0.742,0-1.424,0.457-1.588,1.188L4.027,25.095C3.96,25.391,3.992,25.716,4.1,26H3.5z M29.95,12.5l-2.994,13  c-0.063,0.276-0.336,0.5-0.612,0.5h-21c-0.276,0-0.45-0.224-0.388-0.5l2.994-13C8.012,12.224,8.286,12,8.563,12h21  C29.839,12,30.013,12.224,29.95,12.5z"/>
</svg>
