<?xml version="1.0"?>
<svg xmlns="http://www.w3.org/2000/svg" xmlns:xlink="http://www.w3.org/1999/xlink" version="1.1" id="266148724_Outlined_2__grid" x="0px" y="0px" width="32px" height="32px" viewBox="0 0 32 32" style="enable-background:new 0 0 32 32;" xml:space="preserve">
<path id="266148724_shock_x5F_color_grid" class="stshockcolor" style="fill:#EF6565;" d="M23.305,22.068c-0.868,0.991-1.88,1.433-3.282,1.433  c-2.287,0-3.821-1.563-4.522-2.478c-0.702,0.912-2.236,2.471-4.53,2.471c-0.004,0-0.008,0-0.012,0  c-1.401-0.003-2.41-0.442-3.269-1.425c-0.975-1.113-1.361-2.774-1.087-4.676c0.286-1.982,1.751-3.653,3.449-5.586  c0.556-0.633,1.14-1.299,1.72-2.018c1.183-1.467,3.335-4.22,3.335-4.22L15.5,5.065l0.394,0.504c0,0.001,2.151,2.753,3.336,4.221  c0.579,0.719,1.164,1.386,1.721,2.019c1.696,1.933,3.161,3.603,3.447,5.585C24.668,19.264,24.27,20.968,23.305,22.068z   M15.978,24.805l-0.443-1.429l-0.505,1.408c-0.246,0.685-0.779,1.431-1.298,1.813L12.507,27.5h6.005l-1.259-0.906  C16.807,26.272,16.217,25.575,15.978,24.805z"/>
<path style="opacity:0.2;fill:#4D5152;" d="M23.305,22.068c-0.868,0.991-1.88,1.433-3.282,1.433c-2.287,0-3.821-1.563-4.522-2.478  V5.065l0,0l0.394,0.504c0,0.001,2.151,2.753,3.336,4.221c0.579,0.719,1.164,1.386,1.721,2.019c1.696,1.933,3.161,3.603,3.447,5.585  C24.668,19.264,24.27,20.968,23.305,22.068z"/>
<path style="fill:#4D5152;" d="M23.706,22.385c1.07-1.237,1.499-3.056,1.205-5.119c-0.394-2.761-2.889-4.939-5.302-7.969  C18.254,7.596,15.5,4,15.5,4s-2.753,3.596-4.109,5.297c-2.413,3.029-4.909,5.208-5.302,7.969c-0.294,2.068,0.132,3.887,1.199,5.121  c0.91,1.051,2.033,1.606,3.635,1.606c1.88,0,3.246-0.854,4.051-1.578C14.841,25.177,13.419,27,11,27c-0.276,0-0.5,0.224-0.5,0.5  S10.724,28,11,28h9c0.276,0,0.5-0.224,0.5-0.5S20.276,27,20,27c-2.669,0-3.868-1.824-3.979-4.587C16.824,23.14,18.188,24,20.059,24  C21.663,24,22.791,23.441,23.706,22.385z M16.962,27h-2.934c0.579-0.427,1.181-1.233,1.472-2.047  C15.757,25.782,16.38,26.581,16.962,27z M15.5,20.138c0,0-1.616,2.863-4.541,2.856c-1.326-0.003-2.166-0.422-2.894-1.254  c-0.877-1.002-1.222-2.521-0.969-4.275c0.354-2.455,2.748-4.49,5.063-7.361c1.185-1.47,3.341-4.227,3.341-4.227  s2.155,2.757,3.34,4.227c2.314,2.871,4.709,4.906,5.063,7.361c0.249,1.726-0.106,3.283-0.975,4.274  c-0.733,0.837-1.577,1.262-2.906,1.262C17.115,23.001,15.5,20.138,15.5,20.138z"/>
</svg>
