<?xml version="1.0"?>
<svg xmlns="http://www.w3.org/2000/svg" xmlns:xlink="http://www.w3.org/1999/xlink" version="1.1" id="266148723_Outlined_2__grid" x="0px" y="0px" width="32px" height="32px" viewBox="0 0 32 32" style="enable-background:new 0 0 32 32;" xml:space="preserve">
<path id="266148723_shock_x5F_color_grid" class="stshockcolor" style="fill:#EF6565;" d="M24.179,8.012c-0.908-0.995-2.196-1.501-3.828-1.505c-0.005,0-0.009,0-0.014,0  c-2.54,0-4.128,1.484-4.837,2.348C14.791,7.989,13.204,6.5,10.671,6.5c-1.632,0-2.925,0.509-3.843,1.514  c-1.073,1.174-1.516,2.993-1.215,4.99c0.417,2.768,3.138,6.002,5.771,9.132c1.324,1.572,3.729,4.521,3.729,4.521l0.387,0.475  l0.387-0.475c0-0.001,2.407-2.949,3.729-4.521c2.632-3.129,5.354-6.363,5.771-9.132C25.692,10.972,25.263,9.199,24.179,8.012z"/>
<path style="opacity:0.2;fill:#4D5152;" d="M24.179,8.012c-0.908-0.995-2.196-1.501-3.828-1.505c-0.005,0-0.009,0-0.014,0  c-2.54,0-4.128,1.484-4.837,2.348v18.276l0.387-0.474c0-0.001,2.407-2.949,3.729-4.521c2.632-3.129,5.354-6.363,5.771-9.132  C25.692,10.972,25.263,9.199,24.179,8.012z"/>
<path style="fill:#4D5152;" d="M24.576,7.694c-1.006-1.104-2.473-1.688-4.243-1.688c-2.626,0-4.136,1.212-4.833,1.988  C14.803,7.217,13.296,6,10.687,6C8.913,6,7.441,6.587,6.431,7.695c-1.184,1.3-1.657,3.209-1.332,5.375  c0.434,2.899,3.192,6.188,5.859,9.368C12.456,24.225,15.5,28,15.5,28s3.043-3.775,4.541-5.562c2.668-3.181,5.426-6.469,5.86-9.368  C26.227,10.899,25.756,8.99,24.576,7.694z M24.893,12.93c-0.396,2.629-3.071,5.809-5.659,8.884  c-1.324,1.575-3.734,4.527-3.734,4.527s-2.409-2.952-3.734-4.527c-2.587-3.075-5.263-6.255-5.659-8.884  c-0.278-1.848,0.12-3.517,1.09-4.579C8.016,7.455,9.185,7,10.671,7C13.92,7,15.5,9.709,15.5,9.709S17.08,7,20.35,7.007  c1.482,0.004,2.646,0.452,3.46,1.343C24.79,9.423,25.175,11.049,24.893,12.93z"/>
</svg>
