<?xml version="1.0"?>
<svg xmlns="http://www.w3.org/2000/svg" xmlns:xlink="http://www.w3.org/1999/xlink" version="1.1" id="266148735_Outlined_2__grid" x="0px" y="0px" width="32px" height="32px" viewBox="0 0 32 32" style="enable-background:new 0 0 32 32;" xml:space="preserve">
<path id="266148735_shock_x5F_color_grid" class="stshockcolor" style="fill:#75EA9C;" d="M25.5,19c0,0.83-0.67,1.51-1.5,1.51h-1c0.83,0,1.5,0.67,1.5,1.5  s-0.67,1.5-1.5,1.5h-0.62c0.39,0,1.12,0.311,1.12,1.5c0,0.91-1.27,1.37-2.02,1.49c-0.761,0.13-1.41,0.26-2.021,0.37  c-1.85,0.36-3.3,0.64-5.96,0.64c-3.67,0-5.77-2.06-5.85-2.149C7.55,25.27,7.5,25.14,7.5,25.01C7.49,25.29,7.28,25.5,7,25.5H4  c-0.28,0-0.5-0.22-0.5-0.5v-8c0-0.28,0.22-0.5,0.5-0.5h3c0.28,0,0.5,0.22,0.5,0.5c0-0.08,0.02-0.16,0.06-0.23  c0.02-0.039,0.54-1.04,2.52-4.04c0.97-1.46,1.6-1.98,2.11-2.4c0.74-0.6,1.27-1.04,2.65-4.82c0.33-0.91,0.94-1.04,1.28-1.04  C16.95,4.52,17.52,5.1,17.5,5.8c-0.05,1.91-0.62,3.5-1.17,5.03c-0.28,0.77-0.54,1.5-0.73,2.24c-0.08,0.33-0.13,0.78,0.09,1.05  c0.25,0.32,0.82,0.39,1.25,0.39H24c0.83,0,1.5,0.67,1.5,1.5c0,0.83-0.67,1.5-1.5,1.5C24.83,17.51,25.5,18.18,25.5,19z"/>
<path style="opacity:0.4;fill:#FFFFFF;" d="M25.5,19c0,0.83-0.67,1.51-1.5,1.51h-1c0.83,0,1.5,0.67,1.5,1.5s-0.67,1.5-1.5,1.5h-0.62  c0.39,0,1.12,0.311,1.12,1.5c0,0.91-1.27,1.37-2.02,1.49c-0.761,0.13-1.41,0.26-2.021,0.37c-1.85,0.36-3.3,0.64-5.96,0.64  c-3.67,0-5.77-2.06-5.85-2.149C7.55,25.27,7.5,25.14,7.5,25.01V17c0-0.08,0.02-0.16,0.06-0.23c0.02-0.039,0.54-1.04,2.52-4.04  c0.97-1.46,1.6-1.98,2.11-2.4c0.74-0.6,1.27-1.04,2.65-4.82c0.33-0.91,0.94-1.04,1.28-1.04C16.95,4.52,17.52,5.1,17.5,5.8  c-0.05,1.91-0.62,3.5-1.17,5.03c-0.28,0.77-0.54,1.5-0.73,2.24c-0.08,0.33-0.13,0.78,0.09,1.05c0.25,0.32,0.82,0.39,1.25,0.39H24  c0.83,0,1.5,0.67,1.5,1.5c0,0.83-0.67,1.5-1.5,1.5C24.83,17.51,25.5,18.18,25.5,19z"/>
<path style="fill:#4D5152;" d="M26,16.01c0-1.1-0.9-2-2-2h-7.06c-0.551,0-0.79-0.12-0.851-0.19c-0.06-0.07-0.08-0.29,0-0.63  c0.19-0.75,0.53-1.48,0.851-2.24c0.619-1.5,1.01-3.07,1.06-5.13c0.03-0.97-0.75-1.78-1.76-1.85h-0.12c-0.84,0-1.46,0.57-1.78,1.44  c-2.31,6.12-2,2.87-4.67,7.05C8.2,14.75,7.56,15.65,7.28,16H3v10h4.61c0.76,0.62,2.81,2.01,5.89,2.01c2.71,0,4.75-0.3,6.55-0.64  c0.61-0.12,0.76-0.17,1.51-0.37c0.99-0.27,2.33-0.88,2.49-1.82C24.13,24.71,24,24,23.62,24c0.91-0.19,1.38-1.02,1.38-1.99  c0-0.41-0.12-0.79-0.34-1.109C25.44,20.63,26,19.86,26,19c0-0.59-0.26-1.12-0.68-1.49C25.74,17.15,26,16.61,26,16.01z M7,25H4v-8h3  V25z M21.38,18H24c0.55,0,1,0.45,1,1s-0.45,1-1,1h-2.62c-0.5,0-0.5,1,0,1H23c0.55,0,1,0.46,1,1.01C24,22.57,23.55,23,23,23h-2.62  c-0.5,0-0.5,1.01,0,1.01h2c0.021,0,0.62,0.01,0.62,1c0,0.561-1.06,0.91-1.6,1c-3,0.5-4.4,1-7.9,1s-5.5-2-5.5-2V17  c0,0,0.51-0.98,2.5-3.99C12.94,9.33,13,12,15.31,5.68c0.14-0.39,0.4-0.74,0.87-0.71C16.65,5,17.01,5.37,17,5.79  c-0.07,2.75-1.3,4.88-1.88,7.16C14.84,14.08,15.21,15,16.94,15H24c0.55,0,1,0.46,1,1.01c0,0.561-0.45,1-1,1h-2.62  C20.88,17.01,20.88,18,21.38,18z"/>
</svg>
