<?xml version="1.0"?>
<svg xmlns="http://www.w3.org/2000/svg" xmlns:xlink="http://www.w3.org/1999/xlink" version="1.1" id="266148736_Outlined_2__grid" x="0px" y="0px" width="32px" height="32px" viewBox="0 0 32 32" style="enable-background:new 0 0 32 32;" xml:space="preserve">
<path id="266148736_shock_x5F_color_grid" class="stshockcolor" style="fill:#75EA9C;" d="M27.5,15.5c0,6.62-5.38,12-12,12s-12-5.38-12-12s5.38-12,12-12  S27.5,8.88,27.5,15.5z"/>
<path style="opacity:0.3;fill:#FFFFFF;" d="M15.5,3.5c-6.62,0-12,5.38-12,12s5.38,12,12,12s12-5.38,12-12S22.12,3.5,15.5,3.5z   M15.5,26C9.71,26,5,21.29,5,15.5S9.71,5,15.5,5S26,9.71,26,15.5S21.29,26,15.5,26z"/>
<path style="fill:#4D5152;" d="M15.5,3C8.6,3,3,8.6,3,15.5C3,22.4,8.6,28,15.5,28C22.4,28,28,22.4,28,15.5C28,8.6,22.4,3,15.5,3z   M15.5,27C9.15,27,4,21.85,4,15.5C4,9.15,9.15,4,15.5,4C21.85,4,27,9.15,27,15.5C27,21.85,21.85,27,15.5,27z M21,12  c0,2.05-1.23,3.81-3,4.58c-1.23,0.54-2,0.92-2,1.92c0,0.5,0,2.5,0,2.5h-1v-2.5c0-1.78,1.81-2.49,2.6-2.83  C19.06,15.03,20,13.59,20,12c0-2.21-1.79-4-4-4s-4,1.79-4,4h-1c0-2.76,2.24-5,5-5S21,9.24,21,12z M16,23v1h-1v-1H16z"/>
</svg>
