<?xml version="1.0"?>
<svg xmlns="http://www.w3.org/2000/svg" xmlns:xlink="http://www.w3.org/1999/xlink" version="1.1" id="266247406_icon_grid" x="0px" y="0px" width="32px" height="32px" viewBox="0 0 32 32" style="enable-background:new 0 0 32 32;" xml:space="preserve">
<path id="266247406_shock_x5F_color_grid" class="stshockcolor" style="fill:#ACF0F2;" d="M23.619,7.5H8.398L16,3.124L23.619,7.5z M20.515,18.518L20.497,18.5h-8.955  l-0.017,0.018L3.5,10.504v16.042L28.493,26.5l0.007,0.007V10.544L20.515,18.518z"/>
<polygon style="fill:#75EA9C;" points="24.52,7.5 7.52,7.5 4.52,7.5 4.52,10.5 4.52,11.517 11.503,18.5 20.537,18.5 27.52,11.518   27.52,10.5 27.52,7.5 "/>
<path style="opacity:0.2;fill:#4D5152;" d="M28.5,10.544v15.962l-7.987-7.987L28.5,10.544z M16,3.124L8.398,7.5h15.221L16,3.124z"/>
<g style="opacity:0.3;">
	<path style="fill:#FFFFFF;" d="M27.02,10.5h0.5v-3h-3V8C24.52,9.378,25.641,10.5,27.02,10.5z"/>
	<path style="fill:#FFFFFF;" d="M20.497,18.5H18.21l0.149-0.174C19.084,17.485,19.5,16.273,19.5,15c0-2.481-1.57-4.5-3.5-4.5   s-3.5,2.019-3.5,4.5c0,1.272,0.416,2.485,1.142,3.326l0.149,0.174h-2.249l-7.989,8h24.943L20.497,18.5z"/>
	<path style="fill:#FFFFFF;" d="M7.52,8V7.5h-3v3h0.5C6.398,10.5,7.52,9.378,7.52,8z"/>
</g>
<path style="fill:#4D5152;" d="M28.02,9.431V8c0-0.55-0.449-1-1-1H23.8L16,2.5L8.2,7H5.02c-0.55,0-1,0.45-1,1L4,9.42L3,10v17h26V10  L28.02,9.431z M27.02,8v2c-1.1,0-2-0.9-2-2H27.02z M16,3.7L21.745,7H10.269L16,3.7z M5.02,8h2c0,1.1-0.899,2-2,2V8z M5.02,11  c1.66,0,3-1.34,3-3h16c0,1.66,1.341,3,3,3v0.311L20.33,18H19.2c0.5-0.83,0.8-1.87,0.8-3c0-2.76-1.79-5-4-5s-4,2.24-4,5  c0,1.13,0.3,2.17,0.8,3h-1.09l-6.69-6.69V11z M19,15c0,1.2-0.39,2.27-1.02,3h-3.96C13.39,17.27,13,16.2,13,15c0-2.21,1.34-4,3-4  S19,12.79,19,15z M4,11.71l6.82,6.81L4,25.34V11.71z M4.76,26l6.99-7h8.54l7,7H4.76z M28,25.3l-6.78-6.78L28,11.75V25.3z"/>
</svg>
