<?xml version="1.0" encoding="utf-8"?>
<!-- Generator: Adobe Illustrator 16.0.0, SVG Export Plug-In . SVG Version: 6.00 Build 0)  -->
<svg xmlns="http://www.w3.org/2000/svg" xmlns:xlink="http://www.w3.org/1999/xlink" version="1.1" id="266789705_Outlined_2__grid" x="0px" y="0px" width="32px" height="32px" viewBox="0 0 32 32" style="enable-background:new 0 0 32 32;" xml:space="preserve">

<path id="266789705_shock_x5F_color_grid" class="stshockcolor" d="M27.5,7v18c0,1.38-1.12,2.5-2.5,2.5H7c-1.38,0-2.5-1.12-2.5-2.5V7  c0-1.38,1.12-2.5,2.5-2.5h18C26.38,4.5,27.5,5.62,27.5,7z" style="fill:#67DDE0;;"/>
<polygon class="st1" points="8.5,10.937 16.103,16 8.5,21.063 " style="fill:#FFFFFF;;"/>
<path class="st0" d="M8,10v12l9-6L8,10z M9,11.87L15.2,16L9,20.13V11.87z M19,10v12h1V10H19z M23,10v12h1V10H23z M23,10v12h1V10H23z   M19,22h1V10h-1V22z M8,22l9-6l-9-6V22z M9,11.87L15.2,16L9,20.13V11.87z M25,4H7C5.34,4,4,5.34,4,7v18c0,1.66,1.34,3,3,3h18  c1.66,0,3-1.34,3-3V7C28,5.34,26.66,4,25,4z M27,25c0,1.1-0.9,2-2,2H7c-1.1,0-2-0.9-2-2V7c0-1.1,0.9-2,2-2h18c1.1,0,2,0.9,2,2V25z   M23,22h1V10h-1V22z M19,22h1V10h-1V22z M8,22l9-6l-9-6V22z M9,11.87L15.2,16L9,20.13V11.87z M8,10v12l9-6L8,10z M9,11.87L15.2,16  L9,20.13V11.87z M19,10v12h1V10H19z M23,10v12h1V10H23z M23,10v12h1V10H23z M19,10v12h1V10H19z M8,10v12l9-6L8,10z M9,11.87L15.2,16  L9,20.13V11.87z" style="fill:#4D5152;;"/>
</svg>
