<?xml version="1.0"?>
<svg xmlns="http://www.w3.org/2000/svg" xmlns:xlink="http://www.w3.org/1999/xlink" version="1.1" id="266247410_icon_grid" x="0px" y="0px" width="32px" height="32px" viewBox="0 0 32 32" style="enable-background:new 0 0 32 32;" xml:space="preserve">
<rect id="266247410_shock_x5F_color_grid" class="stshockcolor" x="6.5" y="7.5" style="fill:#67DDE0;" width="19" height="17"/>
<path style="fill:#BFBFBF;" d="M6.5,24.5h19V25c0,0.864-0.522,2.5-2.5,2.5H9c-0.865,0-2.5-0.522-2.5-2.5V24.5z M23,4.5H9  C7.022,4.5,6.5,6.135,6.5,7v0.5h19V7C25.5,5.022,23.864,4.5,23,4.5z"/>
<path style="opacity:0.3;fill:#4D5152;" d="M25.5,6v3H17v1.094c2.832,0.472,5,2.936,5,5.906c0,2.42-1.44,4.51-3.5,5.45l-0.87-0.72  C19.59,20.05,21,18.19,21,16c0-2.419-1.719-4.416-4-4.873V13l-3-2.5L15.8,9H6.5V6H25.5z M17,21.5L14,19v1.565  c-1.759-0.77-3-2.522-3-4.565c0-1.93,1.1-3.61,2.71-4.44l-0.82-0.68C11.16,11.92,10,13.83,10,16c0,2.611,1.679,4.814,4,5.633V23H6.5  v3h19v-3H15.2L17,21.5z"/>
<path style="fill:#4D5152;" d="M23,4H9C6.799,4,6,5.794,6,7v1v16v1c0,2.201,1.794,3,3,3h14c2.201,0,3-1.794,3-3v-1V8V7  C26,4.799,24.206,4,23,4z M23,27c-2,0-14,0-14,0s-2,0-2-2h18C25,25,25,27,23,27z M25,24H14H7c0-3.373,0-12.89,0-16h10h8  C25,11.373,25,20.891,25,24z M7,7c0,0,0-2,2-2s14,0,14,0s2,0,2,2H7z"/>
</svg>
