<?xml version="1.0"?>
<svg xmlns="http://www.w3.org/2000/svg" xmlns:xlink="http://www.w3.org/1999/xlink" version="1.1" id="266247411_icon_grid" x="0px" y="0px" width="32px" height="32px" viewBox="0 0 32 32" style="enable-background:new 0 0 32 32;" xml:space="preserve">
<path id="266247411_shock_x5F_color_grid" class="stshockcolor" style="fill:#BF9171;" d="M28.587,13.5H3.414l0.48,3H3.892l1.267,7.785  C5.294,24.989,5.913,25.5,6.63,25.5h18.74c0.718,0,1.336-0.512,1.471-1.216l1.267-7.784h-0.001L28.587,13.5z"/>
<path style="fill:#E57C5C;" d="M23,8.5c-2.481,0-4.5,2.019-4.5,4.5v0.5H27h0.52L27.5,13C27.5,10.519,25.481,8.5,23,8.5z"/>
<rect x="11.5" y="5.5" style="fill:#67DDE0;" width="7" height="8"/>
<rect x="5.5" y="8.5" style="fill:#AAAAAA;" width="6" height="5"/>
<polygon style="opacity:0.3;fill:#FFFFFF;" points="28.587,13.5 18.5,13.5 18.5,5.293 18,5.293 11.5,11.793 11.5,7.793 5.793,13.5   3.414,13.5 3.894,16.5 6,16.5 6,25 8,25 8,16.5 10,16.5 10,25 12,25 12,16.5 14,16.5 14,25 16,25 16,16.5 18,16.5 18,25 20,25   20,16.5 22,16.5 22,25 24,25 24,16.5 26,16.5 26,25 26.486,25 28,16.5 28.106,16.5 "/>
<path style="fill:#4D5152;" d="M28.77,13.359C28.58,13.13,28.3,13,28,13c0-2.757-2.243-5-5-5c-1.642,0-3.088,0.806-4,2.031V6V5h-1  h-6h-1v1v2H6H5v1v4H4c-0.3,0-0.58,0.13-0.77,0.359c-0.19,0.23-0.27,0.531-0.22,0.83L4.67,24.37c0.18,0.95,1,1.63,1.96,1.63h18.74  c0.96,0,1.78-0.68,1.96-1.63l1.66-10.181C29.04,13.891,28.96,13.59,28.77,13.359z M23,9c2.212,0,4,1.787,4,4h-8  C19,10.787,20.788,9,23,9z M12,6h6v7h-6V9V8V6z M6,9h5v4H6V9z M26.35,24.19C26.26,24.66,25.85,25,25.37,25H6.63  c-0.48,0-0.89-0.34-0.98-0.81L4.48,17h23.04L26.35,24.19z M27.68,16H4.32L4,14h14h1h8h1L27.68,16z"/>
<path style="opacity:0.2;fill:#4D5152;" d="M28,19H4v-4h24V19z M27,21H5v2h22V21z"/>
</svg>
