<?xml version="1.0" encoding="utf-8"?>
<!-- Generator: Adobe Illustrator 16.0.0, SVG Export Plug-In . SVG Version: 6.00 Build 0)  -->
<svg xmlns="http://www.w3.org/2000/svg" xmlns:xlink="http://www.w3.org/1999/xlink" version="1.1" id="2662894181_Capa_1_grid" x="0px" y="0px" width="32px" height="32px" viewBox="0 0 32 32" style="enable-background:new 0 0 32 32;" xml:space="preserve">

<circle id="2662894181_shock_x5F_color_grid" class="stshockcolor" cx="15.5" cy="17.5" r="10" style="fill:#67DDE0;;"/>
<circle class="st2" cx="15.5" cy="17.5" r="7.5" style="opacity:0.4;fill:#FFFFFF;;"/>
<path class="st0" d="M23.27,10.44l0.711-0.72l0.71,0.71l0.71-0.71l-0.71-0.71l-0.7-0.7L23.28,7.6l-0.71,0.71l0.71,0.71l-0.71,0.71  c-1.75-1.58-4.04-2.6-6.57-2.72V6h1V5h-3v1h1v1.01C9.43,7.27,5,11.87,5,17.5C5,23.3,9.7,28,15.5,28S26,23.3,26,17.5  C26,14.78,24.96,12.31,23.27,10.44z M16,26.99V25h-1v1.99c-4.84-0.25-8.74-4.15-8.99-8.99H8v-1H6.01c0.25-4.84,4.15-8.74,8.99-8.99  V10h1V8.01c4.84,0.25,8.74,4.15,8.99,8.99H23v1h1.99C24.74,22.84,20.84,26.74,16,26.99z M16,12h-1v6h4v-1h-3V12z" style="fill:#4D5152;;"/>
</svg>
