<?xml version="1.0" encoding="UTF-8" standalone="no"?>
<svg
   xmlns:dc="http://purl.org/dc/elements/1.1/"
   xmlns:cc="http://creativecommons.org/ns#"
   xmlns:rdf="http://www.w3.org/1999/02/22-rdf-syntax-ns#"
   xmlns:svg="http://www.w3.org/2000/svg"
   xmlns="http://www.w3.org/2000/svg"
   xmlns:sodipodi="http://sodipodi.sourceforge.net/DTD/sodipodi-0.dtd"
   xmlns:inkscape="http://www.inkscape.org/namespaces/inkscape"
   version="1.1"
   id="266148753_Layer_1_grid"
   x="0px"
   y="0px"
   width="32px"
   height="32px"
   viewBox="0 0 32 32"
   style="enable-background:new 0 0 32 32;"
   xml:space="preserve"
   sodipodi:docname="recos.svg"
   inkscape:version="1.0.1 (3bc2e813f5, 2020-09-07)"><metadata
   id="metadata12"><rdf:RDF><cc:Work
       rdf:about=""><dc:format>image/svg+xml</dc:format><dc:type
         rdf:resource="http://purl.org/dc/dcmitype/StillImage" /><dc:title></dc:title></cc:Work></rdf:RDF></metadata><defs
   id="defs10" /><sodipodi:namedview
   pagecolor="#ffffff"
   bordercolor="#666666"
   borderopacity="1"
   objecttolerance="10"
   gridtolerance="10"
   guidetolerance="10"
   inkscape:pageopacity="0"
   inkscape:pageshadow="2"
   inkscape:window-width="1676"
   inkscape:window-height="940"
   id="namedview8"
   showgrid="false"
   inkscape:zoom="18.340582"
   inkscape:cx="18.896877"
   inkscape:cy="16.4152"
   inkscape:window-x="-8"
   inkscape:window-y="17"
   inkscape:window-maximized="0"
   inkscape:current-layer="266148753_Layer_1_grid" />
<path
   id="266148753_shock_x5F_color_grid"
   class="stshockcolor"
   style="fill:#AAAAAA;"
   d="M2.5,21.5v2c0,0.553,0.448,1,1,1h25c0.553,0,1-0.447,1-1v-2H2.5z" />
<path
   style="fill:#67DDE0;"
   d="M29.5,7.5c0-0.552-0.447-1-1-1h-25c-0.552,0-1,0.448-1,1v14h27V7.5z"
   id="path3" />
<path
   style="fill:#4D5152;"
   d="M28.5,6h-25C2.671,6,2,6.672,2,7.5v16C2,24.328,2.671,25,3.5,25H15v2h-5v1h12v-1h-5v-2h11.5  c0.828,0,1.5-0.672,1.5-1.5v-16C30,6.672,29.328,6,28.5,6 M29,23.5c0,0.276-0.224,0.5-0.5,0.5h-25C3.224,24,3,23.776,3,23.5V22h26  V23.5z M29,21H3V7.5C3,7.224,3.224,7,3.5,7h25C28.776,7,29,7.224,29,7.5V21z"
   id="path5" />
<text
   xml:space="preserve"
   style="font-style:normal;font-variant:normal;font-weight:normal;font-stretch:normal;font-size:7.7083px;line-height:1.25;font-family:'Arial Rounded MT Bold';-inkscape-font-specification:'Arial Rounded MT Bold, ';fill:#000000;fill-opacity:1;stroke:none;stroke-width:0.192707"
   x="4.0407305"
   y="16.868948"
   id="text16"><tspan
     sodipodi:role="line"
     id="tspan14"
     x="4.0407305"
     y="16.868948"
     style="font-style:normal;font-variant:normal;font-weight:normal;font-stretch:normal;font-family:'Arial Rounded MT Bold';-inkscape-font-specification:'Arial Rounded MT Bold, ';stroke-width:0.192707">&gt;cmd</tspan></text></svg>
