<?xml version="1.0"?>
<svg xmlns="http://www.w3.org/2000/svg" xmlns:xlink="http://www.w3.org/1999/xlink" version="1.1" id="266247416_icon_grid" x="0px" y="0px" width="32px" height="32px" viewBox="0 0 32 32" style="enable-background:new 0 0 32 32;" xml:space="preserve">
<path id="266247416_shock_x5F_color_grid" class="stshockcolor" style="fill:#AAAAAA;" d="M27.001,5.5H9c-0.906,0-1.48,0.571-1.5,1.489L7.489,7.5H5.5v6  c-0.236,0-0.457,0.04-0.663,0.117C4.037,13.893,3.5,14.65,3.5,15.5c0,0.725,0.39,1.381,1,1.729V20.5h1v4h2V25  c0,0.919,0.561,1.479,1.51,1.5H27c0.919,0,1.479-0.561,1.5-1.51V7C28.5,6.094,27.926,5.52,27.001,5.5z"/>
<path style="opacity:0.6;fill:#4D5152;" d="M23.99,8.5H12c-0.492,0-0.856,0.138-1.061,0.384C10.592,9.246,10.5,9.779,10.5,10.01V22  c0,0.494,0.138,0.859,0.383,1.061c0.362,0.348,0.895,0.439,1.126,0.439H24c0.919,0,1.479-0.561,1.5-1.51V10  C25.5,9.094,24.926,8.52,23.99,8.5z"/>
<rect x="15" y="17.5" style="fill:#E88C77;" width="8" height="6"/>
<path style="fill:#4D5152;" d="M27,5H9C7,5,7,7,7,7H5v6.05c-1.14,0.23-2,1.24-2,2.45c0,0.82,0.39,1.55,1,1.99V21h1v4h2c0,2,2,2,2,2  h1v2h1v-2h14v2h1v-2h1c2,0,2-2,2-2V7C29,5,27,5,27,5z M6,24v-4H5v-3.09c-0.58-0.2-1-0.76-1-1.41c0-0.65,0.42-1.21,1-1.41  C5.16,14.03,5.32,14,5.5,14S6,14,6,14V8h2.59L10,9.41v13.18L8.59,24H6z M28,24.99C27.99,25.45,27.81,26,27,26H9.01  C8.55,25.99,8,25.81,8,25h1l1.56-1.56C11.15,24,12,24,12,24s10,0,12,0s2-2,2-2V10c0-2-2-2-2-2H12c-0.7,0-1.15,0.24-1.44,0.56L9,7H8  c0.01-0.46,0.2-1,1-1h17.99C27.45,6.01,28,6.2,28,7V24.99z M11,22V10.01c0-0.13,0.06-0.53,0.3-0.78C11.35,9.17,11.51,9,12,9h11.99  C24.45,9.01,25,9.2,25,10v11.99C24.99,22.45,24.81,23,24,23H12.01c-0.13,0-0.53-0.06-0.78-0.3C11.17,22.65,11,22.49,11,22z M23,21  h-8v-1h8V21z M23,18h-8v-1h8V18z"/>
</svg>
