<?xml version="1.0" encoding="utf-8"?>
<!-- Generator: Adobe Illustrator 16.0.0, SVG Export Plug-In . SVG Version: 6.00 Build 0)  -->
<svg xmlns="http://www.w3.org/2000/svg" xmlns:xlink="http://www.w3.org/1999/xlink" version="1.1" id="Capa_1" x="0px" y="0px" width="32px" height="32px" viewBox="0 0 32 32" style="enable-background:new 0 0 32 32;" xml:space="preserve">

<rect id="2663392876_shock_x5F_color_grid" x="3.5" y="8.5" class="stshockcolor" width="24" height="16" style="fill:#AAAAAA;;"/>
<path class="st3" d="M3.5,24.5v-16h4v16H3.5z M27.5,24.5v-16h-4v16H27.5z" style="opacity:0.4;fill:#4D5152;;"/>
<circle class="st2" cx="12.5" cy="13.5" r="2" style="opacity:0.8;fill:#FFFFFF;;"/>
<path class="st4" d="M18.5,16.5l-5.003,3.999L10.5,18.501l-3,1.99V8.5h16v12L18.5,16.5z M12.5,11.5c-1.103,0-2,0.897-2,2  s0.897,2,2,2s2-0.897,2-2S13.603,11.5,12.5,11.5z" style="opacity:0.4;fill:#FFFFFF;;"/>
<path class="st1" d="M12.5,11c-1.38,0-2.5,1.12-2.5,2.5s1.12,2.5,2.5,2.5s2.5-1.12,2.5-2.5S13.88,11,12.5,11z M12.5,15  c-0.83,0-1.5-0.67-1.5-1.5s0.67-1.5,1.5-1.5s1.5,0.67,1.5,1.5S13.33,15,12.5,15z M12.5,11c-1.38,0-2.5,1.12-2.5,2.5  s1.12,2.5,2.5,2.5s2.5-1.12,2.5-2.5S13.88,11,12.5,11z M12.5,15c-0.83,0-1.5-0.67-1.5-1.5s0.67-1.5,1.5-1.5s1.5,0.67,1.5,1.5  S13.33,15,12.5,15z M3,8v17h25V8H3z M7,24H4v-3h3V24z M7,20H4v-3h3V20z M7,16H4v-3h3V16z M7,12H4V9h3V12z M23,24H8v-3.23l2.5-1.67  l3.03,2.021l4.97-3.98L23,20.74V24z M23,19.46l-4.5-3.6l-5.03,4.02L10.5,17.9L8,19.56V9h15V19.46z M27,24h-3v-3h3V24z M27,20h-3v-3  h3V20z M27,16h-3v-3h3V16z M27,12h-3V9h3V12z M12.5,16c1.38,0,2.5-1.12,2.5-2.5S13.88,11,12.5,11S10,12.12,10,13.5S11.12,16,12.5,16  z M12.5,12c0.83,0,1.5,0.67,1.5,1.5S13.33,15,12.5,15S11,14.33,11,13.5S11.67,12,12.5,12z" style="fill:#4D5152;;"/>
</svg>
