<?xml version="1.0"?>
<svg xmlns="http://www.w3.org/2000/svg" xmlns:xlink="http://www.w3.org/1999/xlink" version="1.1" id="266247421_icon_grid" x="0px" y="0px" width="32px" height="32px" viewBox="0 0 32 32" style="enable-background:new 0 0 32 32;" xml:space="preserve">
<rect id="266247421_shock_x5F_color_grid" class="stshockcolor" x="3.5" y="9.5" style="fill:#67DDE0;" width="24" height="14"/>
<rect x="5" y="11.5" style="opacity:0.3;fill:#4D5152;" width="21" height="10"/>
<path style="fill-rule:evenodd;clip-rule:evenodd;fill:#4D5152;" d="M27,8v1H4V8H3v16h25V8H27z M27,23H4V10h23V23z M26,21h-2v-9h2  v-1H5v1h2v9H5v1h21V21z M11,21H8v-9h3V21z M15,21h-3v-9h3V21z M19,21h-3v-9h3V21z M23,21h-3v-9h3V21z"/>
</svg>
