<?xml version="1.0"?>
<svg xmlns="http://www.w3.org/2000/svg" xmlns:xlink="http://www.w3.org/1999/xlink" version="1.1" id="266247424_icon_grid" x="0px" y="0px" width="32px" height="32px" viewBox="0 0 32 32" style="enable-background:new 0 0 32 32;" xml:space="preserve">
<rect id="266247424_shock_x5F_color_grid" class="stshockcolor" x="3.554" y="10.544" style="fill:#FFE4A9;" width="24.946" height="15.956"/>
<path style="opacity:0.2;fill:#4D5152;" d="M28.5,10.544v15.962l-7.987-7.987L28.5,10.544z"/>
<path style="opacity:0.2;fill:#4D5152;" d="M11.5,18.52l-7.987,7.987V10.544L11.5,18.52z"/>
<polygon id="266247424__x3C_Trazado_compuesto_x3E__grid" style="opacity:0.3;fill:#FFFFFF;" points="22.5,10.5 3.543,10.5 16,22.957 28.457,10.5   "/>
<path style="fill:#4D5152;" d="M23,10V6.971l1.48,1.479l0.71-0.71l-2.7-2.68L19.81,7.74l0.7,0.699L22,6.98V10H10V6.971l1.48,1.479  l0.71-0.71l-2.7-2.68L6.81,7.74l0.7,0.699L9,6.98V10H3v17h26V10H23z M9,11v2h1v-2h12v2h1v-2h4.25L16,22.25L4.75,11H9z M4,11.75  l6.77,6.77L4,25.29V11.75z M4,26v-0.03L4.03,26H4z M4.77,26l6.74-6.74L16,23.75l4.49-4.49L27.23,26H4.77z M28,26h-0.03L28,25.97V26z   M28,25.29l-6.77-6.771L28,11.75V25.29z"/>
</svg>
