<?xml version="1.0"?>
<svg xmlns="http://www.w3.org/2000/svg" xmlns:xlink="http://www.w3.org/1999/xlink" version="1.1" id="266247428_Outlined_2__grid" x="0px" y="0px" width="32px" height="32px" viewBox="0 0 32 32" style="enable-background:new 0 0 32 32;" xml:space="preserve">
<polygon id="266247428_shock_x5F_color_grid" class="stshockcolor" style="fill:#AAAAAA;" points="5.709,7.5 8.816,20.702 26.045,18.169 27.568,7.5 "/>
<path style="opacity:0.2;fill:#4D5152;" d="M27.211,10l-0.285,2H6.768l-0.47-2H27.211z M8.18,18l0.471,2h4.94l12.454-1.831  L26.069,18H8.18z M7.239,14l0.471,2h18.645l0.286-2H7.239z"/>
<path style="fill:#4D5152;" d="M25.002,26.497c0,0.83-0.672,1.502-1.502,1.502c-0.829,0-1.502-0.672-1.502-1.502  c0-0.829,0.673-1.502,1.502-1.502C24.33,24.995,25.002,25.668,25.002,26.497z M8.5,24.995c-0.83,0-1.502,0.673-1.502,1.502  c0,0.83,0.673,1.502,1.502,1.502s1.502-0.672,1.502-1.502C10.002,25.668,9.33,24.995,8.5,24.995z M27.997,8.142l-1.39,9.728  c-0.063,0.439-0.406,0.784-0.844,0.849L9.005,21.182L8.136,23H25v1H8.141c-0.347,0-0.673-0.18-0.855-0.475  c-0.183-0.295-0.199-0.663-0.044-0.973l1.002-2.099L4.608,5H1.992V4h2.616c0.464,0,0.867,0.319,0.973,0.771L6.105,7h20.902  c0.29,0,0.565,0.126,0.755,0.345C27.953,7.563,28.038,7.854,27.997,8.142z M26.992,8H6.341l2.856,12.141l16.405-2.412L26.992,8z"/>
</svg>
