<?xml version="1.0"?>
<svg xmlns="http://www.w3.org/2000/svg" xmlns:xlink="http://www.w3.org/1999/xlink" version="1.1" id="266148778_Layer_1_grid" x="0px" y="0px" width="32px" height="32px" viewBox="0 0 32 32" style="enable-background:new 0 0 32 32;" xml:space="preserve">
<path id="266148778_shock_x5F_color_grid" class="stshockcolor" style="fill:#67DDE0;" d="M26.5,16c0,2.62-1.27,4.83-3,5.54V10.46C25.23,11.17,26.5,13.38,26.5,16z"/>
<path style="fill:#AAAAAA;" d="M23.5,4v24c0,0.2-0.12,0.38-0.31,0.46C23.13,28.49,23.06,28.5,23,28.5c-0.13,0-0.26-0.05-0.35-0.15  L21,26.77l-5.5-5.27h-10v-11h10L21,5.23l1.65-1.58C22.74,3.55,22.87,3.5,23,3.5c0.06,0,0.13,0.01,0.19,0.04  C23.38,3.62,23.5,3.8,23.5,4z"/>
<polygon style="opacity:0.4;fill:#FFFFFF;" points="21,5.23 21,26.77 15.5,21.5 15.5,10.5 "/>
<path style="fill:#4D5152;" d="M24,10.04V4c0-0.4-0.24-0.77-0.62-0.92C23.26,3.02,23.13,3,23,3c-0.26,0-0.52,0.1-0.71,0.29  l-6.82,6.83C15.33,10.04,15.17,10,15,10H6c-0.55,0-1,0.45-1,1v10c0,0.55,0.45,1,1,1h9c0.17,0,0.33-0.04,0.47-0.12l6.82,6.83  C22.48,28.9,22.74,29,23,29c0.13,0,0.26-0.02,0.38-0.08C23.76,28.77,24,28.41,24,28v-6.03c1.77-1.01,3-3.3,3-5.97  C27,13.34,25.77,11.05,24,10.04z M15,21H6V11h9V21z M23,28l-7-7V11l7-7V28z M24,20.76v-9.51c1.19,0.96,1.99,2.73,1.99,4.76  C25.99,18.04,25.19,19.81,24,20.76z"/>
</svg>
