<?xml version="1.0" encoding="utf-8"?>
<!-- Generator: Adobe Illustrator 16.0.0, SVG Export Plug-In . SVG Version: 6.00 Build 0)  -->
<svg xmlns="http://www.w3.org/2000/svg" xmlns:xlink="http://www.w3.org/1999/xlink" version="1.1" id="266185657_Capa_1_grid" x="0px" y="0px" width="32px" height="32px" viewBox="0 0 32 32" style="enable-background:new 0 0 32 32;" xml:space="preserve">

<circle id="266185657_shock_x5F_color_grid" class="stshockcolor" cx="16" cy="16" r="12.5" style="fill:#67DDE0;;"/>
<circle class="st2" cx="16" cy="16" r="4" style="opacity:0.4;fill:#FFFFFF;;"/>
<path class="st0" d="M18.24,8.49l-3.67,3.69l-0.71-0.71l2.45-2.45C16.2,9.01,16.1,9,16,9c-3.87,0-7,3.13-7,7  c0,1.93,0.78,3.68,2.05,4.95l-0.71,0.71C8.9,20.21,8,18.21,8,16c0-4.42,3.58-8,8-8c0.12,0,0.23,0.01,0.35,0.02l-2.5-2.5l0.71-0.71  L18.24,8.49z M16.34,8.01C16.23,8,16.11,8,16,8c0.12,0,0.23,0.01,0.35,0.02L16.34,8.01z M28.99,16c0,7.18-5.811,12.99-12.99,12.99  C8.82,28.99,3,23.18,3,16C3,8.82,8.82,3.01,16,3.01C23.18,3.01,28.99,8.82,28.99,16z M28,16c0-3.31-1.34-6.31-3.52-8.48L24.5,7.5  h-0.03C22.3,5.34,19.31,4,16,4C9.37,4,4,9.37,4,16s5.37,12,12,12S28,22.63,28,16z M24,16c0-0.13,0-0.27-0.01-0.41  c-0.101-2.04-0.98-3.88-2.32-5.24l-0.71,0.71c1.15,1.16,1.9,2.7,2.01,4.43C22.99,15.66,23,15.83,23,16c0,3.87-3.13,7-7,7  c-0.1,0-0.2-0.01-0.31-0.02l2.45-2.45l-0.71-0.71l-3.67,3.689l3.681,3.681l0.71-0.71l-2.5-2.5C15.77,23.99,15.88,24,16,24  C20.42,24,24,20.42,24,16z" style="fill:#4D5152;;"/>
</svg>
