<?xml version="1.0"?>
<svg xmlns="http://www.w3.org/2000/svg" xmlns:xlink="http://www.w3.org/1999/xlink" version="1.1" id="266148788_Layer_1_grid" x="0px" y="0px" width="32px" height="32px" viewBox="0 0 32 32" style="enable-background:new 0 0 32 32;" xml:space="preserve">
<path id="266148788_shock_x5F_color_grid" class="stshockcolor" style="fill:#75EA9C;" d="M26.5,6.5v2h-1.079l-1.426,19H7.005l-1.411-19H4.5v-2H26.5z"/>
<rect x="4.5" y="6.5" style="opacity:0.4;fill:#FFFFFF;" width="22" height="2"/>
<path style="fill:#4D5152;" d="M21,25h-1V11h1V25z M16,11h-1v14h1V11z M27,9h-1.079l-1.424,18.083C24.453,27.602,24.02,28,23.5,28  h-16c-0.52,0-0.953-0.398-0.997-0.917L5.079,9H4V6h6V4.5C10,3.672,10.671,3,11.5,3h8C20.328,3,21,3.672,21,4.5V6h6V9z M11,6h9V4.5  C20,4.224,19.776,4,19.5,4h-8C11.224,4,11,4.224,11,4.5V6z M24.906,9H6.094L7.5,27h16L24.906,9z M26,7H5l0,1h21V7z M11,11h-1v14h1  V11z"/>
</svg>
