<?xml version="1.0" encoding="utf-8"?>
<!-- Generator: Adobe Illustrator 16.0.0, SVG Export Plug-In . SVG Version: 6.00 Build 0)  -->
<svg xmlns="http://www.w3.org/2000/svg" xmlns:xlink="http://www.w3.org/1999/xlink" version="1.1" id="266185661_Capa_1_grid" x="0px" y="0px" width="32px" height="32px" viewBox="0 0 32 32" style="enable-background:new 0 0 32 32;" xml:space="preserve">

<path id="266185661_shock_x5F_color_grid" class="stshockcolor" d="M21.5,29.5v-7h7v7H21.5z M19.5,29.5v-7h-7v7H19.5z M10.5,29.5v-7h-7v7H10.5z M28.5,20.5  v-7h-7v7H28.5z M19.5,20.5v-7h-7v7H19.5z M10.5,20.5v-7h-7v7H10.5z M28.5,11.5v-7h-7v7H28.5z M19.5,11.5v-7h-7v7H19.5z M10.5,11.5  v-7h-7v7H10.5z" style="fill:#FF61E1;;"/>
<path class="st2" d="M21.5,29.5v-7h7v7H21.5z M19.5,29.5v-7h-7v7H19.5z M10.5,29.5v-7h-7v7H10.5z M28.5,11.5v-7h-7v7H28.5z" style="opacity:0.2;fill:#FFFFFF;;"/>
<rect x="12.5" y="13.5" class="st0" width="7" height="7" style="opacity:0.3;fill:#FFFFFF;;"/>
<path class="st1" d="M21,22v8h8v-8H21z M28,29h-6v-6h6V29z M12,22v8h8v-8H12z M19,29h-6v-6h6V29z M3,22v8h8v-8H3z M10,29H4v-6h6V29z   M21,13v8h8v-8H21z M28,20h-6v-6h6V20z M12,13v8h8v-8H12z M19,20h-6v-6h6V20z M3,13v8h8v-8H3z M10,20H4v-6h6V20z M21,4v8h8V4H21z   M28,11h-6V5h6V11z M12,4v8h8V4H12z M19,11h-6V5h6V11z M3,4v8h8V4H3z M10,11H4V5h6V11z" style="fill:#4D5152;;"/>
</svg>
