<?xml version="1.0" encoding="utf-8"?>
<!-- Generator: Adobe Illustrator 16.0.0, SVG Export Plug-In . SVG Version: 6.00 Build 0)  -->
<svg xmlns="http://www.w3.org/2000/svg" xmlns:xlink="http://www.w3.org/1999/xlink" version="1.1" id="266185658_Capa_1_grid" x="0px" y="0px" width="32px" height="32px" viewBox="0 0 32 32" style="enable-background:new 0 0 32 32;" xml:space="preserve">

<path id="266185658_shock_x5F_color_grid" class="stshockcolor" d="M3.5,28.5v-11h11v11H3.5z M27.5,15.5v-11h-11v11H27.5z M27.5,28.5v-11h-11v11H27.5z   M14.5,15.5v-11h-11v11H14.5z" style="fill:#FF61E1;;"/>
<path class="st1" d="M16.5,28.5v-11h11v11H16.5z M14.5,15.5v-11h-11v11H14.5z" style="opacity:0.2;fill:#FFFFFF;;"/>
<path class="st0" d="M3,4v12h12V4H3z M14,15H4V5h10V15z M16,4v12h12V4H16z M27,15H17V5h10V15z M3,17v12h12V17H3z M14,28H4V18h10V28z   M16,17v12h12V17H16z M27,28H17V18h10V28z" style="fill:#4D5152;;"/>
</svg>
