<?xml version="1.0" encoding="utf-8"?>
<!-- Generator: Adobe Illustrator 16.0.0, SVG Export Plug-In . SVG Version: 6.00 Build 0)  -->
<svg xmlns="http://www.w3.org/2000/svg" xmlns:xlink="http://www.w3.org/1999/xlink" version="1.1" id="266185660_Capa_1_grid" x="0px" y="0px" width="32px" height="32px" viewBox="0 0 32 32" style="enable-background:new 0 0 32 32;" xml:space="preserve">

<path id="266185660_shock_x5F_color_grid" class="stshockcolor" d="M3.5,29.5v-5h5v5H3.5z M8.5,22.5v-5h-5v5H8.5z M8.5,15.5v-5h-5v5H8.5z M8.5,8.5v-5h-5v5  H8.5z" style="fill:#FF61E1;;"/>
<path class="st1" d="M3.5,29.5v-5h5v5H3.5z M8.5,15.5v-5h-5v5H8.5z" style="opacity:0.2;fill:#FFFFFF;;"/>
<path class="st0" d="M3,3v6h6V3H3z M8,8H4V4h4V8z M3,10v6h6v-6H3z M8,15H4v-4h4V15z M3,17v6h6v-6H3z M8,22H4v-4h4V22z M3,24v6h6v-6  H3z M8,29H4v-4h4V29z M11,8v1h19V8H11z M11,15v1h19v-1H11z M11,22v1h19v-1H11z M11,29v1h19v-1H11z" style="fill:#4D5152;;"/>
</svg>
