<?xml version="1.0"?>
<svg xmlns="http://www.w3.org/2000/svg" xmlns:xlink="http://www.w3.org/1999/xlink" version="1.1" id="266247437_icon_grid" x="0px" y="0px" width="32px" height="32px" viewBox="0 0 32 32" style="enable-background:new 0 0 32 32;" xml:space="preserve">
<path id="266247437_shock_x5F_color_grid" class="stshockcolor" style="fill:#FFD878;" d="M12.461,6.216c-0.203-0.705-0.481-1.121-0.93-1.393l0,0  C11.162,4.6,10.64,4.48,9.912,4.5H3.488l2.744,0.971C6.667,5.625,7.087,5.804,7.48,6.002c1.566,0.792,3.198,2.193,4.849,4.164  c0.132,0.158,0.255,0.311,0.376,0.462l1.539,1.924L12.461,6.216z"/>
<path style="fill:#FFFFFF;" d="M22.302,4.5l-5.967,15.483l-1.973-7.01l-0.16-0.289c-0.091-0.14-0.227-0.343-0.401-0.593  c-0.317-0.455-0.831-1.157-1.472-1.925c-0.844-1.012-2.174-2.439-3.719-3.489L7.446,5.887L13.932,27.5h4.089l9.199-23H22.302z"/>
<path style="fill:#4D5152;" d="M21.959,4l-5.55,14.4L12.943,6.083c-0.217-0.792-0.605-1.369-1.163-1.694  C11.227,4.066,10.598,4.002,9.912,4H3.207l0.405,1.286l0.244,0.08c0.14,0.043,0.272,0.065,0.481,0.108  c0.575,0.117,1.601,0.353,2.729,0.89L13.56,28h4.8l9.599-24H21.959z M11.272,5.251c0.29,0.175,0.522,0.457,0.708,1.103l1.115,3.962  c-0.123-0.154-0.249-0.309-0.382-0.47c-1.268-1.514-3.012-3.281-5.007-4.291C7.249,5.326,6.809,5.145,6.399,5h3.513  C10.535,4.998,10.979,5.074,11.272,5.251z M17.682,27h-3.378L8.33,7.092c1.377,0.936,2.646,2.232,3.616,3.396  c0.61,0.729,1.105,1.402,1.446,1.891c0.17,0.244,0.303,0.442,0.392,0.579c0.044,0.067,0.076,0.117,0.098,0.151l2.38,8.458L22.645,5  h3.837L17.682,27z"/>
</svg>
