<?xml version="1.0"?>
<svg xmlns="http://www.w3.org/2000/svg" xmlns:xlink="http://www.w3.org/1999/xlink" version="1.1" id="266148796_Layer_1_grid" x="0px" y="0px" width="32px" height="32px" viewBox="0 0 32 32" style="enable-background:new 0 0 32 32;" xml:space="preserve">
<path id="266148796_shock_x5F_color_grid" class="stshockcolor" style="fill:#67DDE0;" d="M24.5,13.5c0,4.971-4.029,9-9,9s-9-4.029-9-9s4.029-9,9-9S24.5,8.529,24.5,13.5  z M23.554,28.5c-1.474-2.961-4.521-5-8.054-5c-3.532,0-6.58,2.039-8.054,5H23.554z"/>
<circle style="opacity:0.4;fill:#FFFFFF;" cx="15.5" cy="13.5" r="9"/>
<circle style="fill:#FF80ED;" cx="15.5" cy="13.5" r="5"/>
<path style="fill:#4D5152;" d="M25,13.5C25,8.253,20.747,4,15.5,4S6,8.253,6,13.5s4.253,9.5,9.5,9.5S25,18.747,25,13.5 M15.5,22  C10.806,22,7,18.194,7,13.5C7,8.806,10.806,5,15.5,5c4.694,0,8.5,3.806,8.5,8.5C24,18.194,20.194,22,15.5,22 M15.5,23  c-4.009,0-7.432,2.487-8.826,6h17.652C22.932,25.487,19.51,23,15.5,23 M8.32,27.966C9.826,25.585,12.475,24,15.5,24  c3.039,0,5.696,1.6,7.197,3.998L8.32,27.966z M15.5,8c-3.038,0-5.5,2.463-5.5,5.5s2.462,5.5,5.5,5.5c3.037,0,5.5-2.463,5.5-5.5  S18.537,8,15.5,8 M15.5,18c-2.485,0-4.5-2.015-4.5-4.5S13.015,9,15.5,9c2.485,0,4.5,2.015,4.5,4.5S17.985,18,15.5,18"/>
</svg>
