<?xml version="1.0"?>
<svg xmlns="http://www.w3.org/2000/svg" xmlns:xlink="http://www.w3.org/1999/xlink" version="1.1" id="266247442_icon_grid" x="0px" y="0px" width="32px" height="32px" viewBox="0 0 32 32" style="enable-background:new 0 0 32 32;" xml:space="preserve">
<path id="266247442_shock_x5F_color_grid" class="stshockcolor" style="fill:#BFBFBF;" d="M9.5,11.063v13.875c0,0.863,0.7,1.563,1.563,1.563h8.875  c0.863,0,1.563-0.699,1.563-1.563V11.063c0-0.863-0.699-1.563-1.563-1.563h-8.875C10.2,9.5,9.5,10.2,9.5,11.063z"/>
<path style="opacity:0.3;fill:#4D5152;" d="M11.063,26.5h8.875c0.863,0,1.563-0.699,1.563-1.563V11.063L11.063,26.5z"/>
<path style="fill:#4D5152;" d="M20,9h-4V6.95c1.14-0.23,2-1.24,2-2.45C18,3.12,16.88,2,15.5,2S13,3.12,13,4.5  c0,1.21,0.86,2.22,2,2.45V9h-4c0,0-2,0-2,2v14c0,0,0,2,2,2h9c2,0,2-2,2-2V11C22,9,20,9,20,9z M14,4.5C14,3.67,14.67,3,15.5,3  S17,3.67,17,4.5S16.33,6,15.5,6S14,5.33,14,4.5z M21,24.988C20.988,25.45,20.806,26,20,26h-9c-0.805,0-0.988-0.55-1-1V11  c0-0.805,0.55-0.988,1-1h8.992C20.453,10.013,21,10.197,21,11V24.988z M17,14.5c-0.41-0.31-0.94-0.5-1.5-0.5  c-1.38,0-2.5,1.12-2.5,2.5s1.12,2.5,2.5,2.5c0.56,0,1.09-0.19,1.5-0.5v1c0,0.25-0.09,1.5-1.5,1.5S14,19.75,14,19.5h-1  c0,0.86,0.52,2.5,2.5,2.5s2.5-1.64,2.5-2.5V14h-1V14.5z M15.5,18c-0.83,0-1.5-0.67-1.5-1.5s0.67-1.5,1.5-1.5s1.5,0.67,1.5,1.5  S16.33,18,15.5,18z"/>
</svg>
